<?xml version="1.0" encoding="utf-8"?>
<!-- Generator: Adobe Illustrator 25.2.1, SVG Export Plug-In . SVG Version: 6.00 Build 0)  -->
<svg version="1.1" id="Layer_1" xmlns="http://www.w3.org/2000/svg" xmlns:xlink="http://www.w3.org/1999/xlink" x="0px" y="0px"
	 viewBox="0 0 124.44 144" style="enable-background:new 0 0 124.44 144;" xml:space="preserve">
<style type="text/css">
	.st0{fill:#2196F3;}
	.st1{fill:#F44336;}
	.st2{fill:none;}
	.st3{fill:#FFFFFF;}
	.st4{font-family:'MyriadPro-Regular';}
	.st5{font-size:23px;}
	.st6{display:none;}
	.st7{display:inline;}
	.st8{fill:#673AB7;}
	.st9{fill:#FFEB3B;}
	.st10{stroke:#231F20;stroke-miterlimit:10;}
	.st11{fill:#FFEB3B;stroke:#231F20;stroke-width:0.25;stroke-miterlimit:10;}
</style>
<g id="XMLID_27_">
	<polygon class="st0" points="2.5,106.56 2.5,37.44 62.22,2.89 121.94,37.44 121.94,106.56 62.22,141.11 	"/>
	<g>
		<path class="st1" d="M62.22,5.78l57.22,33.11v66.23l-57.22,33.11L5,105.12V38.88L62.22,5.78 M62.22,0L0,36v72l62.22,36l62.22-36
			V36L62.22,0L62.22,0z"/>
	</g>
</g>
<rect x="0" y="38.3" class="st2" width="124.44" height="31.67"/>
<text transform="matrix(1 0 0 1 7.5957 54.6268)" class="st3 st4 st5">parameters</text>
<g id="original" class="st6">
	<path class="st7" d="M80.26,113.55c-0.29-0.91-0.59-1.83-0.88-2.74c-0.02,0-0.04,0-0.06-0.01c-0.07,0.24-0.14,0.48-0.2,0.72
		c-0.68,2.64-1.93,4.99-3.48,7.19c-1.64,2.34-3.65,4.35-5.8,6.22c-0.47,0.4-0.92,0.83-1.38,1.23c-0.13,0.12-0.28,0.22-0.41,0.33
		c-0.02-0.02-0.04-0.04-0.07-0.06c0.25-0.58,0.5-1.17,0.75-1.76c0.24-0.59,0.43-1.2,0.4-1.97c-0.33,0.3-0.61,0.55-0.89,0.81
		c-2.79,2.55-5.73,4.9-9.11,6.68c-1,0.53-2.06,0.93-3.18,1.19c-0.16,0.04-0.32,0.06-0.53,0.1c0.5-0.97,0.98-1.9,1.46-2.82
		c-0.02-0.03-0.05-0.06-0.07-0.09c-4.24,1.96-8.28,1.46-12.18-1.53c0.31-0.26,0.58-0.5,0.87-0.71c0.28-0.21,0.58-0.4,0.93-0.64
		c-0.23-0.07-0.4-0.13-0.58-0.17c-1.1-0.23-2.03-0.82-2.94-1.46c-1.37-0.97-2.48-2.21-3.64-3.4c-0.61-0.63-1.19-1.28-1.78-1.92
		c-0.06-0.06-0.1-0.13-0.2-0.25c0.22,0,0.38,0,0.54,0c0.62,0,0.93-0.25,1.06-0.85c0.19-0.89-0.03-1.73-0.53-2.51
		c-1.23-1.92-2.89-3.33-4.99-4.22c-0.69-0.29-1.39-0.43-2.12-0.26c-0.82,0.19-1.11,0.65-0.93,1.49c0.02,0.09,0.03,0.18,0.05,0.36
		c-0.38-0.26-0.7-0.47-1-0.7c-1.39-1.07-2.79-2.14-4.17-3.22c-1.31-1.02-2.26-2.3-2.91-3.81c-0.05-0.13-0.12-0.25-0.2-0.43
		c-0.35,0.67-0.68,1.3-1.03,1.98c-3.54-3.54-4.56-7.6-3.33-12.21c-1.02,0.49-1.72,1.28-2.62,1.94c0-0.19,0-0.29,0-0.39
		c0.1-2.01,0.65-3.89,1.39-5.72c1.14-2.81,2.6-5.43,4.33-7.9c0.25-0.36,0.49-0.72,0.74-1.07c0.03-0.05,0.06-0.11,0.06-0.25
		c-0.31,0.08-0.65,0.12-0.94,0.25c-0.61,0.29-1.19,0.63-1.78,0.93c-0.24,0.12-0.49,0.22-0.74,0.34c-0.02-0.02-0.04-0.04-0.06-0.06
		c0.19-0.32,0.37-0.64,0.56-0.95c1.12-1.8,2.37-3.51,3.79-5.08c2.38-2.63,5.09-4.82,8.45-6.16c0.39-0.15,0.79-0.29,1.18-0.44
		c0.1-0.04,0.2-0.08,0.3-0.2c-0.97-0.22-1.95-0.43-2.92-0.65c-0.01-0.03-0.02-0.06-0.03-0.08c0.69-0.47,1.36-0.97,2.07-1.42
		c1.87-1.17,3.89-2.02,6.12-2.32c1.82-0.25,3.4-0.96,4.93-1.87c2.68-1.6,5.56-2.71,8.75-3.02c0.01,0,0.02,0.01,0.1,0.04
		c-0.15,0.15-0.28,0.29-0.42,0.42c-1.71,1.54-3.09,3.32-4.05,5.43c-0.12,0.26-0.17,0.5,0.04,0.75c0.69-0.17,1.38-0.39,2.09-0.51
		c0.88-0.14,1.79-0.18,2.68-0.28c0.21-0.02,0.45-0.09,0.62-0.21c0.99-0.72,2.08-1.25,3.23-1.7c0.57-0.23,1.07-0.61,1.58-0.95
		c2.5-1.63,5.12-3.03,8.02-3.9c0.89-0.27,1.81-0.45,2.72-0.67c0.08-0.02,0.16-0.01,0.33-0.03c-0.46,0.43-0.86,0.81-1.27,1.18
		c-1.8,1.66-3.32,3.56-4.53,5.7c-0.19,0.33-0.39,0.66-0.58,1c-0.13,0.23-0.09,0.86,0.09,1.06c0.05,0.05,0.14,0.08,0.22,0.08
		c1.53,0.2,3,0.64,4.39,1.37c0.23,0.12,0.45,0.11,0.69,0.02c0.45-0.16,0.93-0.26,1.38-0.42c0.5-0.19,1.02-0.37,1.48-0.64
		c2.46-1.44,5.01-2.71,7.82-3.42c1.41-0.36,2.87-0.55,4.31-0.81c0.07-0.01,0.14,0,0.28,0.01c-0.41,0.36-0.77,0.68-1.14,1
		c-2.13,1.86-3.85,4.06-5.15,6.58c-0.27,0.53-0.59,1.04-0.83,1.59c-0.39,0.88-0.46,1.78,0.15,2.66c1.11,1.59,1.74,3.35,2.08,5.21
		c0.13,0.69,0.53,0.86,1.09,0.46c2.42-1.78,4.55-3.83,6.22-6.33c0.19-0.29,0.42-0.56,0.71-0.81c0,0.11,0,0.21-0.01,0.32
		c-0.13,2.87-0.84,5.59-1.89,8.21c-0.47,1.17-1.04,2.29-1.54,3.44c-0.23,0.53-0.44,1.07-0.58,1.63c-0.3,1.2-0.77,2.32-1.43,3.35
		c-0.16,0.25-0.23,0.5-0.2,0.81c0.14,1.28,0.04,2.54-0.19,3.79c-0.02,0.11-0.04,0.22-0.06,0.34c0.28,0.16,0.53,0.12,0.77-0.02
		c0.98-0.59,1.89-1.29,2.72-2.08c0.93-0.88,1.73-1.86,2.46-2.91c0.07-0.1,0.15-0.18,0.3-0.24c-0.01,0.5-0.01,1-0.04,1.51
		c-0.13,2.79-0.88,5.39-2,7.88c-0.43,0.96-0.57,2.02-0.51,3.07c0.2,3.52-0.66,6.7-2.45,9.62c-0.21,0.34-0.41,0.68-0.61,1.02
		C80.32,113.57,80.29,113.56,80.26,113.55z M63.15,97.94c0-0.14,0-0.24,0-0.34c-0.08-1.25-0.16-2.51-0.25-3.76
		c-0.18-2.63-0.85-5.13-2.42-7.39c-0.35-0.5-0.7-0.99-1.23-1.32c-1.56-0.97-3.25-1.55-5.04-1.74c-1.84-0.2-3.66-0.02-5.48,0.1
		c-1.83,0.12-3.66,0.2-5.49-0.17c-1.65-0.34-3.29-0.79-4.93-1.22c-1.94-0.51-3.87-1.02-5.86-1.14c-3.07-0.17-5.62,0.8-7.61,3.02
		c-0.62,0.69-1.21,1.41-1.73,2.18c-0.46,0.69-0.8,1.46-1.22,2.25c0.18,0,0.26,0,0.34,0.01c1.32,0.06,2.65,0.12,3.97,0.2
		c0.25,0.02,0.5,0.13,0.74,0.19c0,0.04-0.01,0.07-0.01,0.11c-0.96,0.16-1.91,0.31-2.87,0.47c0.11,0.09,0.21,0.11,0.32,0.13
		c1.45,0.3,2.9,0.59,4.35,0.89c0.25,0.05,0.49,0.13,0.7,0.41c-2.7,0.03-5.34,0.06-7.99,0.08c-0.18,2.06-0.12,4.1,0.37,6.14
		c0.73,3.01,2.44,5.33,5.16,6.93c1.4,0.83,2.9,1.45,4.4,2.04c2.28,0.9,4.57,1.78,6.71,3c0.27,0.15,0.53,0.37,0.71,0.61
		c0.47,0.64,0.92,1.3,1.32,1.98c1.28,2.24,2.54,4.49,3.8,6.73c0.94,1.67,2.19,3.07,3.83,4.11c2.37,1.5,4.95,1.95,7.63,1.87
		c0.2-0.01,0.28-0.08,0.32-0.27c0.14-0.82,0.29-1.63,0.45-2.44c0.06-0.3,0.15-0.6,0.23-0.9c0.44,1.16,0.27,2.33,0.33,3.52
		c0.19-0.03,0.35-0.06,0.52-0.08c0.47-0.06,0.49-0.07,0.52-0.54c0.12-1.59,0.23-3.18,0.35-4.78c0.02-0.25,0.07-0.51,0.11-0.76
		c0.03,0,0.07,0.01,0.1,0.01c0.63,1.86,0.57,3.78,0.75,5.69c0.09-0.02,0.14-0.02,0.18-0.04c0.3-0.1,0.6-0.2,0.9-0.31
		c1.87-0.73,3.37-1.94,4.55-3.52c0.53-0.71,1.09-1.41,1.52-2.19c1.11-2.03,1.22-4.26,0.76-6.57c-0.35-1.76-1.01-3.44-1.67-5.12
		c-0.69-1.76-1.43-3.51-1.72-5.39c-0.08-0.53-0.42-0.91-0.89-1.17c-1.31-0.7-2.61-1.4-3.92-2.1c-0.46-0.25-0.91-0.51-1.28-0.97
		C59.39,96.93,61.25,97.43,63.15,97.94z M61.36,75.89c0.44-0.01,0.85-0.03,1.26-0.03c0.42,0,0.84-0.02,1.25,0.05
		c0.39,0.07,0.77,0.24,1.16,0.36c-0.01,0.03-0.02,0.07-0.02,0.1c-0.11,0.01-0.22,0.04-0.34,0.04c-1.19-0.02-2.28,0.31-3.39,0.62
		c-0.24,0.07-0.35,0.2-0.41,0.43c-0.26,1.04-0.24,2.1,0.05,3.16c0.51,1.82,1.85,2.86,3.73,2.88c1.9,0.02,3.5-0.71,4.96-1.78
		c0.23-0.17,0.42-0.4,0.32-0.74c-0.38-1.27-0.77-2.55-1.16-3.82c-0.02-0.06-0.02-0.12-0.04-0.18c0.02-0.01,0.04-0.02,0.05-0.02
		c0.33,0.36,0.66,0.71,0.98,1.07c0.02-0.02,0.04-0.03,0.07-0.05c-0.24-1.12-0.48-2.24-0.72-3.36c1.35,1.53,1.97,3.33,2.3,5.29
		c0.12-0.11,0.21-0.17,0.27-0.26c0.35-0.52,0.74-1.01,1.04-1.56c0.81-1.49,1.3-3.08,1.12-4.85c-0.23-2.27-1.81-3.74-4.1-3.81
		c-1-0.03-1.93,0.21-2.81,0.61c-1.78,0.81-3.21,2.03-4.34,3.6C62.1,74.32,61.66,75.04,61.36,75.89z M52.06,70.58
		c0,0.02-0.01,0.04-0.01,0.06c-0.76,0.05-1.53,0.11-2.29,0.16c-0.28,0.02-0.45,0.13-0.55,0.4c-0.19,0.56-0.42,1.1-0.6,1.66
		c-0.43,1.33-0.57,2.7-0.17,4.11c0.37,1.28,1.32,2.07,2.64,2.23c0.72,0.09,1.41-0.05,2.08-0.23c1.8-0.5,3.2-1.61,4.44-2.91
		c1.19-1.25,2.04-2.72,2.6-4.37c0.46-1.38,0.72-2.79,0.44-4.28c-0.28-1.44-1.31-2.36-2.77-2.49c-0.77-0.07-1.52,0.05-2.22,0.32
		c-2.06,0.78-3.66,2.14-5.03,3.8c-0.03,0.04-0.05,0.1-0.07,0.14c0.63,0.06,1.25,0.09,1.86,0.18c0.61,0.09,1.18,0.3,1.67,0.72
		c-0.89-0.01-1.79-0.08-2.71,0.14C51.64,70.35,51.85,70.46,52.06,70.58z M76.24,93.45c0.15-0.11,0.25-0.18,0.34-0.26
		c1.17-1.11,2.18-2.36,2.92-3.8c0.61-1.19,1.07-2.43,1.03-3.83c-0.06-1.99-1.43-3.3-3.42-3.22c-1.13,0.05-2.21,0.3-3.22,0.76
		c-2.42,1.09-4.32,2.76-5.64,5.05c-0.65,1.12-1.13,2.31-1.23,3.64c-0.15,1.99,1.01,3.71,3.3,3.9c1.44,0.12,2.73-0.24,3.95-0.88
		c0.12-0.06,0.21-0.28,0.21-0.43c-0.01-0.77-0.06-1.54-0.1-2.31c0.01-0.01,0.03-0.03,0.04-0.04c0.24,0.44,0.49,0.88,0.74,1.34
		c0.14-1.09-0.01-2.17-0.21-3.26C75.84,91.05,76.07,92.22,76.24,93.45z M34.21,73.88c0.16,0.83,0.23,1.66,0.48,2.44
		c0.42,1.35,1.52,2.18,2.92,2.32c0.7,0.07,1.37-0.04,2.01-0.26c1.39-0.48,2.52-1.34,3.52-2.37c1.34-1.38,2.22-3.04,2.69-4.92
		c0.29-1.15,0.37-2.33,0.13-3.53c-0.32-1.61-1.46-2.58-3.09-2.67c-0.68-0.04-1.33,0.06-1.94,0.3c-1.65,0.64-2.99,1.7-4.13,3
		c-0.7,0.8-1.28,1.69-1.7,2.67c-0.2,0.47-0.37,0.97-0.56,1.49c2.32-0.37,3.98-0.35,4.79,0.09c-1,0.2-1.95,0.39-2.89,0.59
		c0,0.02,0,0.05,0,0.07c0.37,0.13,0.74,0.27,1.11,0.4c0,0.02-0.01,0.04-0.01,0.06C36.44,73.66,35.37,73.76,34.21,73.88z
		 M76.09,103.36c0.02-0.01,0.04-0.02,0.06-0.03c0.08,0.09,0.16,0.17,0.23,0.26c0.67,0.87,0.94,1.88,1.1,2.91
		c0.07,0.46,0.15,0.92,0.23,1.41c0.08-0.05,0.13-0.07,0.17-0.1c0.06-0.04,0.12-0.08,0.18-0.12c1.31-0.95,2.36-2.14,3.18-3.53
		c0.58-0.99,1.05-2.03,1.16-3.21c0.08-0.89,0.01-1.76-0.51-2.56c-0.65-1-1.62-1.42-2.74-1.48c-1.71-0.09-3.24,0.45-4.68,1.21
		c-1.74,0.91-3.05,2.28-4.06,3.94c-0.63,1.04-1.08,2.15-1.13,3.41c-0.08,1.86,0.89,3.24,2.63,3.72c1.32,0.37,2.57,0.17,3.78-0.27
		c0.1-0.04,0.19-0.21,0.2-0.32c0.01-0.55,0.01-1.1-0.02-1.64c-0.03-0.44-0.11-0.88-0.17-1.31c0.01-0.01,0.03-0.02,0.04-0.03
		c0.21,0.3,0.42,0.6,0.64,0.9c0.03-0.02,0.06-0.04,0.1-0.05C76.34,105.44,76.22,104.4,76.09,103.36z M78.75,65.49
		c-2.63,0.37-4.96,1.39-7.17,2.8c0.41,0.26,0.76,0.24,1.13,0.06c0.88-0.42,1.77-0.82,2.66-1.23c0.14-0.07,0.3-0.11,0.45-0.16
		c0.01,0.02,0.02,0.04,0.03,0.06c-0.95,0.64-1.89,1.28-2.82,1.91c0.36,0.38,0.74,0.71,1.03,1.1c0.29,0.39,0.51,0.84,0.77,1.29
		C75.66,69.04,77.04,67.15,78.75,65.49z M64.82,60.4c-2.53,0.56-4.72,1.75-6.79,3.22c0.5,0.19,0.6,0.18,0.98-0.05
		c0.67-0.39,1.34-0.79,2.03-1.17c0.32-0.17,0.66-0.3,0.99-0.45c0.01,0.02,0.02,0.04,0.03,0.06c-0.86,0.65-1.73,1.3-2.56,1.93
		c0.57,0.5,1.1,0.96,1.66,1.46C62.12,63.52,63.4,61.91,64.82,60.4z M81.68,84.41c0.05-0.08,0.09-0.12,0.11-0.17
		c0.35-0.77,0.73-1.54,1.04-2.33c0.51-1.29,0.97-2.61,1.17-4c0.03-0.19,0.01-0.39,0.01-0.58c-1.31,1.65-2.73,3.12-4.52,4.22
		c0.57,0.5,1.12,0.99,1.68,1.48c0.53-0.94,1.05-1.85,1.58-2.77c0.04,0.08,0.04,0.13,0.02,0.17c-0.4,1.03-0.78,2.06-1.2,3.08
		C81.45,83.82,81.43,84.09,81.68,84.41z M83.37,98.65c0.79-1.56,1.44-4.21,1.27-5.23c-0.93,1.14-1.98,2.13-3.25,2.88
		c0.49,0.43,0.94,0.82,1.4,1.23c0.33-0.62,0.65-1.23,0.97-1.84c0.03,0.1,0.03,0.18,0,0.25c-0.18,0.58-0.37,1.16-0.55,1.74
		C83.12,98.02,83.09,98.33,83.37,98.65z M43.34,63.68c0.37,0.17,0.67,0.16,0.97-0.01c0.15-0.09,0.31-0.16,0.46-0.23
		c0.51-0.23,1.01-0.45,1.52-0.68c0.01,0.02,0.02,0.04,0.04,0.06c-0.55,0.4-1.1,0.8-1.68,1.22c0.5,0.38,0.96,0.74,1.47,1.12
		c0.6-1.34,1.41-2.49,2.38-3.54C46.62,61.92,44.94,62.63,43.34,63.68z"/>
	<g id="skin" class="st7">
		<path class="st8" d="M63.15,97.94c-1.9-0.51-3.76-1.01-5.68-1.53c0.38,0.46,0.82,0.73,1.28,0.97c1.31,0.7,2.62,1.4,3.92,2.1
			c0.48,0.26,0.81,0.64,0.89,1.17c0.29,1.87,1.03,3.62,1.72,5.39c0.66,1.68,1.31,3.35,1.67,5.12c0.46,2.31,0.35,4.53-0.76,6.57
			c-0.43,0.78-0.99,1.48-1.52,2.19c-1.18,1.58-2.68,2.79-4.55,3.52c-0.29,0.12-0.6,0.21-0.9,0.31c-0.05,0.02-0.1,0.02-0.18,0.04
			c-0.19-1.92-0.12-3.84-0.75-5.69c-0.03,0-0.07-0.01-0.1-0.01c-0.04,0.25-0.09,0.5-0.11,0.76c-0.12,1.59-0.23,3.18-0.35,4.78
			c-0.03,0.47-0.06,0.48-0.52,0.54c-0.16,0.02-0.32,0.05-0.52,0.08c-0.06-1.19,0.11-2.35-0.33-3.52c-0.08,0.3-0.17,0.59-0.23,0.9
			c-0.16,0.81-0.31,1.63-0.45,2.44c-0.03,0.2-0.12,0.27-0.32,0.27c-2.68,0.08-5.26-0.36-7.63-1.87c-1.63-1.04-2.89-2.44-3.83-4.11
			c-1.26-2.25-2.52-4.5-3.8-6.73c-0.39-0.69-0.85-1.34-1.32-1.98c-0.18-0.25-0.44-0.46-0.71-0.61c-2.15-1.22-4.44-2.1-6.71-3
			c-1.5-0.6-3-1.21-4.4-2.04c-2.72-1.6-4.43-3.92-5.16-6.93c-0.49-2.04-0.54-4.08-0.37-6.14c2.65-0.03,5.29-0.06,7.99-0.08
			c-0.2-0.29-0.45-0.36-0.7-0.41c-1.45-0.3-2.9-0.6-4.35-0.89c-0.11-0.02-0.21-0.04-0.32-0.13c0.96-0.16,1.91-0.31,2.87-0.47
			c0-0.04,0.01-0.07,0.01-0.11c-0.25-0.07-0.5-0.18-0.74-0.19c-1.32-0.08-2.65-0.14-3.97-0.2c-0.08,0-0.16,0-0.34-0.01
			c0.42-0.79,0.75-1.56,1.22-2.25c0.52-0.77,1.11-1.49,1.73-2.18c1.99-2.22,4.54-3.2,7.61-3.02c2,0.11,3.93,0.63,5.86,1.14
			c1.64,0.43,3.28,0.88,4.93,1.22c1.83,0.38,3.66,0.29,5.49,0.17c1.82-0.12,3.64-0.3,5.48-0.1c1.79,0.19,3.48,0.78,5.04,1.74
			c0.53,0.33,0.89,0.82,1.23,1.32c1.57,2.25,2.24,4.75,2.42,7.39c0.09,1.25,0.17,2.51,0.25,3.76C63.15,97.7,63.15,97.8,63.15,97.94z
			"/>
		<path class="st8" d="M61.36,75.89c0.3-0.85,0.74-1.57,1.24-2.25c1.13-1.56,2.56-2.79,4.34-3.6c0.88-0.4,1.81-0.64,2.81-0.61
			c2.28,0.06,3.86,1.54,4.1,3.81c0.18,1.77-0.31,3.36-1.12,4.85c-0.3,0.55-0.68,1.05-1.04,1.56c-0.06,0.09-0.15,0.15-0.27,0.26
			c-0.34-1.96-0.95-3.76-2.3-5.29c0.24,1.12,0.48,2.24,0.72,3.36c-0.02,0.02-0.04,0.03-0.07,0.05c-0.33-0.36-0.66-0.71-0.98-1.07
			c-0.02,0.01-0.04,0.02-0.05,0.02c0.01,0.06,0.02,0.12,0.04,0.18c0.39,1.27,0.77,2.55,1.16,3.82c0.1,0.33-0.09,0.57-0.32,0.74
			c-1.46,1.07-3.06,1.8-4.96,1.78c-1.88-0.02-3.22-1.06-3.73-2.88c-0.3-1.06-0.31-2.12-0.05-3.16c0.06-0.23,0.17-0.36,0.41-0.43
			c1.11-0.3,2.21-0.64,3.39-0.62c0.11,0,0.22-0.02,0.34-0.04c0.01-0.03,0.02-0.07,0.02-0.1c-0.39-0.12-0.77-0.29-1.16-0.36
			c-0.41-0.07-0.83-0.05-1.25-0.05C62.21,75.86,61.8,75.88,61.36,75.89z"/>
		<path class="st8" d="M52.06,70.58c-0.21-0.12-0.42-0.23-0.68-0.38c0.93-0.22,1.82-0.15,2.71-0.14c-0.49-0.41-1.07-0.63-1.67-0.72
			c-0.61-0.09-1.22-0.12-1.86-0.18c0.02-0.04,0.03-0.1,0.07-0.14c1.36-1.66,2.97-3.02,5.03-3.8c0.7-0.27,1.45-0.39,2.22-0.32
			c1.46,0.13,2.49,1.05,2.77,2.49c0.29,1.49,0.03,2.9-0.44,4.28c-0.55,1.65-1.4,3.12-2.6,4.37c-1.25,1.3-2.64,2.41-4.44,2.91
			c-0.67,0.19-1.36,0.32-2.08,0.23c-1.32-0.16-2.27-0.95-2.64-2.23c-0.41-1.41-0.26-2.78,0.17-4.11c0.18-0.56,0.41-1.1,0.6-1.66
			c0.09-0.27,0.27-0.38,0.55-0.4c0.76-0.05,1.53-0.11,2.29-0.16C52.05,70.62,52.05,70.6,52.06,70.58z"/>
		<path class="st8" d="M76.24,93.45c-0.17-1.23-0.4-2.4-1.3-3.34c0.2,1.09,0.36,2.17,0.21,3.26c-0.25-0.45-0.49-0.89-0.74-1.34
			c-0.01,0.01-0.03,0.03-0.04,0.04c0.04,0.77,0.09,1.54,0.1,2.31c0,0.15-0.09,0.36-0.21,0.43c-1.22,0.64-2.51,1-3.95,0.88
			c-2.29-0.2-3.45-1.91-3.3-3.9c0.1-1.33,0.58-2.52,1.23-3.64c1.32-2.29,3.22-3.96,5.64-5.05c1.01-0.46,2.09-0.71,3.22-0.76
			c1.99-0.08,3.36,1.23,3.42,3.22c0.04,1.4-0.41,2.64-1.03,3.83c-0.74,1.44-1.75,2.69-2.92,3.8C76.49,93.27,76.39,93.34,76.24,93.45
			z"/>
		<path class="st8" d="M34.21,73.88c1.16-0.12,2.24-0.22,3.31-0.33c0-0.02,0.01-0.04,0.01-0.06c-0.37-0.13-0.74-0.27-1.11-0.4
			c0-0.02,0-0.05,0-0.07c0.95-0.19,1.9-0.38,2.89-0.59c-0.81-0.44-2.48-0.46-4.79-0.09c0.19-0.52,0.36-1.01,0.56-1.49
			c0.43-0.98,1-1.88,1.7-2.67c1.14-1.3,2.49-2.36,4.13-3c0.62-0.24,1.27-0.34,1.94-0.3c1.63,0.09,2.77,1.07,3.09,2.67
			c0.24,1.2,0.16,2.37-0.13,3.53c-0.48,1.88-1.35,3.54-2.69,4.92c-1,1.03-2.13,1.89-3.52,2.37c-0.64,0.22-1.31,0.33-2.01,0.26
			c-1.4-0.14-2.51-0.97-2.92-2.32C34.44,75.54,34.37,74.71,34.21,73.88z"/>
		<path class="st8" d="M76.09,103.36c0.13,1.04,0.25,2.08,0.38,3.11c-0.03,0.02-0.06,0.04-0.1,0.05c-0.21-0.3-0.42-0.6-0.64-0.9
			c-0.01,0.01-0.03,0.02-0.04,0.03c0.06,0.44,0.14,0.88,0.17,1.31c0.03,0.55,0.03,1.1,0.02,1.64c0,0.12-0.1,0.29-0.2,0.32
			c-1.21,0.44-2.47,0.64-3.78,0.27c-1.74-0.48-2.71-1.86-2.63-3.72c0.05-1.26,0.5-2.37,1.13-3.41c1.01-1.66,2.32-3.03,4.06-3.94
			c1.44-0.76,2.97-1.3,4.68-1.21c1.12,0.06,2.09,0.48,2.74,1.48c0.52,0.8,0.59,1.67,0.51,2.56c-0.11,1.18-0.58,2.22-1.16,3.21
			c-0.82,1.39-1.87,2.58-3.18,3.53c-0.06,0.04-0.12,0.08-0.18,0.12c-0.04,0.03-0.08,0.05-0.17,0.1c-0.08-0.49-0.16-0.95-0.23-1.41
			c-0.16-1.04-0.43-2.04-1.1-2.91c-0.07-0.09-0.16-0.17-0.23-0.26C76.13,103.34,76.11,103.35,76.09,103.36z"/>
	</g>
	<g id="claws" class="st7">
		<path class="st9" d="M78.75,65.49c-1.72,1.66-3.09,3.55-3.92,5.83c-0.27-0.45-0.48-0.9-0.77-1.29c-0.29-0.39-0.66-0.71-1.03-1.1
			c0.93-0.63,1.87-1.27,2.82-1.91c-0.01-0.02-0.02-0.04-0.03-0.06c-0.15,0.05-0.31,0.1-0.45,0.16c-0.89,0.41-1.78,0.81-2.66,1.23
			c-0.37,0.17-0.71,0.2-1.13-0.06C73.79,66.88,76.12,65.86,78.75,65.49z"/>
		<path class="st9" d="M64.82,60.4c-1.43,1.51-2.7,3.12-3.67,5.01c-0.56-0.49-1.09-0.96-1.66-1.46c0.83-0.63,1.7-1.28,2.56-1.93
			c-0.01-0.02-0.02-0.04-0.03-0.06c-0.33,0.15-0.67,0.28-0.99,0.45c-0.68,0.38-1.35,0.77-2.03,1.17c-0.38,0.22-0.48,0.23-0.98,0.05
			C60.11,62.15,62.3,60.96,64.82,60.4z"/>
		<path class="st9" d="M81.68,84.41c-0.25-0.31-0.23-0.58-0.1-0.9c0.42-1.02,0.8-2.05,1.2-3.08c0.02-0.05,0.02-0.1-0.02-0.17
			c-0.52,0.92-1.04,1.84-1.58,2.77c-0.56-0.49-1.11-0.98-1.68-1.48c1.79-1.11,3.21-2.57,4.52-4.22c0,0.19,0.01,0.39-0.01,0.58
			c-0.2,1.4-0.66,2.71-1.17,4c-0.31,0.79-0.69,1.55-1.04,2.33C81.77,84.28,81.73,84.33,81.68,84.41z"/>
		<path class="st9" d="M83.37,98.65c-0.28-0.32-0.25-0.63-0.15-0.96c0.19-0.58,0.37-1.16,0.55-1.74c0.02-0.07,0.03-0.15,0-0.25
			c-0.32,0.61-0.64,1.22-0.97,1.84c-0.47-0.41-0.91-0.8-1.4-1.23c1.27-0.76,2.32-1.75,3.25-2.88C84.82,94.45,84.17,97.1,83.37,98.65
			z"/>
		<path class="st9" d="M43.34,63.68c1.59-1.04,3.28-1.76,5.16-2.05c-0.97,1.05-1.79,2.2-2.38,3.54c-0.5-0.39-0.97-0.74-1.47-1.12
			c0.58-0.42,1.13-0.82,1.68-1.22c-0.01-0.02-0.02-0.04-0.04-0.06c-0.51,0.23-1.01,0.45-1.52,0.68c-0.16,0.07-0.31,0.14-0.46,0.23
			C44.02,63.84,43.71,63.85,43.34,63.68z"/>
	</g>
</g>
<g>
	<path d="M65.35,125.44c0.77,0.26,1.48,0.49,2.27,0.75c-0.75,0.37-1.43,0.72-2.12,1.03c-0.7,0.32-1.42,0.61-2.14,0.89
		c-0.52,0.2-1.06,0.34-1.6,0.51c-0.38,0.12-0.76,0.26-1.15,0.33c-0.95,0.17-1.9,0.31-2.86,0.46c-0.4,0.06-0.81,0.12-1.21,0.13
		c-1.04,0.02-2.06-0.11-3.08-0.29c-0.9-0.16-1.75-0.45-2.59-0.79c-1.22-0.49-2.32-1.18-3.33-2.02c-0.59-0.49-1.14-1.03-1.7-1.54
		c-0.15,0.22-0.3,0.46-0.49,0.68c-0.04,0.05-0.27,0.03-0.32-0.04c-0.8-1.02-1.63-2.04-2.21-3.22c-0.41-0.83-0.86-1.65-1.24-2.5
		c-0.45-1.02-0.87-2.06-1.25-3.1c-0.28-0.79-0.48-1.61-0.73-2.47c-0.4,0.1-0.82,0.15-1.2,0.31c-0.16,0.07-0.24,0.35-0.32,0.55
		c-0.17,0.44-0.31,0.89-0.48,1.33c-0.31,0.82-0.63,1.64-0.95,2.46c-0.02,0.06-0.06,0.11-0.14,0.25c-0.6-1.17-1.22-2.27-1.74-3.42
		c-0.3-0.66-0.46-1.39-0.66-2.1c-0.09-0.3-0.1-0.63-0.21-0.91c-0.09-0.2-0.27-0.38-0.45-0.53c-1.07-0.87-1.9-1.93-2.51-3.16
		c-0.25-0.51-0.53-1.01-0.71-1.55c-0.21-0.63-0.31-1.3-0.48-1.94c-0.28-1.04-0.22-2.09-0.18-3.14c0.03-0.79,0.19-1.58,0.36-2.35
		c0.16-0.77,0.37-1.54,0.63-2.28c0.27-0.78,0.61-1.53,0.95-2.28c0.25-0.55,0.53-1.09,0.83-1.61c0.36-0.61,0.76-1.18,1.14-1.78
		c0.03,0.01,0.06,0.02,0.09,0.03c0.17,0.72,0.33,1.44,0.51,2.22c1.19-1.1,2.49-1.93,4.06-2.25c0.4-4.89,2.58-8.93,5.78-12.49
		c0.05,0,0.1,0.01,0.15,0.01c0.08,0.79,0.17,1.58,0.25,2.33c0.79-0.42,1.53-0.89,2.34-1.22c0.65-0.26,1.37-0.38,2.07-0.51
		c0.5-0.09,1.02-0.09,1.53-0.15c0.06-0.01,0.15-0.09,0.17-0.15c0.26-0.6,0.47-1.23,0.76-1.81c0.47-0.97,0.95-1.94,1.51-2.86
		c0.57-0.94,1.23-1.82,1.86-2.72c0.15-0.21,0.33-0.38,0.55-0.63c0.1,1,0.2,1.91,0.3,2.89c0.32-0.23,0.59-0.42,0.86-0.61
		c0.78-0.55,1.61-1.01,2.52-1.28c0.55-0.16,1.12-0.24,1.69-0.32c0.25-0.04,0.35-0.19,0.41-0.38c0.38-1.25,0.99-2.4,1.67-3.51
		c0.51-0.84,1.13-1.61,1.7-2.41c0.95-1.32,2.1-2.46,3.34-3.51c0.02-0.02,0.06-0.02,0.14-0.05c0,0.84,0,1.67,0,2.55
		c0.47-0.21,0.88-0.42,1.3-0.58c0.54-0.2,1.1-0.37,1.65-0.54c1.04-0.34,2.11-0.21,3.17-0.18c0.75,0.02,1.51,0.19,2.26,0.33
		c0.62,0.12,1.25,0.26,1.85,0.46c0.59,0.19,1.17,0.42,1.73,0.69c0.45,0.22,0.88,0.48,1.28,0.79c0.66,0.51,1.31,1.04,1.92,1.61
		c0.49,0.46,0.92,1,1.46,1.58c-0.73-0.08-1.35-0.14-2.05-0.22c0.72,0.97,1.4,1.88,2.14,2.87c-0.59-0.16-1.08-0.29-1.61-0.43
		c0.2,0.33,0.39,0.6,0.53,0.89c0.3,0.64,0.5,1.31,0.53,2.03c0.01,0.22,0.04,0.44,0.08,0.65c0.01,0.08,0.08,0.17,0.15,0.21
		c1.12,0.64,1.98,1.58,2.7,2.62c0.47,0.67,0.84,1.42,1.16,2.17c0.29,0.67,0.48,1.39,0.66,2.1c0.17,0.69,0.27,1.4,0.41,2.1
		c0.02,0.11,0.08,0.22,0.11,0.32c1.01-0.12,1.98-0.14,2.96,0.01c1.08,0.17,2.06,0.51,2.89,1.21c0.43,0.36,0.8,0.81,1.16,1.25
		c0.16,0.2,0.32,0.34,0.58,0.39c0.75,0.17,1.5,0.34,2.24,0.53c0.94,0.25,1.78,0.72,2.55,1.29c0.43,0.31,0.83,0.66,1.25,1.01
		c0-0.42,0-0.86,0-1.29c0.03-0.02,0.06-0.03,0.09-0.05c0.79,0.99,1.59,1.98,2.43,3.03c0.11-0.77,0.21-1.47,0.31-2.25
		c0.8,1.14,1.53,2.23,2.09,3.43c0.42,0.91,0.74,1.85,0.95,2.81c0.26,1.23,0.27,2.48,0.2,3.73c-0.05,0.88-0.12,1.77-0.26,2.64
		c-0.23,1.41-0.59,2.79-1.34,4.02c-0.45,0.74-1.04,1.39-1.57,2.09c-0.08,0.1-0.16,0.2-0.24,0.3c0.93,0.23,1.83,0.46,2.77,0.69
		c-0.05,0.06-0.08,0.14-0.13,0.17c-0.97,0.59-1.93,1.2-2.91,1.76c-0.58,0.33-1.18,0.63-1.8,0.89c-0.79,0.33-1.6,0.62-2.41,0.9
		c-0.6,0.21-1.21,0.4-1.83,0.53c-0.92,0.19-1.86,0.34-2.79,0.46c-0.7,0.09-1.42,0.17-2.13,0.12c-1.01-0.07-2.02-0.04-3.02-0.29
		c-0.9-0.22-1.8-0.43-2.65-0.8c-0.16-0.07-0.31-0.05-0.49,0.09c-1.04,0.83-2.08,1.67-3.17,2.42c-0.84,0.58-1.73,1.08-2.64,1.53
		c-0.85,0.42-1.75,0.76-2.65,1.08c-0.81,0.29-1.64,0.56-2.49,0.73c-1.04,0.21-2.11,0.31-3.16,0.47c-0.18,0.03-0.37,0.08-0.51,0.18
		c-1.21,0.9-2.39,1.83-3.62,2.71c-0.9,0.65-1.85,1.23-2.78,1.83C66.51,124.75,65.96,125.07,65.35,125.44z M46.69,114.81
		c-1.14,0.17-2.29,0.21-3.49-0.05c0.86,2.86,2.07,5.52,3.86,7.94c0.24-0.31,0.44-0.58,0.64-0.83c0.25,0.26,0.47,0.49,0.68,0.73
		c0.89,0.98,1.92,1.8,3.07,2.44c0.84,0.47,1.74,0.8,2.68,1.05c0.97,0.26,1.95,0.36,2.94,0.4c0.49,0.02,0.99-0.02,1.48-0.06
		c0.48-0.04,0.95-0.1,1.43-0.15c0.22-0.02,0.43-0.04,0.65-0.08c0.51-0.11,1.01-0.23,1.52-0.36c0.34-0.09,0.68-0.21,1.04-0.32
		c-0.62-0.24-1.19-0.46-1.84-0.71c3.33-1.29,6.33-3.01,9.22-5.08c-1.36-0.1-2.59-0.32-3.82-0.61c-1.33-0.31-3.3-0.93-3.47-1.19
		c0.6,0.06,1.21,0.17,1.81,0.17c1.7,0.01,3.41,0.09,5.1-0.18c0.63-0.1,1.29-0.09,1.91-0.22c1.05-0.21,2.1-0.43,3.12-0.74
		c1.12-0.34,2.21-0.77,3.3-1.2c1.2-0.47,2.29-1.13,3.36-1.84c1.05-0.7,2-1.53,2.91-2.4c0.12-0.11,0.17-0.22,0-0.36
		c-0.8-0.64-1.51-1.36-2.1-2.2c-0.05-0.07-0.12-0.15-0.2-0.16c-0.35-0.08-0.7-0.12-1.05-0.22c-0.57-0.16-1.14-0.33-1.7-0.53
		c-0.37-0.13-0.73-0.31-1.1-0.47c-0.39-0.17-0.8-0.31-1.17-0.51c-0.8-0.43-1.59-0.89-2.38-1.34c-0.25-0.14-0.49-0.31-0.77-0.48
		c2.23-0.81,4.39-1.61,6.53-2.39c0.08-0.47,0.15-0.92,0.25-1.36c0.14-0.62,0.26-1.25,0.47-1.84c0.4-1.12,1.01-2.14,1.78-3.05
		c0.07-0.08,0.08-0.24,0.07-0.36c-0.01-0.34-0.12-0.69-0.05-1.01c0.2-0.87,0.73-1.56,1.44-2.06c0.8-0.56,1.64-1.07,2.47-1.57
		c0.29-0.17,0.62-0.27,0.93-0.41c-1.21,1.05-2.45,2.04-2.98,3.71c0.24-0.16,0.4-0.28,0.57-0.38c1.23-0.77,2.53-1.36,3.92-1.75
		c0.66-0.19,1.35-0.3,2.02-0.47c1.13-0.29,2.29-0.35,3.44-0.37c0.88-0.01,1.77,0.11,2.65,0.19c0.09,0.01,0.18,0.09,0.27,0.14
		c-0.35,0.06-0.66,0.12-0.97,0.18c-0.77,0.16-1.55,0.28-2.31,0.49c-0.75,0.2-1.49,0.43-2.2,0.74c-1.2,0.51-2.41,1.02-3.54,1.66
		c-0.82,0.46-1.56,1.08-2.26,1.71c-0.51,0.44-0.98,0.97-1.33,1.53c-0.4,0.64-0.68,1.37-0.97,2.07c-0.14,0.34-0.17,0.73-0.27,1.15
		c0.53-0.2,1-0.38,1.47-0.54c0.61-0.21,1.23-0.4,1.84-0.63c0.96-0.37,1.92-0.76,2.88-1.14c0.15-0.06,0.37-0.17,0.48-0.11
		c0.48,0.25,0.98,0.5,1.4,0.85c0.72,0.6,1.18,1.4,1.51,2.29c0.29,0.78,0.51,1.58,0.48,2.41c-0.03,0.78-0.18,1.54-0.5,2.28
		c-0.34,0.8-0.82,1.48-1.49,2.02c-0.26,0.21-0.51,0.15-0.7-0.13c-0.17-0.25-0.31-0.53-0.43-0.74c-1.14,0.25-2.27,0.5-3.51,0.77
		c0.68,0.39,1.25,0.76,1.86,1.05c0.77,0.36,1.56,0.66,2.35,0.96c0.29,0.11,0.6,0.17,0.91,0.22c0.59,0.1,1.18,0.19,1.78,0.25
		c0.5,0.05,1.01,0.1,1.51,0.09c0.51-0.01,1.02-0.08,1.53-0.14c0.56-0.06,1.13-0.1,1.68-0.22c0.65-0.14,1.3-0.33,1.93-0.54
		c0.75-0.25,1.49-0.55,2.24-0.82c0.04-0.02,0.07-0.06,0.11-0.09c-0.04-0.04-0.07-0.09-0.12-0.11c-0.61-0.29-1.22-0.57-1.83-0.86
		c-0.15-0.07-0.28-0.16-0.44-0.25c1.54-1.06,2.92-2.2,3.91-3.73c-0.47,0-0.91,0.03-1.36-0.01c-0.43-0.04-0.85-0.16-1.28-0.25
		c0.01-0.03,0.01-0.07,0.02-0.1c0.13-0.03,0.25-0.06,0.38-0.08c0.87-0.16,1.67-0.49,2.46-0.88c0.21-0.1,0.48-0.23,0.55-0.41
		c0.22-0.56,0.35-1.15,0.51-1.72c-0.02-0.02-0.05-0.03-0.07-0.05c-0.71,0.49-1.5,0.81-2.33,1c-0.82,0.19-1.65,0.31-2.57,0.12
		c0.53-0.26,0.97-0.48,1.4-0.69c1.47-0.72,2.65-1.79,3.63-3.09c0.1-0.14,0.16-0.34,0.16-0.51c0.02-1.2-0.12-2.38-0.33-3.55
		c-0.06-0.33-0.21-0.65-0.32-0.98c-0.16,0.27-0.29,0.5-0.46,0.78c-0.57-0.83-1.1-1.6-1.68-2.46c-0.09,0.52-0.16,0.94-0.24,1.37
		c-0.24-0.23-0.46-0.41-0.66-0.62c-0.66-0.68-1.4-1.26-2.22-1.72c-0.53-0.3-1.08-0.58-1.65-0.82c-0.63-0.27-1.27-0.52-1.93-0.7
		c-0.7-0.19-1.42-0.31-2.14-0.41c-0.79-0.11-1.58-0.21-2.37-0.25c-0.74-0.04-1.48-0.03-2.21,0c-0.64,0.03-1.28,0.12-1.92,0.17
		c-0.1,0.01-0.19-0.01-0.29-0.02c0-0.03-0.01-0.07-0.01-0.1c0.86-0.26,1.71-0.55,2.58-0.78c0.89-0.23,1.79-0.41,2.7-0.62
		c-0.02-0.03-0.04-0.14-0.1-0.17c-0.51-0.27-1.01-0.62-1.56-0.78c-1.04-0.31-2.13-0.35-3.21-0.34c-1.68,0.02-3.36,0.17-5.03,0.45
		c-0.18,0.03-0.36,0.05-0.54,0.07C83.01,86.75,83,86.72,83,86.69c0.16-0.07,0.33-0.15,0.49-0.22c0.54-0.23,1.08-0.49,1.63-0.68
		c0.82-0.28,1.65-0.5,2.47-0.76c0.08-0.02,0.19-0.14,0.18-0.21c-0.03-0.38-0.04-0.77-0.15-1.13c-0.22-0.71-0.47-1.42-0.77-2.09
		c-0.24-0.53-0.53-1.05-0.88-1.51c-0.33-0.44-0.75-0.82-1.16-1.2c-0.28-0.26-0.59-0.47-0.92-0.73c-0.18,0.99-0.35,1.92-0.52,2.85
		c-0.04,0-0.07-0.01-0.11-0.01c0.11-1.86-0.09-3.68-0.56-5.48c-0.46-1.76-1.13-3.44-1.95-5.1c0.42,0.03,0.79,0.06,1.17,0.09
		c0.01-0.03,0.03-0.05,0.04-0.08c-0.55-0.64-1.1-1.27-1.69-1.95c0.28-0.08,0.52-0.14,0.78-0.21c-0.17-0.11-0.34-0.25-0.53-0.35
		c-0.83-0.45-1.7-0.82-2.62-1.06c-0.71-0.18-1.42-0.37-2.13-0.53c-1.06-0.24-2.13-0.26-3.2-0.13c-0.83,0.1-1.63,0.29-2.39,0.66
		c-0.86,0.43-1.67,0.93-2.41,1.54c-0.25,0.21-0.51,0.4-0.81,0.63c-0.15-0.85-0.3-1.63-0.44-2.41c-0.55,0.67-1.05,1.33-1.48,2.03
		c-0.8,1.33-1.48,2.73-1.83,4.25c-0.18,0.77-0.35,1.55-0.41,2.33c-0.11,1.55,0.01,3.1,0.47,4.6c0.08,0.26,0.2,0.51,0.3,0.75
		c0.48-0.94,0.96-1.86,1.42-2.76c-0.17-0.19-0.36-0.4-0.55-0.6c-0.21-0.23-0.16-0.43,0.07-0.61c0.7-0.56,1.53-0.82,2.4-0.88
		c0.86-0.06,1.69,0,2.51,0.41c0.44,0.22,0.89,0.4,1.28,0.69c1.49,1.08,2.32,2.48,2,4.38c-0.05,0.31-0.15,0.65-0.31,0.91
		c-0.28,0.45-0.77,0.56-1.28,0.59c-0.11,0.01-0.25,0.06-0.31,0.14c-0.4,0.55-0.78,1.12-1.16,1.68c-0.16,0.23-0.31,0.47-0.48,0.74
		c0.3,0.03,0.52,0.09,0.75,0.08c1-0.05,1.99-0.2,2.9-0.62c0.96-0.45,1.83-1.06,2.61-1.78c1-0.92,1.87-1.94,2.65-3.05
		c0.37-0.53,0.74-1.07,1.05-1.64c0.51-0.92,0.97-1.87,1.45-2.81c-0.06,0.72-0.12,1.45-0.3,2.15c-0.21,0.84-0.48,1.67-0.8,2.48
		c-0.59,1.5-1.38,2.89-2.41,4.14c-1.1,1.34-2.35,2.48-3.97,3.18c-0.76,0.33-1.55,0.54-2.36,0.67c-0.37,0.06-0.75,0.07-1.14,0.11
		c0.11,0.17,0.2,0.33,0.31,0.48c0.95,1.36,2.25,2.3,3.7,3.04c0.96,0.49,1.99,0.86,2.98,1.29c0.06,0.03,0.1,0.08,0.24,0.18
		c-0.62,0.05-1.15,0.11-1.67,0.12c-0.49,0.01-0.99-0.02-1.48-0.06c-0.8-0.07-1.58-0.27-2.32-0.59c-0.84-0.37-1.58-0.89-2.18-1.59
		c-0.17-0.2-0.34-0.4-0.51-0.6c-1.11,3.4-2.6,6.49-5.8,8.41c1.26,0.96,2.68,1.57,4.12,2.11c-0.27,0.06-0.51,0.09-0.76,0.12
		c-1.01,0.14-2-0.01-2.98-0.25c-0.78-0.2-1.45-0.56-2.05-1.06c-0.21-0.17-0.41-0.16-0.63-0.12c-0.34,0.06-0.68,0.14-1.03,0.16
		c-0.53,0.03-1.06,0.01-1.57,0.01c-0.96,2.06-1.92,4.11-2.88,6.15c-0.04,0.01-0.08,0.01-0.12,0.02c-0.56-1.6-1.12-3.21-1.69-4.81
		c-0.02,0.02-0.08,0.05-0.13,0.08c-0.53,0.38-1.04,0.79-1.6,1.13c-0.68,0.42-1.44,0.68-2.22,0.85c-0.86,0.19-1.73,0.26-2.61,0.18
		c-0.19-0.02-0.26,0.03-0.34,0.19c-0.36,0.71-0.74,1.42-1.11,2.12c-0.36,0.68-0.73,1.36-1.1,2.03c-0.16,0.3-0.32,0.59-0.52,0.95
		c-0.1-0.28-0.17-0.5-0.26-0.71c-0.53-1.13-1-2.29-1.27-3.51c-0.22-1.02-0.32-2.06-0.48-3.09c-0.01-0.08-0.06-0.17-0.12-0.23
		c-1.23-1.17-2.04-2.61-2.62-4.17c-0.33-0.89-0.5-1.85-0.76-2.84c-1.74,0.61-2.83,2.08-3.96,3.51c-0.31-0.7-0.59-1.32-0.87-1.95
		c-0.03,0-0.06,0-0.09,0c-0.3,0.83-0.66,1.64-0.89,2.49c-0.23,0.84-0.33,1.72-0.48,2.58c-0.15,0.9-0.1,1.79,0.01,2.69
		c0.1,0.87,0.31,1.71,0.62,2.54c0.31,0.82,0.69,1.58,1.21,2.3c0.22-0.93,0.44-1.83,0.65-2.73c-0.12-0.05-0.26-0.08-0.38-0.15
		c-0.51-0.31-0.53-0.54-0.1-0.97c0.08-0.08,0.17-0.16,0.26-0.24c0.61-0.55,1.34-0.87,2.14-0.98c0.71-0.1,1.41,0.01,2.08,0.3
		c1.19,0.51,2.22,1.2,2.94,2.32c0.17,0.26,0.16,0.45,0.03,0.68c-0.03,0.05-0.05,0.12-0.07,0.18c-0.27,0.61-0.54,1.22-0.8,1.83
		c-0.14,0.33-0.26,0.66-0.39,0.99c-0.18,0.46-0.36,0.92-0.53,1.38c-0.18,0.49-0.36,0.98-0.55,1.48c1.04-0.12,1.98-0.45,2.84-0.95
		c1.62-0.95,2.78-2.34,3.64-3.98c0.39-0.74,0.69-1.53,1.02-2.3c0.1-0.22,0.17-0.45,0.29-0.76c0.34,1.78,0.07,3.38-0.62,4.91
		c-0.68,1.52-1.84,2.63-3.26,3.52C44.1,113.75,45.38,114.3,46.69,114.81z M59.32,96.68c0.81,0.06,1.56-0.2,2.29-0.44
		c0.67-0.22,1.25-0.63,1.8-1.07c0.96-0.77,1.74-1.72,2.42-2.73c0.49-0.72,0.91-1.49,1.32-2.27c0.35-0.66,0.64-1.35,0.97-2.03
		c-0.24-0.07-0.44-0.12-0.64-0.18c-1.19,1.72-2.38,3.43-3.6,5.19c-0.06-0.17-0.12-0.29-0.16-0.42c-0.21-0.73-0.42-1.45-0.61-2.18
		c-0.1-0.38-0.19-0.76-0.24-1.15c-0.09-0.69-0.16-1.39-0.21-2.08c-0.04-0.6-0.07-1.21-0.04-1.81c0.01-0.23-0.03-0.38-0.15-0.56
		c-0.33-0.45-0.72-0.88-0.95-1.38c-0.44-0.95-0.81-1.94-1.15-2.93c-0.18-0.54-0.27-1.12-0.33-1.68c-0.07-0.79-0.08-1.59-0.08-2.39
		c0-0.43,0.06-0.86,0.1-1.35c-2.16,0.65-3.55,2.23-4.96,3.85c-0.25-0.89-0.49-1.72-0.73-2.55c-0.04,0-0.07,0-0.11,0.01
		c-2.65,5.08-3.55,10.3-1.1,15.8c0.38-1.14,0.74-2.24,1.1-3.33c-0.17-0.14-0.41-0.29-0.59-0.49c-0.23-0.24-0.29-0.55,0.03-0.85
		c0.19-0.18,0.39-0.37,0.62-0.49c0.43-0.23,0.87-0.43,1.33-0.61c0.84-0.33,1.73-0.28,2.58-0.09c0.56,0.12,1.09,0.42,1.59,0.71
		c1.23,0.7,2.1,1.72,2.38,3.12c0.14,0.7,0.1,1.44,0.06,2.15c-0.02,0.48-0.64,1.09-1.06,1.05c-0.48-0.05-0.56,0.28-0.7,0.56
		C60.1,94.91,59.72,95.78,59.32,96.68z M47.81,100.71c0.86,0.04,1.64-0.13,2.4-0.4c0.99-0.36,1.81-0.98,2.56-1.7
		c0.07-0.07,0.11-0.21,0.11-0.32c0-0.25-0.03-0.5-0.06-0.75c-0.01-0.09-0.09-0.19-0.15-0.26c-0.1-0.12-0.21-0.23-0.31-0.35
		c-0.71-0.8-1.26-1.71-1.72-2.66c-0.31-0.66-0.6-1.34-0.83-2.03c-0.2-0.6-0.33-1.23-0.43-1.86c-0.13-0.77-0.28-1.55-0.3-2.33
		c-0.03-0.94,0.05-1.88,0.12-2.82c0.05-0.67,0.16-1.33,0.27-2c0.05-0.33,0.15-0.65,0.23-0.99c-0.22,0.04-0.38,0.06-0.54,0.11
		c-0.57,0.17-1.17,0.28-1.69,0.53c-1.27,0.62-2.32,1.55-3.25,2.6c-0.15,0.17-0.24,0.12-0.3-0.06c-0.1-0.33-0.18-0.67-0.28-1
		c-0.1-0.33-0.21-0.66-0.34-1.04c-2.61,4.37-3.54,8.81-1.26,13.59c0.37-0.98,0.72-1.91,1.07-2.85c-0.11-0.07-0.24-0.14-0.35-0.22
		c-0.44-0.32-0.53-0.66-0.2-0.91c0.33-0.26,0.69-0.47,1.06-0.66c0.55-0.28,1.13-0.45,1.76-0.41c0.57,0.04,1.16,0.01,1.71,0.15
		c0.51,0.13,1,0.39,1.47,0.65c0.92,0.5,1.61,1.23,1.97,2.23c0.13,0.35,0.3,0.71,0.01,1.09c-0.33,0.45-0.64,0.92-0.92,1.4
		C49,98.51,48.42,99.6,47.81,100.71z M79.62,105.76c0.5,0.23,0.92,0.47,1.37,0.63c0.88,0.31,1.77,0.59,2.67,0.85
		c0.52,0.15,1.05,0.31,1.59,0.34c1.38,0.08,2.75-0.04,4.11-0.3c0.99-0.19,1.95-0.47,2.86-0.89c0.18-0.08,0.43-0.26,0.44-0.4
		c0.03-0.53,0.03-1.08-0.07-1.6c-0.13-0.63-0.34-1.25-0.58-1.85c-0.25-0.63-0.63-1.2-1.14-1.68
		C87.34,102.94,83.53,104.4,79.62,105.76z M55.19,100.65c0.04-0.02,0.12-0.03,0.13-0.06c0.14-0.29,0.27-0.58,0.4-0.87
		c0.49-1.06,0.96-2.12,1.48-3.16c0.46-0.92,0.97-1.82,1.5-2.71c0.63-1.06,1.29-2.11,1.94-3.16c0.15-0.24,0.31-0.44,0.03-0.73
		c-0.56-0.56-1.14-1.1-1.87-1.45c-0.7-0.34-1.43-0.56-2.19-0.67c-0.09-0.01-0.23,0.05-0.28,0.12c-0.19,0.28-0.39,0.57-0.52,0.88
		c-0.31,0.74-0.63,1.49-0.86,2.25c-0.2,0.66-0.32,1.34-0.44,2.02c-0.11,0.62-0.23,1.25-0.22,1.87c0,0.84,0.1,1.68,0.19,2.51
		c0.06,0.55,0.17,1.09,0.29,1.63C54.89,99.63,55.04,100.13,55.19,100.65z M64.67,88.41c0.24-0.37,0.42-0.68,0.63-0.98
		c0.6-0.86,1.2-1.73,1.83-2.57c0.66-0.88,1.34-1.74,2.05-2.58c0.67-0.8,1.39-1.56,2.1-2.33c0.12-0.13,0.14-0.21,0.04-0.36
		c-0.91-1.38-2.3-2.06-3.81-2.53c-0.1-0.03-0.28,0.04-0.37,0.12c-0.65,0.62-1.11,1.38-1.49,2.19c-0.34,0.71-0.6,1.45-0.87,2.19
		c-0.33,0.88-0.57,1.78-0.52,2.73c0.06,1.1,0.12,2.21,0.2,3.31C64.48,87.85,64.59,88.09,64.67,88.41z M43.86,104.15
		c0.06-0.08,0.12-0.14,0.16-0.21c0.51-0.95,0.99-1.91,1.52-2.84c0.6-1.05,1.23-2.09,1.89-3.1c0.56-0.84,1.18-1.64,1.79-2.44
		c0.19-0.25,0.16-0.54-0.13-0.7c-0.07-0.04-0.14-0.07-0.2-0.12c-0.29-0.21-0.56-0.44-0.86-0.64c-0.81-0.53-1.73-0.77-2.66-0.97
		c-0.09-0.02-0.26,0.03-0.31,0.11c-0.3,0.44-0.63,0.87-0.83,1.36c-0.33,0.82-0.6,1.68-0.84,2.54c-0.27,0.94-0.43,1.89-0.36,2.87
		c0.02,0.32,0.08,0.63,0.13,0.94c0.12,0.65,0.23,1.3,0.37,1.94C43.63,103.31,43.75,103.71,43.86,104.15z M36.24,114.91
		c1.12-3.14,2.36-6.12,4.02-8.91c-1.11-1.02-2.42-1.45-3.89-1.44c-0.11,0-0.27,0.08-0.33,0.17c-0.52,0.79-0.73,1.71-0.92,2.61
		c-0.22,1.04-0.28,2.11-0.2,3.17c0.03,0.45,0.13,0.9,0.24,1.34c0.16,0.59,0.35,1.18,0.55,1.76
		C35.85,114.03,36.04,114.43,36.24,114.91z"/>
	<g id="fur">
		<path class="st1" d="M46.69,114.81c-1.32-0.51-2.6-1.05-3.79-1.89c1.42-0.89,2.57-2,3.26-3.52c0.69-1.53,0.96-3.13,0.62-4.91
			c-0.12,0.31-0.19,0.54-0.29,0.76c-0.33,0.77-0.63,1.56-1.02,2.3c-0.86,1.64-2.03,3.03-3.64,3.98c-0.86,0.5-1.79,0.83-2.84,0.95
			c0.19-0.5,0.36-0.99,0.55-1.48c0.17-0.46,0.35-0.92,0.53-1.38c0.13-0.33,0.25-0.66,0.39-0.99c0.26-0.61,0.53-1.22,0.8-1.83
			c0.03-0.06,0.04-0.12,0.07-0.18c0.14-0.23,0.14-0.42-0.03-0.68c-0.72-1.11-1.75-1.81-2.94-2.32c-0.68-0.29-1.37-0.4-2.08-0.3
			c-0.8,0.11-1.53,0.43-2.14,0.98c-0.09,0.08-0.18,0.15-0.26,0.24c-0.43,0.43-0.41,0.65,0.1,0.97c0.12,0.07,0.26,0.1,0.38,0.15
			c-0.21,0.9-0.43,1.79-0.65,2.73c-0.52-0.72-0.9-1.48-1.21-2.3c-0.31-0.83-0.52-1.67-0.62-2.54c-0.11-0.89-0.16-1.79-0.01-2.69
			c0.15-0.86,0.25-1.74,0.48-2.58c0.23-0.85,0.59-1.66,0.89-2.49c0.03,0,0.06,0,0.09,0c0.28,0.63,0.56,1.25,0.87,1.95
			c1.13-1.43,2.22-2.9,3.96-3.51c0.26,0.99,0.43,1.95,0.76,2.84c0.58,1.56,1.39,3,2.62,4.17c0.06,0.06,0.1,0.15,0.12,0.23
			c0.16,1.03,0.26,2.07,0.48,3.09c0.27,1.22,0.74,2.38,1.27,3.51c0.1,0.2,0.16,0.42,0.26,0.71c0.19-0.36,0.36-0.65,0.52-0.95
			c0.37-0.68,0.74-1.35,1.1-2.03c0.38-0.7,0.75-1.41,1.11-2.12c0.08-0.17,0.15-0.21,0.34-0.19c0.88,0.08,1.75,0.01,2.61-0.18
			c0.78-0.17,1.54-0.43,2.22-0.85c0.55-0.34,1.07-0.75,1.6-1.13c0.05-0.04,0.11-0.07,0.13-0.08c0.56,1.6,1.12,3.21,1.69,4.81
			c0.04-0.01,0.08-0.01,0.12-0.02c0.96-2.05,1.91-4.09,2.88-6.15c0.51,0,1.04,0.02,1.57-0.01c0.34-0.02,0.68-0.1,1.03-0.16
			c0.23-0.04,0.42-0.06,0.63,0.12c0.6,0.5,1.28,0.86,2.05,1.06c0.99,0.25,1.97,0.4,2.98,0.25c0.25-0.04,0.5-0.06,0.76-0.12
			c-1.44-0.55-2.86-1.15-4.12-2.11c3.19-1.92,4.69-5.01,5.8-8.41c0.17,0.2,0.34,0.4,0.51,0.6c0.6,0.7,1.34,1.22,2.18,1.59
			c0.74,0.32,1.52,0.52,2.32,0.59c0.49,0.04,0.99,0.07,1.48,0.06c0.52-0.01,1.05-0.07,1.67-0.12c-0.13-0.1-0.18-0.16-0.24-0.18
			c-1-0.43-2.02-0.8-2.98-1.29c-1.45-0.74-2.75-1.69-3.7-3.04c-0.1-0.15-0.2-0.31-0.31-0.48c0.4-0.03,0.77-0.05,1.14-0.11
			c0.81-0.13,1.6-0.34,2.36-0.67c1.61-0.7,2.87-1.84,3.97-3.18c1.02-1.25,1.82-2.64,2.41-4.14c0.32-0.81,0.59-1.64,0.8-2.48
			c0.18-0.7,0.24-1.43,0.3-2.15c-0.48,0.94-0.94,1.89-1.45,2.81c-0.31,0.57-0.68,1.11-1.05,1.64c-0.78,1.11-1.65,2.13-2.65,3.05
			c-0.79,0.72-1.65,1.34-2.61,1.78c-0.91,0.42-1.9,0.58-2.9,0.62c-0.23,0.01-0.45-0.05-0.75-0.08c0.18-0.27,0.33-0.51,0.48-0.74
			c0.38-0.56,0.76-1.13,1.16-1.68c0.06-0.08,0.2-0.13,0.31-0.14c0.51-0.03,1-0.14,1.28-0.59c0.17-0.27,0.26-0.6,0.31-0.91
			c0.33-1.91-0.5-3.3-2-4.38c-0.4-0.29-0.85-0.47-1.28-0.69c-0.82-0.41-1.66-0.47-2.51-0.41c-0.87,0.06-1.7,0.31-2.4,0.88
			c-0.23,0.18-0.28,0.38-0.07,0.61c0.19,0.21,0.38,0.41,0.55,0.6c-0.46,0.9-0.94,1.82-1.42,2.76c-0.09-0.24-0.22-0.49-0.3-0.75
			c-0.45-1.5-0.58-3.05-0.47-4.6c0.06-0.78,0.23-1.56,0.41-2.33c0.35-1.52,1.03-2.92,1.83-4.25c0.42-0.7,0.92-1.35,1.48-2.03
			c0.14,0.78,0.28,1.55,0.44,2.41c0.3-0.23,0.56-0.42,0.81-0.63c0.74-0.61,1.55-1.11,2.41-1.54c0.76-0.37,1.56-0.56,2.39-0.66
			c1.08-0.13,2.14-0.11,3.2,0.13c0.71,0.16,1.42,0.35,2.13,0.53c0.92,0.24,1.79,0.61,2.62,1.06c0.19,0.1,0.36,0.23,0.53,0.35
			c-0.26,0.07-0.5,0.14-0.78,0.21c0.58,0.67,1.13,1.31,1.69,1.95c-0.01,0.03-0.03,0.05-0.04,0.08c-0.37-0.03-0.75-0.05-1.17-0.09
			c0.83,1.66,1.5,3.33,1.95,5.1c0.47,1.8,0.67,3.62,0.56,5.48c0.04,0,0.07,0.01,0.11,0.01c0.17-0.93,0.34-1.86,0.52-2.85
			c0.33,0.26,0.65,0.47,0.92,0.73c0.41,0.38,0.83,0.76,1.16,1.2c0.35,0.46,0.64,0.98,0.88,1.51c0.3,0.68,0.55,1.38,0.77,2.09
			c0.11,0.36,0.12,0.75,0.15,1.13c0.01,0.07-0.1,0.19-0.18,0.21c-0.82,0.26-1.66,0.48-2.47,0.76c-0.56,0.19-1.09,0.45-1.63,0.68
			c-0.17,0.07-0.33,0.15-0.49,0.22c0.01,0.03,0.01,0.06,0.02,0.09c0.18-0.02,0.36-0.04,0.54-0.07c1.66-0.28,3.34-0.43,5.03-0.45
			c1.08-0.01,2.17,0.03,3.21,0.34c0.55,0.16,1.04,0.51,1.56,0.78c0.06,0.03,0.08,0.14,0.1,0.17c-0.91,0.21-1.81,0.38-2.7,0.62
			c-0.87,0.23-1.72,0.52-2.58,0.78c0,0.03,0.01,0.07,0.01,0.1c0.1,0.01,0.2,0.03,0.29,0.02c0.64-0.06,1.28-0.15,1.92-0.17
			c0.74-0.03,1.48-0.04,2.21,0c0.79,0.05,1.59,0.14,2.37,0.25c0.72,0.1,1.44,0.22,2.14,0.41c0.66,0.18,1.3,0.44,1.93,0.7
			c0.56,0.24,1.12,0.51,1.65,0.82c0.82,0.47,1.56,1.04,2.22,1.72c0.2,0.2,0.41,0.39,0.66,0.62c0.08-0.43,0.15-0.85,0.24-1.37
			c0.59,0.85,1.11,1.63,1.68,2.46c0.16-0.28,0.3-0.52,0.46-0.78c0.11,0.33,0.26,0.65,0.32,0.98c0.21,1.17,0.36,2.36,0.33,3.55
			c0,0.17-0.06,0.38-0.16,0.51c-0.98,1.3-2.15,2.37-3.63,3.09c-0.44,0.21-0.87,0.43-1.4,0.69c0.92,0.19,1.75,0.07,2.57-0.12
			c0.83-0.19,1.62-0.51,2.33-1c0.02,0.02,0.05,0.03,0.07,0.05c-0.17,0.58-0.3,1.17-0.51,1.72c-0.07,0.18-0.34,0.31-0.55,0.41
			c-0.79,0.38-1.59,0.72-2.46,0.88c-0.13,0.02-0.25,0.05-0.38,0.08c-0.01,0.03-0.01,0.07-0.02,0.1c0.43,0.09,0.85,0.21,1.28,0.25
			c0.44,0.04,0.89,0.01,1.36,0.01c-0.99,1.53-2.38,2.68-3.91,3.73c0.16,0.09,0.29,0.18,0.44,0.25c0.61,0.29,1.22,0.57,1.83,0.86
			c0.05,0.02,0.08,0.07,0.12,0.11c-0.04,0.03-0.07,0.07-0.11,0.09c-0.74,0.28-1.48,0.57-2.24,0.82c-0.63,0.21-1.28,0.4-1.93,0.54
			c-0.55,0.12-1.12,0.16-1.68,0.22c-0.51,0.06-1.02,0.13-1.53,0.14c-0.5,0.01-1.01-0.03-1.51-0.09c-0.59-0.06-1.19-0.15-1.78-0.25
			c-0.31-0.05-0.62-0.11-0.91-0.22c-0.79-0.3-1.59-0.6-2.35-0.96c-0.61-0.29-1.18-0.66-1.86-1.05c1.24-0.27,2.37-0.52,3.51-0.77
			c0.13,0.22,0.27,0.49,0.43,0.74c0.19,0.29,0.45,0.34,0.7,0.13c0.67-0.55,1.15-1.22,1.49-2.02c0.32-0.74,0.47-1.5,0.5-2.28
			c0.03-0.83-0.18-1.63-0.48-2.41c-0.33-0.89-0.79-1.68-1.51-2.29c-0.41-0.35-0.91-0.6-1.4-0.85c-0.11-0.06-0.33,0.05-0.48,0.11
			c-0.96,0.38-1.91,0.77-2.88,1.14c-0.6,0.23-1.23,0.41-1.84,0.63c-0.47,0.17-0.94,0.35-1.47,0.54c0.09-0.42,0.13-0.8,0.27-1.15
			c0.29-0.71,0.56-1.43,0.97-2.07c0.36-0.57,0.83-1.09,1.33-1.53c0.71-0.62,1.45-1.25,2.26-1.71c1.13-0.64,2.34-1.15,3.54-1.66
			c0.71-0.3,1.46-0.54,2.2-0.74c0.76-0.2,1.54-0.33,2.31-0.49c0.31-0.06,0.62-0.12,0.97-0.18c-0.1-0.05-0.18-0.13-0.27-0.14
			c-0.88-0.08-1.77-0.2-2.65-0.19c-1.15,0.02-2.31,0.09-3.44,0.37c-0.67,0.17-1.35,0.28-2.02,0.47c-1.39,0.39-2.7,0.99-3.92,1.75
			c-0.17,0.11-0.33,0.22-0.57,0.38c0.54-1.67,1.77-2.66,2.98-3.71c-0.31,0.13-0.64,0.24-0.93,0.41c-0.84,0.51-1.67,1.01-2.47,1.57
			c-0.72,0.51-1.24,1.2-1.44,2.06c-0.07,0.31,0.04,0.67,0.05,1.01c0,0.12,0,0.28-0.07,0.36c-0.77,0.92-1.38,1.93-1.78,3.05
			c-0.21,0.59-0.33,1.22-0.47,1.84c-0.1,0.44-0.16,0.9-0.25,1.36c-2.14,0.78-4.3,1.57-6.53,2.39c0.28,0.18,0.52,0.34,0.77,0.48
			c0.79,0.45,1.58,0.91,2.38,1.34c0.37,0.2,0.78,0.34,1.17,0.51c0.36,0.16,0.72,0.34,1.1,0.47c0.56,0.2,1.13,0.37,1.7,0.53
			c0.34,0.09,0.7,0.13,1.05,0.22c0.07,0.02,0.15,0.1,0.2,0.16c0.59,0.84,1.3,1.56,2.1,2.2c0.17,0.14,0.12,0.24,0,0.36
			c-0.91,0.87-1.86,1.7-2.91,2.4c-1.07,0.71-2.17,1.37-3.36,1.84c-1.09,0.43-2.18,0.86-3.3,1.2c-1.02,0.31-2.07,0.53-3.12,0.74
			c-0.63,0.12-1.28,0.12-1.91,0.22c-1.69,0.27-3.4,0.19-5.1,0.18c-0.61,0-1.21-0.11-1.81-0.17c0.17,0.25,2.14,0.87,3.47,1.19
			c1.23,0.29,2.46,0.52,3.82,0.61c-2.89,2.07-5.89,3.79-9.22,5.08c0.65,0.25,1.22,0.47,1.84,0.71c-0.36,0.11-0.7,0.23-1.04,0.32
			c-0.5,0.13-1.01,0.25-1.52,0.36c-0.21,0.05-0.43,0.06-0.65,0.08c-0.48,0.05-0.95,0.12-1.43,0.15c-0.49,0.04-0.99,0.08-1.48,0.06
			c-0.99-0.04-1.97-0.15-2.94-0.4c-0.94-0.25-1.84-0.59-2.68-1.05c-1.15-0.64-2.18-1.46-3.07-2.44c-0.21-0.23-0.43-0.46-0.68-0.73
			c-0.2,0.26-0.4,0.52-0.64,0.83c-1.79-2.42-3-5.08-3.86-7.94C44.41,115.02,45.55,114.97,46.69,114.81z"/>
		<path class="st1" d="M59.32,96.68c0.4-0.9,0.78-1.77,1.18-2.62c0.13-0.28,0.22-0.61,0.7-0.56c0.42,0.04,1.04-0.57,1.06-1.05
			c0.03-0.72,0.08-1.46-0.06-2.15c-0.28-1.4-1.15-2.42-2.38-3.12c-0.5-0.29-1.03-0.59-1.59-0.71c-0.85-0.19-1.73-0.24-2.58,0.09
			c-0.45,0.18-0.9,0.38-1.33,0.61c-0.23,0.12-0.43,0.31-0.62,0.49c-0.32,0.31-0.26,0.61-0.03,0.85c0.19,0.2,0.42,0.35,0.59,0.49
			c-0.36,1.09-0.72,2.18-1.1,3.33c-2.44-5.5-1.55-10.72,1.1-15.8c0.04,0,0.07,0,0.11-0.01c0.24,0.83,0.47,1.66,0.73,2.55
			c1.4-1.62,2.8-3.2,4.96-3.85c-0.04,0.49-0.11,0.92-0.1,1.35c0,0.8,0.01,1.6,0.08,2.39c0.05,0.57,0.14,1.15,0.33,1.68
			c0.34,0.99,0.71,1.98,1.15,2.93c0.23,0.5,0.62,0.93,0.95,1.38c0.12,0.17,0.16,0.33,0.15,0.56c-0.03,0.6,0,1.21,0.04,1.81
			c0.05,0.7,0.12,1.39,0.21,2.08c0.05,0.39,0.14,0.77,0.24,1.15c0.19,0.73,0.41,1.45,0.61,2.18c0.04,0.13,0.09,0.26,0.16,0.42
			c1.22-1.75,2.4-3.47,3.6-5.19c0.2,0.06,0.4,0.11,0.64,0.18c-0.32,0.69-0.62,1.38-0.97,2.03c-0.41,0.77-0.83,1.54-1.32,2.27
			c-0.68,1.01-1.46,1.96-2.42,2.73c-0.55,0.44-1.13,0.85-1.8,1.07C60.87,96.48,60.13,96.74,59.32,96.68z"/>
		<path class="st1" d="M47.81,100.71c0.61-1.11,1.19-2.2,1.79-3.27c0.27-0.49,0.58-0.95,0.92-1.4c0.29-0.39,0.12-0.75-0.01-1.09
			c-0.36-0.99-1.05-1.73-1.97-2.23c-0.47-0.26-0.96-0.52-1.47-0.65c-0.55-0.13-1.14-0.11-1.71-0.15c-0.63-0.04-1.21,0.13-1.76,0.41
			c-0.37,0.19-0.73,0.41-1.06,0.66c-0.32,0.25-0.23,0.59,0.2,0.91c0.11,0.08,0.24,0.15,0.35,0.22c-0.35,0.94-0.7,1.86-1.07,2.85
			c-2.27-4.78-1.35-9.23,1.26-13.59c0.13,0.39,0.24,0.71,0.34,1.04c0.1,0.33,0.18,0.67,0.28,1c0.05,0.18,0.14,0.23,0.3,0.06
			c0.94-1.05,1.98-1.98,3.25-2.6c0.53-0.26,1.12-0.37,1.69-0.53c0.15-0.05,0.32-0.06,0.54-0.11c-0.08,0.34-0.17,0.66-0.23,0.99
			c-0.1,0.66-0.22,1.33-0.27,2c-0.07,0.94-0.15,1.88-0.12,2.82c0.02,0.78,0.17,1.56,0.3,2.33c0.11,0.63,0.24,1.26,0.43,1.86
			c0.23,0.69,0.51,1.37,0.83,2.03c0.46,0.96,1,1.87,1.72,2.66c0.1,0.12,0.22,0.23,0.31,0.35c0.06,0.08,0.13,0.17,0.15,0.26
			c0.04,0.25,0.06,0.5,0.06,0.75c0,0.11-0.04,0.25-0.11,0.32c-0.75,0.72-1.57,1.34-2.56,1.7C49.44,100.59,48.67,100.75,47.81,100.71
			z"/>
	</g>
	<g id="claws_1_">
		<path class="st3" d="M79.62,105.76c3.91-1.36,7.72-2.82,11.25-4.9c0.5,0.48,0.88,1.05,1.14,1.68c0.24,0.6,0.45,1.22,0.58,1.85
			c0.1,0.52,0.1,1.07,0.07,1.6c-0.01,0.14-0.26,0.32-0.44,0.4c-0.92,0.41-1.87,0.7-2.86,0.89c-1.36,0.26-2.73,0.38-4.11,0.3
			c-0.53-0.03-1.07-0.19-1.59-0.34c-0.9-0.26-1.79-0.54-2.67-0.85C80.54,106.23,80.12,105.99,79.62,105.76z"/>
		<path class="st3" d="M55.19,100.65c-0.14-0.52-0.3-1.02-0.41-1.52c-0.12-0.54-0.23-1.08-0.29-1.63c-0.09-0.84-0.19-1.68-0.19-2.51
			c0-0.62,0.12-1.25,0.22-1.87c0.12-0.68,0.23-1.37,0.44-2.02c0.24-0.77,0.55-1.51,0.86-2.25c0.13-0.31,0.33-0.59,0.52-0.88
			c0.05-0.07,0.19-0.13,0.28-0.12c0.77,0.11,1.5,0.33,2.19,0.67c0.73,0.36,1.3,0.89,1.87,1.45c0.29,0.29,0.12,0.48-0.03,0.73
			c-0.65,1.05-1.31,2.09-1.94,3.16c-0.52,0.89-1.03,1.79-1.5,2.71c-0.52,1.04-0.99,2.11-1.48,3.16c-0.13,0.29-0.26,0.58-0.4,0.87
			C55.3,100.62,55.22,100.63,55.19,100.65z"/>
		<path class="st3" d="M64.67,88.41c-0.09-0.32-0.19-0.56-0.21-0.8c-0.08-1.1-0.15-2.21-0.2-3.31c-0.05-0.95,0.19-1.85,0.52-2.73
			c0.28-0.74,0.54-1.48,0.87-2.19c0.38-0.8,0.84-1.57,1.49-2.19c0.09-0.08,0.27-0.16,0.37-0.12c1.52,0.47,2.9,1.15,3.81,2.53
			c0.1,0.15,0.07,0.23-0.04,0.36c-0.71,0.77-1.43,1.53-2.1,2.33c-0.71,0.84-1.39,1.7-2.05,2.58c-0.63,0.84-1.23,1.71-1.83,2.57
			C65.09,87.73,64.91,88.04,64.67,88.41z"/>
		<path class="st3" d="M43.86,104.15c-0.12-0.44-0.24-0.84-0.32-1.25c-0.14-0.65-0.25-1.3-0.37-1.94c-0.06-0.31-0.11-0.63-0.13-0.94
			c-0.07-0.98,0.09-1.94,0.36-2.87c0.24-0.86,0.51-1.71,0.84-2.54c0.2-0.49,0.54-0.92,0.83-1.36c0.05-0.07,0.21-0.13,0.31-0.11
			c0.93,0.2,1.85,0.44,2.66,0.97c0.3,0.2,0.57,0.43,0.86,0.64c0.06,0.05,0.14,0.08,0.2,0.12c0.29,0.16,0.32,0.45,0.13,0.7
			c-0.61,0.81-1.23,1.6-1.79,2.44c-0.67,1.01-1.29,2.05-1.89,3.1c-0.54,0.93-1.02,1.89-1.52,2.84
			C43.99,104.02,43.93,104.08,43.86,104.15z"/>
		<path class="st3" d="M36.24,114.91c-0.2-0.48-0.39-0.88-0.54-1.3c-0.2-0.58-0.39-1.17-0.55-1.76c-0.12-0.44-0.21-0.89-0.24-1.34
			c-0.08-1.06-0.02-2.13,0.2-3.17c0.19-0.9,0.4-1.82,0.92-2.61c0.06-0.09,0.22-0.17,0.33-0.17c1.47-0.01,2.78,0.42,3.89,1.44
			C38.6,108.79,37.36,111.77,36.24,114.91z"/>
	</g>
</g>
<g id="tape">
	<path class="st10" d="M59.93,58.02c-0.05,1.18-0.1,2.37-0.15,3.55c-0.05,1.3-0.09,2.6-0.12,3.91c-0.01,0.28-0.12,0.44-0.35,0.58
		c-2.25,1.44-4.51,2.85-6.74,4.33c-3.51,2.33-6.98,4.74-10.23,7.42c-1.89,1.56-3.57,3.35-5.25,5.13c-3.35,3.54-6.68,7.1-10.06,10.61
		c-1.76,1.82-3.65,3.5-5.69,5.02c-1.8,1.34-3.83,1.9-6.04,1.93c-2.96,0.04-5.54-0.92-7.72-2.95C7.24,97.23,7.05,96.87,7,96.38
		c-0.15-1.53-0.05-3.05,0.13-4.56c0.06-0.48,0.12-0.96,0.17-1.45c0.02-0.08,0.04-0.17,0.06-0.25c0.22-0.41,0.4-0.84,0.66-1.23
		c0.28-0.41,0.58-0.82,0.95-1.14c0.38-0.33,0.84-0.59,1.3-0.79c0.47-0.2,0.99-0.35,1.5-0.4c2.29-0.25,4.33,0.3,5.99,1.98
		c0.48,0.49,0.83,1.07,1,1.75c0.2,0.8,0.37,1.6,0.55,2.41c0.03,0.11,0.05,0.22,0.09,0.4c0.21-0.13,0.38-0.22,0.54-0.33
		c1.2-0.85,2.25-1.87,3.19-2.99c1.16-1.38,2.22-2.84,3.43-4.18c1.88-2.09,3.81-4.15,5.79-6.15c4.44-4.49,9.1-8.76,13.91-12.86
		c2.64-2.25,5.35-4.4,8.33-6.19c1.58-0.95,3.21-1.82,5-2.33c0.06-0.02,0.11-0.06,0.17-0.09C59.81,57.99,59.87,58.01,59.93,58.02z
		 M39.58,79.8c0.04,0.01,0.07,0.03,0.11,0.04c0.17-0.16,0.32-0.33,0.5-0.47c0.33-0.25,0.43-0.56,0.43-0.96
		c0-0.98,0.04-1.97,0.07-2.95c0-0.13,0.05-0.25,0.08-0.38c0.05,0.01,0.1,0.01,0.14,0.02c-0.03,1.18-0.05,2.36-0.08,3.53
		c0.03,0.01,0.07,0.01,0.1,0.02c0.37-0.31,0.81-0.54,0.74-1.17c-0.04-0.32,0.01-0.66,0.03-0.98c0.01-0.1,0.04-0.21,0.07-0.31
		c0.04,0,0.09,0,0.13,0c0,0.51,0,1.01,0,1.57c0.52-0.32,0.94-0.6,0.87-1.24c-0.04-0.32,0.01-0.66,0.03-0.98
		c0-0.09,0.04-0.18,0.06-0.27c0.05,0,0.09,0.01,0.14,0.01c0,0.51,0,1.02,0,1.53c0.03,0.01,0.06,0.02,0.09,0.03
		c0.23-0.18,0.49-0.33,0.69-0.54c0.13-0.13,0.24-0.32,0.26-0.5c0.05-0.39,0.03-0.78,0.05-1.17c0.01-0.1,0.04-0.2,0.06-0.3
		c0.04,0,0.09,0.01,0.13,0.01c0,0.49,0.01,0.97,0.01,1.48c0.64-0.28,0.78-0.47,0.81-1.07c0.02-0.35,0.03-0.7,0.05-1.05
		c0.01-0.1,0.05-0.19,0.08-0.29c0.04,0,0.09,0.01,0.13,0.01c-0.01,0.53-0.03,1.06-0.04,1.62c0.68-0.29,0.85-0.52,0.9-1.15
		c0.08-0.99,0.15-1.99,0.23-2.98c0.01-0.15,0.06-0.29,0.09-0.43c0.03,0,0.06,0,0.1,0c0.01,0.11,0.04,0.23,0.03,0.34
		c-0.07,1-0.15,2.01-0.22,3.01c-0.01,0.12,0.01,0.23,0.02,0.4c0.47-0.3,0.94-0.5,0.86-1.15c-0.04-0.32,0.01-0.66,0.03-0.98
		c0.01-0.1,0.06-0.19,0.09-0.29c0.04,0.01,0.08,0.01,0.11,0.02c0,0.51,0,1.03-0.01,1.56c0.6-0.19,0.78-0.42,0.81-0.96
		c0.02-0.34,0.02-0.68,0.04-1.02c0.01-0.1,0.04-0.21,0.07-0.31c0.05,0,0.09,0,0.14,0.01c0,0.51,0,1.02-0.01,1.62
		c0.27-0.19,0.46-0.33,0.65-0.44c0.23-0.14,0.35-0.32,0.34-0.59c-0.01-0.37,0.02-0.74,0.04-1.11c0.01-0.1,0.04-0.21,0.07-0.31
		c0.04,0,0.09,0,0.13,0c0,0.51,0,1.01,0.01,1.57c0.51-0.26,0.94-0.48,0.88-1.12c-0.03-0.31,0.02-0.63,0.05-0.95
		c0.01-0.09,0.05-0.18,0.08-0.27c0.04,0,0.08,0.01,0.12,0.01c-0.01,0.51-0.02,1.02-0.04,1.59c0.42-0.23,0.74-0.4,0.76-0.91
		c0.03-1,0.14-2.01,0.22-3.01c0.01-0.17,0.05-0.33,0.08-0.49c0.05,0.01,0.1,0.01,0.15,0.02c-0.02,1.22-0.2,2.45-0.23,3.69
		c0.68-0.2,0.87-0.45,0.89-1.06c0.01-0.32,0.02-0.64,0.04-0.95c0.01-0.09,0.05-0.17,0.07-0.26c0.04,0,0.09,0.01,0.13,0.01
		c-0.01,0.5-0.01,1-0.02,1.58c0.2-0.12,0.33-0.2,0.45-0.27c0.25-0.12,0.37-0.29,0.34-0.6c-0.03-0.41,0.01-0.82,0.04-1.24
		c0.01-0.1,0.06-0.19,0.09-0.29c0.04,0.01,0.08,0.01,0.11,0.02c0,0.54-0.01,1.09-0.01,1.63c0.04,0.03,0.08,0.06,0.13,0.09
		c0.18-0.14,0.36-0.3,0.55-0.42c0.24-0.14,0.34-0.32,0.34-0.59c0-0.38,0.02-0.76,0.04-1.14c0.01-0.1,0.06-0.19,0.09-0.29
		c0.04,0.01,0.08,0.01,0.11,0.02c0,0.5,0,1.01,0,1.52c0.62-0.15,0.84-0.41,0.87-0.93c0.02-0.36,0.03-0.72,0.06-1.08
		c0.01-0.11,0.05-0.22,0.07-0.33c0.05,0.01,0.1,0.01,0.15,0.02c-0.02,0.54-0.04,1.08-0.05,1.62c0.04,0.03,0.08,0.06,0.12,0.09
		c0.18-0.14,0.35-0.32,0.55-0.42c0.35-0.18,0.44-0.46,0.46-0.82c0.06-1.04,0.15-2.07,0.24-3.1c0.01-0.1,0.05-0.2,0.08-0.29
		c0.05,0.01,0.1,0.01,0.15,0.02c-0.09,1.22-0.17,2.44-0.26,3.74c0.18-0.09,0.28-0.13,0.38-0.19c0.32-0.19,0.62-0.4,0.95-0.59
		c0.23-0.13,0.32-0.31,0.32-0.57c0.02-0.87,0.05-1.74,0.08-2.6c0.04-1.29,0.09-2.58,0.13-3.87c0.02-0.49-0.02-0.52-0.5-0.36
		c-0.2,0.07-0.4,0.14-0.6,0.21c-2.38,0.94-4.53,2.29-6.62,3.76c-2.28,1.61-4.41,3.4-6.52,5.22c-4.97,4.28-9.75,8.77-14.36,13.45
		c-2.29,2.32-4.46,4.74-6.45,7.31c-1,1.3-2.09,2.53-3.33,3.62c-1.93,1.7-4.14,2.73-6.74,2.84c-1.4,0.06-2.76-0.12-3.98-0.85
		c-1.69-1.01-2.66-2.43-2.39-4.49c0.01-0.07-0.01-0.14-0.01-0.21c-0.33,0.39-0.51,0.83-0.56,1.31c-0.13,1.25-0.25,2.51-0.35,3.76
		c-0.03,0.34-0.14,0.72,0.23,0.98C7.5,95.46,7.5,95.6,7.5,95.7c0.03,0.38,0.05,0.76,0.08,1.14c0.01,0.1,0.03,0.2,0.05,0.29
		c0.03,0,0.06,0,0.09-0.01c-0.02-0.47-0.04-0.95-0.06-1.42c0.05-0.01,0.1-0.01,0.14-0.02c0.03,0.11,0.08,0.21,0.09,0.32
		c0.04,0.43,0.06,0.87,0.1,1.3c0.01,0.12,0.08,0.24,0.13,0.36c0.04-0.01,0.08-0.02,0.12-0.03c-0.02-0.26-0.03-0.52-0.05-0.78
		c-0.04-0.58-0.04-0.58,0.15-0.73c0.02,0.13,0.05,0.24,0.06,0.35c0.03,0.42,0.06,0.85,0.09,1.27c0.01,0.22,0.1,0.38,0.36,0.43
		c0.12-0.52-0.13-1.05,0.08-1.56c0.08,0.11,0.12,0.22,0.13,0.34c0.04,0.41,0.06,0.82,0.09,1.24c0.02,0.3,0.18,0.45,0.52,0.51
		c-0.04-0.55-0.08-1.08-0.12-1.6c-0.03-0.51-0.13-1.02-0.02-1.54c0.1,0.13,0.14,0.26,0.15,0.4c0.08,0.89,0.14,1.77,0.22,2.66
		c0.03,0.37,0.24,0.54,0.65,0.53c0.11-0.5-0.14-1.02,0.07-1.52c0.07,0.1,0.11,0.2,0.12,0.31c0.03,0.36,0.05,0.72,0.08,1.08
		c0.03,0.4,0.16,0.51,0.63,0.52c-0.02-0.54-0.05-1.08-0.07-1.62c0.05-0.01,0.1-0.01,0.14-0.02c0.03,0.11,0.07,0.22,0.08,0.34
		c0.04,0.41,0.05,0.82,0.09,1.24c0.02,0.21,0.32,0.42,0.54,0.38c0.26-0.05,0.15-0.26,0.15-0.41c-0.01-0.32-0.04-0.63-0.05-0.95
		c0-0.1,0.04-0.2,0.06-0.31c0.03,0,0.06,0,0.09,0c0.03,0.11,0.06,0.23,0.07,0.34c0.04,0.41,0.05,0.83,0.1,1.24
		c0.04,0.34,0.34,0.32,0.57,0.33c0.27,0.01,0.2-0.22,0.2-0.38c-0.01-0.41-0.04-0.83-0.05-1.24c0-0.11,0.03-0.22,0.05-0.33
		c0.04,0,0.07,0,0.11,0c0.02,0.11,0.06,0.21,0.06,0.32c0.02,0.34,0.03,0.68,0.05,1.02c0.04,0.74,0.04,0.74,0.79,0.76
		c0.28,0.01,0.34-0.1,0.32-0.36c-0.08-0.91-0.15-1.82-0.22-2.72c-0.01-0.12,0.02-0.23,0.04-0.35c0.04,0,0.08,0,0.12,0
		c0.02,0.12,0.06,0.23,0.07,0.35c0.07,0.81,0.14,1.63,0.2,2.44c0.05,0.7,0.07,0.71,0.79,0.64c0.22-0.02,0.32-0.12,0.31-0.34
		c-0.03-0.36-0.05-0.72-0.07-1.08c0-0.11,0.03-0.22,0.05-0.34c0.03,0,0.07,0,0.1,0c0.02,0.1,0.06,0.21,0.07,0.31
		c0.03,0.35,0.05,0.7,0.07,1.05c0.01,0.2,0.05,0.35,0.31,0.33c0.47-0.03,0.6-0.1,0.59-0.39c-0.01-0.38-0.05-0.76-0.07-1.14
		c0-0.11,0.03-0.22,0.05-0.33c0.04,0,0.07,0,0.11,0c0.02,0.11,0.05,0.21,0.06,0.32c0.03,0.33,0.04,0.66,0.07,0.98
		c0.02,0.15-0.06,0.4,0.25,0.37c0.38-0.03,0.47-0.12,0.45-0.45c-0.02-0.37-0.05-0.74-0.07-1.11c0-0.1,0.03-0.2,0.04-0.3
		c0.03,0,0.07,0,0.1,0c0.03,0.1,0.07,0.21,0.08,0.31c0.03,0.36,0.04,0.72,0.08,1.08c0.01,0.09,0.08,0.22,0.14,0.24
		c0.29,0.09,0.64-0.21,0.63-0.52c-0.01-0.42-0.04-0.85-0.06-1.27c0-0.12,0.02-0.23,0.04-0.35c0.05,0,0.09,0,0.14-0.01
		c0.05,0.59,0.09,1.18,0.14,1.77c0.75-0.19,0.85-0.32,0.8-0.98c-0.07-0.99-0.15-1.99-0.22-2.98C19.98,95.26,20,95.12,20,94.98
		c0.04,0,0.08-0.01,0.12-0.01c0.03,0.12,0.07,0.24,0.08,0.36c0.08,1,0.15,2.01,0.23,3.01c0.01,0.13,0.05,0.25,0.07,0.39
		c0.68-0.25,0.8-0.42,0.76-1.08c-0.02-0.25-0.04-0.51-0.04-0.76c0-0.09,0.04-0.18,0.06-0.26c0.04,0,0.08,0,0.12,0
		c0.04,0.45,0.09,0.9,0.14,1.36c0.6-0.2,0.81-0.49,0.77-1.02c-0.02-0.33-0.05-0.66-0.06-0.98c0-0.1,0.02-0.21,0.03-0.31
		c0.05,0,0.09,0,0.14-0.01c0.05,0.5,0.1,1.01,0.15,1.59c0.19-0.15,0.3-0.24,0.43-0.32c0.33-0.21,0.44-0.5,0.38-0.89
		c-0.05-0.3-0.05-0.61-0.06-0.92c0-0.09,0.04-0.19,0.06-0.29c0.04,0,0.08,0.01,0.12,0.01c0.04,0.48,0.09,0.96,0.14,1.48
		c0.44-0.28,0.75-0.53,0.67-1.07c-0.06-0.39-0.05-0.8-0.06-1.2c0-0.11,0.02-0.23,0.04-0.34c0.05,0,0.09,0,0.14,0
		c0.04,0.58,0.09,1.16,0.14,1.82c0.19-0.16,0.3-0.26,0.43-0.35c0.34-0.24,0.44-0.53,0.4-0.95c-0.11-1-0.16-2.01-0.23-3.01
		c-0.01-0.13,0.02-0.27,0.03-0.4c0.05,0,0.1,0,0.15,0c0.1,1.21,0.19,2.43,0.3,3.71c0.47-0.38,0.9-0.66,0.76-1.29
		c-0.06-0.28-0.05-0.57-0.06-0.85c0-0.09,0.03-0.18,0.04-0.27c0.04,0,0.09,0,0.13,0c0.05,0.45,0.1,0.9,0.15,1.44
		c0.19-0.18,0.3-0.3,0.42-0.39c0.32-0.24,0.43-0.55,0.37-0.95c-0.05-0.29-0.05-0.59-0.06-0.89c0-0.09,0.04-0.19,0.06-0.29
		c0.04,0,0.08,0.01,0.12,0.01c0.04,0.46,0.09,0.92,0.13,1.43c0.52-0.41,0.96-0.77,0.79-1.46c-0.06-0.26-0.05-0.55-0.06-0.82
		c0-0.08,0.02-0.17,0.03-0.25c0.05,0,0.09,0,0.14-0.01c0.05,0.46,0.1,0.92,0.15,1.41c0.53-0.29,0.68-0.55,0.65-1.07
		c-0.02-0.39-0.04-0.78-0.05-1.17c0-0.1,0.02-0.21,0.03-0.31c0.05,0,0.1,0,0.14-0.01c0.04,0.54,0.09,1.07,0.14,1.63
		c0.52-0.3,0.67-0.56,0.63-1.07c-0.08-1.09-0.16-2.18-0.24-3.26c-0.01-0.13,0.01-0.25,0.02-0.38c0.04,0,0.08-0.01,0.11-0.01
		c0.03,0.12,0.07,0.24,0.08,0.36c0.08,0.99,0.15,1.99,0.22,2.98c0.01,0.14,0.04,0.28,0.08,0.49c0.4-0.37,0.81-0.63,0.7-1.21
		c-0.06-0.33-0.06-0.68-0.07-1.01c0-0.1,0.02-0.2,0.04-0.3c0.05,0,0.09,0,0.14,0c0.05,0.48,0.09,0.96,0.14,1.45
		c0.53-0.26,0.81-0.71,0.78-1.22c-0.02-0.37-0.05-0.74-0.07-1.11c0-0.1,0.04-0.19,0.06-0.29c0.04,0,0.08,0,0.12,0
		c0.05,0.51,0.1,1.02,0.14,1.52c0.03,0.01,0.06,0.01,0.09,0.02c0.14-0.15,0.28-0.31,0.43-0.45c0.23-0.21,0.32-0.45,0.28-0.76
		c-0.05-0.37-0.06-0.74-0.07-1.11c0-0.1,0.04-0.2,0.06-0.3c0.04,0,0.08,0,0.12,0c0.04,0.49,0.09,0.98,0.14,1.49
		c0.5-0.28,0.68-0.59,0.66-1.07c-0.02-0.42-0.04-0.85-0.05-1.27c0-0.1,0.04-0.21,0.07-0.31c0.04,0.01,0.08,0.01,0.12,0.02
		c0.04,0.55,0.07,1.09,0.11,1.64c0.03,0.01,0.06,0.02,0.08,0.02c0.19-0.2,0.36-0.41,0.56-0.59c0.24-0.21,0.3-0.46,0.27-0.77
		c-0.1-1.09-0.17-2.18-0.25-3.26c-0.01-0.13,0.01-0.25,0.02-0.38c0.05,0,0.1-0.01,0.15-0.01c0.1,0.61,0.11,1.23,0.16,1.85
		c0.05,0.63,0.1,1.25,0.15,1.97c0.43-0.41,0.85-0.69,0.73-1.3c-0.06-0.31-0.05-0.63-0.07-0.95c0-0.1,0.03-0.2,0.04-0.31
		c0.04,0,0.09,0,0.13,0c0.05,0.47,0.1,0.95,0.15,1.49c0.48-0.42,0.91-0.74,0.77-1.4c-0.06-0.29-0.05-0.59-0.06-0.89
		c0-0.11,0.03-0.23,0.04-0.34c0.04,0,0.09,0,0.13-0.01c0.05,0.5,0.09,0.99,0.14,1.49c0.22-0.12,0.35-0.26,0.49-0.38
		c0.28-0.23,0.37-0.51,0.32-0.87c-0.05-0.34-0.06-0.7-0.07-1.05c0-0.1,0.03-0.2,0.04-0.3c0.05,0,0.09,0,0.14,0
		c0.05,0.51,0.09,1.01,0.14,1.59c0.42-0.36,0.75-0.62,0.66-1.16c-0.07-0.4-0.05-0.82-0.06-1.24c0-0.1,0.04-0.2,0.06-0.3
		c0.04,0,0.09,0,0.13,0C39.52,78.69,39.55,79.25,39.58,79.8z M18.95,91.88c-0.04,0-0.07,0-0.11,0c-0.04,0.06-0.09,0.11-0.12,0.18
		c-0.45,1.25-1.43,1.88-2.63,2.23c-1.35,0.39-2.69,0.31-4-0.15c-1.26-0.44-2.32-1.18-2.98-2.39c-0.75-1.38-0.38-2.93,0.92-3.81
		c0.69-0.47,1.47-0.72,2.3-0.76c2-0.11,3.77,0.43,5.04,2.07c0.65,0.84,0.85,1.8,0.39,2.81c-0.39,0.86-1.14,1.32-2,1.59
		c-1.12,0.35-2.24,0.28-3.34-0.09c-0.99-0.33-1.82-0.89-2.38-1.8c-0.83-1.35-0.37-2.87,1.06-3.54c0.79-0.37,1.63-0.48,2.48-0.37
		c1.39,0.19,2.56,0.75,3.27,2.03c0.55,0.99,0.25,2.14-0.69,2.77c-1.57,1.05-4.13,0.58-5.24-0.95c-0.73-1.01-0.48-2.22,0.59-2.83
		c0.88-0.5,1.83-0.5,2.77-0.2c0.71,0.23,1.32,0.62,1.71,1.29c0.51,0.89,0.18,1.94-0.77,2.33c-0.35,0.14-0.76,0.24-1.14,0.25
		c-1.06,0.02-1.96-0.34-2.52-1.3c-0.36-0.63-0.15-1.39,0.46-1.78c0.92-0.59,2.43-0.32,3.08,0.56c0.34,0.46,0.31,1.09-0.06,1.46
		c-0.67,0.66-2.13,0.48-2.62-0.32c-0.22-0.37-0.17-0.81,0.12-1.08c0.45-0.41,1.38-0.34,1.76,0.14c0.24,0.3,0.2,0.7-0.1,0.9
		c-0.29,0.2-0.85,0.11-0.99-0.19c-0.05-0.11-0.02-0.32,0.06-0.41c0.12-0.13,0.3-0.12,0.4,0.04c-0.05,0.11-0.08,0.18-0.12,0.26
		c0.1,0.03,0.2,0.1,0.29,0.08c0.1-0.02,0.23-0.09,0.27-0.18c0.03-0.08-0.01-0.24-0.07-0.31c-0.23-0.28-0.56-0.36-0.89-0.27
		c-0.19,0.05-0.45,0.2-0.5,0.36c-0.05,0.18,0.04,0.47,0.17,0.62c0.34,0.4,0.83,0.49,1.33,0.43c0.39-0.05,0.73-0.2,0.86-0.61
		c0.12-0.41-0.07-0.73-0.37-0.98c-0.52-0.45-1.14-0.59-1.81-0.47c-0.49,0.09-0.93,0.29-1.08,0.82c-0.15,0.54,0.1,0.96,0.49,1.29
		c0.71,0.61,1.54,0.77,2.44,0.56c1.3-0.31,1.64-1.49,0.73-2.46c-0.84-0.88-2.43-1.18-3.57-0.65c-1.02,0.46-1.31,1.46-0.71,2.4
		c0.11,0.17,0.23,0.33,0.38,0.46c1.19,1.03,2.54,1.28,4,0.73c1.37-0.52,1.7-1.9,0.78-3.05c-1.09-1.36-3.29-1.86-4.96-1.13
		c-1.44,0.63-1.83,2.1-0.89,3.36c1.29,1.73,4.18,2.3,6.04,1.19c1.22-0.73,1.56-2.07,0.83-3.29c-1.21-2.04-4.46-2.89-6.67-1.76
		c-1.71,0.87-2.1,2.67-0.91,4.18c1.57,2,4.86,2.71,7.13,1.53c1.67-0.87,2.19-2.53,1.25-4.12c-0.25-0.42-0.58-0.81-0.94-1.15
		c-0.98-0.92-2.18-1.37-3.49-1.55c-1.25-0.17-2.48-0.05-3.62,0.53c-0.62,0.32-1.21,0.66-1.45,1.39c-0.45,1.42-0.32,2.74,0.67,3.91
		c0.93,1.1,2.14,1.68,3.54,1.87c2.16,0.3,4.19-0.12,6.09-1.19c0.09-0.05,0.21-0.17,0.21-0.25C19.08,92.7,19.01,92.29,18.95,91.88z"
		/>
	<path class="st11" d="M39.58,79.8c-0.03-0.56-0.07-1.11-0.1-1.67c-0.04,0-0.09,0-0.13,0c-0.02,0.1-0.07,0.2-0.06,0.3
		c0.01,0.41-0.01,0.83,0.06,1.24c0.09,0.55-0.24,0.81-0.66,1.16c-0.05-0.58-0.1-1.09-0.14-1.59c-0.05,0-0.09,0-0.14,0
		c-0.02,0.1-0.05,0.2-0.04,0.3c0.02,0.35,0.02,0.7,0.07,1.05c0.05,0.36-0.04,0.64-0.32,0.87c-0.14,0.12-0.27,0.26-0.49,0.38
		c-0.05-0.5-0.09-0.99-0.14-1.49c-0.04,0-0.09,0-0.13,0.01c-0.02,0.11-0.05,0.23-0.04,0.34c0.01,0.3,0,0.6,0.06,0.89
		c0.14,0.66-0.29,0.98-0.77,1.4c-0.06-0.54-0.1-1.01-0.15-1.49c-0.04,0-0.09,0-0.13,0c-0.01,0.1-0.05,0.21-0.04,0.31
		c0.01,0.32,0.01,0.64,0.07,0.95c0.12,0.61-0.3,0.89-0.73,1.3c-0.06-0.72-0.1-1.34-0.15-1.97c-0.05-0.62-0.06-1.24-0.16-1.85
		c-0.05,0-0.1,0.01-0.15,0.01c-0.01,0.13-0.03,0.25-0.02,0.38c0.08,1.09,0.15,2.18,0.25,3.26c0.03,0.31-0.03,0.55-0.27,0.77
		c-0.2,0.18-0.38,0.39-0.56,0.59c-0.03-0.01-0.06-0.02-0.08-0.02c-0.04-0.55-0.07-1.09-0.11-1.64c-0.04-0.01-0.08-0.01-0.12-0.02
		c-0.02,0.1-0.07,0.21-0.07,0.31c0.01,0.42,0.04,0.85,0.05,1.27c0.02,0.48-0.16,0.78-0.66,1.07c-0.05-0.51-0.09-1-0.14-1.49
		c-0.04,0-0.08,0-0.12,0c-0.02,0.1-0.07,0.2-0.06,0.3c0.01,0.37,0.03,0.74,0.07,1.11c0.04,0.32-0.05,0.55-0.28,0.76
		c-0.15,0.14-0.29,0.3-0.43,0.45c-0.03-0.01-0.06-0.01-0.09-0.02c-0.05-0.51-0.1-1.02-0.14-1.52c-0.04,0-0.08,0-0.12,0
		c-0.02,0.1-0.07,0.19-0.06,0.29c0.01,0.37,0.05,0.74,0.07,1.11c0.03,0.51-0.24,0.96-0.78,1.22c-0.05-0.5-0.09-0.97-0.14-1.45
		c-0.05,0-0.09,0-0.14,0c-0.01,0.1-0.04,0.2-0.04,0.3c0.02,0.34,0.01,0.68,0.07,1.01c0.11,0.59-0.3,0.84-0.7,1.21
		c-0.03-0.21-0.07-0.35-0.08-0.49c-0.08-0.99-0.15-1.99-0.22-2.98c-0.01-0.12-0.06-0.24-0.08-0.36c-0.04,0-0.08,0.01-0.11,0.01
		c-0.01,0.13-0.03,0.26-0.02,0.38c0.08,1.09,0.16,2.18,0.24,3.26c0.04,0.51-0.11,0.77-0.63,1.07c-0.05-0.56-0.09-1.09-0.14-1.63
		c-0.05,0-0.1,0-0.14,0.01c-0.01,0.11-0.03,0.21-0.03,0.31c0.01,0.39,0.04,0.78,0.05,1.17c0.02,0.51-0.13,0.77-0.65,1.07
		c-0.05-0.48-0.1-0.95-0.15-1.41c-0.05,0-0.09,0-0.14,0.01c-0.01,0.08-0.04,0.17-0.03,0.25c0.01,0.28,0,0.56,0.06,0.82
		c0.16,0.7-0.27,1.05-0.79,1.46c-0.05-0.51-0.09-0.97-0.13-1.43c-0.04,0-0.08-0.01-0.12-0.01c-0.02,0.1-0.06,0.19-0.06,0.29
		c0.01,0.3,0.01,0.6,0.06,0.89c0.06,0.4-0.05,0.7-0.37,0.95c-0.12,0.09-0.23,0.21-0.42,0.39c-0.06-0.54-0.1-0.99-0.15-1.44
		c-0.04,0-0.09,0-0.13,0c-0.02,0.09-0.05,0.18-0.04,0.27c0.01,0.29,0,0.58,0.06,0.85c0.14,0.63-0.29,0.91-0.76,1.29
		c-0.1-1.29-0.2-2.5-0.3-3.71c-0.05,0-0.1,0-0.15,0c-0.01,0.13-0.04,0.27-0.03,0.4c0.07,1,0.13,2.01,0.23,3.01
		c0.04,0.42-0.06,0.72-0.4,0.95c-0.13,0.09-0.24,0.2-0.43,0.35c-0.05-0.66-0.09-1.24-0.14-1.82c-0.05,0-0.09,0-0.14,0
		c-0.01,0.11-0.04,0.23-0.04,0.34c0.01,0.4,0,0.81,0.06,1.2c0.09,0.54-0.22,0.79-0.67,1.07c-0.05-0.52-0.09-1-0.14-1.48
		c-0.04,0-0.08-0.01-0.12-0.01c-0.02,0.1-0.06,0.19-0.06,0.29c0.01,0.31,0.01,0.62,0.06,0.92c0.06,0.39-0.05,0.68-0.38,0.89
		c-0.12,0.08-0.23,0.17-0.43,0.32c-0.06-0.58-0.1-1.08-0.15-1.59c-0.05,0-0.09,0-0.14,0.01c-0.01,0.1-0.04,0.21-0.03,0.31
		c0.01,0.33,0.04,0.66,0.06,0.98c0.04,0.54-0.17,0.82-0.77,1.02c-0.05-0.46-0.09-0.91-0.14-1.36c-0.04,0-0.08,0-0.12,0
		c-0.02,0.09-0.06,0.18-0.06,0.26c0.01,0.25,0.03,0.51,0.04,0.76c0.04,0.66-0.08,0.83-0.76,1.08c-0.02-0.13-0.06-0.26-0.07-0.39
		c-0.08-1-0.15-2.01-0.23-3.01c-0.01-0.12-0.05-0.24-0.08-0.36c-0.04,0-0.08,0.01-0.12,0.01c-0.01,0.14-0.03,0.27-0.02,0.41
		c0.07,0.99,0.15,1.99,0.22,2.98c0.05,0.66-0.05,0.79-0.8,0.98c-0.05-0.6-0.1-1.18-0.14-1.77c-0.05,0-0.09,0-0.14,0.01
		c-0.01,0.12-0.04,0.23-0.04,0.35c0.01,0.42,0.04,0.85,0.06,1.27c0.01,0.31-0.35,0.6-0.63,0.52c-0.07-0.02-0.13-0.15-0.14-0.24
		c-0.04-0.36-0.05-0.72-0.08-1.08c-0.01-0.11-0.05-0.21-0.08-0.31c-0.03,0-0.07,0-0.1,0c-0.02,0.1-0.05,0.2-0.04,0.3
		c0.02,0.37,0.05,0.74,0.07,1.11c0.02,0.33-0.07,0.42-0.45,0.45c-0.31,0.03-0.23-0.22-0.25-0.37c-0.04-0.33-0.04-0.66-0.07-0.98
		c-0.01-0.11-0.04-0.21-0.06-0.32c-0.04,0-0.07,0-0.11,0c-0.02,0.11-0.05,0.22-0.05,0.33c0.02,0.38,0.05,0.76,0.07,1.14
		c0.01,0.29-0.12,0.36-0.59,0.39c-0.26,0.02-0.3-0.13-0.31-0.33c-0.02-0.35-0.04-0.7-0.07-1.05c-0.01-0.1-0.05-0.21-0.07-0.31
		c-0.03,0-0.07,0-0.1,0c-0.02,0.11-0.05,0.23-0.05,0.34c0.01,0.36,0.04,0.72,0.07,1.08c0.02,0.23-0.08,0.32-0.31,0.34
		c-0.72,0.07-0.73,0.06-0.79-0.64c-0.06-0.81-0.13-1.63-0.2-2.44c-0.01-0.12-0.05-0.23-0.07-0.35c-0.04,0-0.08,0-0.12,0
		c-0.01,0.12-0.04,0.24-0.04,0.35c0.07,0.91,0.14,1.82,0.22,2.72c0.02,0.26-0.04,0.37-0.32,0.36c-0.75-0.02-0.75-0.01-0.79-0.76
		c-0.02-0.34-0.03-0.68-0.05-1.02c-0.01-0.11-0.04-0.21-0.06-0.32c-0.04,0-0.07,0-0.11,0c-0.02,0.11-0.06,0.22-0.05,0.33
		c0.01,0.41,0.04,0.83,0.05,1.24c0,0.16,0.07,0.39-0.2,0.38c-0.23-0.01-0.53,0.01-0.57-0.33c-0.05-0.41-0.06-0.82-0.1-1.24
		c-0.01-0.11-0.05-0.23-0.07-0.34c-0.03,0-0.06,0-0.09,0c-0.02,0.1-0.07,0.2-0.06,0.31c0.01,0.32,0.04,0.63,0.05,0.95
		c0,0.15,0.11,0.36-0.15,0.41c-0.22,0.04-0.52-0.17-0.54-0.38c-0.04-0.41-0.06-0.82-0.09-1.24c-0.01-0.11-0.05-0.22-0.08-0.34
		c-0.05,0.01-0.1,0.01-0.14,0.02c0.02,0.54,0.05,1.08,0.07,1.62c-0.47-0.01-0.6-0.12-0.63-0.52c-0.03-0.36-0.05-0.72-0.08-1.08
		c-0.01-0.11-0.05-0.21-0.12-0.31c-0.22,0.5,0.04,1.02-0.07,1.52c-0.41,0-0.61-0.16-0.65-0.53c-0.08-0.89-0.14-1.77-0.22-2.66
		c-0.01-0.14-0.06-0.27-0.15-0.4c-0.11,0.52-0.01,1.03,0.02,1.54c0.03,0.52,0.08,1.05,0.12,1.6c-0.34-0.06-0.51-0.2-0.52-0.51
		c-0.02-0.41-0.05-0.82-0.09-1.24c-0.01-0.12-0.05-0.23-0.13-0.34c-0.21,0.51,0.04,1.04-0.08,1.56c-0.26-0.05-0.35-0.21-0.36-0.43
		c-0.03-0.42-0.06-0.85-0.09-1.27c-0.01-0.11-0.03-0.22-0.06-0.35c-0.2,0.15-0.19,0.15-0.15,0.73c0.02,0.26,0.03,0.52,0.05,0.78
		c-0.04,0.01-0.08,0.02-0.12,0.03C8.08,97.55,8.01,97.43,8,97.31c-0.04-0.43-0.06-0.87-0.1-1.3c-0.01-0.11-0.06-0.22-0.09-0.32
		c-0.05,0.01-0.1,0.01-0.14,0.02c0.02,0.47,0.04,0.95,0.06,1.42c-0.03,0-0.06,0-0.09,0.01c-0.02-0.1-0.04-0.2-0.05-0.29
		c-0.03-0.38-0.05-0.76-0.08-1.14c-0.01-0.09,0-0.23-0.05-0.27c-0.38-0.26-0.26-0.65-0.23-0.98c0.1-1.26,0.21-2.51,0.35-3.76
		c0.05-0.48,0.23-0.93,0.56-1.31c0,0.07,0.02,0.14,0.01,0.21c-0.27,2.07,0.69,3.49,2.39,4.49c1.22,0.73,2.58,0.91,3.98,0.85
		c2.6-0.11,4.81-1.14,6.74-2.84c1.24-1.09,2.32-2.32,3.33-3.62c1.99-2.58,4.16-5,6.45-7.31c4.61-4.67,9.38-9.16,14.36-13.45
		c2.11-1.82,4.24-3.61,6.52-5.22c2.08-1.47,4.23-2.82,6.62-3.76c0.2-0.08,0.4-0.15,0.6-0.21c0.48-0.16,0.51-0.13,0.5,0.36
		c-0.04,1.29-0.09,2.58-0.13,3.87c-0.03,0.87-0.06,1.74-0.08,2.6c-0.01,0.26-0.09,0.44-0.32,0.57c-0.32,0.18-0.63,0.39-0.95,0.59
		c-0.09,0.06-0.2,0.1-0.38,0.19c0.09-1.3,0.18-2.52,0.26-3.74c-0.05-0.01-0.1-0.01-0.15-0.02c-0.03,0.1-0.07,0.19-0.08,0.29
		c-0.08,1.03-0.17,2.07-0.24,3.1c-0.02,0.36-0.11,0.64-0.46,0.82c-0.2,0.1-0.37,0.28-0.55,0.42c-0.04-0.03-0.08-0.06-0.12-0.09
		c0.02-0.54,0.04-1.08,0.05-1.62c-0.05-0.01-0.1-0.01-0.15-0.02c-0.02,0.11-0.06,0.22-0.07,0.33c-0.02,0.36-0.04,0.72-0.06,1.08
		c-0.03,0.53-0.25,0.78-0.87,0.93c0-0.52,0-1.02,0-1.52c-0.04-0.01-0.08-0.01-0.11-0.02c-0.03,0.1-0.08,0.19-0.09,0.29
		c-0.02,0.38-0.04,0.76-0.04,1.14c0,0.27-0.1,0.45-0.34,0.59c-0.2,0.12-0.37,0.28-0.55,0.42c-0.04-0.03-0.08-0.06-0.13-0.09
		c0-0.54,0.01-1.09,0.01-1.63c-0.04-0.01-0.08-0.01-0.11-0.02c-0.03,0.09-0.08,0.19-0.09,0.29c-0.02,0.41-0.07,0.83-0.04,1.24
		c0.03,0.31-0.09,0.47-0.34,0.6c-0.13,0.06-0.25,0.15-0.45,0.27c0.01-0.57,0.01-1.08,0.02-1.58c-0.04,0-0.09-0.01-0.13-0.01
		c-0.03,0.09-0.07,0.17-0.07,0.26c-0.02,0.32-0.03,0.63-0.04,0.95c-0.02,0.61-0.22,0.86-0.89,1.06c0.03-1.25,0.22-2.47,0.23-3.69
		c-0.05-0.01-0.1-0.01-0.15-0.02c-0.03,0.16-0.06,0.33-0.08,0.49c-0.08,1-0.18,2.01-0.22,3.01c-0.02,0.51-0.33,0.68-0.76,0.91
		c0.01-0.57,0.02-1.08,0.04-1.59c-0.04,0-0.08-0.01-0.12-0.01c-0.03,0.09-0.07,0.18-0.08,0.27c-0.03,0.32-0.08,0.64-0.05,0.95
		c0.06,0.63-0.37,0.85-0.88,1.12c0-0.55,0-1.06-0.01-1.57c-0.04,0-0.09,0-0.13,0c-0.02,0.1-0.06,0.21-0.07,0.31
		c-0.02,0.37-0.04,0.74-0.04,1.11c0.01,0.28-0.11,0.46-0.34,0.59c-0.2,0.12-0.38,0.26-0.65,0.44c0-0.6,0-1.11,0.01-1.62
		c-0.05,0-0.09,0-0.14-0.01c-0.02,0.1-0.06,0.2-0.07,0.31c-0.02,0.34-0.02,0.68-0.04,1.02c-0.03,0.53-0.21,0.76-0.81,0.96
		c0-0.53,0-1.04,0.01-1.56c-0.04-0.01-0.08-0.01-0.11-0.02c-0.03,0.1-0.08,0.19-0.09,0.29c-0.02,0.33-0.07,0.66-0.03,0.98
		c0.08,0.65-0.39,0.84-0.86,1.15c-0.01-0.17-0.03-0.29-0.02-0.4c0.07-1,0.15-2.01,0.22-3.01c0.01-0.11-0.02-0.23-0.03-0.34
		c-0.03,0-0.06,0-0.1,0c-0.03,0.14-0.08,0.29-0.09,0.43c-0.08,0.99-0.15,1.99-0.23,2.98c-0.05,0.63-0.22,0.86-0.9,1.15
		c0.02-0.56,0.03-1.09,0.04-1.62c-0.04,0-0.09-0.01-0.13-0.01c-0.03,0.1-0.08,0.19-0.08,0.29c-0.03,0.35-0.04,0.7-0.05,1.05
		c-0.03,0.59-0.17,0.79-0.81,1.07c0-0.51-0.01-1-0.01-1.48c-0.04,0-0.09-0.01-0.13-0.01c-0.02,0.1-0.06,0.2-0.06,0.3
		c-0.02,0.39,0,0.79-0.05,1.17c-0.02,0.18-0.13,0.37-0.26,0.5c-0.21,0.2-0.46,0.36-0.69,0.54c-0.03-0.01-0.06-0.02-0.09-0.03
		c0-0.51,0-1.02,0-1.53c-0.05,0-0.09-0.01-0.14-0.01c-0.02,0.09-0.05,0.18-0.06,0.27c-0.02,0.33-0.07,0.66-0.03,0.98
		c0.07,0.64-0.35,0.92-0.87,1.24c0-0.56,0-1.06,0-1.57c-0.05,0-0.09,0-0.13,0c-0.02,0.1-0.06,0.21-0.07,0.31
		c-0.02,0.33-0.06,0.66-0.03,0.98c0.07,0.62-0.37,0.86-0.74,1.17c-0.03-0.01-0.07-0.01-0.1-0.02c0.03-1.18,0.05-2.36,0.08-3.53
		c-0.05-0.01-0.1-0.01-0.14-0.02c-0.03,0.13-0.08,0.25-0.08,0.38c-0.03,0.98-0.07,1.97-0.07,2.95c0,0.4-0.1,0.72-0.43,0.96
		c-0.18,0.14-0.34,0.31-0.5,0.47C39.66,79.83,39.62,79.81,39.58,79.8z"/>
	<path class="st9" d="M18.95,91.88c0.06,0.41,0.14,0.82,0.18,1.24c0.01,0.08-0.12,0.2-0.21,0.25c-1.9,1.06-3.93,1.49-6.09,1.19
		c-1.4-0.19-2.61-0.78-3.54-1.87c-0.99-1.17-1.12-2.49-0.67-3.91c0.23-0.73,0.83-1.08,1.45-1.39c1.14-0.59,2.37-0.7,3.62-0.53
		c1.31,0.17,2.51,0.63,3.49,1.55c0.36,0.34,0.69,0.73,0.94,1.15c0.94,1.59,0.43,3.25-1.25,4.12c-2.27,1.18-5.56,0.47-7.13-1.53
		c-1.19-1.51-0.79-3.31,0.91-4.18c2.21-1.13,5.45-0.27,6.67,1.76c0.73,1.22,0.39,2.57-0.83,3.29c-1.86,1.11-4.75,0.54-6.04-1.19
		c-0.94-1.26-0.55-2.72,0.89-3.36c1.67-0.73,3.87-0.23,4.96,1.13c0.92,1.15,0.6,2.53-0.78,3.05c-1.46,0.56-2.81,0.3-4-0.73
		c-0.15-0.13-0.27-0.3-0.38-0.46c-0.61-0.93-0.31-1.93,0.71-2.4c1.14-0.52,2.73-0.23,3.57,0.65c0.92,0.97,0.57,2.15-0.73,2.46
		c-0.9,0.21-1.73,0.04-2.44-0.56c-0.39-0.33-0.65-0.75-0.49-1.29c0.15-0.52,0.59-0.73,1.08-0.82c0.67-0.12,1.29,0.02,1.81,0.47
		c0.29,0.25,0.49,0.58,0.37,0.98c-0.12,0.41-0.47,0.56-0.86,0.61c-0.51,0.06-0.99-0.03-1.33-0.43c-0.13-0.15-0.22-0.44-0.17-0.62
		c0.05-0.16,0.31-0.31,0.5-0.36c0.33-0.09,0.66-0.01,0.89,0.27c0.06,0.08,0.11,0.23,0.07,0.31c-0.03,0.08-0.17,0.16-0.27,0.18
		c-0.09,0.02-0.19-0.05-0.29-0.08c0.03-0.08,0.07-0.16,0.12-0.26c-0.1-0.16-0.28-0.17-0.4-0.04c-0.08,0.09-0.11,0.3-0.06,0.41
		c0.13,0.3,0.7,0.39,0.99,0.19c0.29-0.2,0.33-0.59,0.1-0.9c-0.38-0.48-1.31-0.56-1.76-0.14c-0.29,0.27-0.34,0.71-0.12,1.08
		c0.48,0.8,1.95,0.98,2.62,0.32c0.37-0.37,0.4-1,0.06-1.46c-0.65-0.88-2.16-1.16-3.08-0.56c-0.61,0.39-0.83,1.15-0.46,1.78
		c0.55,0.96,1.46,1.32,2.52,1.3c0.38-0.01,0.78-0.1,1.14-0.25c0.95-0.39,1.28-1.44,0.77-2.33c-0.39-0.67-0.99-1.07-1.71-1.29
		c-0.94-0.3-1.89-0.3-2.77,0.2c-1.08,0.61-1.32,1.82-0.59,2.83c1.11,1.53,3.67,2,5.24,0.95c0.94-0.62,1.24-1.78,0.69-2.77
		c-0.71-1.28-1.88-1.84-3.27-2.03c-0.86-0.12-1.69-0.01-2.48,0.37c-1.43,0.68-1.89,2.2-1.06,3.54c0.56,0.91,1.4,1.47,2.38,1.8
		c1.1,0.37,2.22,0.44,3.34,0.09c0.87-0.27,1.61-0.73,2-1.59c0.46-1.01,0.25-1.97-0.39-2.81c-1.27-1.64-3.03-2.18-5.04-2.07
		c-0.83,0.05-1.6,0.29-2.3,0.76c-1.29,0.88-1.67,2.43-0.92,3.81c0.66,1.21,1.71,1.95,2.98,2.39c1.31,0.46,2.66,0.54,4,0.15
		c1.2-0.35,2.18-0.99,2.63-2.23c0.02-0.06,0.08-0.12,0.12-0.18C18.87,91.88,18.91,91.88,18.95,91.88z"/>
</g>
</svg>
