<?xml version="1.0" encoding="utf-8"?>
<!-- Generator: Adobe Illustrator 25.2.1, SVG Export Plug-In . SVG Version: 6.00 Build 0)  -->
<svg version="1.1" id="Layer_1" xmlns="http://www.w3.org/2000/svg" xmlns:xlink="http://www.w3.org/1999/xlink" x="0px" y="0px"
	 viewBox="0 0 124.44 144" style="enable-background:new 0 0 124.44 144;" xml:space="preserve">
<style type="text/css">
	.st0{fill:#3F51B5;}
	.st1{fill:#FF9800;}
	.st2{fill:none;}
	.st3{fill:#FFFFFF;}
	.st4{font-family:'MyriadPro-Regular';}
	.st5{font-size:22px;}
	.st6{opacity:0.26;}
	.st7{opacity:0.5;}
	.st8{fill:#FFF3E0;}
	.st9{fill:#FFE0B2;}
	.st10{fill:#FFCC80;}
	.st11{fill:#FFB74D;}
	.st12{fill:#FFEB3B;}
	.st13{fill:#F44336;}
	.st14{fill:#050203;}
	.st15{fill:#FCF9FB;}
	.st16{fill:#A62C71;}
	.st17{fill:#020202;}
	.st18{fill:#673AB7;}
</style>
<g id="XMLID_27_">
	<polygon class="st0" points="2.5,106.56 2.5,37.44 62.22,2.89 121.94,37.44 121.94,106.56 62.22,141.11 	"/>
	<g>
		<path class="st1" d="M62.22,5.78l57.22,33.11v66.23l-57.22,33.11L5,105.12V38.88L62.22,5.78 M62.22,0L0,36v72l62.22,36l62.22-36
			V36L62.22,0L62.22,0z"/>
	</g>
</g>
<rect x="0" y="36.3" class="st2" width="124.44" height="31.67"/>
<text transform="matrix(1 0 0 1 5.065 51.9168)" class="st3 st4 st5">modelbased</text>
<g>
	<g class="st6">
		<path class="st3" d="M52.11,47.36c2.27,0.03,3.96,0.82,5.41,2.09c2.65,2.31,4.75,5.05,6.23,8.25c0.27,0.58,0.51,1.23,0.94,1.66
			c0.38,0.38,1.07,0.77,1.53,0.68c0.46-0.09,0.96-0.7,1.17-1.19c0.23-0.53,0.17-1.2,0.19-1.81c0.03-0.93,0.01-1.86,0.01-2.79
			c0.09-0.06,0.18-0.13,0.27-0.19c0.56,0.65,1.26,1.22,1.64,1.95c0.74,1.41,1.3,2.92,1.95,4.39c0.35,0.79,0.98,1,1.47,0.35
			c1.44-1.91,3.61-2.34,5.7-2.9c1.17-0.32,2.41-0.38,3.62-0.56c0.06,0.14,0.11,0.28,0.17,0.42c-0.92,0.79-1.86,1.57-2.75,2.39
			c-0.43,0.4-0.95,0.82-1.14,1.33c-0.18,0.47-0.13,1.18,0.12,1.59c0.2,0.31,0.88,0.44,1.35,0.44c2.6,0.03,5.2,0,7.79,0.01
			c0.28,0,0.56,0.1,1.16,0.21c-0.74,0.49-1.24,0.83-1.76,1.16c-0.61,0.38-1.25,0.74-1.19,1.6c0.05,0.83,0.72,1.07,1.34,1.34
			c1.82,0.81,3.64,1.62,5.47,2.41c1.13,0.49,2.03,1.1,2.55,2.34c0.25,0.59,1.12,0.92,1.78,1.43c-0.44,0.27-0.98,0.56-1.48,0.91
			c-0.23,0.16-0.51,0.44-0.51,0.67c0,0.18,0.37,0.38,0.58,0.56c0.18,0.16,0.48,0.28,0.54,0.48c0.26,0.81,0.89,1.14,1.6,1.41
			c2.01,0.77,3.59,2.02,4.76,3.88c1.85,2.94,3.83,5.79,5.75,8.69c0.18,0.27,0.25,0.61,0.36,0.91c-0.07,0.06-0.14,0.11-0.22,0.17
			c-0.26-0.2-0.54-0.38-0.78-0.6c-0.84-0.75-1.68-1.5-2.51-2.26c-0.45-0.41-0.93-0.81-1.52-0.34c-0.54,0.43-0.53,1.01-0.3,1.66
			c0.57,1.66,1.2,3.32,1.57,5.03c0.35,1.59,0.47,3.23,0.58,4.86c0.08,1.21-0.57,1.99-1.92,2.51c-0.58-1.26-1.13-2.55-1.76-3.8
			c-0.25-0.49-0.61-0.99-1.04-1.32c-0.25-0.19-0.83-0.19-1.12-0.03c-0.21,0.12-0.3,0.68-0.24,1c0.97,5.43,0.09,10.52-2.99,15.11
			c-0.74,1.1-1.95,1.89-2.98,2.78c-0.24,0.21-0.63,0.23-1.1,0.39c0-1.42,0.02-2.7-0.01-3.98c-0.01-0.41-0.05-0.86-0.22-1.21
			c-0.32-0.66-0.99-0.68-1.44-0.09c-0.37,0.49-0.75,0.98-1.05,1.5c-2.05,3.49-5.31,5.51-8.75,7.33c-0.25,0.13-0.54,0.22-0.82,0.3
			c-0.87,0.26-1.2,0.03-1.27-0.85c-0.03-0.41-0.09-0.83-0.13-1.23c-0.93-0.33-1.3,0.34-1.84,0.79c-1.37,1.15-2.78,2.24-4.21,3.32
			c-0.23,0.18-0.58,0.2-0.97,0.32c0.06-0.82,0.21-1.53,0.13-2.21c-0.04-0.4-0.38-0.96-0.71-1.08c-0.31-0.11-0.95,0.18-1.16,0.48
			c-0.88,1.27-2.14,1.88-3.63,2.41c0-0.44,0-0.78,0-1.11c-0.01-0.64,0.04-1.28-0.05-1.9c-0.04-0.27-0.35-0.69-0.58-0.71
			c-0.31-0.03-0.76,0.16-0.95,0.41c-0.64,0.85-1.16,1.78-1.78,2.64c-0.34,0.48-0.79,0.88-1.35,1.49c-0.25-0.59-0.39-0.96-0.56-1.32
			c-0.71-1.54-1.36-3.11-2.18-4.59c-0.72-1.29-1.86-1.16-2.54,0.17c-0.58,1.14-1.17,2.29-1.78,3.42c-0.33,0.62-0.74,0.6-1.21,0.11
			c-0.66-0.7-1.3-1.43-2.03-2.04c-0.93-0.76-1.43-0.7-2.23,0.17c-0.34,0.37-0.6,0.83-0.9,1.24c-0.27,0.38-0.54,0.76-0.86,1.22
			c-1.72-1.89-3.29-3.77-4.19-6.14c-0.14-0.36-0.57-0.61-0.87-0.9c-0.27,0.29-0.7,0.54-0.78,0.87c-0.25,1.07-0.37,2.16-0.54,3.27
			c-0.09-0.05-0.37-0.16-0.56-0.35c-1.38-1.44-2.84-2.82-4.06-4.39c-0.65-0.82-0.87-1.97-1.31-2.96c-0.17-0.37-0.34-0.83-0.66-1.03
			c-0.35-0.23-0.91-0.39-1.29-0.28c-0.32,0.1-0.71,0.61-0.74,0.97c-0.1,1.24-0.05,2.48-0.06,3.73c0,0.25,0,0.5,0,0.91
			c-0.39-0.22-0.72-0.34-0.97-0.56c-3.03-2.75-5.16-6.02-5.99-10.1c-0.09-0.46-0.6-0.96-1.05-1.17c-0.19-0.09-0.93,0.45-1.04,0.82
			c-0.36,1.22-0.62,2.47-0.79,3.73c-0.18,1.32-0.21,2.67-0.32,4.25c-1.3-1.93-2.11-3.82-2.55-5.81c-1.12-5.17-0.9-10.29,0.83-15.32
			c0.13-0.39,0.11-1.11-0.13-1.28c-0.32-0.24-0.99-0.25-1.39-0.08c-0.5,0.22-0.99,0.64-1.28,1.11c-1.06,1.68-2.04,3.41-3.05,5.13
			c-0.14,0.24-0.26,0.49-0.48,0.92c-0.16-0.35-0.33-0.53-0.3-0.69c0.52-4.07,0.78-8.2,2.66-11.96c0.73-1.46,1.71-2.72,3.07-3.66
			c1.9-1.32,3.79-2.61,6.23-2.78c1.17-0.08,1.27-0.55,0.51-1.5c-0.08-0.1-0.19-0.19-0.24-0.3c-0.19-0.42-0.36-0.84-0.53-1.26
			c0.55-0.21,1.09-0.52,1.66-0.61c0.41-0.06,0.87,0.16,1.31,0.26c1.02-1,1.16-3.03,0.31-4.34c-0.76-1.17-0.74-1.43,0.6-1.63
			c1.21-0.18,2.48,0.03,3.72,0.1c0.8,0.05,1.6,0.19,2.4,0.21c0.85,0.03,1.33-0.97,0.79-1.88c-0.43-0.72-1.13-1.29-1.72-1.91
			c-0.21-0.22-0.47-0.38-0.73-0.59c2.33-1.63,9.06-1.14,10.74,0.7c0.05,0,0.13,0.02,0.17,0c0.76-0.5,1.78-0.83,1.73-1.98
			c-0.04-1.08-1.01-1.4-1.78-1.83c-0.67-0.37-1.37-0.69-2.29-1.16c0.52-0.18,0.81-0.32,1.12-0.38c1.89-0.35,3.62,0.24,5.35,0.87
			c1.26,0.46,2.54,0.88,3.83,1.28c1.02,0.32,1.49-0.05,1.36-1.12c-0.23-1.87-1.05-3.36-2.86-4.16c-0.58-0.26-1.15-0.54-1.84-0.86
			c1.4-0.66,2.75-0.64,3.97-0.16c1.2,0.48,2.34,1.19,3.36,1.98c0.64,0.5,1.15,0.52,1.74,0.17c0.64-0.37,0.67-0.94,0.37-1.59
			c-1.46-3.11-3.21-6.01-5.96-8.19C52.64,47.88,52.49,47.71,52.11,47.36z"/>
	</g>
	<g class="st7">
		<path class="st8" d="M52.11,50.51c2.1,0.02,3.67,0.76,5.01,1.93c2.45,2.14,4.4,4.67,5.77,7.63c0.25,0.54,0.47,1.14,0.87,1.54
			c0.35,0.35,0.99,0.71,1.41,0.63c0.43-0.08,0.88-0.65,1.08-1.1c0.21-0.49,0.16-1.11,0.17-1.67c0.02-0.86,0.01-1.72,0.01-2.59
			c0.08-0.06,0.16-0.12,0.25-0.18c0.52,0.6,1.16,1.13,1.52,1.81c0.69,1.31,1.21,2.71,1.8,4.06c0.32,0.73,0.91,0.92,1.36,0.33
			c1.33-1.77,3.34-2.17,5.27-2.69c1.08-0.29,2.23-0.36,3.35-0.52c0.05,0.13,0.1,0.26,0.15,0.39c-0.85,0.73-1.72,1.45-2.55,2.21
			c-0.4,0.37-0.88,0.76-1.06,1.23c-0.16,0.43-0.12,1.09,0.11,1.47c0.18,0.29,0.81,0.4,1.25,0.41c2.4,0.03,4.81,0,7.21,0.01
			c0.26,0,0.52,0.09,1.08,0.2c-0.68,0.45-1.15,0.77-1.63,1.07c-0.57,0.35-1.16,0.68-1.11,1.48c0.05,0.77,0.67,0.99,1.24,1.24
			c1.69,0.75,3.37,1.5,5.06,2.23c1.05,0.45,1.88,1.02,2.36,2.17c0.23,0.55,1.04,0.86,1.65,1.32c-0.41,0.25-0.91,0.52-1.37,0.84
			c-0.21,0.15-0.47,0.4-0.48,0.62c0,0.17,0.34,0.35,0.54,0.52c0.17,0.15,0.44,0.26,0.5,0.44c0.24,0.75,0.82,1.05,1.48,1.3
			c1.86,0.71,3.32,1.87,4.41,3.59c1.71,2.72,3.55,5.36,5.32,8.04c0.16,0.25,0.23,0.56,0.34,0.84c-0.07,0.05-0.13,0.1-0.2,0.16
			c-0.24-0.18-0.5-0.35-0.73-0.55c-0.78-0.69-1.55-1.39-2.32-2.09c-0.41-0.38-0.86-0.75-1.4-0.31c-0.5,0.4-0.49,0.94-0.28,1.54
			c0.53,1.54,1.11,3.07,1.46,4.65c0.32,1.47,0.44,2.99,0.53,4.5c0.07,1.12-0.52,1.84-1.78,2.32c-0.54-1.17-1.05-2.36-1.63-3.52
			c-0.23-0.46-0.56-0.91-0.96-1.22c-0.24-0.18-0.77-0.18-1.04-0.03c-0.19,0.11-0.28,0.63-0.22,0.93c0.9,5.03,0.08,9.73-2.77,13.98
			c-0.68,1.02-1.8,1.75-2.75,2.57c-0.22,0.19-0.59,0.21-1.02,0.36c0-1.32,0.02-2.5-0.01-3.69c-0.01-0.38-0.05-0.79-0.21-1.12
			c-0.3-0.61-0.92-0.63-1.33-0.08c-0.34,0.45-0.69,0.9-0.98,1.39c-1.89,3.23-4.92,5.1-8.1,6.78c-0.23,0.12-0.5,0.2-0.75,0.28
			c-0.8,0.24-1.11,0.03-1.17-0.79c-0.03-0.38-0.08-0.76-0.12-1.14c-0.86-0.31-1.2,0.32-1.7,0.73c-1.27,1.06-2.58,2.07-3.89,3.07
			c-0.21,0.16-0.54,0.18-0.89,0.29c0.06-0.76,0.19-1.42,0.12-2.05c-0.04-0.37-0.35-0.89-0.66-1c-0.28-0.1-0.88,0.16-1.08,0.45
			c-0.82,1.17-1.98,1.74-3.36,2.23c0-0.41,0-0.72,0-1.02c-0.01-0.59,0.04-1.19-0.04-1.76c-0.04-0.25-0.33-0.64-0.53-0.66
			c-0.28-0.03-0.7,0.15-0.88,0.38c-0.59,0.78-1.07,1.65-1.64,2.44c-0.32,0.44-0.73,0.82-1.25,1.37c-0.23-0.54-0.36-0.89-0.52-1.22
			c-0.66-1.42-1.25-2.88-2.02-4.25c-0.67-1.19-1.73-1.07-2.35,0.16c-0.54,1.06-1.08,2.12-1.65,3.17c-0.31,0.57-0.68,0.56-1.12,0.1
			c-0.61-0.65-1.2-1.33-1.88-1.89c-0.86-0.71-1.32-0.64-2.06,0.16c-0.32,0.35-0.56,0.76-0.83,1.15c-0.25,0.35-0.5,0.71-0.8,1.13
			c-1.59-1.75-3.04-3.49-3.88-5.68c-0.13-0.33-0.53-0.56-0.8-0.84c-0.25,0.27-0.65,0.5-0.72,0.81c-0.23,0.99-0.34,2-0.5,3.03
			c-0.08-0.05-0.34-0.15-0.51-0.33c-1.28-1.33-2.62-2.61-3.76-4.06c-0.6-0.76-0.8-1.83-1.21-2.74c-0.16-0.35-0.32-0.77-0.61-0.96
			c-0.33-0.22-0.85-0.36-1.2-0.26c-0.3,0.09-0.66,0.57-0.68,0.9c-0.09,1.14-0.05,2.3-0.06,3.45c0,0.23,0,0.46,0,0.84
			c-0.36-0.21-0.67-0.32-0.89-0.52c-2.81-2.54-4.77-5.57-5.54-9.34c-0.09-0.43-0.56-0.89-0.97-1.08c-0.18-0.08-0.86,0.42-0.96,0.76
			c-0.34,1.13-0.57,2.29-0.73,3.46c-0.17,1.22-0.2,2.47-0.3,3.93c-1.21-1.78-1.96-3.53-2.36-5.38c-1.04-4.78-0.83-9.52,0.77-14.18
			c0.12-0.36,0.1-1.03-0.12-1.19c-0.3-0.22-0.92-0.23-1.28-0.07c-0.46,0.2-0.92,0.6-1.19,1.03c-0.98,1.56-1.89,3.16-2.83,4.75
			c-0.13,0.22-0.24,0.45-0.45,0.85c-0.15-0.32-0.3-0.49-0.28-0.64c0.48-3.76,0.72-7.59,2.46-11.07c0.67-1.35,1.59-2.51,2.84-3.38
			c1.76-1.22,3.51-2.42,5.77-2.57c1.08-0.07,1.18-0.51,0.47-1.39c-0.07-0.09-0.17-0.18-0.22-0.28c-0.17-0.38-0.33-0.78-0.49-1.17
			c0.51-0.2,1.01-0.48,1.53-0.56c0.38-0.06,0.81,0.15,1.21,0.24c0.94-0.92,1.07-2.8,0.29-4.02c-0.7-1.08-0.69-1.33,0.56-1.51
			c1.12-0.17,2.29,0.03,3.44,0.09c0.74,0.04,1.48,0.17,2.22,0.2c0.78,0.03,1.23-0.9,0.73-1.74c-0.4-0.67-1.04-1.19-1.59-1.76
			c-0.19-0.2-0.43-0.35-0.68-0.55c2.15-1.5,8.39-1.05,9.94,0.65c0.05,0,0.12,0.02,0.15,0c0.7-0.46,1.65-0.77,1.6-1.83
			c-0.04-1-0.93-1.3-1.65-1.7c-0.62-0.35-1.26-0.64-2.12-1.07c0.48-0.16,0.75-0.3,1.04-0.35c1.75-0.33,3.35,0.22,4.95,0.81
			c1.17,0.43,2.35,0.81,3.54,1.19c0.94,0.3,1.38-0.05,1.26-1.03c-0.21-1.73-0.97-3.11-2.64-3.85c-0.54-0.24-1.06-0.5-1.7-0.8
			c1.3-0.61,2.54-0.59,3.67-0.14c1.11,0.44,2.16,1.1,3.11,1.83c0.59,0.46,1.06,0.48,1.61,0.16c0.59-0.35,0.62-0.87,0.34-1.47
			c-1.35-2.88-2.97-5.57-5.51-7.58C52.59,50.98,52.45,50.83,52.11,50.51z"/>
	</g>
	<g class="st7">
		<path class="st9" d="M52.68,52.88c1.96,0.02,3.42,0.71,4.67,1.8c2.28,1.99,4.1,4.35,5.38,7.12c0.23,0.5,0.44,1.06,0.81,1.44
			c0.33,0.33,0.92,0.66,1.32,0.59c0.4-0.07,0.82-0.6,1.01-1.03c0.2-0.46,0.15-1.03,0.16-1.56c0.02-0.8,0.01-1.61,0.01-2.41
			c0.08-0.05,0.15-0.11,0.23-0.16c0.48,0.56,1.08,1.05,1.42,1.68c0.64,1.22,1.13,2.52,1.68,3.79c0.3,0.68,0.85,0.86,1.27,0.31
			c1.24-1.65,3.12-2.02,4.91-2.51c1.01-0.27,2.08-0.33,3.12-0.49c0.05,0.12,0.1,0.24,0.14,0.36c-0.79,0.68-1.6,1.35-2.38,2.06
			c-0.38,0.34-0.82,0.7-0.99,1.15c-0.15,0.4-0.12,1.02,0.11,1.37c0.17,0.27,0.76,0.38,1.16,0.38c2.24,0.03,4.48,0,6.72,0.01
			c0.24,0,0.49,0.09,1,0.18c-0.63,0.42-1.07,0.72-1.52,1c-0.53,0.33-1.08,0.64-1.03,1.38c0.05,0.72,0.62,0.92,1.16,1.16
			c1.57,0.69,3.14,1.4,4.72,2.08c0.98,0.42,1.75,0.95,2.2,2.02c0.21,0.51,0.97,0.8,1.54,1.23c-0.38,0.23-0.85,0.48-1.28,0.79
			c-0.2,0.14-0.44,0.38-0.44,0.58c0,0.16,0.32,0.33,0.5,0.49c0.16,0.14,0.41,0.24,0.47,0.41c0.22,0.7,0.77,0.98,1.38,1.22
			c1.74,0.66,3.1,1.74,4.11,3.35c1.6,2.53,3.31,5,4.96,7.5c0.15,0.23,0.21,0.52,0.31,0.79c-0.06,0.05-0.12,0.1-0.19,0.15
			c-0.23-0.17-0.46-0.33-0.68-0.51c-0.73-0.64-1.45-1.3-2.16-1.95c-0.39-0.35-0.8-0.7-1.31-0.29c-0.46,0.37-0.46,0.87-0.26,1.44
			c0.49,1.43,1.03,2.86,1.36,4.34c0.3,1.37,0.41,2.79,0.5,4.2c0.07,1.04-0.49,1.71-1.66,2.16c-0.5-1.09-0.98-2.2-1.52-3.28
			c-0.22-0.43-0.52-0.85-0.9-1.14c-0.22-0.17-0.72-0.17-0.97-0.02c-0.18,0.11-0.26,0.58-0.21,0.87c0.84,4.69,0.08,9.07-2.58,13.03
			c-0.64,0.95-1.68,1.63-2.57,2.4c-0.21,0.18-0.55,0.2-0.95,0.34c0-1.23,0.01-2.33-0.01-3.44c-0.01-0.35-0.04-0.74-0.19-1.05
			c-0.28-0.57-0.86-0.59-1.24-0.07c-0.32,0.42-0.64,0.84-0.91,1.29c-1.77,3.01-4.58,4.76-7.55,6.32c-0.22,0.12-0.46,0.19-0.7,0.26
			c-0.75,0.23-1.03,0.02-1.09-0.74c-0.03-0.36-0.08-0.71-0.12-1.06c-0.8-0.29-1.12,0.29-1.58,0.68c-1.18,0.99-2.4,1.93-3.63,2.87
			c-0.2,0.15-0.5,0.17-0.83,0.27c0.05-0.71,0.18-1.32,0.12-1.91c-0.04-0.35-0.33-0.83-0.61-0.93c-0.27-0.09-0.82,0.15-1,0.42
			c-0.76,1.09-1.84,1.62-3.13,2.08c0-0.38,0-0.67,0-0.95c0-0.55,0.04-1.11-0.04-1.64c-0.04-0.24-0.31-0.59-0.5-0.61
			c-0.26-0.03-0.66,0.14-0.82,0.35c-0.55,0.73-1,1.53-1.53,2.28c-0.3,0.41-0.68,0.76-1.16,1.28c-0.21-0.51-0.34-0.83-0.48-1.14
			c-0.62-1.33-1.17-2.69-1.88-3.96c-0.62-1.11-1.61-1-2.2,0.15c-0.5,0.99-1.01,1.97-1.53,2.95c-0.29,0.54-0.64,0.52-1.04,0.09
			c-0.57-0.6-1.12-1.24-1.76-1.76c-0.8-0.66-1.23-0.6-1.92,0.15c-0.3,0.32-0.52,0.71-0.78,1.07c-0.23,0.33-0.46,0.66-0.74,1.05
			c-1.48-1.63-2.84-3.25-3.61-5.29c-0.12-0.31-0.49-0.52-0.75-0.78c-0.23,0.25-0.6,0.46-0.67,0.75c-0.21,0.92-0.32,1.87-0.46,2.83
			c-0.08-0.05-0.32-0.14-0.48-0.3c-1.19-1.24-2.45-2.44-3.51-3.78c-0.56-0.71-0.75-1.7-1.13-2.56c-0.14-0.32-0.3-0.71-0.57-0.89
			c-0.31-0.2-0.79-0.34-1.11-0.24c-0.28,0.08-0.61,0.53-0.64,0.84c-0.08,1.07-0.05,2.14-0.05,3.22c0,0.22,0,0.43,0,0.78
			c-0.34-0.19-0.62-0.3-0.83-0.49c-2.62-2.37-4.45-5.2-5.17-8.71c-0.08-0.4-0.52-0.83-0.9-1.01c-0.17-0.08-0.8,0.39-0.9,0.71
			c-0.31,1.05-0.54,2.14-0.68,3.22c-0.15,1.14-0.18,2.3-0.28,3.66c-1.12-1.66-1.82-3.29-2.2-5.01c-0.97-4.46-0.78-8.87,0.71-13.22
			c0.12-0.34,0.1-0.96-0.11-1.11c-0.28-0.2-0.85-0.21-1.2-0.07c-0.43,0.19-0.85,0.56-1.11,0.96c-0.92,1.45-1.76,2.95-2.63,4.43
			c-0.12,0.21-0.22,0.42-0.42,0.79c-0.14-0.3-0.28-0.46-0.26-0.6c0.45-3.51,0.67-7.07,2.29-10.32c0.63-1.26,1.48-2.34,2.65-3.15
			c1.64-1.14,3.27-2.26,5.38-2.4c1.01-0.07,1.1-0.47,0.44-1.29c-0.07-0.09-0.16-0.16-0.2-0.26c-0.16-0.36-0.31-0.72-0.46-1.09
			c0.48-0.18,0.94-0.45,1.43-0.53c0.36-0.06,0.75,0.14,1.13,0.22c0.88-0.86,1-2.61,0.27-3.75c-0.65-1.01-0.64-1.24,0.52-1.41
			c1.04-0.15,2.14,0.03,3.21,0.09c0.69,0.04,1.38,0.16,2.07,0.19c0.73,0.03,1.15-0.84,0.68-1.63c-0.37-0.62-0.97-1.11-1.49-1.64
			c-0.18-0.19-0.4-0.33-0.63-0.51c2.01-1.4,7.82-0.98,9.27,0.6c0.04,0,0.11,0.02,0.14,0c0.66-0.43,1.53-0.72,1.5-1.7
			c-0.04-0.93-0.87-1.21-1.54-1.58c-0.58-0.32-1.18-0.6-1.97-1c0.45-0.15,0.7-0.28,0.97-0.33c1.63-0.31,3.12,0.21,4.62,0.75
			c1.09,0.4,2.2,0.76,3.3,1.11c0.88,0.28,1.29-0.04,1.18-0.96c-0.19-1.61-0.91-2.9-2.46-3.59c-0.5-0.22-0.99-0.46-1.59-0.74
			c1.21-0.57,2.37-0.55,3.42-0.13c1.03,0.41,2.02,1.02,2.9,1.71c0.55,0.43,0.99,0.45,1.5,0.15c0.55-0.32,0.58-0.81,0.32-1.37
			c-1.26-2.69-2.77-5.19-5.14-7.07C53.13,53.32,53,53.18,52.68,52.88z"/>
	</g>
	<g class="st7">
		<path class="st10" d="M53.27,55.33c1.81,0.02,3.16,0.65,4.32,1.67c2.11,1.84,3.79,4.03,4.98,6.58c0.21,0.46,0.41,0.98,0.75,1.33
			c0.31,0.31,0.85,0.61,1.22,0.55c0.37-0.07,0.76-0.56,0.93-0.95c0.18-0.43,0.14-0.96,0.15-1.44c0.02-0.74,0.01-1.49,0.01-2.23
			c0.07-0.05,0.14-0.1,0.21-0.15c0.45,0.52,1,0.97,1.31,1.56c0.59,1.13,1.04,2.33,1.56,3.51c0.28,0.63,0.78,0.8,1.17,0.28
			c1.15-1.53,2.88-1.87,4.55-2.32c0.94-0.25,1.92-0.31,2.89-0.45c0.04,0.11,0.09,0.22,0.13,0.33c-0.73,0.63-1.48,1.25-2.2,1.91
			c-0.35,0.32-0.76,0.65-0.91,1.06c-0.14,0.37-0.11,0.94,0.1,1.27c0.16,0.25,0.7,0.35,1.08,0.35c2.07,0.03,4.15,0,6.22,0.01
			c0.22,0,0.45,0.08,0.93,0.17c-0.59,0.39-0.99,0.67-1.4,0.92c-0.49,0.3-1,0.59-0.95,1.28c0.04,0.66,0.58,0.85,1.07,1.07
			c1.46,0.64,2.91,1.29,4.37,1.92c0.9,0.39,1.62,0.88,2.04,1.87c0.2,0.47,0.89,0.74,1.42,1.14c-0.35,0.21-0.78,0.45-1.18,0.73
			c-0.18,0.13-0.41,0.35-0.41,0.53c0,0.15,0.29,0.3,0.46,0.45c0.15,0.13,0.38,0.22,0.43,0.38c0.2,0.65,0.71,0.91,1.28,1.12
			c1.61,0.61,2.87,1.61,3.8,3.1c1.48,2.34,3.06,4.62,4.59,6.94c0.14,0.21,0.2,0.48,0.29,0.73c-0.06,0.05-0.11,0.09-0.17,0.14
			c-0.21-0.16-0.43-0.3-0.63-0.48c-0.67-0.6-1.34-1.2-2-1.81c-0.36-0.33-0.74-0.65-1.21-0.27c-0.43,0.35-0.42,0.81-0.24,1.33
			c0.46,1.33,0.95,2.65,1.26,4.02c0.28,1.27,0.38,2.58,0.46,3.88c0.06,0.97-0.45,1.58-1.53,2c-0.46-1.01-0.9-2.04-1.41-3.03
			c-0.2-0.4-0.48-0.79-0.83-1.05c-0.2-0.15-0.67-0.16-0.89-0.02c-0.17,0.1-0.24,0.54-0.19,0.8c0.78,4.34,0.07,8.39-2.39,12.06
			c-0.59,0.88-1.55,1.51-2.38,2.22c-0.19,0.16-0.51,0.19-0.88,0.31c0-1.13,0.01-2.16-0.01-3.18c-0.01-0.33-0.04-0.68-0.18-0.97
			c-0.26-0.53-0.79-0.54-1.15-0.07c-0.29,0.39-0.6,0.78-0.84,1.2c-1.63,2.79-4.24,4.4-6.99,5.85c-0.2,0.11-0.43,0.17-0.65,0.24
			c-0.69,0.21-0.96,0.02-1.01-0.68c-0.02-0.33-0.07-0.66-0.11-0.98c-0.74-0.27-1.04,0.27-1.47,0.63c-1.09,0.92-2.22,1.79-3.36,2.65
			c-0.18,0.14-0.46,0.16-0.77,0.25c0.05-0.65,0.17-1.22,0.11-1.77c-0.04-0.32-0.3-0.77-0.57-0.86c-0.25-0.08-0.76,0.14-0.93,0.39
			c-0.7,1.01-1.71,1.5-2.9,1.93c0-0.36,0-0.62,0-0.88c0-0.51,0.04-1.02-0.04-1.52c-0.03-0.22-0.28-0.55-0.46-0.57
			c-0.24-0.03-0.61,0.13-0.76,0.33c-0.51,0.68-0.92,1.42-1.42,2.11c-0.27,0.38-0.63,0.7-1.08,1.19c-0.2-0.47-0.31-0.76-0.45-1.05
			c-0.57-1.23-1.08-2.49-1.74-3.66c-0.58-1.03-1.49-0.93-2.03,0.14c-0.47,0.91-0.94,1.83-1.42,2.73c-0.26,0.5-0.59,0.48-0.96,0.09
			c-0.53-0.56-1.03-1.14-1.62-1.63c-0.74-0.61-1.14-0.56-1.78,0.14c-0.28,0.3-0.48,0.66-0.72,0.99c-0.22,0.3-0.43,0.61-0.69,0.97
			c-1.37-1.51-2.63-3.01-3.34-4.9c-0.11-0.29-0.46-0.48-0.69-0.72c-0.21,0.23-0.56,0.43-0.62,0.7c-0.2,0.85-0.29,1.73-0.43,2.61
			c-0.07-0.04-0.3-0.13-0.44-0.28c-1.1-1.15-2.26-2.25-3.24-3.5c-0.52-0.66-0.69-1.58-1.05-2.37c-0.13-0.3-0.28-0.66-0.52-0.82
			c-0.28-0.19-0.73-0.31-1.03-0.22c-0.26,0.08-0.57,0.49-0.59,0.77c-0.08,0.99-0.04,1.98-0.05,2.98c0,0.2,0,0.4,0,0.72
			c-0.31-0.18-0.58-0.28-0.77-0.45c-2.42-2.19-4.12-4.81-4.78-8.06c-0.07-0.37-0.48-0.77-0.84-0.93c-0.16-0.07-0.74,0.36-0.83,0.65
			c-0.29,0.97-0.5,1.98-0.63,2.98c-0.14,1.06-0.17,2.13-0.26,3.39c-1.04-1.54-1.69-3.05-2.03-4.64c-0.89-4.12-0.72-8.21,0.66-12.23
			c0.11-0.31,0.09-0.89-0.1-1.02c-0.26-0.19-0.79-0.2-1.11-0.06c-0.4,0.17-0.79,0.51-1.02,0.89c-0.85,1.34-1.63,2.73-2.44,4.1
			c-0.11,0.19-0.21,0.39-0.39,0.73c-0.13-0.28-0.26-0.43-0.24-0.55c0.42-3.25,0.62-6.55,2.12-9.55c0.58-1.16,1.37-2.17,2.45-2.92
			c1.52-1.05,3.03-2.09,4.98-2.22c0.93-0.06,1.01-0.44,0.41-1.2c-0.06-0.08-0.15-0.15-0.19-0.24c-0.15-0.33-0.29-0.67-0.43-1.01
			c0.44-0.17,0.87-0.42,1.32-0.49c0.33-0.05,0.7,0.13,1.04,0.21c0.81-0.8,0.93-2.42,0.25-3.47c-0.6-0.93-0.59-1.15,0.48-1.3
			c0.96-0.14,1.98,0.03,2.97,0.08c0.64,0.04,1.28,0.15,1.92,0.17c0.68,0.02,1.07-0.77,0.63-1.5c-0.34-0.58-0.9-1.03-1.38-1.52
			c-0.17-0.17-0.37-0.3-0.58-0.47c1.86-1.3,7.24-0.91,8.57,0.56c0.04,0,0.1,0.02,0.13,0c0.61-0.4,1.42-0.66,1.38-1.58
			c-0.03-0.86-0.81-1.12-1.42-1.46c-0.53-0.3-1.09-0.55-1.83-0.92c0.41-0.14,0.65-0.25,0.9-0.3c1.51-0.28,2.89,0.19,4.27,0.7
			c1.01,0.37,2.03,0.7,3.06,1.03c0.81,0.26,1.19-0.04,1.09-0.89c-0.18-1.49-0.84-2.68-2.28-3.32c-0.46-0.21-0.92-0.43-1.47-0.69
			c1.12-0.53,2.19-0.51,3.17-0.12c0.96,0.38,1.87,0.95,2.68,1.58c0.51,0.4,0.92,0.42,1.39,0.14c0.51-0.3,0.54-0.75,0.29-1.27
			c-1.17-2.49-2.56-4.8-4.76-6.54C53.69,55.74,53.57,55.61,53.27,55.33z"/>
	</g>
	<g class="st7">
		<path class="st11" d="M54.03,58.5c1.62,0.02,2.83,0.58,3.87,1.49c1.89,1.65,3.4,3.61,4.46,5.9c0.19,0.42,0.36,0.88,0.67,1.19
			c0.27,0.27,0.76,0.55,1.09,0.49c0.33-0.06,0.68-0.5,0.83-0.85c0.16-0.38,0.12-0.86,0.13-1.29c0.02-0.67,0-1.33,0-2
			c0.06-0.05,0.13-0.09,0.19-0.14c0.4,0.46,0.9,0.87,1.17,1.4c0.53,1.01,0.93,2.09,1.39,3.14c0.25,0.57,0.7,0.71,1.05,0.25
			c1.03-1.37,2.58-1.67,4.07-2.08c0.84-0.23,1.72-0.27,2.59-0.4c0.04,0.1,0.08,0.2,0.12,0.3c-0.66,0.57-1.33,1.12-1.97,1.71
			c-0.31,0.28-0.68,0.58-0.82,0.95c-0.13,0.33-0.1,0.84,0.09,1.14c0.14,0.22,0.63,0.31,0.96,0.32c1.86,0.02,3.71,0,5.57,0.01
			c0.2,0,0.4,0.07,0.83,0.15c-0.53,0.35-0.89,0.6-1.26,0.83c-0.44,0.27-0.89,0.53-0.85,1.14c0.04,0.59,0.52,0.76,0.96,0.96
			c1.3,0.58,2.6,1.16,3.91,1.72c0.81,0.35,1.45,0.79,1.82,1.68c0.18,0.42,0.8,0.66,1.27,1.02c-0.31,0.19-0.7,0.4-1.06,0.65
			c-0.16,0.12-0.36,0.31-0.37,0.48c0,0.13,0.26,0.27,0.41,0.4c0.13,0.12,0.34,0.2,0.39,0.34c0.18,0.58,0.64,0.81,1.14,1.01
			c1.44,0.55,2.57,1.44,3.41,2.77c1.32,2.1,2.74,4.14,4.11,6.21c0.13,0.19,0.18,0.43,0.26,0.65c-0.05,0.04-0.1,0.08-0.15,0.12
			c-0.19-0.14-0.39-0.27-0.56-0.43c-0.6-0.53-1.2-1.07-1.79-1.62c-0.32-0.29-0.66-0.58-1.08-0.24c-0.38,0.31-0.38,0.72-0.22,1.19
			c0.41,1.19,0.85,2.37,1.12,3.6c0.25,1.13,0.34,2.31,0.41,3.48c0.06,0.86-0.41,1.42-1.37,1.79c-0.41-0.9-0.81-1.82-1.26-2.72
			c-0.18-0.35-0.43-0.71-0.74-0.94c-0.18-0.14-0.6-0.14-0.8-0.02c-0.15,0.09-0.22,0.48-0.17,0.72c0.69,3.88,0.06,7.52-2.14,10.8
			c-0.53,0.79-1.39,1.35-2.13,1.99c-0.17,0.15-0.45,0.17-0.78,0.28c0-1.02,0.01-1.93-0.01-2.85c-0.01-0.29-0.04-0.61-0.16-0.87
			c-0.23-0.47-0.71-0.49-1.03-0.06c-0.26,0.35-0.53,0.7-0.75,1.07c-1.46,2.49-3.8,3.94-6.26,5.24c-0.18,0.1-0.38,0.15-0.58,0.21
			c-0.62,0.19-0.86,0.02-0.9-0.61c-0.02-0.3-0.06-0.59-0.1-0.88c-0.66-0.24-0.93,0.24-1.31,0.56c-0.98,0.82-1.99,1.6-3.01,2.37
			c-0.17,0.13-0.42,0.14-0.69,0.23c0.04-0.59,0.15-1.09,0.1-1.58c-0.03-0.29-0.27-0.69-0.51-0.77c-0.22-0.08-0.68,0.13-0.83,0.35
			c-0.63,0.9-1.53,1.34-2.6,1.72c0-0.32,0-0.55,0-0.79c0-0.45,0.03-0.92-0.03-1.36c-0.03-0.2-0.25-0.49-0.41-0.51
			c-0.22-0.02-0.54,0.11-0.68,0.29c-0.46,0.6-0.83,1.27-1.27,1.89c-0.25,0.34-0.57,0.63-0.96,1.06c-0.18-0.42-0.28-0.68-0.4-0.94
			c-0.51-1.1-0.97-2.23-1.56-3.28c-0.52-0.92-1.33-0.83-1.82,0.12c-0.42,0.82-0.84,1.64-1.27,2.45c-0.24,0.44-0.53,0.43-0.86,0.08
			c-0.47-0.5-0.93-1.02-1.45-1.46c-0.66-0.55-1.02-0.5-1.59,0.12c-0.25,0.27-0.43,0.59-0.64,0.89c-0.19,0.27-0.38,0.55-0.61,0.87
			c-1.23-1.35-2.35-2.69-2.99-4.39c-0.1-0.26-0.41-0.43-0.62-0.65c-0.19,0.21-0.5,0.38-0.56,0.62c-0.18,0.76-0.26,1.55-0.38,2.34
			c-0.06-0.04-0.26-0.11-0.4-0.25c-0.99-1.03-2.03-2.02-2.9-3.13c-0.46-0.59-0.62-1.41-0.94-2.12c-0.12-0.27-0.25-0.59-0.47-0.74
			c-0.25-0.17-0.65-0.28-0.92-0.2c-0.23,0.07-0.51,0.44-0.53,0.69c-0.07,0.88-0.04,1.78-0.04,2.66c0,0.18,0,0.36,0,0.65
			c-0.28-0.16-0.52-0.25-0.69-0.4c-2.17-1.96-3.69-4.31-4.28-7.22c-0.07-0.33-0.43-0.69-0.75-0.83c-0.14-0.06-0.67,0.32-0.74,0.58
			c-0.26,0.87-0.44,1.77-0.57,2.67c-0.13,0.95-0.15,1.91-0.23,3.04c-0.93-1.38-1.51-2.73-1.82-4.15c-0.8-3.69-0.64-7.35,0.59-10.95
			c0.1-0.28,0.08-0.79-0.09-0.92c-0.23-0.17-0.71-0.18-0.99-0.05c-0.36,0.15-0.71,0.46-0.92,0.79c-0.76,1.2-1.46,2.44-2.18,3.67
			c-0.1,0.17-0.19,0.35-0.35,0.66c-0.11-0.25-0.23-0.38-0.22-0.5c0.37-2.91,0.56-5.86,1.9-8.55c0.52-1.04,1.22-1.94,2.19-2.61
			c1.36-0.94,2.71-1.87,4.45-1.99c0.83-0.06,0.91-0.39,0.36-1.07c-0.06-0.07-0.13-0.14-0.17-0.22c-0.13-0.3-0.26-0.6-0.38-0.9
			c0.39-0.15,0.78-0.37,1.19-0.44c0.3-0.05,0.62,0.12,0.94,0.19c0.73-0.71,0.83-2.17,0.22-3.1c-0.54-0.83-0.53-1.03,0.43-1.17
			c0.86-0.13,1.77,0.02,2.66,0.07c0.57,0.03,1.14,0.13,1.72,0.15c0.6,0.02,0.95-0.69,0.57-1.35c-0.31-0.52-0.81-0.92-1.23-1.36
			c-0.15-0.15-0.33-0.27-0.52-0.42c1.66-1.16,6.48-0.81,7.68,0.5c0.04,0,0.09,0.02,0.12,0c0.54-0.36,1.27-0.59,1.24-1.41
			c-0.03-0.77-0.72-1-1.27-1.31c-0.48-0.27-0.98-0.5-1.64-0.83c0.37-0.13,0.58-0.23,0.8-0.27c1.35-0.25,2.59,0.17,3.82,0.62
			c0.9,0.33,1.82,0.63,2.74,0.92c0.73,0.23,1.07-0.04,0.98-0.8c-0.16-1.33-0.75-2.4-2.04-2.97c-0.41-0.18-0.82-0.38-1.31-0.62
			c1-0.47,1.96-0.46,2.84-0.11c0.86,0.34,1.67,0.85,2.4,1.41c0.46,0.36,0.82,0.37,1.24,0.12c0.45-0.27,0.48-0.67,0.26-1.13
			c-1.04-2.23-2.29-4.3-4.26-5.85C54.4,58.87,54.3,58.75,54.03,58.5z"/>
	</g>
	<g>
		<path class="st1" d="M55.03,62.67c1.37,0.02,2.4,0.49,3.27,1.26c1.6,1.4,2.87,3.05,3.77,4.99c0.16,0.35,0.31,0.74,0.57,1.01
			c0.23,0.23,0.64,0.47,0.92,0.41c0.28-0.05,0.58-0.42,0.71-0.72c0.14-0.32,0.1-0.72,0.11-1.09c0.02-0.56,0-1.13,0-1.69
			c0.05-0.04,0.11-0.08,0.16-0.12c0.34,0.39,0.76,0.74,0.99,1.18c0.45,0.86,0.79,1.77,1.18,2.66c0.21,0.48,0.59,0.6,0.89,0.21
			c0.87-1.16,2.18-1.42,3.44-1.76c0.71-0.19,1.46-0.23,2.19-0.34c0.03,0.08,0.07,0.17,0.1,0.25c-0.56,0.48-1.12,0.95-1.67,1.44
			c-0.26,0.24-0.57,0.49-0.69,0.81c-0.11,0.28-0.08,0.71,0.07,0.96c0.12,0.19,0.53,0.26,0.82,0.27c1.57,0.02,3.14,0,4.71,0
			c0.17,0,0.34,0.06,0.7,0.13c-0.44,0.29-0.75,0.5-1.06,0.7c-0.37,0.23-0.76,0.45-0.72,0.97c0.03,0.5,0.44,0.64,0.81,0.81
			c1.1,0.49,2.2,0.98,3.31,1.46c0.68,0.29,1.23,0.67,1.54,1.42c0.15,0.36,0.68,0.56,1.08,0.87c-0.27,0.16-0.59,0.34-0.9,0.55
			c-0.14,0.1-0.31,0.26-0.31,0.4c0,0.11,0.22,0.23,0.35,0.34c0.11,0.1,0.29,0.17,0.33,0.29c0.15,0.49,0.54,0.69,0.97,0.85
			c1.22,0.46,2.17,1.22,2.88,2.34c1.12,1.78,2.32,3.5,3.48,5.26c0.11,0.16,0.15,0.37,0.22,0.55c-0.04,0.03-0.09,0.07-0.13,0.1
			c-0.16-0.12-0.33-0.23-0.47-0.36c-0.51-0.45-1.01-0.91-1.52-1.37c-0.27-0.25-0.56-0.49-0.92-0.2c-0.32,0.26-0.32,0.61-0.18,1.01
			c0.35,1,0.72,2.01,0.95,3.04c0.21,0.96,0.29,1.96,0.35,2.94c0.05,0.73-0.34,1.2-1.16,1.52c-0.35-0.76-0.68-1.54-1.07-2.3
			c-0.15-0.3-0.37-0.6-0.63-0.8c-0.15-0.12-0.5-0.12-0.68-0.02c-0.13,0.07-0.18,0.41-0.15,0.61c0.59,3.28,0.05,6.36-1.81,9.14
			c-0.45,0.67-1.18,1.14-1.8,1.68c-0.14,0.12-0.38,0.14-0.66,0.24c0-0.86,0.01-1.63-0.01-2.41c-0.01-0.25-0.03-0.52-0.14-0.73
			c-0.2-0.4-0.6-0.41-0.87-0.05c-0.22,0.3-0.45,0.59-0.64,0.91c-1.24,2.11-3.21,3.33-5.3,4.43c-0.15,0.08-0.33,0.13-0.49,0.18
			c-0.52,0.16-0.73,0.02-0.77-0.52c-0.02-0.25-0.05-0.5-0.08-0.74c-0.56-0.2-0.79,0.21-1.11,0.48c-0.83,0.69-1.68,1.35-2.54,2.01
			c-0.14,0.11-0.35,0.12-0.58,0.19c0.04-0.5,0.13-0.93,0.08-1.34c-0.03-0.24-0.23-0.58-0.43-0.65c-0.19-0.06-0.57,0.11-0.7,0.29
			c-0.53,0.77-1.29,1.13-2.2,1.46c0-0.27,0-0.47,0-0.67c0-0.38,0.03-0.77-0.03-1.15c-0.02-0.17-0.21-0.42-0.35-0.43
			c-0.19-0.02-0.46,0.1-0.57,0.25c-0.39,0.51-0.7,1.08-1.07,1.6c-0.21,0.29-0.48,0.53-0.82,0.9c-0.15-0.36-0.24-0.58-0.34-0.8
			c-0.43-0.93-0.82-1.88-1.32-2.78c-0.44-0.78-1.13-0.7-1.54,0.1c-0.35,0.69-0.71,1.38-1.08,2.07c-0.2,0.38-0.45,0.36-0.73,0.06
			c-0.4-0.42-0.78-0.87-1.23-1.23c-0.56-0.46-0.86-0.42-1.35,0.1c-0.21,0.23-0.37,0.5-0.54,0.75c-0.16,0.23-0.33,0.46-0.52,0.74
			c-1.04-1.14-1.99-2.28-2.53-3.71c-0.08-0.22-0.34-0.37-0.52-0.55c-0.16,0.17-0.42,0.33-0.47,0.53c-0.15,0.65-0.22,1.31-0.33,1.98
			c-0.05-0.03-0.22-0.1-0.34-0.21c-0.83-0.87-1.71-1.71-2.46-2.65c-0.39-0.5-0.52-1.19-0.79-1.79c-0.1-0.23-0.21-0.5-0.4-0.62
			c-0.21-0.14-0.55-0.24-0.78-0.17c-0.2,0.06-0.43,0.37-0.45,0.59c-0.06,0.75-0.03,1.5-0.04,2.25c0,0.15,0,0.3,0,0.55
			c-0.24-0.14-0.44-0.21-0.58-0.34c-1.83-1.66-3.12-3.64-3.62-6.11c-0.06-0.28-0.37-0.58-0.63-0.71c-0.12-0.05-0.56,0.27-0.63,0.49
			c-0.22,0.74-0.38,1.5-0.48,2.26c-0.11,0.8-0.13,1.61-0.2,2.57c-0.79-1.17-1.28-2.31-1.54-3.51c-0.68-3.12-0.55-6.22,0.5-9.26
			c0.08-0.24,0.07-0.67-0.08-0.78c-0.2-0.14-0.6-0.15-0.84-0.05c-0.3,0.13-0.6,0.39-0.78,0.67c-0.64,1.02-1.24,2.06-1.85,3.1
			c-0.09,0.14-0.16,0.3-0.29,0.55c-0.1-0.21-0.2-0.32-0.18-0.42c0.31-2.46,0.47-4.96,1.61-7.24c0.44-0.88,1.04-1.64,1.85-2.21
			c1.15-0.8,2.29-1.58,3.77-1.68c0.71-0.05,0.77-0.33,0.31-0.91c-0.05-0.06-0.11-0.12-0.14-0.18c-0.11-0.25-0.22-0.51-0.32-0.76
			c0.33-0.13,0.66-0.32,1-0.37c0.25-0.04,0.53,0.1,0.79,0.16c0.62-0.6,0.7-1.83,0.19-2.63c-0.46-0.71-0.45-0.87,0.36-0.99
			c0.73-0.11,1.5,0.02,2.25,0.06c0.48,0.03,0.97,0.11,1.45,0.13c0.51,0.02,0.81-0.59,0.48-1.14c-0.26-0.44-0.68-0.78-1.04-1.15
			c-0.13-0.13-0.28-0.23-0.44-0.36c1.41-0.98,5.48-0.69,6.5,0.42c0.03,0,0.08,0.01,0.1,0c0.46-0.3,1.08-0.5,1.05-1.2
			c-0.03-0.65-0.61-0.85-1.08-1.11c-0.4-0.23-0.83-0.42-1.38-0.7c0.31-0.11,0.49-0.19,0.68-0.23c1.14-0.21,2.19,0.14,3.24,0.53
			c0.76,0.28,1.54,0.53,2.32,0.78c0.62,0.19,0.9-0.03,0.83-0.68c-0.14-1.13-0.64-2.03-1.73-2.52c-0.35-0.16-0.7-0.32-1.11-0.52
			c0.85-0.4,1.66-0.39,2.4-0.09c0.72,0.29,1.41,0.72,2.03,1.2c0.39,0.3,0.69,0.31,1.05,0.1c0.38-0.23,0.41-0.57,0.22-0.96
			c-0.88-1.88-1.94-3.64-3.6-4.95C55.35,62.98,55.26,62.88,55.03,62.67z"/>
	</g>
	<g>
		<path class="st12" d="M39.75,122.48c-0.45,0-0.89,0-1.34-0.01c-5.43-0.1-10.21-1.33-14.61-3.78c-1.36-0.75-1.93-2-1.93-4.15
			l0-0.11c0-0.08,0-0.17,0-0.25c0.1-1.45,0.22-2.66,0.52-2.66c0.21,0,0.64,0.26,1.17,0.58l0.23,0.14c2.97,1.8,6.37,2.9,10.71,3.48
			c2.17,0.29,4.4,0.43,6.62,0.43c5.9,0,11.85-0.98,18.2-2.99c0.27-0.08,0.54-0.2,0.8-0.31l0.52-0.22l-0.06-0.74l-1.13-0.15
			c-0.62-0.08-1.24-0.17-1.86-0.26c-5.04-0.75-10.86-1.82-16.23-4.91c-2.07-1.19-3.7-2.72-4.97-4.67
			c-2.89-4.41-2.47-11.15,0.91-14.71c0.46-0.48,0.98-0.89,1.48-1.28c0.25-0.19,0.49-0.38,0.73-0.58c0.19-0.16,0.3-0.19,0.35-0.19
			c0.13,0,0.27,0.22,0.38,0.6c0.34,1.17,0.71,2.36,1.1,3.53c0.29,0.86,0.09,1.17-0.39,1.5c-1.17,0.78-2.49,1.66-3.67,2.79
			c-0.85,0.82-1.26,1.7-1.18,2.55c0.07,0.8,0.58,1.54,1.47,2.12c3.28,2.16,7.05,3.8,11.87,5.16c5.59,1.58,11.68,2.34,18.63,2.34
			c1.68,0,3.4-0.04,5.25-0.13c0.82-0.04,1.72-0.44,2.41-1.07c1.74-1.59,3.57-3.31,5.21-5.28c2.38-2.85,2.29-5.07-0.3-7.67
			c-0.92-0.92-1.9-1.66-2.74-2.27c-0.54-0.38-0.78-0.79-0.44-1.74c0.33-0.93,0.66-1.96,1.02-3.17c0.07-0.24,0.21-0.63,0.39-0.63
			c0.07,0,0.21,0.05,0.48,0.26c3.45,2.87,4.85,7.35,4.07,12.95c-0.19,1.32-0.57,2.62-0.93,3.88c-0.16,0.54-0.32,1.08-0.46,1.62
			c-0.07,0.26-0.17,0.52-0.29,0.87c-0.07,0.2-0.4,1.1-0.4,1.1l0.41-0.06c0.27-0.04,0.51-0.07,0.73-0.09
			c0.43-0.05,0.8-0.09,1.15-0.21c2.87-0.95,6.12-2.02,9.32-3.16c0.25-0.09,0.52-0.18,0.7-0.18c0.2,0,0.35,0.1,0.47,1.4
			c0.03,0.29,0.05,0.59,0.07,0.89c0.19,3.14-0.11,3.8-2.13,4.71c-4.06,1.84-8.57,3.05-13.8,3.69c-2.69,0.33-4.62,1-6.47,2.23
			c-6.28,4.2-13.27,6.82-21.37,8.02C46.93,122.21,43.33,122.48,39.75,122.48z"/>
		<path d="M78.92,84.04c0.05,0.02,0.14,0.07,0.28,0.19c3.38,2.82,4.75,7.22,3.98,12.73c-0.18,1.3-0.56,2.59-0.93,3.84
			c-0.16,0.54-0.32,1.08-0.46,1.62c-0.07,0.25-0.16,0.5-0.29,0.84c-0.07,0.2-0.16,0.43-0.26,0.71l-0.28,0.79l0.83-0.13
			c0.27-0.04,0.51-0.07,0.72-0.09c0.44-0.05,0.82-0.1,1.2-0.22c2.88-0.95,6.13-2.02,9.32-3.16c0.12-0.04,0.45-0.16,0.61-0.18
			c0.06,0.06,0.15,0.32,0.22,1.19c0.03,0.29,0.05,0.59,0.07,0.88c0.19,3.2-0.15,3.64-1.98,4.47c-4.03,1.83-8.52,3.03-13.73,3.67
			c-1.81,0.22-4.19,0.68-6.58,2.27c-6.25,4.18-13.2,6.79-21.27,7.98c-3.49,0.51-7.07,0.78-10.64,0.78c-0.44,0-0.89,0-1.33-0.01
			c-5.39-0.1-10.13-1.32-14.49-3.75c-1.28-0.71-1.8-1.85-1.8-3.93l0-0.11c0-0.08,0-0.16,0-0.24c0.05-0.69,0.15-2.08,0.33-2.42
			c0.19,0.05,0.61,0.31,0.99,0.54l0.23,0.14c3,1.82,6.43,2.93,10.81,3.51c2.18,0.29,4.42,0.43,6.65,0.43c5.93,0,11.9-0.98,18.28-3
			c0.29-0.09,0.56-0.21,0.82-0.32c0.12-0.05,0.23-0.1,0.35-0.15l0.34-0.14l-0.03-0.37l-0.01-0.18l-0.01-0.18l-0.03-0.4l-0.4-0.05
			l-0.89-0.12c-0.63-0.08-1.27-0.17-1.9-0.26c-5.01-0.75-10.81-1.8-16.15-4.88c-2.03-1.17-3.63-2.67-4.89-4.59
			c-2.83-4.32-2.43-10.91,0.88-14.4c0.45-0.47,0.94-0.85,1.46-1.26c0.25-0.19,0.49-0.38,0.74-0.59c0.08-0.06,0.13-0.09,0.16-0.11
			c0.04,0.05,0.1,0.16,0.17,0.4c0.34,1.18,0.71,2.38,1.11,3.54c0.25,0.75,0.1,0.95-0.29,1.21c-1.18,0.78-2.52,1.67-3.7,2.82
			c-0.9,0.87-1.34,1.83-1.25,2.75c0.08,0.88,0.63,1.68,1.58,2.31c3.3,2.18,7.09,3.83,11.94,5.19c5.61,1.58,11.73,2.35,18.69,2.35
			c1.69,0,3.41-0.04,5.26-0.13c0.88-0.04,1.84-0.47,2.57-1.14c1.74-1.6,3.58-3.32,5.23-5.3c2.48-2.97,2.39-5.29-0.32-8
			c-0.93-0.94-1.93-1.68-2.78-2.29c-0.47-0.34-0.64-0.64-0.35-1.45c0.33-0.94,0.67-1.98,1.02-3.18
			C78.81,84.21,78.88,84.09,78.92,84.04 M78.89,83.53c-0.26,0-0.46,0.24-0.63,0.81c-0.31,1.07-0.65,2.12-1.01,3.15
			c-0.36,1-0.14,1.55,0.53,2.03c0.93,0.67,1.86,1.38,2.71,2.24c2.49,2.5,2.62,4.54,0.29,7.33c-1.62,1.94-3.41,3.62-5.19,5.25
			c-0.64,0.59-1.49,0.97-2.25,1.01c-1.75,0.08-3.49,0.13-5.24,0.13c-6.22,0-12.42-0.6-18.56-2.33c-4.05-1.14-8.03-2.65-11.8-5.13
			c-1.72-1.14-1.83-2.77-0.26-4.29c1.13-1.09,2.39-1.93,3.63-2.76c0.65-0.43,0.78-0.9,0.49-1.78c-0.39-1.16-0.76-2.33-1.1-3.52
			c-0.15-0.53-0.36-0.78-0.62-0.78c-0.15,0-0.32,0.08-0.51,0.24c-0.75,0.62-1.54,1.15-2.24,1.88c-3.46,3.64-3.88,10.53-0.94,15.02
			c1.42,2.16,3.16,3.65,5.06,4.75c5.24,3.02,10.76,4.11,16.32,4.94c0.93,0.14,1.86,0.26,2.79,0.38c0.01,0.12,0.02,0.23,0.03,0.35
			c-0.38,0.15-0.75,0.33-1.14,0.46c-6,1.9-12.04,2.98-18.13,2.98c-2.19,0-4.38-0.14-6.59-0.43c-3.64-0.48-7.23-1.39-10.61-3.44
			c-0.73-0.45-1.21-0.76-1.53-0.76c-0.49,0-0.62,0.74-0.77,2.89c-0.01,0.13,0,0.26,0,0.39c-0.01,2.13,0.53,3.52,2.05,4.37
			c4.75,2.64,9.7,3.72,14.72,3.81c0.45,0.01,0.89,0.01,1.34,0.01c3.57,0,7.16-0.26,10.71-0.78c7.43-1.1,14.67-3.51,21.47-8.05
			c2.07-1.38,4.15-1.92,6.36-2.19c4.71-0.58,9.36-1.66,13.88-3.71c2.13-0.97,2.46-1.72,2.27-4.96c-0.02-0.3-0.04-0.6-0.07-0.9
			c-0.11-1.21-0.25-1.63-0.72-1.63c-0.2,0-0.45,0.07-0.78,0.19c-3.1,1.1-6.2,2.13-9.31,3.15c-0.51,0.17-1.04,0.17-1.84,0.3
			c0.27-0.78,0.44-1.17,0.56-1.59c0.49-1.83,1.13-3.62,1.4-5.52c0.81-5.77-0.69-10.29-4.16-13.18
			C79.28,83.65,79.07,83.53,78.89,83.53L78.89,83.53z"/>
	</g>
	<g id="Monster">
		<g>
			<path class="st13" d="M55.94,66.45c1.15,0.01,2,0.41,2.74,1.05c1.34,1.17,2.4,2.55,3.15,4.17c0.14,0.29,0.26,0.62,0.48,0.84
				c0.19,0.19,0.54,0.39,0.77,0.35c0.23-0.04,0.48-0.35,0.59-0.6c0.11-0.27,0.09-0.61,0.09-0.91c0.01-0.47,0-0.94,0-1.41
				c0.04-0.03,0.09-0.06,0.13-0.1c0.28,0.33,0.64,0.61,0.83,0.99c0.38,0.71,0.66,1.48,0.98,2.22c0.18,0.4,0.5,0.5,0.74,0.18
				c0.73-0.97,1.82-1.18,2.88-1.47c0.59-0.16,1.22-0.19,1.83-0.29c0.03,0.07,0.06,0.14,0.08,0.21c-0.47,0.4-0.94,0.79-1.39,1.21
				c-0.22,0.2-0.48,0.41-0.58,0.67c-0.09,0.23-0.07,0.6,0.06,0.8c0.1,0.16,0.44,0.22,0.68,0.22c1.31,0.02,2.62,0,3.94,0
				c0.14,0,0.28,0.05,0.59,0.11c-0.37,0.25-0.63,0.42-0.89,0.58c-0.31,0.19-0.63,0.37-0.6,0.81c0.03,0.42,0.36,0.54,0.68,0.68
				c0.92,0.41,1.84,0.82,2.76,1.22c0.57,0.25,1.03,0.56,1.29,1.18c0.13,0.3,0.57,0.47,0.9,0.72c-0.22,0.13-0.5,0.28-0.75,0.46
				c-0.12,0.08-0.26,0.22-0.26,0.34c0,0.09,0.19,0.19,0.29,0.29c0.09,0.08,0.24,0.14,0.27,0.24c0.13,0.41,0.45,0.57,0.81,0.71
				c1.02,0.39,1.81,1.02,2.41,1.96c0.94,1.48,1.94,2.93,2.9,4.39c0.09,0.14,0.12,0.31,0.18,0.46c-0.04,0.03-0.07,0.06-0.11,0.09
				c-0.13-0.1-0.27-0.19-0.4-0.3c-0.43-0.38-0.85-0.76-1.27-1.14c-0.23-0.21-0.47-0.41-0.77-0.17c-0.27,0.22-0.27,0.51-0.15,0.84
				c0.29,0.84,0.6,1.68,0.79,2.54c0.18,0.8,0.24,1.63,0.29,2.46c0.04,0.61-0.29,1-0.97,1.27c-0.29-0.64-0.57-1.29-0.89-1.92
				c-0.13-0.25-0.31-0.5-0.53-0.67c-0.13-0.1-0.42-0.1-0.57-0.01c-0.11,0.06-0.15,0.34-0.12,0.51c0.49,2.74,0.05,5.31-1.51,7.63
				c-0.37,0.56-0.98,0.96-1.5,1.4c-0.12,0.1-0.32,0.12-0.55,0.2c0-0.72,0.01-1.37-0.01-2.01c0-0.21-0.03-0.43-0.11-0.61
				c-0.16-0.33-0.5-0.34-0.73-0.04c-0.19,0.25-0.38,0.49-0.53,0.76c-1.03,1.76-2.68,2.78-4.42,3.7c-0.13,0.07-0.27,0.11-0.41,0.15
				c-0.44,0.13-0.61,0.01-0.64-0.43c-0.02-0.21-0.05-0.42-0.07-0.62c-0.47-0.17-0.66,0.17-0.93,0.4c-0.69,0.58-1.41,1.13-2.12,1.68
				c-0.12,0.09-0.29,0.1-0.49,0.16c0.03-0.41,0.11-0.77,0.07-1.12c-0.02-0.2-0.19-0.49-0.36-0.54c-0.16-0.05-0.48,0.09-0.59,0.24
				c-0.45,0.64-1.08,0.95-1.83,1.22c0-0.22,0-0.39,0-0.56c0-0.32,0.02-0.65-0.02-0.96c-0.02-0.14-0.18-0.35-0.29-0.36
				c-0.15-0.02-0.38,0.08-0.48,0.21c-0.32,0.43-0.59,0.9-0.9,1.33c-0.17,0.24-0.4,0.45-0.68,0.75c-0.13-0.3-0.2-0.48-0.28-0.67
				c-0.36-0.78-0.68-1.57-1.1-2.32c-0.36-0.65-0.94-0.59-1.29,0.09c-0.3,0.58-0.59,1.16-0.9,1.73c-0.17,0.31-0.37,0.3-0.61,0.05
				c-0.33-0.35-0.65-0.72-1.03-1.03c-0.47-0.39-0.72-0.35-1.13,0.09c-0.17,0.19-0.31,0.42-0.46,0.63c-0.14,0.19-0.27,0.39-0.43,0.62
				c-0.87-0.95-1.66-1.9-2.12-3.1c-0.07-0.18-0.29-0.31-0.44-0.46c-0.14,0.15-0.35,0.27-0.39,0.44c-0.13,0.54-0.18,1.09-0.27,1.65
				c-0.05-0.03-0.19-0.08-0.28-0.18c-0.7-0.73-1.43-1.43-2.05-2.22c-0.33-0.42-0.44-1-0.66-1.5c-0.08-0.19-0.17-0.42-0.33-0.52
				c-0.18-0.12-0.46-0.2-0.65-0.14c-0.16,0.05-0.36,0.31-0.37,0.49c-0.05,0.62-0.03,1.25-0.03,1.88c0,0.13,0,0.25,0,0.46
				c-0.2-0.11-0.37-0.17-0.49-0.29c-1.53-1.39-2.61-3.04-3.02-5.1c-0.05-0.23-0.31-0.49-0.53-0.59c-0.1-0.05-0.47,0.23-0.53,0.41
				c-0.18,0.61-0.31,1.25-0.4,1.89c-0.09,0.67-0.11,1.35-0.16,2.15c-0.66-0.97-1.07-1.93-1.29-2.94c-0.57-2.61-0.46-5.2,0.42-7.74
				c0.07-0.2,0.06-0.56-0.06-0.65c-0.16-0.12-0.5-0.13-0.7-0.04c-0.25,0.11-0.5,0.33-0.65,0.56c-0.54,0.85-1.03,1.72-1.54,2.59
				c-0.07,0.12-0.13,0.25-0.24,0.46c-0.08-0.18-0.16-0.27-0.15-0.35c0.26-2.06,0.39-4.14,1.34-6.04c0.37-0.74,0.87-1.37,1.55-1.85
				c0.96-0.67,1.91-1.32,3.15-1.41c0.59-0.04,0.64-0.28,0.26-0.76c-0.04-0.05-0.09-0.1-0.12-0.15c-0.09-0.21-0.18-0.42-0.27-0.64
				c0.28-0.11,0.55-0.26,0.84-0.31c0.21-0.03,0.44,0.08,0.66,0.13c0.51-0.5,0.59-1.53,0.16-2.19c-0.38-0.59-0.38-0.72,0.3-0.83
				c0.61-0.09,1.25,0.02,1.88,0.05c0.41,0.02,0.81,0.09,1.21,0.11c0.43,0.01,0.67-0.49,0.4-0.95c-0.22-0.37-0.57-0.65-0.87-0.96
				c-0.11-0.11-0.24-0.19-0.37-0.3c1.18-0.82,4.58-0.57,5.43,0.35c0.03,0,0.06,0.01,0.08,0c0.38-0.25,0.9-0.42,0.88-1
				c-0.02-0.55-0.51-0.71-0.9-0.93c-0.34-0.19-0.69-0.35-1.16-0.58c0.26-0.09,0.41-0.16,0.57-0.19c0.95-0.18,1.83,0.12,2.7,0.44
				c0.64,0.23,1.29,0.44,1.93,0.65c0.51,0.16,0.75-0.03,0.69-0.56c-0.11-0.94-0.53-1.7-1.44-2.1c-0.29-0.13-0.58-0.27-0.93-0.43
				c0.71-0.33,1.39-0.32,2-0.08c0.6,0.24,1.18,0.6,1.7,1c0.32,0.25,0.58,0.26,0.88,0.09c0.32-0.19,0.34-0.48,0.19-0.8
				c-0.74-1.57-1.62-3.04-3.01-4.14C56.21,66.71,56.13,66.63,55.94,66.45z M78.29,91.42c-0.21-0.24-0.35-0.54-0.58-0.63
				c-0.79-0.32-1.59-0.66-2.42-0.82c-1.24-0.24-2.5-0.34-3.76-0.5c-0.79-0.1-1.57-0.26-2.36-0.29c-1.77-0.07-3.55-0.13-5.33-0.09
				c-1.82,0.03-3.64,0.17-5.45,0.29c-0.79,0.05-1.6,0.09-2.37,0.26c-1.45,0.34-2.88,0.76-4.32,1.17c-0.84,0.24-1.35,0.13-1.9-0.56
				c-0.41-0.51-0.75-1.06-1.16-1.57c-0.14-0.18-0.42-0.4-0.59-0.37c-0.18,0.04-0.37,0.34-0.43,0.55c-0.26,0.95-0.49,1.91-0.69,2.88
				c-0.12,0.58-0.3,1.07-0.88,1.34c-0.35,0.16-0.67,0.39-0.99,0.6c-0.39,0.25-0.58,0.74-0.39,1.02c0.23,0.34,0.45,0.29,1-0.06
				c0.67-0.43,1.36-0.83,2.07-1.19c2.44-1.22,5.08-1.84,7.7-2.5c1.14-0.28,2.34-0.33,3.52-0.44c1.52-0.14,3.04-0.26,4.57-0.35
				c0.4-0.03,0.74,0.1,1.08,0.41c0.73,0.68,1.23,1.49,1.63,2.39c0.07,0.15,0.31,0.32,0.47,0.31c0.15-0.01,0.38-0.23,0.41-0.38
				c0.14-0.99,0.81-1.64,1.42-2.34c0.29-0.33,0.61-0.28,0.89,0c0.16,0.16,0.27,0.37,0.39,0.56c0.38,0.59,0.73,1.19,1.14,1.75
				c0.12,0.16,0.4,0.26,0.61,0.27c0.09,0,0.23-0.31,0.27-0.49c0.16-0.68,0.51-1.27,1.05-1.66c0.27-0.19,0.77-0.05,1.16-0.06
				c0.03,0,0.07,0,0.1,0c1.14,0.18,2.3,0.26,3.25,1.03c0.12,0.1,0.4,0.14,0.51,0.06C78.04,91.91,78.12,91.68,78.29,91.42z
				 M62.24,81.68c-0.5-2.5-2.69-4.87-5.85-4.94c-3.05-0.06-5.7,1.84-6.28,5.28c-0.4,2.39,0.77,5.82,4.67,6.85
				c1.1,0.29,2.3,0.26,3.4-0.13c1.74-0.62,2.96-1.82,3.8-3.65c0.74,1.64,1.84,2.7,3.59,2.9c1.75,0.2,3.2-0.36,4.19-1.82
				c1.43-2.1,0.89-4.73-1.17-6.12C66.76,78.81,63.93,78.95,62.24,81.68z"/>
		</g>
		<g id="Mouth">
			<path class="st14" d="M78.29,91.42c-0.17,0.26-0.25,0.5-0.41,0.61c-0.11,0.07-0.39,0.03-0.51-0.06
				c-0.95-0.77-2.12-0.85-3.25-1.03c-0.03-0.01-0.07,0-0.1,0c-0.4,0.01-0.9-0.13-1.16,0.06c-0.54,0.38-0.89,0.98-1.05,1.66
				c-0.04,0.19-0.18,0.5-0.27,0.49c-0.21-0.01-0.5-0.11-0.61-0.27c-0.41-0.56-0.76-1.17-1.14-1.75c-0.12-0.19-0.23-0.4-0.39-0.56
				c-0.28-0.29-0.6-0.33-0.89,0c-0.61,0.7-1.28,1.35-1.42,2.34c-0.02,0.15-0.26,0.37-0.41,0.38c-0.15,0.01-0.4-0.16-0.47-0.31
				c-0.41-0.89-0.9-1.7-1.63-2.39c-0.34-0.32-0.68-0.44-1.08-0.41c-1.52,0.1-3.05,0.21-4.57,0.35c-1.18,0.11-2.38,0.16-3.52,0.44
				c-2.62,0.65-5.26,1.28-7.7,2.5c-0.71,0.35-1.4,0.76-2.07,1.19c-0.55,0.35-0.76,0.4-1,0.06c-0.19-0.28,0-0.77,0.39-1.02
				c0.33-0.21,0.64-0.44,0.99-0.6c0.59-0.27,0.76-0.76,0.88-1.34c0.2-0.97,0.43-1.93,0.69-2.88c0.06-0.22,0.25-0.52,0.43-0.55
				c0.17-0.03,0.45,0.19,0.59,0.37c0.41,0.51,0.75,1.06,1.16,1.57c0.55,0.69,1.06,0.8,1.9,0.56c1.43-0.41,2.87-0.83,4.32-1.17
				c0.77-0.18,1.58-0.21,2.37-0.26c1.82-0.12,3.63-0.25,5.45-0.29c1.77-0.03,3.55,0.02,5.33,0.09c0.79,0.03,1.58,0.19,2.36,0.29
				c1.25,0.16,2.52,0.26,3.76,0.5c0.83,0.16,1.63,0.5,2.42,0.82C77.93,90.87,78.07,91.17,78.29,91.42z M48.35,89.93
				c-0.21,0.79-0.39,1.47-0.6,2.24c0.69-0.26,1.26-0.47,1.87-0.71C49.19,90.95,48.82,90.5,48.35,89.93z M67.31,90.37
				c-0.56-0.05-1.06-0.1-1.55-0.15c-0.02,0.06-0.04,0.11-0.06,0.17c0.27,0.4,0.54,0.8,0.86,1.28C66.84,91.2,67.04,90.84,67.31,90.37
				z M70.63,90.55c-0.03,0.05-0.05,0.1-0.08,0.15c0.21,0.27,0.42,0.53,0.69,0.88c0.19-0.36,0.33-0.62,0.52-0.97
				C71.32,90.58,70.98,90.56,70.63,90.55z"/>
			<g id="teeth">
				<path class="st15" d="M48.35,89.93c0.47,0.57,0.84,1.02,1.27,1.54c-0.62,0.23-1.18,0.45-1.87,0.71
					C47.95,91.4,48.14,90.73,48.35,89.93z"/>
				<path class="st15" d="M67.31,90.37c-0.27,0.47-0.48,0.83-0.75,1.3c-0.32-0.48-0.59-0.88-0.86-1.28
					c0.02-0.06,0.04-0.11,0.06-0.17C66.26,90.27,66.75,90.32,67.31,90.37z"/>
				<path class="st15" d="M70.63,90.55c0.34,0.02,0.69,0.03,1.12,0.05c-0.19,0.35-0.32,0.61-0.52,0.97
					c-0.27-0.34-0.48-0.61-0.69-0.88C70.58,90.64,70.61,90.59,70.63,90.55z"/>
			</g>
		</g>
		<g id="Eyes">
			<path class="st15" d="M61.91,83.14c0.05,1.7-0.69,3-1.87,4.07c-1.04,0.95-2.29,1.42-3.69,1.46c-2.76,0.07-5.23-1.86-5.79-4.52
				c-0.58-2.76,0.85-5.56,3.43-6.59c1.91-0.76,3.78-0.59,5.49,0.58c1.69,1.16,2.5,2.82,2.56,4.89c0.39-1.44,1.18-2.52,2.54-3.11
				c0.83-0.36,1.7-0.42,2.58-0.2c1.8,0.45,3.05,2.03,3.1,3.92c0.05,1.81-1.21,3.51-3,4c-1.44,0.39-2.75,0.08-3.86-0.92
				C62.37,85.76,61.98,84.52,61.91,83.14z M63.47,84.56c1.02-0.2,1.65,0.46,1.35,1.43c-0.02,0.08-0.03,0.15-0.05,0.23
				c-0.2,0.12-0.4,0.25-0.61,0.38c1.19,0.93,3.01,0.86,4.28-0.13c1.03-0.8,1.61-2.54,1.18-3.49c-0.22,0.26-0.44,0.53-0.67,0.79
				c-0.05,0-0.11-0.01-0.14,0.01c-0.86,0.54-1.88,0.27-2.34-0.63c-0.38-0.73-0.22-1.42,0.52-2.22c0.31-0.1,0.62-0.2,0.97-0.31
				c-1.3-0.83-3.14-0.62-4.29,0.47c-1.04,0.98-1.39,2.74-0.76,3.91C63.1,84.86,63.28,84.71,63.47,84.56z M60.24,82.97
				c-0.69,0.37-1.4,0.6-2.19,0.35c-0.86-0.27-1.42-0.85-1.62-1.73c-0.24-1.02,0.13-1.85,0.92-2.5c0.49-0.17,0.98-0.35,1.42-0.5
				c-1.55-1.2-4.34-0.96-6.01,0.58c-1.63,1.51-2.05,4.07-1.17,5.62c0.25-0.22,0.51-0.45,0.76-0.67c0.14-0.02,0.29-0.04,0.43-0.05
				c1.2-0.05,1.92,0.95,1.48,2.07c-0.03,0.09-0.06,0.18-0.09,0.27c-0.28,0.2-0.56,0.39-0.84,0.59c1.55,1.28,4.26,1.22,5.99-0.15
				c1.6-1.26,2.27-3.33,1.71-5.14c-0.11,0.22-0.2,0.44-0.33,0.64C60.58,82.58,60.4,82.77,60.24,82.97z"/>
			<path class="st16" d="M62.24,81.68c1.69-2.73,4.52-2.87,6.36-1.63c2.05,1.39,2.6,4.02,1.17,6.12c-0.99,1.45-2.44,2.02-4.19,1.82
				c-1.74-0.2-2.84-1.26-3.59-2.9c-0.84,1.83-2.06,3.04-3.8,3.65c-1.11,0.39-2.31,0.42-3.4,0.13c-3.9-1.03-5.07-4.46-4.67-6.85
				c0.58-3.44,3.24-5.34,6.28-5.28C59.55,76.8,61.73,79.18,62.24,81.68z M61.91,83.14c0.07,1.38,0.46,2.62,1.5,3.57
				c1.11,1,2.42,1.31,3.86,0.92c1.8-0.49,3.05-2.18,3-4c-0.05-1.88-1.3-3.46-3.1-3.92c-0.88-0.22-1.75-0.16-2.58,0.2
				c-1.37,0.58-2.15,1.67-2.54,3.11c-0.07-2.07-0.88-3.73-2.56-4.89c-1.71-1.17-3.58-1.34-5.49-0.58c-2.58,1.03-4.01,3.82-3.43,6.59
				c0.56,2.66,3.02,4.6,5.79,4.52c1.4-0.04,2.65-0.51,3.69-1.46C61.21,86.13,61.96,84.84,61.91,83.14z"/>
			<path class="st17" d="M54.19,86.42c0.03-0.09,0.05-0.18,0.09-0.27c0.43-1.12-0.28-2.12-1.48-2.07c-0.14,0.01-0.29,0.03-0.43,0.05
				c-0.44-1.8-0.04-3.34,1.47-4.46c1.05-0.78,2.24-1.04,3.52-0.57c-0.79,0.66-1.16,1.48-0.92,2.5c0.2,0.87,0.76,1.45,1.62,1.73
				c0.79,0.25,1.5,0.02,2.19-0.35c-0.18,2.14-1.4,3.51-3.51,3.9C55.83,87.04,55,86.75,54.19,86.42z"/>
			<path class="st17" d="M66.99,80.94c-0.74,0.8-0.9,1.49-0.52,2.22c0.46,0.89,1.49,1.16,2.34,0.63c0.04-0.02,0.09-0.01,0.14-0.01
				c0.11,1.13-0.79,2.31-2,2.66c-0.76,0.22-1.47,0.05-2.18-0.21c0.02-0.08,0.03-0.16,0.05-0.23c0.3-0.96-0.33-1.62-1.35-1.43
				c-0.29-1.1-0.11-2.1,0.73-2.91C64.99,80.88,65.94,80.7,66.99,80.94z"/>
			<g id="EyesColor">
				<path class="st18" d="M57.36,79.09c-1.28-0.47-2.47-0.22-3.52,0.57c-1.51,1.13-1.91,2.67-1.47,4.46
					c-0.25,0.22-0.51,0.45-0.76,0.67c-0.88-1.56-0.46-4.11,1.17-5.62c1.67-1.54,4.46-1.78,6.01-0.58
					C58.34,78.74,57.85,78.92,57.36,79.09z"/>
				<path class="st18" d="M54.19,86.42c0.82,0.34,1.65,0.62,2.55,0.46c2.1-0.39,3.33-1.76,3.51-3.9c0.16-0.2,0.34-0.39,0.48-0.61
					c0.13-0.2,0.22-0.43,0.33-0.64c0.55,1.81-0.11,3.87-1.71,5.14c-1.73,1.37-4.44,1.43-5.99,0.15
					C53.63,86.81,53.91,86.61,54.19,86.42z"/>
				<path class="st18" d="M66.99,80.94c-1.05-0.23-2.01-0.06-2.8,0.71c-0.84,0.81-1.02,1.81-0.73,2.91
					c-0.18,0.15-0.37,0.3-0.56,0.46c-0.62-1.17-0.27-2.93,0.76-3.91c1.14-1.09,2.98-1.31,4.29-0.47
					C67.61,80.74,67.3,80.84,66.99,80.94z"/>
				<path class="st18" d="M64.77,86.22c0.71,0.26,1.42,0.43,2.18,0.21c1.2-0.34,2.11-1.53,2-2.66c0.22-0.27,0.45-0.53,0.67-0.79
					c0.43,0.95-0.15,2.69-1.18,3.49c-1.27,0.99-3.08,1.05-4.28,0.13C64.37,86.47,64.57,86.34,64.77,86.22z"/>
			</g>
		</g>
	</g>
</g>
</svg>
