<?xml version="1.0" encoding="utf-8"?>
<!-- Generator: Adobe Illustrator 25.2.1, SVG Export Plug-In . SVG Version: 6.00 Build 0)  -->
<svg version="1.1" id="Layer_1" xmlns="http://www.w3.org/2000/svg" xmlns:xlink="http://www.w3.org/1999/xlink" x="0px" y="0px"
	 viewBox="0 0 124.44 144" style="enable-background:new 0 0 124.44 144;" xml:space="preserve">
<style type="text/css">
	.st0{fill:#3ECE50;}
	.st1{fill:#C800B0;}
	.st2{fill:none;}
	.st3{fill:#FFFFFF;}
	.st4{font-family:'MyriadPro-Regular';}
	.st5{font-size:21px;}
	.st6{fill:#915500;}
	.st7{font-size:11.4524px;}
</style>
<g id="XMLID_27_">
	<polygon class="st0" points="2.84,106.56 2.84,37.44 62.56,2.89 122.28,37.44 122.28,106.56 62.56,141.11 	"/>
	<g>
		<path class="st1" d="M62.56,5.78l57.22,33.11v66.23l-57.22,33.11L5.34,105.12V38.88L62.56,5.78 M62.56,0L0.34,36v72l62.22,36
			l62.22-36V36L62.56,0L62.56,0z"/>
	</g>
</g>
<rect x="0" y="38.3" class="st2" width="124.44" height="31.67"/>
<text transform="matrix(1 0 0 1 5.6782 53.2069)" class="st3 st4 st5">performance</text>
<g>
	<path d="M33.35,118.89c1.62,0.65,1.93,1.11,1.82,2.69c-0.4,0.45-0.92,0.65-1.55,0.65c-1.19,0-2.37,0.03-3.56,0
		c-1.39-0.03-2.15-0.82-2.25-2.21c-0.1-1.31-0.22-2.61-0.33-3.89c-0.92-1.13-1.83-2.25-2.89-3.55c0.09,0.86,0.15,1.52,0.24,2.46
		c-1.55-1.27-2.25-2.75-2.8-4.24c-0.55-1.5-0.82-3.11-1.2-4.64c-0.72-0.27-0.81,0.46-1.33,0.78c-0.11-0.18-0.22-0.37-0.36-0.61
		c-0.56,0.08-1.09,0.16-1.77,0.27c-1.02-0.25-2.22-0.33-3.34-0.95c-2.5-1.39-3.58-4.27-3.08-6.83c0.28-1.41,0.68-2.8,1.11-4.18
		c0.43-1.37,0.53-2.75,0.4-4.15c-0.44-1.32-1.79-1.78-2.56-2.8c-0.55-1.09-0.51-2.24-0.29-3.52c-0.37,0.2-0.69,0.37-1.17,0.62
		c0.14-0.76,0.25-1.34,0.36-1.93c-0.09-0.07-0.19-0.14-0.28-0.21c-0.22,0.32-0.44,0.64-0.77,1.12c-0.16-1.05,0.41-1.7,0.68-2.61
		c-0.43,0.17-0.72,0.28-1.24,0.49c0.43-0.77,0.78-1.38,1.15-2.04C8,79.54,7.7,79.48,7.18,79.38c0.66-0.4,1.15-0.7,1.65-1
		c-0.03-0.23-0.06-0.43-0.11-0.72c0.43,0.12,0.81,0.23,1.22,0.34c0.06-0.06,0.21-0.13,0.25-0.24c0.14-0.49,0.27-0.97,0.9-1.2
		c-0.08,0.38-0.14,0.71-0.22,1.08c0.11-0.01,0.19,0,0.22-0.03c0.26-0.3,0.52-0.61,0.81-0.95c0.58,0.16,1.09,0.29,1.63,0.44
		c-0.13,0.24-0.24,0.43-0.35,0.61c0.13,0.12,0.26,0.24,0.4,0.37c-0.18,0.22-0.34,0.42-0.51,0.63c0.46,0.29,0.87,0.55,1.35,0.86
		c-0.32,0.16-0.54,0.28-0.75,0.38c0.38,0.5,0.74,0.98,1.18,1.58c-0.48,0.11-0.78,0.18-1.08,0.25c0.18,0.64,0.37,1.27,0.58,2.03
		c-0.25-0.03-0.44-0.05-0.6-0.07c-0.22,0.48-0.44,0.96-0.77,1.68c-0.17-0.44-0.23-0.62-0.33-0.88c-0.27,0.66-0.55,1.27-1.33,1.71
		c0-0.6,0-1.01,0-1.62c-0.42,0.43-0.7,0.71-0.99,1c0.14,0.45,0.25,0.83,0.38,1.26c0.5,0.48,1.01,1,1.56,1.48
		c1.05,0.91,1.6,2.01,1.64,3.43c0.03,1.3-0.34,2.5-0.6,3.74c-0.24,1.15-0.65,2.27-0.74,3.43c-0.21,2.72,0.85,5.07,3.66,5.68
		c0.48,0.11,0.98,0.17,1.56,0.27c0.43-0.11,0.95-0.25,1.48-0.39c0.19-3.31,1.16-6.33,3.01-9.05c-0.6-1.53,0.43-4.99,2.06-6.71
		c-1.25,0.48-2,1.19-2.72,2.17c-0.04-0.33-0.14-0.59-0.08-0.79c0.37-1.16,0.64-2.39,1.22-3.44c1.29-2.36,2.93-4.48,4.88-6.34
		c0.33-0.31,0.67-0.61,0.94-0.99c-1.54,0.19-2.74,1.01-3.94,1.89c0.75-1.77,2.2-2.89,3.65-4c1.47-1.13,3.18-1.85,4.96-2.39
		c-0.02-0.1-0.05-0.2-0.07-0.3c-1.1,0-2.19,0-3.29,0c0.94-0.96,2.09-1.32,3.28-1.71c1.22-0.4,2.39,0.17,3.75,0
		c-0.63-0.64-1.13-1.16-1.66-1.71c1.63-0.3,1.63-0.3,5.81,1.09c0.19-1.14,0.01-1.48-2.27-4.22c1.57,0.09,2.87,0.48,4.09,1.31
		c1.27,0.87,1.95,2.12,2.57,3.53c1.62-1.01,3.31-1.65,5.37-1.56c-0.53,0.73-1.34,0.77-1.85,1.22c-0.52,0.46-1.11,0.89-1.52,1.84
		c1.46-0.68,2.72-1.3,4.06-1.13c1.38,0.17,2.79,0.43,3.91,1.4c1.05,0.91,1.79,2.03,2.21,3.37c0.42,1.35,0.42,2.67-0.23,4.01
		c1.87,2.03,3.4,4.23,3.63,7.08c-0.33,0.31-0.59,0.55-0.75,0.7c-0.17,0.81-0.32,1.51-0.51,2.41c-0.39-0.59-0.65-1-0.96-1.46
		c-0.27,0.13-0.54,0.26-0.79,0.39c-0.04,0.61-0.08,1.14-0.13,1.86c-0.45-0.55-0.78-0.96-1.12-1.38c-0.29,0-0.56,0-0.88,0
		c-0.09,0.53-0.18,1.03-0.32,1.81c-0.4-0.64-0.66-1.04-0.96-1.51c-0.44,0-0.92,0-1.41,0c0.68,1.03,1.15,1.46,2.25,2.06
		c0.19-0.12,0.42-0.26,0.74-0.46c0.07,0.3,0.13,0.58,0.26,1.13c0.35-0.5,0.62-0.87,0.88-1.24c0.7,0.38,0.77,1,1.02,1.6
		c0.44-0.52,0.86-1.01,1.42-1.67c0.25,2.25,0.29,4.24-0.48,6.17c-0.27,0.69-0.61,1.34-1.4,1.42c-0.39,0.53-0.74,1.02-1.23,1.69
		c0.08-0.98,0.13-1.69,0.19-2.39c-1.12,2.11-2.04,4.28-3.8,6.23c0.1-1.06,0.18-1.89,0.26-2.72c-0.06-0.01-0.11-0.02-0.17-0.04
		c-0.85,1.63-1.71,3.26-2.67,5.08c0.35-0.11,0.57-0.12,0.7-0.24c0.53-0.5,1.02-1.05,1.56-1.54c0.77-0.7,1.67-1.12,2.73-0.97
		c0.28,0.04,0.55,0.23,0.94,0.41c-0.84,1.41-2.58,1.57-3.4,2.93c1.6,1.06,3.74,0.98,5.26,2.37c-0.13,0.3-0.25,0.57-0.36,0.83
		c-1.43,0.27-2.62-0.42-4.04-0.74c0.59,1.4,2.17,2.25,1.85,4c-0.35,0-0.74,0.12-0.92-0.02c-0.73-0.59-1.6-1.01-2.13-1.87
		c-0.55-0.88-1.25-1.66-1.95-2.56c-0.82-0.45-1.73-0.96-2.66-1.48c-1.19,0.84-1.91,2.23-3.5,2.8c-0.15-0.5-0.28-0.96-0.44-1.4
		c-0.14-0.42-0.31-0.84-0.48-1.29c-0.79,1.09-0.78,2.29-0.75,3.49c0.03,1.18-0.13,2.36,0.27,3.52c0.22,0.63,0.4,1.28,0.55,1.75
		c0.76,0.67,1.41,0.86,2.16,0.45c0.11-0.06,0.27-0.05,0.4-0.09c1.69-0.52,2.38-0.16,2.98,1.54c0.06,0.17,0.13,0.33,0.17,0.43
		c-0.3,0.99-1.2,0.99-1.83,1.03c-1.62,0.1-3.27,0.34-4.87-0.27c-0.62-0.46-0.92-1.08-0.96-1.86c-0.06-1.17-0.2-2.34-0.23-3.52
		c-0.01-0.67,0.14-1.33,0.25-2.22c-0.58,0.52-1.03,0.91-1.74,1.55c0.59-1.47,0.28-2.55-0.19-3.66c-1.35,1.15-2,2.94-1.77,4.85
		c-3.59,0.32-6.37-1.23-8.83-3.63c-0.18,1.41,0.28,2.72,1,4.11c-0.35-0.05-0.62-0.08-0.89-0.12c-0.05,0.99-0.04,1,1.03,2
		C31.44,119.72,32.33,119.1,33.35,118.89z M56.84,79.83c0.32-2.63-2.38-5.12-4.7-5.22c-2.81-0.13-5.2,2.17-5.34,5.08
		c-0.12,2.5,2.52,5.37,4.91,5.23C54.79,84.74,57.01,82.4,56.84,79.83z"/>
	<path class="st3" d="M56.84,79.83c0.18,2.56-2.05,4.91-5.13,5.09c-2.39,0.14-5.03-2.73-4.91-5.23c0.14-2.91,2.53-5.21,5.34-5.08
		C54.45,74.72,57.15,77.21,56.84,79.83z M51.93,77.53c-1.07,0.27-1.14,1.08-1.34,1.79c0.26,0.5,0.5,0.98,0.72,1.42
		c0.51,0.16,0.94,0.3,1.5,0.48c0.51-0.4,1.07-0.83,1.55-1.2c0-0.61,0-1.06,0-1.55c-0.37-0.31-0.72-0.62-1.1-0.94
		c-0.22,0.38-0.36,0.62-0.56,0.96C52.39,78.1,52.18,77.83,51.93,77.53z"/>
	<path d="M51.93,77.53c0.25,0.31,0.46,0.57,0.77,0.95c0.19-0.33,0.34-0.58,0.56-0.96c0.38,0.32,0.74,0.63,1.1,0.94
		c0,0.49,0,0.94,0,1.55c-0.48,0.37-1.03,0.8-1.55,1.2c-0.56-0.18-0.99-0.31-1.5-0.48c-0.22-0.44-0.47-0.92-0.72-1.42
		C50.79,78.6,50.86,77.8,51.93,77.53z"/>
</g>
<g>
	<g id="table">
		<path class="st6" d="M111.28,85.48c-0.09,0-0.18-0.01-0.27-0.01c-14.58,0-29.15,0-43.73,0c-0.09,0-0.18,0.01-0.27,0.01
			c0-0.62,0-1.23,0-1.85c0.09,0,0.18-0.01,0.27-0.01c14.58,0,29.15,0,43.73,0c0.09,0,0.18,0,0.27,0.01
			C111.28,84.24,111.28,84.86,111.28,85.48z"/>
		<path class="st6" d="M67.02,107.61c0.09,0,0.18-0.01,0.27-0.01c14.58,0,29.15,0,43.73,0c0.09,0,0.18,0.01,0.27,0.01
			c0,0.6,0,1.2,0,1.81c-0.09,0.01-0.18,0.02-0.27,0.02c-14.58,0-29.15,0-43.73,0c-0.09,0-0.18-0.01-0.27-0.02
			C67.02,108.82,67.02,108.21,67.02,107.61z"/>
		<path class="st6" d="M68.88,86.39c4.3,0,8.58,0,12.88,0c0,6.75,0,13.5,0,20.26c-4.29,0-8.58,0-12.88,0
			C68.88,99.91,68.88,93.16,68.88,86.39z"/>
		<path class="st6" d="M82.71,86.39c4.3,0,8.58,0,12.88,0c0,6.75,0,13.5,0,20.26c-4.29,0-8.58,0-12.88,0
			C82.71,99.9,82.71,93.16,82.71,86.39z"/>
		<path class="st6" d="M109.43,86.4c0,6.76,0,13.5,0,20.26c-4.3,0-8.58,0-12.89,0c0-6.75,0-13.5,0-20.26
			C100.83,86.4,105.12,86.4,109.43,86.4z"/>
	</g>
	<polygon class="st3" points="69.67,66.03 58.68,70.62 54.92,60.47 65.92,55.87 	"/>
	<text transform="matrix(0.9253 -0.3793 0.3793 0.9253 60.8628 67.4378)" class="st4 st7">8</text>
	<polygon class="st3" points="88.23,67.74 76.52,65.54 78.96,54.98 90.68,57.19 	"/>
	<text transform="matrix(0.9811 0.1937 -0.1937 0.9811 80.1024 64.1005)" class="st4 st7">9</text>
	<polygon class="st3" points="116.69,69.1 105.23,65.8 108.66,55.53 120.12,58.83 	"/>
	<text transform="matrix(0.9622 0.2724 -0.2724 0.9622 108.9584 64.7927)" class="st4 st7">7</text>
	<g id="people">
		<path d="M75.86,74.36c0.17,0.08,0.29,0.14,0.4,0.19c1.43,0.65,2.45,1.71,2.97,3.2c0.54,1.52,0.91,3.07,0.93,4.69
			c0,0.07,0,0.15,0,0.24c-3.22,0-6.43,0-9.68,0c0-0.16-0.01-0.32,0-0.48c0.15-1.52,0.38-3.02,0.91-4.45
			c0.57-1.53,1.57-2.67,3.12-3.27c0.05-0.02,0.09-0.05,0.19-0.1c-0.13-0.04-0.22-0.07-0.3-0.09c-1.39-0.35-2.37-1.2-2.96-2.5
			c-0.28-0.61-0.18-1.26-0.22-1.89c-0.12-1.8,2.06-4.14,4.55-3.73c1.34,0.22,2.42,0.83,3.08,2.03c1.2,2.17,0.3,5.39-2.65,6.07
			C76.12,74.29,76.03,74.32,75.86,74.36z"/>
		<path d="M103.57,74.35c0.11,0.07,0.18,0.13,0.26,0.16c1.12,0.33,1.89,1.11,2.47,2.06c0.38,0.61,0.65,1.3,0.89,1.99
			c0.43,1.25,0.66,2.54,0.64,3.88c0,0.07,0,0.15,0,0.24c-3.23,0-6.45,0-9.7,0c0.03-0.37,0.06-0.73,0.11-1.09
			c0.18-1.5,0.5-2.96,1.09-4.36c0.48-1.13,1.33-1.92,2.36-2.53c0.16-0.09,0.35-0.12,0.53-0.19c0.07-0.02,0.13-0.06,0.2-0.11
			c-1.65-0.43-2.86-1.34-3.34-3.02c-0.26-0.89-0.2-1.78,0.12-2.66c0.53-1.43,2.18-2.76,4.2-2.58c1.68,0.15,3.24,1.37,3.58,2.97
			c0.24,1.17,0.25,2.32-0.49,3.38C105.75,73.49,104.79,74.07,103.57,74.35z"/>
		<path d="M89.71,74.36c0.12,0.06,0.2,0.1,0.28,0.13c1.57,0.69,2.63,1.84,3.16,3.47c0.47,1.45,0.84,2.92,0.84,4.46
			c0,0.07,0,0.15,0,0.24c-3.22,0-6.43,0-9.69,0c0.02-0.34,0.02-0.69,0.07-1.04c0.16-1.19,0.35-2.38,0.73-3.53
			c0.4-1.2,1.03-2.26,2.09-3c0.33-0.23,0.71-0.39,1.06-0.59c0.08-0.04,0.16-0.07,0.25-0.14c-1.64-0.42-2.79-1.38-3.3-3
			c-0.28-0.88-0.24-1.78,0.12-2.63c0.67-1.61,2.32-2.92,4.54-2.55c1.7,0.28,3.26,1.89,3.36,3.5C93.39,72.12,92.31,73.57,89.71,74.36
			z"/>
		<path d="M72.76,78.98l-0.12,0.08c-0.78,0.55-1.86,0.36-2.41-0.41l-6.39-9.02c-0.55-0.78-0.36-1.86,0.41-2.41l0.12-0.08
			c0.78-0.55,1.86-0.36,2.41,0.41l6.39,9.02C73.72,77.34,73.54,78.43,72.76,78.98z"/>
		<path d="M86.34,78.63l-0.13,0.06c-0.86,0.41-1.9,0.04-2.31-0.81l-4.57-9.55c-0.41-0.86-0.04-1.9,0.81-2.31l0.13-0.06
			c0.86-0.41,1.9-0.04,2.31,0.81l4.57,9.55C87.57,77.18,87.2,78.22,86.34,78.63z"/>
		<path d="M106.14,79.09l-0.13-0.06c-0.87-0.39-1.26-1.42-0.87-2.29l4.35-9.74c0.39-0.87,1.42-1.26,2.29-0.87l0.13,0.06
			c0.87,0.39,1.26,1.42,0.87,2.29l-4.35,9.74C108.04,79.08,107.01,79.48,106.14,79.09z"/>
	</g>
</g>
</svg>
