<?xml version="1.0" encoding="utf-8"?>
<!-- Generator: Adobe Illustrator 25.2.1, SVG Export Plug-In . SVG Version: 6.00 Build 0)  -->
<svg version="1.1" id="Layer_1" xmlns="http://www.w3.org/2000/svg" xmlns:xlink="http://www.w3.org/1999/xlink" x="0px" y="0px"
	 viewBox="0 0 124.44 144" style="enable-background:new 0 0 124.44 144;" xml:space="preserve">
<style type="text/css">
	.st0{fill:#FFFFFF;}
	.st1{fill:url(#SVGID_1_);}
	.st2{fill:none;}
	.st3{font-family:'MyriadPro-Regular';}
	.st4{font-size:30px;}
	.st5{fill:#FF9800;}
	.st6{fill:#E91E63;}
	.st7{fill:#FFC107;}
</style>
<g id="XMLID_27_">
	<polygon class="st0" points="124.15,108 61.93,144 -0.29,108 -0.29,36 61.93,0 124.15,36 	"/>
	<linearGradient id="SVGID_1_" gradientUnits="userSpaceOnUse" x1="61.9283" y1="-1.586914e-05" x2="61.9283" y2="144">
		<stop  offset="0" style="stop-color:#FFC107"/>
		<stop  offset="0.5" style="stop-color:#FF9800"/>
		<stop  offset="1" style="stop-color:#E91E63"/>
	</linearGradient>
	<path class="st1" d="M61.93,5.78l57.22,33.11v66.23l-57.22,33.11L4.71,105.12V38.88L61.93,5.78 M61.93,0L-0.29,36v72l62.22,36
		l62.22-36V36L61.93,0L61.93,0z"/>
</g>
<rect x="0" y="36.32" class="st2" width="124.44" height="34.33"/>
<text transform="matrix(1 0 0 1 5.4312 57.6183)" class="st3 st4">easystats</text>
<g id="hand">
	<path d="M47.65,125.43c3.03-1.05,4.5-3.14,4.43-6.34c0.62-0.06,1.14-0.11,1.66-0.16c2.44-0.25,4.45-2.11,4.64-4.54
		c0.09-1.13,0.36-1.61,1.57-1.59c2.23,0.03,3.77-1.2,4.57-3.18c0.79-1.97,0.58-3.97-0.96-5.52c-4.42-4.42-8.89-8.79-13.39-13.13
		c-4.21-4.05-8.76-7.68-13.87-10.57c-2.18-1.23-2.84-3.49-1.72-5.46c1.11-1.96,3.46-2.72,5.53-1.34c5.11,3.4,10.16,6.9,15.04,10.61
		c2.84,2.16,5.35,4.76,7.94,7.23c2.52,2.41,4.74,2.26,7.01-0.49c1.49-1.8,3.02-3.61,4.72-5.21c2.08-1.95,4.53-3.17,7.55-2.88
		c2.12,0.2,3.44,1.16,3.97,3.1c0.42,1.52-0.16,2.89-1.95,3.99c-4.72,2.9-7.51,7.08-8.24,12.54c-0.15,1.11,0.2,2.37,0.6,3.46
		c0.93,2.54,2.4,4.94,2.99,7.55c1.29,5.7-1.19,10.09-5.61,13.53c-8.33,6.49-18.2,6.1-26-0.99
		C48.01,125.95,47.93,125.81,47.65,125.43z"/>
	<path d="M46.43,91.45c0.49-0.06,2.06,0.78,2.81,1.47c4.26,3.94,8.5,7.91,12.62,12.01c1.73,1.73,1.5,4.14-0.17,5.52
		c-1.61,1.33-3.76,0.94-5.42-0.68c-3.93-3.84-7.93-7.6-11.97-11.33c-1.36-1.26-1.96-2.71-1.43-4.27
		C43.37,92.66,44.61,91.39,46.43,91.45z"/>
	<path d="M52.81,117.47c-0.86-0.51-1.9-0.84-2.54-1.55c-3.72-4.07-7.62-7.94-12.07-11.24c-1.55-1.15-1.71-3.32-0.61-4.91
		c1.01-1.47,3.1-2.03,4.71-1.02c1.62,1.02,3.19,2.17,4.57,3.49c3.04,2.9,5.98,5.92,8.88,8.96c1.1,1.15,1.28,2.59,0.51,4.04
		C55.59,116.55,54.49,117.22,52.81,117.47z"/>
	<path d="M36.22,105.48c0.43,0.22,1.39,0.48,2.04,1.08c3.69,3.41,7.39,6.82,10.92,10.39c1.83,1.85,1.65,3.98-0.03,5.49
		c-1.64,1.48-3.64,1.19-5.5-0.62c-3.42-3.32-6.9-6.58-10.36-9.85c-1.19-1.12-1.61-2.62-1.04-4.09
		C32.8,106.45,34.26,105.44,36.22,105.48z"/>
	<path class="st5" d="M63.51,74.76c-0.45-2.62-0.85-4.84-1.21-7.07c-0.15-0.95-0.3-1.91-0.29-2.86c0.01-1.09,0.58-1.81,1.77-1.86
		c1.1-0.05,1.93,0.6,1.83,1.57c-0.31,3.17-0.83,6.31-1.28,9.46C64.31,74.12,64.12,74.21,63.51,74.76z"/>
	<path class="st6" d="M58.04,76.28c-1.36-1.58-2.6-2.94-3.75-4.37c-0.9-1.12-1.75-2.29-2.51-3.51c-0.56-0.89-0.32-1.77,0.55-2.38
		c0.89-0.63,1.96-0.5,2.36,0.41c1.34,2.99,2.49,6.07,3.7,9.12C58.42,75.62,58.31,75.74,58.04,76.28z"/>
	<path class="st7" d="M69.38,75.83c0.1-0.55,0.12-1.13,0.32-1.65c0.9-2.34,1.83-4.67,2.8-6.99c0.49-1.16,1.31-1.87,2.65-1.26
		c1.14,0.52,1.35,1.7,0.46,2.97c-1.35,1.93-2.76,3.81-4.2,5.67c-0.43,0.56-1.04,0.99-1.57,1.48C69.69,75.98,69.53,75.9,69.38,75.83z
		"/>
</g>
</svg>
