<?xml version="1.0" encoding="utf-8"?>
<!-- Generator: Adobe Illustrator 25.2.1, SVG Export Plug-In . SVG Version: 6.00 Build 0)  -->
<svg version="1.1" id="Layer_1" xmlns="http://www.w3.org/2000/svg" xmlns:xlink="http://www.w3.org/1999/xlink" x="0px" y="0px"
	 viewBox="0 0 124.44 144" style="enable-background:new 0 0 124.44 144;" xml:space="preserve">
<style type="text/css">
	.st0{fill:#FF008C;}
	.st1{fill:#FFCE00;}
	.st2{fill:#FFFFFF;}
	.st3{fill:none;}
	.st4{font-family:'MyriadPro-Regular';}
	.st5{font-size:25px;}
	.st6{fill:#00BDFF;}
</style>
<g id="XMLID_27_">
	<polygon class="st0" points="2.5,106.56 2.5,37.44 62.22,2.89 121.94,37.44 121.94,106.56 62.22,141.11 	"/>
	<g>
		<path class="st1" d="M62.22,5.78l57.22,33.11v66.23l-57.22,33.11L5,105.12V38.88L62.22,5.78 M62.22,0L0,36v72l62.22,36l62.22-36
			V36L62.22,0L62.22,0z"/>
	</g>
</g>
<g>
	<path id="Shape" d="M25.83,114.9c0-0.37,0-0.74,0-1.11c0.05-0.18,0.13-0.35,0.15-0.53c0.87-5.58,6.92-8.37,11.71-5.39
		c0.47,0.29,0.7,0.19,1.04-0.15c1.6-1.63,3.21-3.25,4.85-4.84c0.45-0.44,0.5-0.72,0.11-1.25c-1.68-2.24-2.46-4.81-2.27-7.59
		c0.29-4.23,2.31-7.46,5.96-9.63c0.36-0.22,0.47-0.41,0.3-0.82c-0.61-1.47-1.2-2.94-1.77-4.43c-0.15-0.39-0.35-0.48-0.77-0.46
		c-0.98,0.04-2,0.14-2.94-0.07c-4.8-1.04-7.33-6.06-5.39-10.57c0.19-0.45,0.13-0.69-0.26-0.97c-1.02-0.71-2.03-1.45-3.01-2.21
		c-0.36-0.28-0.61-0.23-0.98-0.01c-2.6,1.58-5.79,0.26-6.56-2.69c-0.04-0.15-0.11-0.29-0.17-0.44c0-0.37,0-0.74,0-1.11
		c0.06-0.12,0.13-0.24,0.16-0.37c0.64-2.5,2.94-3.92,5.37-3.31c2.32,0.58,3.68,2.92,3.09,5.38c-0.1,0.41-0.02,0.63,0.31,0.87
		c1.03,0.74,2.05,1.49,3.06,2.25c0.33,0.25,0.55,0.27,0.89-0.02c1.9-1.67,4.12-2.28,6.61-1.82c0.45,0.08,0.62-0.03,0.77-0.41
		c0.47-1.15,0.96-2.29,1.47-3.42c0.2-0.43,0.17-0.71-0.19-1.08c-2.38-2.44-1.26-6.41,2.03-7.29c0.17-0.05,0.34-0.12,0.5-0.19
		c0.37,0,0.74,0,1.11,0c0.1,0.05,0.19,0.13,0.3,0.15c2.26,0.44,3.72,2.55,3.49,4.64c-0.27,2.47-2.09,3.99-4.63,4.02
		c-0.22,0-0.53,0.24-0.63,0.45c-0.54,1.17-1.02,2.37-1.55,3.55c-0.17,0.39-0.11,0.6,0.24,0.86c4.44,3.35,4.37,9.41-0.14,12.62
		c-0.33,0.24-0.46,0.43-0.28,0.84c0.62,1.47,1.21,2.94,1.77,4.43c0.17,0.45,0.41,0.51,0.84,0.42c4.67-1.02,8.6,0.28,11.79,3.81
		c0.31,0.34,0.52,0.39,0.91,0.14c3.34-2.14,6.68-4.27,10.03-6.39c0.36-0.23,0.42-0.44,0.28-0.84c-1.12-3.24-0.3-6.31,2.28-8.56
		c0.34-0.3,0.42-0.53,0.2-0.93c-0.6-1.09-1.17-2.2-1.72-3.31c-0.2-0.41-0.42-0.55-0.91-0.48c-2.55,0.35-5.02-2.04-4.79-4.6
		c0.18-1.95,1.52-3.56,3.32-3.98c1.86-0.43,3.75,0.33,4.74,1.91c1.04,1.66,0.9,3.64-0.42,5.19c-0.29,0.34-0.31,0.6-0.11,0.98
		c0.59,1.09,1.17,2.2,1.72,3.31c0.2,0.4,0.4,0.52,0.86,0.39c1.36-0.4,2.74-0.4,4.09,0.02c0.53,0.16,0.74-0.02,0.96-0.44
		c1.77-3.31,3.55-6.62,5.34-9.92c0.24-0.44,0.2-0.7-0.12-1.09c-2.03-2.5-0.82-6.16,2.3-6.99c0.17-0.05,0.34-0.12,0.51-0.19
		c0.37,0,0.74,0,1.11,0c0.17,0.06,0.33,0.14,0.5,0.18c1.59,0.46,2.65,1.47,3.15,3.05c0.08,0.26,0.15,0.52,0.23,0.78
		c0,0.28,0,0.55,0,0.83c-0.06,0.17-0.13,0.34-0.17,0.52c-0.52,2.24-2.58,3.69-4.84,3.37c-0.5-0.07-0.65,0.18-0.83,0.52
		c-1.78,3.31-3.55,6.62-5.35,9.92c-0.26,0.47-0.21,0.72,0.19,1.1c2.36,2.18,3.2,4.87,2.28,7.97c-1.64,5.54-8.56,7.3-12.7,3.28
		c-0.26-0.25-0.44-0.57-0.91-0.27c-3.39,2.18-6.8,4.33-10.19,6.52c-0.15,0.1-0.27,0.49-0.2,0.65c0.89,2.07,1.32,4.21,1,6.47
		c-0.06,0.42,0.08,0.62,0.51,0.73c1.32,0.32,2.64,0.66,3.93,1.06c0.6,0.18,0.87,0.04,1.17-0.52c1.74-3.22,5.43-4.73,8.9-3.7
		c3.49,1.03,5.78,4.36,5.49,8.01c-0.03,0.41,0.09,0.58,0.47,0.68c0.76,0.2,1.51,0.41,2.25,0.68c0.56,0.2,0.88,0.1,1.28-0.37
		c1.14-1.35,2.63-1.85,4.35-1.41c1.71,0.44,2.77,1.57,3.2,3.29c0.04,0.18,0.11,0.35,0.17,0.52c0,0.28,0,0.55,0,0.83
		c-0.06,0.22-0.14,0.44-0.19,0.66c-0.55,2.19-2.75,3.62-4.95,3.22c-2.03-0.37-3.33-1.76-3.64-3.96c-0.06-0.41-0.19-0.61-0.58-0.71
		c-0.82-0.22-1.64-0.47-2.45-0.73c-0.39-0.12-0.59-0.01-0.84,0.33c-0.61,0.83-1.28,1.61-1.99,2.36c-0.27,0.29-0.33,0.48-0.15,0.82
		c0.85,1.66,1.68,3.33,2.5,5c0.18,0.36,0.36,0.48,0.8,0.43c2.27-0.27,4.3,1.34,4.73,3.7c0.38,2.14-1.08,4.34-3.23,4.88
		c-0.22,0.06-0.44,0.13-0.66,0.19c-0.28,0-0.55,0-0.83,0c-0.13-0.05-0.25-0.12-0.38-0.15c-3.47-0.81-4.7-4.53-2.37-7.25
		c0.26-0.3,0.26-0.52,0.1-0.85c-0.84-1.64-1.67-3.29-2.46-4.95c-0.22-0.46-0.47-0.52-0.92-0.39c-1.42,0.39-2.84,0.33-4.21-0.15
		c-0.53-0.19-0.78-0.04-1.04,0.41c-1.01,1.73-2.04,3.46-3.1,5.16c-0.29,0.47-0.26,0.76,0.07,1.21c1.86,2.54,0.49,6.11-2.59,6.8
		c-0.18,0.04-0.35,0.11-0.52,0.17c-0.28,0-0.55,0-0.83,0c-0.22-0.06-0.44-0.14-0.66-0.19c-2.26-0.56-3.65-2.81-3.19-5.16
		c0.44-2.22,2.63-3.74,4.89-3.38c0.47,0.08,0.76-0.01,1.01-0.45c1.04-1.79,2.11-3.57,3.2-5.33c0.27-0.43,0.17-0.66-0.17-0.99
		c-1.68-1.6-2.45-3.59-2.38-5.9c0.01-0.48-0.16-0.65-0.57-0.75c-1.34-0.34-2.68-0.66-4-1.06c-0.55-0.16-0.76,0-0.97,0.5
		c-3.12,7.05-11.71,9.33-17.92,4.77c-0.44-0.33-0.68-0.26-1.03,0.1c-1.63,1.66-3.27,3.31-4.94,4.93c-0.4,0.39-0.39,0.65-0.1,1.1
		c2.78,4.49,0.39,10.28-4.76,11.53c-0.4,0.1-0.8,0.19-1.2,0.28c-0.37,0-0.74,0-1.11,0c-0.17-0.05-0.35-0.13-0.52-0.15
		c-3.26-0.5-5.77-2.85-6.46-6.04C25.97,115.57,25.9,115.23,25.83,114.9z M43.5,94.67c0.01,5.39,4.34,9.75,9.69,9.75
		c5.43,0,9.76-4.32,9.76-9.75c0.01-5.39-4.36-9.72-9.8-9.71C47.84,84.97,43.5,89.34,43.5,94.67z M43.84,65.58
		c-3.11-0.01-5.6,2.46-5.6,5.55c0,3.11,2.46,5.6,5.55,5.6c3.11,0.01,5.6-2.46,5.6-5.55C49.4,68.08,46.94,65.59,43.84,65.58z
		 M86.21,77.27c0.01-3.1-2.46-5.59-5.55-5.6c-3.08-0.01-5.58,2.45-5.6,5.48c-0.02,3.13,2.42,5.65,5.48,5.67
		C83.71,82.84,86.2,80.4,86.21,77.27z M77.26,106.63c3.12,0.01,5.62-2.44,5.63-5.52c0.01-3.12-2.44-5.62-5.52-5.63
		c-3.12-0.01-5.62,2.44-5.63,5.52C71.73,104.12,74.18,106.62,77.26,106.63z M33.58,119.92c3.1,0,5.57-2.47,5.57-5.58
		c0-3.1-2.47-5.57-5.58-5.57c-3.1,0-5.57,2.47-5.57,5.58C28,117.45,30.47,119.92,33.58,119.92z M50.44,53.41
		c-1.24,0.01-2.22,1-2.23,2.24c0,1.27,1,2.27,2.27,2.26c1.24-0.01,2.22-1,2.23-2.24C52.72,54.4,51.71,53.4,50.44,53.41z
		 M94.51,55.66c0-1.27-1.01-2.26-2.29-2.25c-1.24,0.01-2.22,1.01-2.22,2.25c0,1.25,0.98,2.24,2.22,2.25
		C93.5,57.92,94.51,56.93,94.51,55.66z M32.51,61.17c-0.01-1.24-1-2.22-2.24-2.23c-1.27,0-2.27,1-2.26,2.28
		c0.01,1.24,1,2.22,2.24,2.23C31.52,63.45,32.52,62.44,32.51,61.17z M72.86,64.55c1.28,0.01,2.28-0.99,2.28-2.26
		c0-1.24-0.98-2.23-2.22-2.25c-1.28-0.01-2.28,0.98-2.28,2.26C70.63,63.55,71.62,64.54,72.86,64.55z M94.51,105.52
		c0.01-1.28-0.98-2.28-2.25-2.29c-1.24,0-2.24,0.98-2.25,2.22c-0.01,1.25,0.95,2.26,2.18,2.29
		C93.47,107.77,94.5,106.79,94.51,105.52z M67.29,119.92c1.28,0.02,2.3-0.96,2.31-2.23c0.01-1.25-0.96-2.25-2.19-2.28
		c-1.28-0.02-2.3,0.96-2.31,2.23C65.09,118.89,66.05,119.89,67.29,119.92z M87.87,117.66c0-1.27-1.01-2.26-2.29-2.25
		c-1.24,0.01-2.22,1.01-2.21,2.25c0,1.25,0.98,2.24,2.22,2.25C86.86,119.93,87.87,118.93,87.87,117.66z"/>
	<g id="Bubbles">
		<path class="st2" d="M43.5,94.67c-0.01-5.33,4.34-9.7,9.66-9.71c5.43-0.01,9.8,4.32,9.8,9.71c-0.01,5.42-4.33,9.74-9.76,9.75
			C47.84,104.42,43.51,100.06,43.5,94.67z"/>
		<path class="st2" d="M43.84,65.58c3.09,0.01,5.56,2.49,5.55,5.6c-0.01,3.09-2.49,5.56-5.6,5.55c-3.09-0.01-5.55-2.49-5.55-5.6
			C38.25,68.04,40.74,65.58,43.84,65.58z"/>
		<path class="st2" d="M86.21,77.27c-0.01,3.13-2.5,5.57-5.67,5.55c-3.06-0.01-5.5-2.54-5.48-5.67c0.02-3.04,2.52-5.49,5.6-5.48
			C83.75,71.68,86.22,74.17,86.21,77.27z"/>
		<path class="st2" d="M77.26,106.63c-3.08-0.01-5.53-2.51-5.52-5.63c0.01-3.08,2.51-5.53,5.63-5.52c3.08,0.01,5.53,2.51,5.52,5.63
			C82.88,104.19,80.38,106.64,77.26,106.63z"/>
		<path class="st2" d="M33.58,119.92c-3.1,0-5.58-2.47-5.58-5.57c0-3.1,2.47-5.58,5.57-5.58c3.1,0,5.58,2.47,5.58,5.57
			C39.15,117.45,36.68,119.92,33.58,119.92z"/>
		<path class="st2" d="M50.44,53.41c1.28-0.01,2.28,0.99,2.27,2.26c0,1.24-0.99,2.23-2.23,2.24c-1.28,0.01-2.28-0.99-2.27-2.26
			C48.21,54.4,49.2,53.41,50.44,53.41z"/>
		<path class="st2" d="M94.51,55.66c0,1.27-1.01,2.27-2.29,2.25c-1.24-0.01-2.22-1.01-2.22-2.25c0-1.24,0.98-2.24,2.22-2.25
			C93.51,53.39,94.51,54.39,94.51,55.66z"/>
		<path class="st2" d="M32.51,61.17c0.01,1.27-0.99,2.28-2.26,2.28c-1.24,0-2.23-0.99-2.24-2.23c-0.01-1.28,0.99-2.28,2.26-2.28
			C31.51,58.95,32.5,59.93,32.51,61.17z"/>
		<path class="st2" d="M72.86,64.55c-1.24-0.01-2.22-1-2.22-2.25c0-1.27,1-2.27,2.28-2.26c1.24,0.01,2.22,1,2.22,2.25
			C75.14,63.57,74.13,64.56,72.86,64.55z"/>
		<path class="st2" d="M94.51,105.52c-0.01,1.27-1.04,2.25-2.32,2.22c-1.23-0.03-2.2-1.03-2.18-2.29c0.01-1.24,1.01-2.22,2.25-2.22
			C93.53,103.23,94.53,104.24,94.51,105.52z"/>
		<path class="st2" d="M67.29,119.92c-1.24-0.02-2.2-1.03-2.19-2.28c0.01-1.27,1.03-2.25,2.31-2.23c1.23,0.02,2.2,1.03,2.19,2.28
			C69.59,118.96,68.57,119.94,67.29,119.92z"/>
		<path class="st2" d="M87.87,117.66c0,1.27-1.01,2.27-2.28,2.25c-1.24-0.01-2.22-1-2.22-2.25c0-1.24,0.98-2.24,2.21-2.25
			C86.86,115.4,87.87,116.39,87.87,117.66z"/>
	</g>
</g>
<rect x="0" y="32.3" class="st3" width="124.44" height="31.67"/>
<text transform="matrix(1 0 0 1 5.4834 50.0472)" class="st2 st4 st5">correlation</text>
<g id="Eyes">
	<g>
		<circle class="st6" cx="50.71" cy="94.69" r="6.38"/>
		<circle cx="49.71" cy="94.69" r="4.25"/>
	</g>
	<g>
		<circle class="st6" cx="34.51" cy="114.57" r="3.54"/>
		<circle cx="34.95" cy="114.57" r="2.36"/>
	</g>
	<g>
		<circle class="st6" cx="44.51" cy="70" r="3.54"/>
		<circle cx="44.95" cy="69.31" r="2.36"/>
	</g>
	<g>
		<circle class="st6" cx="81.7" cy="78.27" r="3.54"/>
		<circle cx="82.14" cy="78.93" r="2.36"/>
	</g>
	<g>
		<circle class="st6" cx="77.09" cy="99.69" r="3.54"/>
		<circle cx="76.71" cy="99" r="2.36"/>
	</g>
	<g>
		<circle class="st6" cx="92.26" cy="55.26" r="1.42"/>
		<circle cx="92.11" cy="54.98" r="0.94"/>
	</g>
	<g>
		<circle class="st6" cx="72.13" cy="62.3" r="1.42"/>
		<circle cx="71.76" cy="62.3" r="0.94"/>
	</g>
	<g>
		<circle class="st6" cx="50.81" cy="56.24" r="1.42"/>
		<circle cx="51" cy="56.45" r="0.94"/>
	</g>
	<g>
		<circle class="st6" cx="29.75" cy="60.8" r="1.42"/>
		<circle cx="29.52" cy="60.57" r="0.94"/>
	</g>
	<g>
		<circle class="st6" cx="66.86" cy="118.12" r="1.42"/>
		<circle cx="66.58" cy="118.33" r="0.94"/>
	</g>
	<g>
		<circle class="st6" cx="86.16" cy="117.97" r="1.42"/>
		<circle cx="86.35" cy="118.12" r="0.94"/>
	</g>
	<g>
		<circle class="st6" cx="92.26" cy="104.81" r="1.42"/>
		<circle cx="92.26" cy="104.42" r="0.94"/>
	</g>
</g>
</svg>
