<?xml version="1.0" encoding="utf-8"?>
<!-- Generator: Adobe Illustrator 25.2.1, SVG Export Plug-In . SVG Version: 6.00 Build 0)  -->
<svg version="1.1" id="Layer_1" xmlns="http://www.w3.org/2000/svg" xmlns:xlink="http://www.w3.org/1999/xlink" x="0px" y="0px"
	 viewBox="0 0 124.44 144" style="enable-background:new 0 0 124.44 144;" xml:space="preserve">
<style type="text/css">
	.st0{fill:#34495E;}
	.st1{fill:#2196F3;}
	.st2{fill:none;}
	.st3{fill:#FFFFFF;}
	.st4{font-family:'MyriadPro-Regular';}
	.st5{font-size:66px;}
	.st6{fill:none;stroke:#FFFFFF;stroke-width:2;stroke-linecap:square;stroke-miterlimit:10;}
	.st7{fill:none;stroke:#FFFFFF;stroke-width:2;stroke-miterlimit:10;}
	.st8{fill:url(#SVGID_1_);}
	.st9{font-size:7px;}
</style>
<g id="XMLID_27_">
	<polygon class="st0" points="2.5,106.56 2.5,37.44 62.22,2.89 121.94,37.44 121.94,106.56 62.22,141.11 	"/>
	<path class="st1" d="M62.22,5.78l57.22,33.11v66.23l-57.22,33.11L5,105.12V38.88L62.22,5.78 M62.22,0L0,36v72l62.22,36l62.22-36V36
		L62.22,0L62.22,0z"/>
</g>
<rect x="0" y="20.32" class="st2" width="124.44" height="49.66"/>
<text transform="matrix(1 0 0 1 16.0869 67.1784)" class="st3 st4 st5">see</text>
<line class="st6" x1="33.87" y1="118.89" x2="90.57" y2="118.89"/>
<line class="st7" x1="33.88" y1="69.98" x2="33.88" y2="119.08"/>
<g id="snake">
	
		<linearGradient id="SVGID_1_" gradientUnits="userSpaceOnUse" x1="20.6353" y1="90.3386" x2="114.1786" y2="90.3386" gradientTransform="matrix(1.0075 -9.131365e-03 -9.131365e-03 1.0377 2.9191 -5.1256)">
		<stop  offset="0" style="stop-color:#E91E63"/>
		<stop  offset="1" style="stop-color:#FF9800"/>
	</linearGradient>
	<path class="st8" d="M63.3,106.48c0.14-0.61,0.26-1.07,0.36-1.54c0.09-0.47,0.18-0.94,0.24-1.42c0.11-0.92,0.21-1.85,0.27-2.78
		c0.08-1.21,0.12-2.42,0.14-3.63c0.02-1.03,0.01-2.06,0.02-3.09c0.02-1.25,0.05-2.51,0.09-3.76c0.02-0.64,0.06-1.28,0.12-1.91
		c0.04-0.43,0.13-0.85,0.19-1.27c0.07-0.6,0.26-1.18,0.38-1.77c0.1-0.47,0.22-0.92,0.35-1.38c0.16-0.57,0.34-1.14,0.53-1.71
		c0.13-0.41,0.28-0.81,0.44-1.21c0.5-1.23,1.06-2.43,1.73-3.57c0.37-0.62,0.77-1.23,1.23-1.79c0.26-0.32,0.51-0.64,0.78-0.94
		c0.36-0.39,0.74-0.77,1.13-1.14c0.45-0.43,0.94-0.81,1.43-1.18c0.19-0.14,0.4-0.26,0.59-0.4c0.18-0.12,0.35-0.24,0.53-0.35
		c0.68-0.41,1.4-0.76,2.12-1.08c1-0.45,2.03-0.8,3.07-1.1c1.06-0.31,2.14-0.56,3.22-0.76c0.97-0.18,1.96-0.32,2.94-0.45
		c1.2-0.16,2.41-0.29,3.61-0.42c0.54-0.06,1.08-0.07,1.61-0.13c0.83-0.08,1.65-0.16,2.48-0.28c0.74-0.11,1.48-0.24,2.22-0.39
		c0.95-0.2,1.88-0.46,2.8-0.79c0.85-0.31,1.67-0.69,2.43-1.2c0.56-0.37,1.07-0.81,1.46-1.37c0.16-0.24,0.29-0.5,0.43-0.75
		c0.29-0.5,0.59-1,0.97-1.44c0.4-0.47,0.9-0.8,1.48-0.99c0.61-0.19,1.22-0.37,1.84-0.48c0.69-0.12,1.39-0.15,2.08-0.11
		c0.3,0.01,0.59,0.08,0.89,0.13c0.45,0.07,0.9,0.15,1.35,0.21c0.45,0.06,0.88,0.01,1.31-0.22c0.68-0.36,1.3-0.81,1.93-1.26
		c0.59-0.42,1.16-0.89,1.69-1.38c0.2-0.18,0.38-0.39,0.57-0.58c0.08-0.08,0.17-0.2,0.27-0.11c0.11,0.09,0.01,0.2-0.05,0.29
		c-0.19,0.28-0.39,0.56-0.58,0.84c-0.02,0.03-0.02,0.06-0.03,0.09c0.03,0,0.06,0.01,0.09,0c0.26-0.11,0.51-0.22,0.77-0.32
		c0.14-0.06,0.28-0.12,0.42-0.16c0.05-0.01,0.11,0.02,0.16,0.03c-0.01,0.06-0.02,0.13-0.05,0.19c-0.02,0.03-0.07,0.05-0.1,0.07
		c-0.07,0.04-0.15,0.09-0.22,0.13c-0.58,0.35-1.17,0.7-1.74,1.07c-0.4,0.25-0.8,0.51-1.19,0.78c-0.51,0.35-1,0.72-1.5,1.09
		c-0.13,0.1-0.25,0.21-0.36,0.32c-0.1,0.09-0.16,0.21-0.21,0.35c-0.33,0.95-0.55,1.93-0.87,2.88c-0.23,0.67-0.39,1.36-0.61,2.04
		c-0.11,0.34-0.21,0.68-0.34,1c-0.19,0.48-0.38,0.96-0.61,1.41c-0.19,0.38-0.47,0.72-0.84,0.94c-0.21,0.12-0.45,0.2-0.68,0.26
		c-0.54,0.14-1.1,0.16-1.66,0.21c-0.98,0.09-1.95,0.15-2.92,0.32c-0.78,0.14-1.56,0.27-2.34,0.42c-1.08,0.2-2.17,0.41-3.25,0.6
		c-0.6,0.11-1.2,0.21-1.8,0.31c-0.83,0.14-1.66,0.27-2.49,0.4c-0.74,0.12-1.48,0.23-2.22,0.34c-0.73,0.11-1.47,0.21-2.2,0.32
		c-0.57,0.09-1.13,0.19-1.7,0.28c-0.81,0.13-1.61,0.24-2.42,0.39c-0.88,0.16-1.75,0.35-2.63,0.52c-0.99,0.2-1.97,0.44-2.94,0.74
		c-0.77,0.24-1.52,0.52-2.27,0.81c-0.84,0.33-1.62,0.78-2.38,1.27c-0.56,0.36-1.08,0.79-1.56,1.26c-0.58,0.58-1.1,1.21-1.53,1.91
		c-0.29,0.46-0.54,0.95-0.77,1.45c-0.24,0.53-0.46,1.07-0.61,1.64c-0.06,0.23-0.17,0.45-0.23,0.68c-0.1,0.38-0.19,0.77-0.27,1.16
		c-0.1,0.49-0.18,0.98-0.25,1.47c-0.12,0.87-0.18,1.75-0.19,2.63c-0.01,0.86,0,1.72,0,2.58c0.01,1.1,0.04,2.2,0.04,3.3
		c0,0.96-0.04,1.93-0.05,2.89c-0.01,1.01-0.06,2.01-0.16,3.01c-0.06,0.65-0.11,1.29-0.19,1.94c-0.04,0.33-0.11,0.66-0.16,0.99
		c-0.07,0.41-0.13,0.83-0.19,1.24c0,0.02-0.01,0.03-0.01,0.05c-0.13,0.53-0.25,1.06-0.39,1.58c-0.11,0.42-0.22,0.84-0.35,1.25
		c-0.12,0.38-0.27,0.76-0.41,1.14c-0.12,0.32-0.24,0.64-0.38,0.96c-0.12,0.29-0.26,0.58-0.4,0.86c-0.34,0.64-0.68,1.28-1.1,1.87
		c-0.46,0.65-0.94,1.28-1.49,1.85c-0.54,0.56-1.11,1.07-1.72,1.55c-0.29,0.23-0.6,0.42-0.9,0.62c-0.23,0.15-0.45,0.31-0.69,0.44
		c-0.54,0.29-1.08,0.59-1.66,0.81c-0.5,0.19-1,0.4-1.5,0.58c-0.39,0.14-0.8,0.27-1.2,0.35c-0.32,0.07-0.64,0.05-0.97,0.08
		c-0.84,0.07-1.67,0.06-2.51,0.03c-0.49-0.01-0.97-0.07-1.46-0.12c-0.3-0.03-0.59-0.05-0.89-0.09c-0.25-0.04-0.49-0.1-0.73-0.14
		c-0.42-0.08-0.85-0.15-1.27-0.25c-0.35-0.09-0.72-0.14-1.05-0.33c-0.06-0.04-0.14-0.04-0.22-0.07c-0.37-0.12-0.75-0.22-1.11-0.37
		c-0.83-0.35-1.65-0.72-2.44-1.15c-0.63-0.35-1.26-0.7-1.86-1.1c-0.66-0.45-1.33-0.88-1.98-1.34c-0.64-0.45-1.25-0.93-1.88-1.4
		c-0.45-0.33-0.89-0.67-1.35-0.97c-0.6-0.39-1.21-0.79-1.84-1.13c-0.41-0.22-0.84-0.43-1.31-0.55c-0.14-0.03-0.27-0.13-0.42-0.16
		c-0.98-0.21-1.96-0.31-2.96-0.09c-0.62,0.14-1.21,0.32-1.78,0.6c-0.36,0.18-0.75,0.33-1.08,0.56c-0.79,0.55-1.62,1.03-2.46,1.51
		c-0.51,0.29-1.03,0.54-1.58,0.72c-0.19,0.06-0.38,0.07-0.56,0c-0.12-0.05-0.17-0.12-0.14-0.26c0.05-0.21,0.11-0.41,0.23-0.6
		c0.43-0.66,0.88-1.32,1.38-1.93c0.34-0.42,0.72-0.8,1.08-1.2c0.37-0.41,0.78-0.75,1.21-1.09c0.49-0.39,1.01-0.74,1.56-1.01
		c0.65-0.33,1.33-0.57,2.04-0.7c0.69-0.13,1.38-0.18,2.08-0.11c0.43,0.04,0.86,0.07,1.28,0.19c0.26,0.08,0.54,0.1,0.8,0.18
		c0.44,0.14,0.88,0.31,1.31,0.47c0.17,0.06,0.34,0.13,0.51,0.2c0.44,0.19,0.88,0.38,1.31,0.59c0.44,0.21,0.87,0.44,1.29,0.68
		c1.25,0.71,2.49,1.45,3.74,2.16c0.77,0.44,1.55,0.85,2.33,1.27c0.48,0.25,0.97,0.5,1.47,0.73c0.32,0.15,0.67,0.25,0.99,0.4
		c0.69,0.31,1.41,0.51,2.14,0.7c0.28,0.07,0.57,0.1,0.86,0.14c0.27,0.04,0.54,0.1,0.81,0.11c0.62,0.04,1.24,0.08,1.86,0.07
		c0.66-0.01,1.32-0.07,1.98-0.13c0.6-0.06,1.19-0.19,1.76-0.37c0.41-0.13,0.82-0.26,1.21-0.43c0.39-0.17,0.77-0.39,1.14-0.61
		c0.65-0.38,1.23-0.87,1.74-1.43c0.55-0.59,1-1.25,1.38-1.96c0.24-0.44,0.46-0.9,0.62-1.38C62.97,107.33,63.17,106.84,63.3,106.48z
		 M106.15,62.31c-0.41-0.13-0.79-0.01-1.16,0.14c-0.25,0.1-0.26,0.27-0.04,0.4c0.37,0.23,0.76,0.36,1.2,0.29
		c0.18-0.03,0.34-0.09,0.47-0.23c0.14-0.15,0.14-0.25-0.02-0.36C106.47,62.46,106.31,62.39,106.15,62.31z M108.86,65.94
		c0.03-0.09,0.06-0.18,0.07-0.27c0.01-0.08,0.02-0.17,0-0.25c-0.05-0.18-0.21-0.24-0.35-0.12c-0.12,0.1-0.24,0.22-0.32,0.35
		c-0.19,0.34-0.36,0.7-0.44,1.09c-0.03,0.15,0.07,0.35,0.21,0.42c0.12,0.06,0.25,0.01,0.36-0.15c0.01-0.02,0.02-0.05,0.04-0.07
		C108.64,66.64,108.75,66.29,108.86,65.94z"/>
</g>
<rect x="26.7" y="113.77" class="st2" width="7.21" height="8.23"/>
<text transform="matrix(1 0 0 1 28.5144 118.7449)" class="st3 st4 st9">0</text>
<rect x="26.7" y="92.26" class="st2" width="7.21" height="8.23"/>
<text transform="matrix(1 0 0 1 28.5144 97.2268)" class="st3 st4 st9">3</text>
<rect x="26.7" y="70.74" class="st2" width="7.21" height="8.23"/>
<text transform="matrix(1 0 0 1 28.5144 75.7088)" class="st3 st4 st9">6</text>
</svg>
