<?xml version="1.0" encoding="utf-8"?>
<!-- Generator: Adobe Illustrator 25.2.1, SVG Export Plug-In . SVG Version: 6.00 Build 0)  -->
<svg version="1.1" id="Layer_1" xmlns="http://www.w3.org/2000/svg" xmlns:xlink="http://www.w3.org/1999/xlink" x="0px" y="0px"
	 viewBox="0 0 124.44 144" style="enable-background:new 0 0 124.44 144;" xml:space="preserve">
<style type="text/css">
	.st0{fill:#34495E;}
	.st1{fill:#2ECC71;}
	.st2{fill:none;}
	.st3{fill:#FFFFFF;}
	.st4{font-family:'MyriadPro-Regular';}
	.st5{font-size:39px;}
	.st6{fill:#EFEBDE;stroke:#000000;stroke-width:0.5;stroke-miterlimit:10;}
	.st7{fill:#7A7669;}
	.st8{fill:#8E8B7D;stroke:#000000;stroke-width:0.5;stroke-miterlimit:10;}
	.st9{display:none;}
	.st10{display:inline;fill:#E74C3C;}
	.st11{display:inline;fill:#FFFFFF;}
	.st12{fill:#FF9800;stroke:#000000;stroke-width:0.5;stroke-miterlimit:10;}
	.st13{fill:#E91E63;stroke:#000000;stroke-width:0.5;stroke-miterlimit:10;}
	.st14{fill:#263238;}
	.st15{fill:#E91E63;}
	.st16{fill:#FCFBFB;}
	.st17{fill:#FEFEFE;}
	.st18{fill:#010101;}
	.st19{fill:none;stroke:#FFFFFF;stroke-width:1.25;stroke-miterlimit:10;}
</style>
<g id="XMLID_27_">
	<polygon class="st0" points="2.5,106.56 2.5,37.44 62.22,2.89 121.94,37.44 121.94,106.56 62.22,141.11 	"/>
	<path class="st1" d="M62.22,5.78l57.22,33.11v66.23l-57.22,33.11L5,105.12V38.88L62.22,5.78 M62.22,0L0,36v72l62.22,36l62.22-36V36
		L62.22,0L62.22,0z"/>
</g>
<rect x="0" y="32.32" class="st2" width="124.44" height="34.33"/>
<text transform="matrix(1 0 0 1 11.4429 60.0084)" class="st3 st4 st5">report</text>
<g>
	<g>
		<g>
			<polygon class="st6" points="110.85,79.22 100.27,68.63 76.83,68.63 76.83,112.48 110.85,112.48 			"/>
			<g>
				<path class="st7" d="M84.39,86.02h18.9c0.42,0,0.76-0.34,0.76-0.76s-0.34-0.76-0.76-0.76h-18.9c-0.42,0-0.76,0.34-0.76,0.76
					S83.97,86.02,84.39,86.02z"/>
				<path class="st7" d="M84.39,79.97h7.56c0.42,0,0.76-0.34,0.76-0.76s-0.34-0.76-0.76-0.76h-7.56c-0.42,0-0.76,0.34-0.76,0.76
					S83.97,79.97,84.39,79.97z"/>
				<path class="st7" d="M103.29,90.56h-18.9c-0.42,0-0.76,0.34-0.76,0.76s0.34,0.76,0.76,0.76h18.9c0.42,0,0.76-0.34,0.76-0.76
					S103.71,90.56,103.29,90.56z"/>
				<path class="st7" d="M103.29,96.6h-18.9c-0.42,0-0.76,0.34-0.76,0.76c0,0.42,0.34,0.76,0.76,0.76h18.9
					c0.42,0,0.76-0.34,0.76-0.76C104.05,96.94,103.71,96.6,103.29,96.6z"/>
				<path class="st7" d="M103.29,102.65h-18.9c-0.42,0-0.76,0.34-0.76,0.76c0,0.42,0.34,0.76,0.76,0.76h18.9
					c0.42,0,0.76-0.34,0.76-0.76C104.05,102.99,103.71,102.65,103.29,102.65z"/>
			</g>
			<polygon class="st8" points="100.27,68.63 100.27,79.22 110.85,79.22 			"/>
		</g>
		<g class="st9">
			<circle class="st10" cx="110.69" cy="102.8" r="8.66"/>
			<path class="st11" d="M115.43,98.59c-0.33-0.23-0.78-0.15-1,0.18l-4.04,5.8l-2.85-2.34c-0.31-0.25-0.76-0.21-1.02,0.1
				c-0.25,0.31-0.21,0.76,0.1,1.02l3.45,2.84c0.13,0.11,0.29,0.16,0.46,0.16c0.03,0,0.07,0,0.1-0.01c0.2-0.03,0.38-0.14,0.49-0.3
				l4.48-6.44C115.84,99.27,115.76,98.82,115.43,98.59z"/>
		</g>
	</g>
	<g id="g6" transform="matrix(0.02728551,0,0,-0.02821125,-0.00872274,51.344475)" class="st9">
		<path id="path8" class="st10" d="M3221.13-699.73c-7.3-9.9-21.43-22.2-39.88-34.98c-1.15-0.86-1.63-1.92-1.25-2.88
			c0.48-1.35,2.02-1.63,8.17-1.63c11.82,0,10.95,4.61,10.19-50.54c-0.58-41.32-0.38-47.76,0.96-53.52
			c2.59-11.15,6.63-17.01,14.51-21.24c3.27-1.73,5.38-2.02,14.41-1.92c9.13,0,11.43,0.38,17.2,2.59
			c12.11,4.71,26.52,15.09,26.52,19.03c0,2.31,0.1,2.31-8.55-0.67c-8.55-2.98-19.41-4.04-24.41-2.4c-4.8,1.63-8.94,6.63-10.19,12.59
			c-0.67,3.07-1.06,18.45-0.96,42.09c0,36.61,0.77,56.12,2.21,57.56c0.86,0.96,39.2,1.63,43.43,0.77c1.63-0.29,3.75-1.15,4.8-1.83
			c1.73-1.35,1.83-3.17,1.83-50.74c0-48.53,0-49.39,2.11-54.87c3.84-10.19,11.53-18.06,21.62-22.1c7.49-2.98,24.89-2.98,32.57,0.1
			c7.49,2.98,15.95,8.36,24.5,15.37c4.23,3.65,7.78,5.86,8.65,5.57c1.06-0.38,1.35-2.88,1.35-12.11c0-9.61,0.29-11.72,1.54-12.2
			c0.77-0.29,6.73,1.25,13.16,3.36c6.44,2.11,18.26,5.48,26.14,7.4c7.98,1.92,14.7,4.04,15.09,4.61c1.54,2.5-1.35,3.36-9.9,3.27
			c-7.98-0.1-8.74,0.1-11.05,2.31c-2.11,2.21-2.5,3.56-3.36,14.41c-1.06,12.11-0.67,38.34,1.15,81.96
			c0.86,20.37,0.77,23.16-0.58,25.27l-1.54,2.31l-24.69-0.58c-27.39-0.67-30.56-0.96-31.23-2.79c-0.96-2.5,1.06-3.46,10.28-4.8
			c5.19-0.77,10.38-2.02,11.53-2.88c3.75-2.4,4.52-7.88,5.09-38.53c0.58-31.13-0.58-51.5-3.17-58.13c-2.02-5-8.74-10.86-15.66-13.64
			c-7.88-3.07-22.58-3.07-29.4,0c-5.86,2.69-8.65,5.28-11.34,10.28c-2.11,3.84-2.11,4.42-2.11,56.89c0,40.93-0.29,53.33-1.15,54.19
			c-0.96,0.96-7.88,0.96-33.63,0.1c-44.58-1.63-45.16-1.63-45.93,0.77c-0.38,1.06-0.29,7.4,0.1,13.93
			c0.67,12.2,0.1,14.89-2.98,14.89C3226.6-693.1,3223.91-696.08,3221.13-699.73z"/>
		<path id="path10" class="st10" d="M3104.57-717.12c-21.24-3.65-39.97-16.34-48.33-32.77c-4.52-8.84-4.32-15.18,0.58-17.78
			c3.75-1.83,8.36-1.15,13.93,2.02c4.13,2.4,5.67,4.9,8.55,13.93c3.94,12.4,10.47,21.24,18.54,25.18c5.67,2.79,17.2,2.98,22,0.48
			c7.49-4.04,9.42-11.24,8.65-32.57c-0.58-16.82-2.02-21.91-7.01-25.46c-1.54-1.06-10.38-5.77-19.6-10.38
			c-27.1-13.55-37.09-21.04-42.86-32.38c-7.21-14.22-1.92-31.61,11.53-37.86c6.53-3.07,18.16-3.17,26.71-0.29
			c9.42,3.17,20.56,11.34,25.27,18.55c0.96,1.35,2.11,2.5,2.79,2.5c0.58,0,2.11-2.4,3.36-5.38c7.59-17.49,30.65-20.95,47.28-7.11
			c4.71,3.84,9.51,11.24,9.51,14.61s-1.83,3.46-5.48,0.38c-9.13-7.59-19.03-7.78-23.06-0.38c-2.11,3.84-2.21,17.2-0.86,70.43
			c0.86,32.48,0.77,33.82-1.06,37.96c-2.4,5.38-6.63,9.8-12.3,12.49C3134.46-716.93,3116.39-715.1,3104.57-717.12z M3125.52-795.43
			c1.35-2.11,1.54-4.13,0.96-14.22c-1.15-20.08-3.75-27.87-11.82-35.36c-5.48-5.19-10.38-7.01-16.24-6.34
			c-13.26,1.44-19.31,15.85-12.49,29.5c4.52,9.13,15.76,19.31,28.25,25.56C3121.87-792.36,3123.41-792.26,3125.52-795.43z"/>
		<path id="path12" class="st10" d="M3593.56-717.12c-7.88-1.25-20.85-5.96-27.19-9.71c-17.49-10.57-29.69-27.1-35.07-47.47
			c-2.88-10.95-2.98-29.4-0.1-41.03c8.07-32.96,35.26-53.23,68.89-51.41c11.34,0.58,19.99,3.27,30.94,9.51
			c12.68,7.11,29.5,24.79,27.77,29.12c-0.86,2.31-2.11,1.73-8.26-3.75c-11.82-10.57-21.33-14.32-36.51-14.41
			c-21.33-0.1-36.32,8.84-44.68,26.52c-5,10.47-6.34,17.01-6.92,31.71l-0.58,13.07l2.5,2.5c2.4,2.4,2.98,2.5,12.88,2.5
			c5.67,0,24.5-0.48,41.8-1.06c41.61-1.54,41.03-1.73,39.88,12.3c-1.35,17.1-17.2,34.21-37.19,40.07
			C3615.18-716.74,3601.06-715.97,3593.56-717.12z M3613.93-725.38c9.42-2.79,16.33-12.2,15.18-20.76
			c-0.96-6.82-7.11-11.34-19.31-13.93c-9.32-2.02-36.32-2.21-40.84-0.38c-3.07,1.35-3.17,1.54-2.79,5.86
			c0.86,8.46,8.55,19.99,16.72,25.08C3591.54-724.23,3604.32-722.5,3613.93-725.38z"/>
		<path id="path14" class="st10" d="M2921.43-723.27c-10.47-8.55-20.37-14.8-29.02-18.35c-5.38-2.31-7.21-3.56-7.21-4.9
			c0-1.44,1.15-2.02,5.77-2.88c7.21-1.25,9.9-2.69,11.34-5.96c1.44-3.46,2.11-67.94,0.77-82.45c-1.44-15.76-2.02-16.53-14.22-19.6
			c-7.69-1.92-9.51-2.98-8.74-5c0.48-1.06,7.69-1.25,37.86-1.25c36.51,0,37.38,0,37.38,1.92c0,1.44-1.54,2.4-7.11,4.42
			c-8.84,3.27-11.24,5.57-12.68,11.82c-1.54,7.01-2.31,56.21-1.06,70.05c1.54,15.85,3.36,21.81,8.65,27.67
			c7.78,8.65,17.68,12.2,29.79,10.47c12.11-1.63,19.79-7.78,23.06-18.26c1.44-4.61,1.63-10.38,1.63-48.05
			c0-39.59-0.1-43.05-1.73-46.32c-2.02-4.04-6.82-6.82-14.61-8.46c-5.86-1.25-7.69-2.31-7.01-4.04c0.77-1.83,73.99-1.92,75.91,0
			c1.73,1.73,0.1,2.88-7.98,5.09c-7.49,2.11-10.09,3.75-11.72,7.59c-0.67,1.54-1.25,19.22-1.63,50.45
			c-0.58,46.03-0.67,48.33-2.69,54.39c-3.65,11.05-11.82,19.31-24.12,24.12c-7.69,2.98-24.98,3.07-33.15,0
			c-8.17-2.98-14.51-7.11-23.54-15.28c-4.42-3.94-8.46-6.92-9.03-6.73c-0.77,0.19-1.35,4.32-1.63,11.82
			c-0.29,6.25-0.86,12.01-1.25,12.68C2931.9-715.97,2929.02-717.22,2921.43-723.27z"/>
		<path id="path16" class="st10" d="M3468.94-721.44c-7.01-6.25-18.35-13.74-29.31-19.22c-5.28-2.69-9.61-5.48-9.61-6.25
			c0-0.86,2.02-1.73,5.77-2.5c3.17-0.58,6.53-1.44,7.49-1.83c5.48-2.31,6.82-14.41,6.15-57.65c-0.29-18.45-0.96-35.27-1.44-37.28
			c-1.44-5.57-4.52-8.17-12.2-10.38c-9.42-2.69-11.05-3.46-11.05-5.19c0-0.77,0.29-1.44,0.77-1.54c0.38-0.1,19.41-0.19,42.28-0.29
			c33.34-0.1,41.89,0.1,42.66,1.15c1.73,2.02-0.19,3.07-9.51,4.9c-11.63,2.4-17.01,4.9-19.22,8.94c-1.54,2.88-1.73,6.44-2.02,37.19
			c-0.29,32.86,0.38,47.85,2.79,56.21c0.58,2.02,2.79,5.57,5,7.98c3.94,4.23,4.04,4.32,9.03,3.94c3.94-0.38,5.86-1.15,8.74-3.46
			c6.53-5.67,10.57-8.07,14.41-8.55c7.21-0.96,15.47,3.56,18.06,9.99c2.98,7.01,0.86,17.1-4.61,22c-4.71,4.32-8.36,5.48-16.14,5
			c-9.9-0.58-15.18-3.56-26.42-15.09c-5.09-5.19-9.42-8.74-9.99-8.36c-0.67,0.48-1.06,4.52-1.06,11.15c0,5.67-0.29,11.05-0.58,11.92
			C3477.87-715.87,3473.93-717.02,3468.94-721.44z"/>
	</g>
</g>
<g id="monster">
	<path class="st12" d="M28.96,66.04c-0.82-0.08-1.64-0.12-2.48-0.34c1.07-1.05,2.38-1.44,3.78-1.57c1.14-0.11,2.25,0.07,3.34,0.36
		c0.37,0.1,0.56,0.02,0.8-0.2c0.79-0.76,1.73-1.16,2.93-1.2c-0.51,0.45-0.93,0.86-1.13,1.43c-0.07,0.2-0.13,0.44,0,0.6
		c0.13,0.16,0.31-0.03,0.47-0.06c1.06-0.21,2.07-0.62,3.16-0.66c0.11,0,0.22-0.05,0.36,0.06c-0.32,0.28-0.66,0.55-0.84,0.95
		c-0.11,0.24-0.09,0.31,0.18,0.37c0.64,0.14,1.23-0.09,1.83-0.23c0.73-0.17,1.43-0.57,2.22-0.25c0.13,0.05,0.26,0.11,0.47,0.19
		c-0.75,0.44-0.82,1.23-1.24,1.81c0.34,0.16,0.52-0.09,0.73-0.24c1.81-1.34,3.79-2.22,6.09-2.25c0.35,0,0.5,0.05,0.47,0.46
		c-0.15,2.07-0.72,3.99-2.03,5.63c-0.22,0.28-0.14,0.34,0.11,0.5c0.95,0.58,1.65,1.36,2.04,2.43c0.17,0.47-0.03,0.53-0.38,0.55
		c-0.58,0.03-1.14-0.08-1.7-0.19c-0.11-0.02-0.21-0.06-0.37,0.05c1.35,1.11,2.68,2.23,2.94,4.16c-0.71-0.15-1.3-0.51-2.15-0.56
		c0.6,0.61,1.11,1.12,1.6,1.64c0.48,0.5,0.93,1.02,1.25,1.63c0.05,0.1,0.22,0.2,0.09,0.35c-0.1,0.12-0.21-0.01-0.32-0.02
		c-0.57-0.05-1.06-0.41-1.64-0.4c-0.07,0-0.14,0.02-0.29,0.04c0.67,0.72,1.32,1.38,1.89,2.11c0.19,0.25,0.39,0.01,0.54-0.1
		c1.08-0.83,2.09-1.74,3-2.76c1.75-1.97,3.2-4.14,4.33-6.53c0.06-0.14,0.13-0.28,0.19-0.42c0.23-0.54,0.65-1.09,0.63-1.61
		c-0.02-0.55-0.72-0.89-1.08-1.35c-0.04-0.05-0.07-0.09-0.11-0.14c-0.27-0.42-0.61-0.84-0.14-1.33c0.33-0.33,0.91-0.23,1.43,0.24
		c0.11,0.1,0.22,0.2,0.39,0.36c0.06-0.49,0.07-0.93,0.38-1.26c0.22-0.23,0.44-0.42,0.79-0.3c0.37,0.12,0.47,0.4,0.47,0.76
		c0,0.56-0.26,1.05-0.47,1.65c0.4-0.24,0.71-0.46,1.04-0.6c0.19-0.08,0.44-0.28,0.67,0c0.22,0.26,0.15,0.52,0.06,0.8
		c-0.11,0.33-0.42,0.43-0.65,0.61c-0.1,0.08-0.23,0.15-0.35,0.18c-1.14,0.25-1.55,1.1-1.93,2.1c-0.98,2.53-2.39,4.81-4.16,6.88
		c-1.59,1.86-3.28,3.6-5.22,5.08c-0.43,0.33-0.33,0.53-0.04,0.88c0.96,1.15,1.59,2.48,1.96,3.93c0.12,0.48,0.01,0.57-0.47,0.45
		c-0.32-0.08-0.63-0.24-1.04-0.15c1.34,1.23,2.02,2.78,2.47,4.47c0.11,0.4,0.01,0.45-0.33,0.34c-0.63-0.2-1.28-0.3-1.94-0.6
		c0.2,1.62,1.29,2.89,1.51,4.53c-0.66-0.4-1.26-0.75-1.96-1.17c0.38,1.32,0.73,2.53,1.09,3.74c0.04,0.13,0.15,0.25,0.05,0.37
		c-0.12,0.13-0.24-0.04-0.35-0.07c-0.36-0.11-0.71-0.25-1.06-0.39c-0.11-0.05-0.22-0.12-0.32-0.04c-0.11,0.08-0.03,0.2-0.02,0.31
		c0.11,0.93,0.2,1.87,0.31,2.94c-0.38-0.38-0.78-0.9-1.03-0.77c-0.33,0.17-0.1,0.76-0.12,1.17c-0.03,0.48-0.01,0.96-0.01,1.53
		c-0.31-0.27-0.56-0.5-0.88-0.78c-0.18,0.98-0.27,1.89-0.3,2.93c-0.31-0.34-0.55-0.59-0.77-0.86c-0.2-0.25-0.3-0.27-0.39,0.07
		c-0.12,0.49-0.26,0.97-0.39,1.47c-0.04,0-0.09,0.02-0.11,0c-0.79-0.64-0.79-0.64-1.31,0.21c-0.17,0.27-0.34,0.55-0.51,0.82
		c-0.06-0.04-0.1-0.05-0.13-0.08c-0.5-0.49-0.53-0.51-1,0.21c-0.27,0.42-0.42,0.51-0.8,0.09c-0.43-0.48-0.97-0.64-1.64-0.35
		c-0.56,0.25-1.19,0.36-1.8,0.5c-0.18,0.04-0.28,0.09-0.28,0.28c0,1.7,0,3.41,0,5.17c0.71-0.24,1.35-0.48,2.04-0.51
		c1.26-0.07,2.41,0.19,3.4,0.98c0.18,0.14,0.38,0.32,0.33,0.56c-0.06,0.3-0.38,0.3-0.61,0.33c-1.45,0.18-2.92,0.04-4.37,0.08
		c-0.38,0.01-0.77-0.04-1.15-0.07c-0.46-0.04-0.69-0.23-0.67-0.76c0.07-1.73,0.08-3.46,0.1-5.18c0.01-0.63-0.06-0.68-0.7-0.61
		c-2.07,0.22-4.14,0.16-6.2,0.01c-0.69-0.05-0.69-0.07-0.69,0.63c0,1.73-0.02,3.46,0.01,5.19c0.01,0.51-0.21,0.7-0.65,0.73
		c-1.84,0.12-3.68,0.13-5.52,0c-0.23-0.02-0.55-0.03-0.62-0.31c-0.07-0.29,0.17-0.48,0.4-0.63c1.48-1.05,3.09-1.18,4.78-0.64
		c0.16,0.05,0.32,0.12,0.48,0.18c0.02,0.01,0.04-0.01,0.1-0.02c0-1.65,0-3.32,0-4.99c0-0.19-0.06-0.25-0.26-0.28
		c-0.64-0.09-1.29-0.17-1.9-0.35c-0.55-0.17-1.01-0.1-1.4,0.29c-0.26,0.26-0.42,0.16-0.58-0.09c-0.05-0.08-0.1-0.16-0.15-0.24
		c-0.5-0.69-0.5-0.69-1.1-0.06c-0.26-0.42-0.54-0.83-0.76-1.26c-0.22-0.43-0.44-0.47-0.75-0.1c-0.1,0.12-0.22,0.21-0.39,0.36
		c-0.15-0.54-0.3-1.03-0.42-1.53c-0.09-0.37-0.17-0.4-0.41-0.07c-0.19,0.26-0.48,0.44-0.73,0.67c-0.09-0.85-0.19-1.76-0.29-2.67
		c-0.05-0.04-0.09-0.08-0.14-0.11c-0.18,0.3-0.37,0.6-0.55,0.9c-0.07-0.06-0.15-0.11-0.22-0.17c0-0.74,0-1.48,0-2.22
		c0-0.15,0.07-0.33-0.09-0.43c-0.21-0.12-0.28,0.13-0.42,0.2c-0.2,0.1-0.35,0.29-0.62,0.53c0.03-1.12,0.27-2.12,0.22-3.19
		c-0.54,0.29-1.05,0.56-1.62,0.87c0.3-1.26,0.58-2.43,0.88-3.69c-0.77,0.27-1.23,0.83-1.91,1.12c0.21-1.74,0.81-3.32,1.37-5.04
		c-0.32,0.11-0.5,0.2-0.69,0.24c-0.16,0.03-0.31,0.28-0.45,0.1c-0.08-0.09-0.02-0.32,0.03-0.48c0.43-1.59,1.07-3.08,2.32-4.23
		c0.04-0.03,0.04-0.1,0.07-0.17c-0.36,0.03-0.66,0.18-0.98,0.28c-0.36,0.12-0.58,0.07-0.49-0.43c0.19-1.04,0.68-1.96,1.05-2.92
		c0.17-0.44,0.3-0.9,0.52-1.31c0.23-0.44,0.06-0.68-0.27-0.95c-2.84-2.34-5.35-4.98-7.27-8.14c-0.86-1.41-1.56-2.9-2.12-4.45
		c-0.15-0.41-0.36-0.68-0.79-0.82c-0.45-0.14-0.88-0.35-1.28-0.62c-0.28-0.19-0.49-0.42-0.56-0.77c-0.09-0.47,0.17-0.69,0.64-0.6
		c0.44,0.09,0.72,0.45,1.15,0.6c-0.14-0.47-0.27-0.9-0.38-1.33c-0.12-0.45-0.04-0.87,0.45-1.02c0.48-0.14,0.77,0.17,0.97,0.58
		c0.13,0.28,0.11,0.58,0.16,0.95c0.34-0.26,0.61-0.52,0.96-0.67c0.36-0.15,0.69-0.15,0.94,0.16c0.24,0.3,0.22,0.63,0.02,0.96
		c-0.3,0.49-0.67,0.93-1.1,1.31c-0.28,0.25-0.33,0.48-0.19,0.85c1.41,3.51,3.41,6.63,6.1,9.29c0.91,0.9,1.9,1.72,3,2.39
		c0.27,0.17,0.43,0.24,0.52-0.16c0.04-0.18,0.16-0.34,0.23-0.52c0.09-0.2,0.34-0.46,0.16-0.61c-0.19-0.17-0.51-0.25-0.81-0.17
		c-0.16,0.05-0.31,0.15-0.52,0.05c0.44-1.49,1.1-2.88,2.06-4.23c-0.55,0.11-0.96,0.36-1.51,0.4c0.7-1.89,1.7-3.48,3.34-4.64
		c-0.45,0.07-0.9,0.14-1.34,0.21c-0.36,0.06-0.43-0.04-0.28-0.4c0.2-0.51,0.39-1.03,0.7-1.49c0.14-0.21,0.13-0.36-0.08-0.52
		c-1.54-1.19-2.27-2.85-2.66-4.7c-0.11-0.54-0.22-1.08-0.33-1.62c-0.07-0.4-0.02-0.63,0.51-0.62c2.21,0.04,4.15,0.82,5.9,2.12
		c0.36,0.26,0.65,0.37,1.09,0.19C27.22,66.75,28.17,66.6,28.96,66.04z M34.63,72.34c0.2,1.26,1.02,1.92,2.25,1.81
		c0.96-0.08,1.71-0.98,1.69-2.03c-0.02-0.93-0.86-1.82-1.78-1.9c-1.09-0.09-1.93,0.62-2.15,1.82c-0.21-0.45-0.34-0.93-0.75-1.29
		c-0.83-0.72-1.91-0.72-2.7,0.06c-0.77,0.76-0.77,2.04,0,2.78c0.76,0.73,1.99,0.74,2.75,0.05C34.34,73.29,34.43,72.8,34.63,72.34z
		 M39.5,82.75c0.85-0.14,1.61-0.45,2.09-1.22c0.37-0.11,0.51-0.42,0.65-0.74c0.28-0.61,0.25-1.26,0.24-1.91
		c-0.03-2.03-1.86-3.03-3.58-3.04c-0.76-0.09-1.53-0.19-2.29-0.28c-0.7-0.01-1.4-0.04-2.1-0.03c-0.46,0.01-0.94-0.11-1.39,0.09
		c-0.89-0.16-1.76-0.01-2.63,0.16c-0.68-0.12-1.27,0.11-1.82,0.48c-1.51,1-1.82,2.54-1.45,4.08c0.12,0.5,0.3,1.03,0.83,1.29
		c0.54,0.57,1.17,0.96,1.96,1.09c0.75,0.34,1.55,0.33,2.34,0.41c1.52,0.15,3.06,0.16,4.58,0C37.79,83.04,38.68,83.1,39.5,82.75z
		 M23.08,69.17c0.28-0.6,0.74-0.9,1.19-1.22c0.27-0.19,0.35-0.34,0.03-0.55c-0.99-0.65-2.04-1.12-3.24-1.17
		c-0.32-0.01-0.52,0.05-0.48,0.43c0.15,1.27,0.45,2.48,1.4,3.43c0.82,0.82,0.9,0.82,1.73,0.06c0.32-0.3,0.76-0.5,0.9-0.98
		C24.1,69.17,23.63,69.17,23.08,69.17z M48.47,66.55c0-0.27-0.12-0.36-0.54-0.33c-1.2,0.08-2.26,0.52-3.23,1.2
		c-0.11,0.08-0.26,0.13-0.23,0.29c0.02,0.13,0.17,0.15,0.27,0.18c0.94,0.25,1.79,0.66,2.48,1.35c0.27,0.27,0.4,0.16,0.55-0.12
		C48.2,68.33,48.34,67.47,48.47,66.55z"/>
	<ellipse class="st13" cx="34.59" cy="102.1" rx="9.62" ry="7.9"/>
	<path class="st14" d="M38.91,75.85c1.72,0.01,3.55,1.01,3.58,3.04c0.01,0.65,0.05,1.29-0.24,1.91c-0.15,0.31-0.28,0.63-0.65,0.74
		c-0.1-0.4-0.41-0.67-0.64-0.99c-0.21-0.29-0.48-0.6-0.88-0.5c-0.37,0.09-0.45,0.46-0.49,0.81c0,0.04-0.07,0.08-0.1,0.12
		c-1.14-0.75-2.41-1.06-3.75-1.21c-1.99-0.22-3.85,0.13-5.61,1.06c-0.06-0.16-0.12-0.32-0.18-0.47c-0.24-0.65-0.52-0.74-1.03-0.3
		c-0.36,0.31-0.6,0.73-0.88,1.11c-0.13,0.18-0.04,0.32,0.02,0.47c-0.53-0.26-0.71-0.79-0.83-1.29c-0.36-1.53-0.05-3.08,1.45-4.08
		c0.56-0.37,1.14-0.59,1.82-0.48c0.19,0.71,0.42,1.41,0.86,2c0.38,0.5,0.67,0.54,1.03,0.03c0.46-0.65,0.73-1.38,0.74-2.2
		c0.45-0.2,0.92-0.08,1.39-0.09c0.7-0.02,1.4,0.02,2.1,0.03c-0.23,0.93,0.19,1.66,0.71,2.36c0.28,0.37,0.57,0.29,0.84-0.03
		c0.41-0.5,0.63-1.1,0.85-1.7C39.06,76.08,39.07,75.92,38.91,75.85z"/>
	<path class="st15" d="M30.13,80.82c1.76-0.94,3.62-1.28,5.61-1.06c1.34,0.15,2.62,0.46,3.75,1.21c0,0.59,0.01,1.19,0.01,1.78
		c-0.82,0.35-1.71,0.29-2.57,0.38c-1.52,0.16-3.05,0.15-4.58,0c-0.79-0.08-1.6-0.07-2.34-0.41C30.12,82.09,29.94,81.45,30.13,80.82z
		"/>
	<path class="st16" d="M34.63,72.34c-0.2,0.46-0.29,0.96-0.7,1.32c-0.76,0.68-1.99,0.68-2.75-0.05c-0.76-0.74-0.76-2.02,0-2.78
		c0.79-0.79,1.88-0.79,2.7-0.06c0.41,0.36,0.54,0.84,0.75,1.29C34.64,72.14,34.63,72.24,34.63,72.34z M33.96,71.84
		c0.04-0.29-0.06-0.47-0.43-0.48c-0.33-0.01-0.52,0.11-0.54,0.43c-0.03,0.34,0.18,0.58,0.49,0.58
		C33.74,72.38,33.99,72.23,33.96,71.84z"/>
	<path class="st17" d="M34.63,72.34c0-0.1,0-0.19,0.01-0.29c0.22-1.2,1.06-1.91,2.15-1.82c0.92,0.08,1.75,0.97,1.78,1.9
		c0.03,1.04-0.72,1.94-1.69,2.03C35.65,74.25,34.83,73.6,34.63,72.34z M35.56,71.37c-0.28-0.04-0.44,0.1-0.47,0.44
		c-0.03,0.38,0.2,0.56,0.48,0.57c0.28,0.01,0.56-0.21,0.55-0.54C36.12,71.56,35.95,71.34,35.56,71.37z"/>
	<path class="st15" d="M23.08,69.17c0.54,0,1.02,0,1.53,0c-0.14,0.48-0.58,0.68-0.9,0.98c-0.83,0.77-0.91,0.76-1.73-0.06
		c-0.94-0.94-1.25-2.15-1.4-3.43c-0.04-0.38,0.16-0.45,0.48-0.43c1.2,0.05,2.25,0.52,3.24,1.17c0.32,0.21,0.24,0.36-0.03,0.55
		C23.82,68.27,23.36,68.58,23.08,69.17z"/>
	<path class="st15" d="M48.47,66.55c-0.13,0.92-0.27,1.79-0.7,2.57c-0.15,0.28-0.28,0.38-0.55,0.12c-0.69-0.69-1.54-1.11-2.48-1.35
		c-0.1-0.03-0.25-0.05-0.27-0.18c-0.03-0.16,0.12-0.22,0.23-0.29c0.97-0.68,2.03-1.12,3.23-1.2C48.35,66.19,48.47,66.28,48.47,66.55
		z"/>
	<path class="st16" d="M33.13,75.63c0,0.81-0.28,1.55-0.74,2.2c-0.36,0.51-0.65,0.47-1.03-0.03c-0.45-0.6-0.68-1.29-0.86-2
		C31.37,75.61,32.24,75.47,33.13,75.63z"/>
	<path class="st16" d="M38.91,75.85c0.17,0.07,0.15,0.23,0.11,0.34c-0.22,0.6-0.44,1.2-0.85,1.7c-0.27,0.32-0.56,0.41-0.84,0.03
		c-0.52-0.7-0.95-1.43-0.71-2.36C37.38,75.66,38.14,75.75,38.91,75.85z"/>
	<path class="st16" d="M30.13,80.82c-0.18,0.63,0,1.27-0.11,1.9c-0.78-0.13-1.42-0.53-1.96-1.09c-0.06-0.15-0.15-0.29-0.02-0.47
		c0.29-0.38,0.52-0.79,0.88-1.11c0.51-0.44,0.79-0.36,1.03,0.3C30.01,80.51,30.07,80.66,30.13,80.82z"/>
	<path class="st16" d="M39.5,82.75c0-0.59-0.01-1.19-0.01-1.78c0.04-0.04,0.1-0.08,0.1-0.12c0.03-0.35,0.11-0.72,0.49-0.81
		c0.4-0.1,0.67,0.21,0.88,0.5c0.23,0.32,0.53,0.59,0.64,0.99C41.11,82.3,40.35,82.61,39.5,82.75z"/>
	<path class="st18" d="M33.96,71.84c0.03,0.39-0.22,0.54-0.48,0.54c-0.31-0.01-0.52-0.24-0.49-0.58c0.02-0.32,0.21-0.44,0.54-0.43
		C33.89,71.37,33.99,71.55,33.96,71.84z"/>
	<path class="st18" d="M35.56,71.37c0.39-0.03,0.56,0.19,0.57,0.47c0.01,0.33-0.27,0.54-0.55,0.54c-0.28,0-0.51-0.19-0.48-0.57
		C35.12,71.46,35.28,71.33,35.56,71.37z"/>
</g>
<g>
	<g>
		<line class="st19" x1="54.6" y1="90.56" x2="70.75" y2="90.56"/>
		<g>
			<path class="st3" d="M75.28,90.56c-2.13,0.79-4.77,2.14-6.41,3.57l1.29-3.57l-1.29-3.57C70.5,88.42,73.15,89.77,75.28,90.56z"/>
		</g>
	</g>
</g>
</svg>
