<?xml version="1.0" encoding="utf-8"?>
<!-- Generator: Adobe Illustrator 25.2.1, SVG Export Plug-In . SVG Version: 6.00 Build 0)  -->
<svg version="1.1" id="Layer_1" xmlns="http://www.w3.org/2000/svg" xmlns:xlink="http://www.w3.org/1999/xlink" x="0px" y="0px"
	 viewBox="0 0 124.44 144" style="enable-background:new 0 0 124.44 144;" xml:space="preserve">
<style type="text/css">
	.st0{fill:#830099;}
	.st1{fill:#0AF4FF;}
	.st2{fill:#E91E63;}
	.st3{fill:#F44336;}
	.st4{fill:#9C27B0;}
	.st5{fill:#FF5722;}
	.st6{fill:#FF9800;}
	.st7{fill:#673AB7;}
	.st8{fill:#FFC107;}
	.st9{fill:#4CAF50;}
	.st10{fill:#ED0AFF;}
	.st11{fill:#2196F3;}
	.st12{fill:#FFEB3B;}
	.st13{fill:#5715FF;}
	.st14{fill:#FF1529;}
	.st15{fill:#FFFF15;}
	.st16{fill:#85FF15;}
	.st17{fill:#FF8B0A;}
	.st18{fill:none;}
	.st19{fill:#FFFFFF;}
	.st20{font-family:'MyriadPro-Regular';}
	.st21{font-size:25px;}
	.st22{display:none;}
	.st23{display:inline;}
	.st24{fill:#FDC008;stroke:#231F20;stroke-width:0.75;stroke-miterlimit:10;}
	.st25{fill:#FF770A;stroke:#231F20;stroke-width:0.75;stroke-miterlimit:10;}
	.st26{display:none;fill:#F34335;}
	.st27{fill:#F3F3F3;}
	.st28{fill:#E81E63;}
	.st29{fill:#37474F;}
	.st30{fill:#F9EAB0;}
	.st31{fill:#FFEBB2;}
	.st32{display:none;fill:#F3F3F3;}
	.st33{fill:#67F400;stroke:#000000;stroke-width:1.5;stroke-linecap:round;stroke-miterlimit:10;}
	.st34{fill:#F7DA42;}
	.st35{fill:#231F20;stroke:#000000;stroke-width:0.75;stroke-miterlimit:10;}
	.st36{fill:#1B4968;}
	.st37{fill:#205784;}
	.st38{fill:#FB7B76;}
	.st39{fill:#E6E7E8;}
	.st40{fill:#802D40;}
	.st41{fill:#F5EFCA;}
	.st42{fill:#E64C3C;}
	.st43{fill:#2C2F38;}
	.st44{fill:#231F20;}
	.st45{fill:#BE1E2D;}
	.st46{fill:#67F400;stroke:#BE1E2D;stroke-width:1.5;stroke-linecap:round;stroke-miterlimit:10;}
</style>
<g id="XMLID_27_">
	<polygon class="st0" points="2.21,106.56 2.21,37.44 61.93,2.89 121.65,37.44 121.65,106.56 61.93,141.11 	"/>
	<path class="st1" d="M61.93,5.78l57.22,33.11v66.23l-57.22,33.11L4.71,105.12V38.88L61.93,5.78 M61.93,0L-0.29,36v72l62.22,36
		l62.22-36V36L61.93,0L61.93,0z"/>
</g>
<g id="bricks">
	<rect x="89.44" y="95.62" class="st2" width="12.56" height="5.94"/>
	<rect x="102" y="95.62" class="st3" width="12.56" height="5.94"/>
	<rect x="89.44" y="89.85" class="st4" width="12.56" height="5.94"/>
	<rect x="102" y="89.85" class="st5" width="12.56" height="5.94"/>
	<rect x="102" y="83.91" class="st6" width="12.56" height="5.94"/>
	<rect x="89.44" y="83.91" class="st7" width="12.56" height="5.94"/>
	<rect x="104" y="77.94" class="st8" width="12.56" height="5.94"/>
	
		<rect x="27.16" y="70.08" transform="matrix(-0.6345 -0.7729 0.7729 -0.6345 -1.7971 145.2481)" class="st9" width="12.56" height="5.94"/>
	
		<rect x="12.41" y="80.72" transform="matrix(0.1099 0.9939 -0.9939 0.1099 99.8203 55.9157)" class="st10" width="12.56" height="5.94"/>
	
		<rect x="80.27" y="67.21" transform="matrix(-0.6164 0.7875 -0.7875 -0.6164 195.1588 45.278)" class="st11" width="12.56" height="5.94"/>
	
		<rect x="49.98" y="62.56" transform="matrix(-0.1498 -0.9887 0.9887 -0.1498 -0.0995 130.9676)" class="st12" width="12.56" height="5.94"/>
	
		<rect x="9.09" y="85.26" transform="matrix(-0.6345 -0.7729 0.7729 -0.6345 -43.0689 156.0876)" class="st13" width="12.56" height="5.94"/>
	
		<rect x="18.18" y="82.14" transform="matrix(0.6724 -0.7402 0.7402 0.6724 -54.9809 45.9849)" class="st14" width="12.56" height="5.94"/>
	
		<rect x="16.95" y="83.96" transform="matrix(-0.9991 -0.0433 0.0433 -0.9991 42.6823 174.7724)" class="st15" width="12.56" height="5.94"/>
	
		<rect x="15.66" y="90.78" transform="matrix(0.1861 -0.9825 0.9825 0.1861 -74.2506 97.8552)" class="st16" width="12.56" height="5.94"/>
	
		<rect x="8.81" y="91.43" transform="matrix(-0.9939 0.1099 -0.1099 -0.9939 40.4739 186.5659)" class="st1" width="12.56" height="5.94"/>
	
		<rect x="20.3" y="90.78" transform="matrix(0.4346 0.9006 -0.9006 0.4346 99.4549 29.0599)" class="st17" width="12.56" height="5.94"/>
</g>
<rect x="0" y="40.32" class="st18" width="124.44" height="34.33"/>
<text transform="matrix(1 0 0 1 4.3457 58.0685)" class="st19 st20 st21">datawizard</text>
<g class="st22">
	<g id="Monster" class="st23">
		<path class="st24" d="M83.6,96.92v0.09c0.03,3.1-1.65,5.97-4.38,7.45l-35.59-0.17c-2.55-1.53-4.1-4.3-4.07-7.28v-0.09
			c0-0.25,0.01-0.5,0.05-0.75c0.03-0.33,0.08-0.65,0.14-0.97v-0.01c0.34-1.97,1.29-3.77,2.73-5.16c0.2-0.16,0.47-0.2,0.71-0.12
			c0.24,0.08,0.42,0.28,0.48,0.53c0.84,3.1,3.34,5.97,6.44,6.47h0.01l24.95-0.26c2.03-1.63,3.56-3.8,4.41-6.27
			c0.07-0.24,0.25-0.43,0.49-0.5c0.24-0.08,0.5-0.03,0.69,0.13c1.45,1.39,2.42,3.2,2.76,5.18c0.07,0.32,0.11,0.65,0.14,0.98
			C83.58,96.42,83.6,96.67,83.6,96.92z"/>
		<path class="st25" d="M83.64,121.93c-0.34,1.1-2.2-0.91-2.9-0.73c-1.05,5.4-4.78,10.36-6.47,11.47c-0.2,0.18-0.54,0.09-0.61-0.17
			c-0.3-0.9-1.71-3.74-2.05-2.88c-1.53,3.81-7.9,4.46-11.64,4.17c-0.56-2.64-1.28-2.68-2.78-3.39c-2.69-1.28,1.68,5.2,0.81,5.08
			c-8.21-1.08-13.03-8.06-13-11.11c0.01-1.39-2.63,4.17-3.01,1.18c-1.55-4.28,2.63-13.95,0.21-12.79c-0.9-0.02-2.87,1.93-2.48,0
			c0.09-8.1,12.01-12.91,4.41-12.42c-0.3,0.04-0.56-0.32-0.37-0.58c2.72-4.93,9.15,0.12,4.85-5.34H48.6c-0.46-1.6,2.6,0.1,3.26,0.39
			c0.24,0.14,0.56-0.05,0.56-0.32c-0.03-1.92,1.63-4.26,3.57-4.35c0.33,6.44,1.14,1.14,6.79,0.92c0.93,0.11,4.34-0.59,3.87,0.81
			c-0.65,0.49-1.73,1.22-1.69,2.09c4.09,0.1,7.55-0.59,13.43,5.76c0.47,1.01-2.1,0.55-2.24,1.91c0.79,1.61,5.06,2.82,6.54,9.54
			c-0.22,1.18-2.01-0.44-2.79,0.09h-0.01C81.52,114.29,84.37,117.78,83.64,121.93z"/>
		<path class="st26" d="M81.18,121.3l-0.14-0.08c-0.09-0.05-0.2-0.06-0.3-0.02c-0.1,0.04-0.17,0.11-0.21,0.21l-0.37-0.19
			c-0.11-0.06-0.24-0.06-0.35,0c-0.11,0.06-0.18,0.17-0.19,0.29c-0.01,0.08-0.02,0.14-0.03,0.22l-1.03-0.51
			c-0.11-0.05-0.24-0.05-0.34,0c-0.11,0.06-0.18,0.16-0.19,0.28c-0.59,3.75-2.33,7.23-4.97,9.95c-0.35-0.41-0.75-0.77-1.19-1.09
			c-0.09-0.07-0.21-0.1-0.32-0.07c-0.11,0.02-0.21,0.1-0.26,0.2c-0.02,0.02-0.02,0.05-0.04,0.08c-0.1-0.08-0.18-0.14-0.27-0.2
			c-0.09-0.07-0.21-0.1-0.32-0.07c-0.11,0.02-0.21,0.1-0.26,0.2c-0.08,0.17-0.17,0.33-0.27,0.49c-0.23-0.22-0.48-0.43-0.74-0.62
			c-0.09-0.07-0.2-0.09-0.31-0.07c-0.11,0.02-0.2,0.1-0.25,0.2c-1.19,2.56-4.98,3.24-7.65,3.39c-0.18-0.04-0.3-0.21-0.27-0.39
			c0.26-2.32-2.89-2.61-3.68-2.64c-0.08-0.01-0.16,0.02-0.22,0.06c-0.28-0.04-0.51-0.05-0.66-0.06c-0.11-0.01-0.23,0.04-0.3,0.12
			c-0.01,0.02-0.02,0.02-0.03,0.04c-0.41-0.09-0.84-0.14-1.26-0.16c-0.11-0.01-0.23,0.04-0.3,0.12c-0.62,0.63-0.73,1.59-0.28,2.35
			c0.06,0.11,0.06,0.24,0,0.34c-0.02,0.04-0.05,0.08-0.08,0.11c-8.03-0.87-9.69-6.82-10-8.54c-0.01-0.02-0.01-0.04-0.02-0.05
			c-0.03-0.1-0.11-0.19-0.21-0.23s-0.21-0.04-0.31,0.01c-0.36,0.18-0.68,0.42-0.95,0.71c-0.05-0.17-0.08-0.32-0.1-0.45
			c-0.02-0.12-0.1-0.22-0.21-0.27c-0.11-0.05-0.23-0.05-0.34,0c0,0-0.01,0-0.01,0.01c-0.65-4.77,0.79-10.18,1.28-11.84
			c0.03-0.12,0.01-0.26-0.08-0.35c-0.08-0.1-0.21-0.15-0.34-0.13c-0.19,0.02-0.39,0.06-0.58,0.11c-0.08-0.08-0.19-0.12-0.3-0.11
			c-0.4,0.05-0.8,0.14-1.18,0.27c-0.05-0.18-0.23-0.3-0.42-0.27c-0.19,0.02-0.39,0.06-0.58,0.11c0.69-4.6,3.26-8.7,7.09-11.32
			c0.1-0.06,0.16-0.16,0.17-0.27c0.01-0.11-0.03-0.22-0.11-0.3c-0.68-0.49-1.52-0.69-2.35-0.56h-0.05
			c-0.19-0.01-0.37-0.02-0.56-0.01c-0.1-0.05-0.17-0.13-0.2-0.24c-0.03-0.1-0.01-0.21,0.05-0.3c0.77-1.26,2.02-2.14,3.46-2.44
			c0.07,0,0.13-0.01,0.19-0.04h0.01c0.04-0.02,0.07-0.05,0.11-0.08c0.14,0,0.27,0.01,0.39,0.01h0.24c0.21,0.02,0.41,0.05,0.62,0.1
			c0.11,0.02,0.22-0.01,0.3-0.08h0.01c0.22,0.02,0.41,0.05,0.57,0.08c0.13,0.02,0.26-0.02,0.34-0.11c0.09-0.09,0.12-0.23,0.09-0.35
			c-0.34-0.89-0.84-1.72-1.48-2.43c0.3,0.14,0.57,0.27,0.78,0.39c0.11,0.06,0.25,0.06,0.37,0c0.11-0.07,0.18-0.19,0.19-0.32
			c0-0.06,0-0.12,0.01-0.17c0.4,0.17,0.75,0.35,1.03,0.49c0.09,0.05,0.2,0.06,0.3,0.03c0.1-0.03,0.18-0.11,0.22-0.21
			c0.13,0.07,0.25,0.13,0.36,0.18c0.12,0.06,0.26,0.06,0.37,0c0.11-0.07,0.19-0.18,0.19-0.32c0.01-1.11,0.43-2.18,1.18-3.01
			c-0.05,0.69,0.16,1.37,0.6,1.91c0.08,0.07,0.18,0.11,0.29,0.11c0.11,0,0.21-0.05,0.28-0.13c0.19-0.22,0.41-0.43,0.64-0.61
			c0.09,0.24,0.22,0.45,0.39,0.63c0.07,0.07,0.18,0.11,0.28,0.11c0.11,0,0.2-0.05,0.27-0.13c0.05-0.05,0.1-0.11,0.16-0.17
			c0.05,0.07,0.11,0.14,0.17,0.2c0.07,0.07,0.18,0.11,0.28,0.11c0.1,0,0.2-0.05,0.27-0.13c0.52-0.61,2.1-2.04,5.55-2.31
			c0.4,0.02,0.81,0.07,1.23,0.12c0.16,0.02,0.29,0.13,0.32,0.29c0.04,0.15-0.03,0.31-0.16,0.4c-0.69,0.44-1.27,1.04-1.69,1.75
			c-0.07,0.13-0.06,0.29,0.04,0.41c0.09,0.12,0.24,0.17,0.39,0.13c0.38-0.09,0.78-0.16,1.17-0.2c0.08,0.16,0.25,0.24,0.43,0.2
			c0.15-0.04,0.33-0.08,0.52-0.11c0.27-0.05,0.54-0.08,0.81-0.1c0.14,0.01,0.28,0.02,0.43,0.05c2.53,0.3,5.98,1.63,9.64,5.72
			c0.1,0.11,0.13,0.27,0.07,0.41c-0.06,0.14-0.19,0.23-0.34,0.23c-0.85-0.01-1.62,0.5-1.97,1.28c-0.09,0.19-0.02,0.41,0.16,0.52
			c1.1,0.58,4.94,3.02,6.38,9.02v0.01c0.02,0.04,0.02,0.09,0,0.14c-0.1-0.02-0.2-0.04-0.31-0.05h-0.01
			c-0.19-0.04-0.39-0.07-0.59-0.09c-0.16-0.02-0.32,0.07-0.39,0.21c-0.4-0.09-0.8-0.17-1.21-0.21c-0.16-0.02-0.32,0.07-0.39,0.21
			c-0.07,0.15-0.04,0.32,0.07,0.44C79.92,114.31,81.29,117.75,81.18,121.3z"/>
		<path class="st27" d="M56.88,102.34c-0.16,0.15-0.33,0.29-0.52,0.42c-0.96,0.68-2.07,1.13-3.23,1.32
			c-0.77,0.14-1.56,0.18-2.34,0.11h-0.02c-0.31-0.02-0.62-0.07-0.92-0.14c-0.06,0.05-0.11,0.11-0.16,0.17
			c-1.74,1.89-2.27,4.61-1.37,7.01c0.9,2.41,3.08,4.1,5.64,4.39c0.25,0.03,0.51,0.05,0.76,0.05c3.35-0.01,6.2-2.44,6.73-5.75
			C62,106.61,60.06,103.4,56.88,102.34z"/>
		<path class="st27" d="M73.3,104.06c-0.45,0.1-0.91,0.16-1.37,0.17c-0.34,0.01-0.68,0-1.02-0.03H70.9
			c-0.27-0.03-0.54-0.06-0.81-0.11c-1.4-0.22-2.7-0.83-3.77-1.76c-0.35,0.11-0.68,0.25-1.01,0.42c-2.69,1.37-4.16,4.34-3.62,7.31
			c0.54,2.97,2.96,5.23,5.96,5.57c0.25,0.03,0.51,0.05,0.76,0.05c2.75,0,5.23-1.65,6.29-4.18C75.77,108.95,75.22,106.03,73.3,104.06
			z"/>
		<path class="st28" d="M59.3,108.83c0,2.52-2.04,4.56-4.56,4.56s-4.56-2.04-4.56-4.56c0-2.52,2.04-4.56,4.56-4.56
			S59.3,106.31,59.3,108.83z"/>
		<path class="st28" d="M72.97,108.83c0,2.52-2.04,4.56-4.56,4.56c-2.52,0-4.56-2.04-4.56-4.56c0-2.52,2.04-4.56,4.56-4.56
			C70.93,104.27,72.97,106.31,72.97,108.83z"/>
		<path class="st29" d="M57.02,108.83c0,1.26-1.02,2.28-2.28,2.28c-1.26,0-2.28-1.02-2.28-2.28c0-1.26,1.02-2.28,2.28-2.28
			C56,106.55,57.02,107.57,57.02,108.83z"/>
		<path class="st29" d="M70.69,108.83c0,1.26-1.02,2.28-2.28,2.28s-2.28-1.02-2.28-2.28c0-1.26,1.02-2.28,2.28-2.28
			S70.69,107.57,70.69,108.83z"/>
		<path class="st30" d="M52.46,121.74h4.56v1.52c0,0.84-0.68,1.52-1.52,1.52h-1.52c-0.84,0-1.52-0.68-1.52-1.52V121.74z"/>
		<path class="st31" d="M53.22,121.74h3.04v1.52c0,0.84-0.68,1.52-1.52,1.52c-0.84,0-1.52-0.68-1.52-1.52V121.74z"/>
		<path class="st30" d="M66.13,121.74h4.56v1.52c0,0.84-0.68,1.52-1.52,1.52h-1.52c-0.84,0-1.52-0.68-1.52-1.52V121.74z"/>
		<path class="st31" d="M66.89,121.74h3.04v1.52c0,0.84-0.68,1.52-1.52,1.52c-0.84,0-1.52-0.68-1.52-1.52V121.74z"/>
		<path class="st32" d="M53.98,106.55c0,0.84-0.68,1.52-1.52,1.52c-0.84,0-1.52-0.68-1.52-1.52c0-0.84,0.68-1.52,1.52-1.52
			C53.3,105.03,53.98,105.71,53.98,106.55z"/>
		<path class="st32" d="M67.65,106.55c0,0.84-0.68,1.52-1.52,1.52c-0.84,0-1.52-0.68-1.52-1.52c0-0.84,0.68-1.52,1.52-1.52
			C66.97,105.03,67.65,105.71,67.65,106.55z"/>
		<path class="st22" d="M82.5,112.55c0.26,0.13,0.57,0.1,0.8-0.08c0.23-0.18,0.34-0.47,0.28-0.76c-0.47-2.59-1.57-5.02-3.21-7.08
			c2.51-1.72,4.01-4.57,3.98-7.62c0-0.3-0.02-0.61-0.05-0.91c-0.2-2.54-1.33-4.91-3.17-6.67c-0.37-0.32-0.87-0.43-1.34-0.29
			c-0.5,0.14-0.89,0.52-1.05,1.02c-0.75,2.13-2.03,4.04-3.72,5.54c-3.71-2.56-6.92-2.73-8.84-2.47c0.48-0.5,1.06-0.89,1.7-1.15
			c0.33-0.11,0.54-0.43,0.52-0.77c-0.02-0.35-0.28-0.63-0.62-0.69c-6.52-1.19-9.6,0.75-10.8,1.9c-0.21-0.82-0.21-1.67,0.01-2.49
			c0.07-0.27-0.02-0.55-0.22-0.74c-0.2-0.19-0.5-0.25-0.76-0.16c-3.07,1.02-4.12,3.11-4.33,4.74c-1.17-0.6-2.46-0.93-3.78-0.98
			c-0.31,0-0.58,0.18-0.7,0.47s-0.05,0.61,0.16,0.83c0.44,0.44,0.84,0.92,1.2,1.43c-2.07-1.13-3.59-3.08-4.18-5.37
			c-0.14-0.51-0.53-0.92-1.03-1.07c-0.48-0.15-1-0.04-1.38,0.29c-1.81,1.75-2.93,4.11-3.13,6.62c-0.03,0.31-0.05,0.62-0.05,0.93
			c-0.01,2.92,1.37,5.68,3.71,7.43c-2.16,2.78-3.45,6.13-3.71,9.64c-0.03,0.32,0.15,0.61,0.44,0.75c0.29,0.13,0.63,0.07,0.85-0.15
			c0.63-0.57,1.38-0.97,2.2-1.17c-0.74,2.68-2.3,9.53-0.41,14.57c0.13,0.34,0.48,0.55,0.84,0.48c0.36-0.06,0.62-0.38,0.63-0.74
			c0.04-0.74,0.39-1.43,0.96-1.9c0.64,2.55,3.17,8.73,12.71,8.73c0.31,0,0.58-0.18,0.7-0.47c0.12-0.28,0.06-0.61-0.16-0.83
			c-0.5-0.44-0.59-1.19-0.21-1.73c0.73,0.05,2.05,0.28,2.57,0.95c0.24,0.33,0.3,0.75,0.16,1.13c-0.05,0.22-0.01,0.45,0.12,0.63
			s0.33,0.3,0.56,0.32c0.09,0.01,0.67,0.05,1.53,0.05c2.57,0,7.64-0.41,9.47-3.45c0.66,0.55,1.29,1.27,1.22,1.79
			c-0.04,0.3,0.11,0.6,0.37,0.75c0.26,0.15,0.59,0.13,0.84-0.05c0.25-0.19,5.79-4.42,6.99-11.6l2.09,1.05
			c0.22,0.11,0.49,0.11,0.71-0.01c0.22-0.12,0.37-0.34,0.39-0.59c0.45-3.78-0.7-7.57-3.17-10.46
			C81.64,112.22,82.08,112.36,82.5,112.55z M80.16,90.59c1.17,1.12,1.99,2.55,2.36,4.12c-0.56-0.27-1.13-0.5-1.72-0.7
			c-0.4-0.13-0.83,0.08-0.96,0.48c-0.13,0.4,0.08,0.83,0.48,0.96c0.87,0.29,1.71,0.68,2.5,1.15c0.01,0.13,0.02,0.27,0.02,0.4
			c0.03,2.62-1.29,5.07-3.49,6.48c-0.7-0.7-1.49-1.31-2.33-1.82c0.43-0.53,1.16-0.72,1.79-0.47c0.32,0.11,0.68-0.01,0.87-0.29
			c0.19-0.28,0.17-0.65-0.04-0.91c-1.01-1.22-2.13-2.34-3.35-3.35C78.05,94.98,79.38,92.9,80.16,90.59z M40.31,97.01
			c0-0.14,0.01-0.27,0.02-0.4c0.79-0.48,1.62-0.87,2.5-1.16c0.26-0.09,0.45-0.3,0.5-0.57c0.05-0.27-0.04-0.54-0.24-0.72
			c-0.2-0.18-0.49-0.24-0.75-0.15c-0.59,0.2-1.16,0.43-1.72,0.7c0.36-1.55,1.16-2.96,2.29-4.07c0.65,2.42,2.15,4.52,4.24,5.91
			c-1.99,0.4-3.66,1.73-4.49,3.58c-0.13,0.27-0.1,0.58,0.09,0.82c0.19,0.23,0.49,0.33,0.78,0.26c0.77-0.2,1.57-0.21,2.35-0.06
			c-0.86,0.63-1.66,1.34-2.39,2.12C41.48,101.82,40.3,99.49,40.31,97.01z M82.91,121.31l-2.01-1.01c-0.22-0.11-0.49-0.11-0.71,0.02
			c-0.22,0.12-0.36,0.34-0.39,0.59c-0.54,5.42-3.98,9.27-5.64,10.84c-0.58-0.94-1.38-1.72-2.32-2.3c-0.2-0.12-0.44-0.15-0.66-0.07
			c-0.22,0.08-0.39,0.25-0.46,0.47c-0.99,2.96-6.31,3.4-9.07,3.32c-0.01-0.56-0.2-1.1-0.54-1.54c-1.18-1.5-3.81-1.55-4.1-1.55
			c-0.2,0-0.39,0.08-0.54,0.22c-0.77,0.7-1.08,1.77-0.78,2.77c-9.28-0.64-10.05-8.05-10.07-8.37c-0.02-0.23-0.14-0.44-0.34-0.57
			c-0.19-0.13-0.44-0.16-0.66-0.09c-0.75,0.24-1.41,0.69-1.9,1.31c-0.93-5.56,1.31-12.42,1.34-12.5c0.08-0.23,0.04-0.49-0.1-0.68
			c-0.14-0.2-0.37-0.32-0.62-0.32c-0.98,0.01-1.95,0.24-2.83,0.7c0.75-4.37,3.28-8.23,6.99-10.67c0.35-0.2,0.49-0.64,0.31-1
			c-0.57-1.13-1.84-1.38-2.94-1.37c1.29-1.39,3.25-1.92,5.06-1.37c0.23,0.08,0.49,0.04,0.68-0.1c0.2-0.14,0.32-0.37,0.32-0.61
			c0-0.27-0.05-0.53-0.13-0.79l0-0.01c-0.23-0.68-0.56-1.32-0.99-1.9c0.78,0.26,1.53,0.61,2.22,1.05c0.25,0.17,0.58,0.17,0.84,0
			c0.25-0.17,0.38-0.47,0.33-0.77c-0.21-1.63,0.64-3.21,2.11-3.93c-0.06,1.14,0.13,2.62,1.37,3.24c0.35,0.17,0.78,0.05,0.99-0.28
			c0.02-0.03,1.8-2.71,7.78-2.21c-0.71,0.63-1.25,1.43-1.55,2.33c-0.1,0.29-0.01,0.6,0.21,0.8c0.22,0.2,0.54,0.25,0.82,0.13
			c0.06-0.03,5.74-2.43,12.42,4.61c-1,0.28-1.78,1.05-2.06,2.05c-0.12,0.37,0.06,0.78,0.42,0.94c1.1,0.55,2.09,1.31,2.92,2.23
			c0.03,0.04,0.06,0.07,0.1,0.11c1.45,1.63,2.49,3.57,3.05,5.67c-0.89-0.23-1.81-0.35-2.73-0.35c-0.33,0-0.62,0.21-0.72,0.53
			c-0.1,0.31,0.01,0.66,0.28,0.85C81.46,114.06,83.06,117.61,82.91,121.31z"/>
		<path d="M54.74,105.79c-1.68,0-3.04,1.36-3.04,3.04c0,1.68,1.36,3.04,3.04,3.04c1.68,0,3.04-1.36,3.04-3.04
			C57.78,107.15,56.42,105.79,54.74,105.79z M54.74,110.35c-0.84,0-1.52-0.68-1.52-1.52c0-0.84,0.68-1.52,1.52-1.52
			c0.84,0,1.52,0.68,1.52,1.52C56.26,109.67,55.58,110.35,54.74,110.35z"/>
		<path d="M68.41,105.79c-1.68,0-3.04,1.36-3.04,3.04c0,1.68,1.36,3.04,3.04,3.04s3.04-1.36,3.04-3.04
			C71.45,107.15,70.09,105.79,68.41,105.79z M68.41,110.35c-0.84,0-1.52-0.68-1.52-1.52c0-0.84,0.68-1.52,1.52-1.52
			c0.84,0,1.52,0.68,1.52,1.52C69.93,109.67,69.25,110.35,68.41,110.35z"/>
		<path d="M73.13,103.32c-0.96,0.2-1.95,0.21-2.91,0.02c-1.25-0.19-2.42-0.73-3.38-1.56c-0.2-0.19-0.49-0.26-0.76-0.18
			c-1.98,0.63-3.61,2.05-4.51,3.92c-0.89-1.85-2.5-3.26-4.46-3.9c-0.27-0.09-0.56-0.02-0.76,0.17c-0.95,0.82-2.12,1.35-3.35,1.54
			c-0.98,0.19-1.99,0.18-2.96-0.03c-0.26-0.06-0.53,0.02-0.72,0.21c-1.4,1.41-2.18,3.33-2.18,5.32c0,3.54,2.45,6.62,5.9,7.41
			c3.46,0.79,7-0.92,8.53-4.12c1.3,2.71,4.08,4.4,7.09,4.3s5.67-1.96,6.79-4.75c1.12-2.79,0.49-5.98-1.61-8.13
			C73.66,103.34,73.39,103.26,73.13,103.32z M54.74,114.9c-3.35,0-6.07-2.72-6.08-6.08c0-1.45,0.52-2.86,1.47-3.95
			c1.04,0.17,2.11,0.15,3.14-0.05c1.37-0.23,2.66-0.78,3.77-1.62c2.68,1.1,4.21,3.95,3.65,6.79
			C60.13,112.85,57.64,114.9,54.74,114.9z M68.41,114.9c-2.91,0-5.42-2.07-5.97-4.93c-0.55-2.86,1.01-5.71,3.71-6.79
			c1.11,0.85,2.42,1.41,3.8,1.64c1.02,0.19,2.06,0.21,3.08,0.06c0.94,1.1,1.46,2.5,1.45,3.94C74.48,112.18,71.76,114.9,68.41,114.9z
			"/>
		<path d="M74.48,117.18c-0.42,0-0.76,0.34-0.76,0.76c0,1.68-1.36,3.04-3.04,3.04H52.46c-1.68,0-3.04-1.36-3.04-3.04
			c0-0.42-0.34-0.76-0.76-0.76s-0.76,0.34-0.76,0.76c0,2.22,1.61,4.12,3.8,4.49v0.83c0,1.26,1.02,2.28,2.28,2.28h1.52
			c1.26,0,2.28-1.02,2.28-2.28v-0.76h7.59v0.76c0,1.26,1.02,2.28,2.28,2.28h1.52c1.26,0,2.28-1.02,2.28-2.28v-0.83
			c2.19-0.37,3.79-2.27,3.8-4.49C75.24,117.52,74.9,117.18,74.48,117.18z M56.26,123.26c0,0.42-0.34,0.76-0.76,0.76h-1.52
			c-0.42,0-0.76-0.34-0.76-0.76v-0.76h3.04V123.26z M69.93,123.26c0,0.42-0.34,0.76-0.76,0.76h-1.52c-0.42,0-0.76-0.34-0.76-0.76
			v-0.76h3.04V123.26z"/>
	</g>
	<g id="Wand" class="st23">
		<line class="st33" x1="46.16" y1="122.34" x2="29.94" y2="109.64"/>
		<g>
			<polygon class="st34" points="28.87,111.6 25.35,111.9 27.26,108.92 25.89,105.65 29.31,106.55 31.99,104.24 32.19,107.78 
				35.22,109.61 31.92,110.9 31.11,114.34 			"/>
			<path d="M31.66,105.02l0.15,2.58l0.02,0.39l0.34,0.2l2.21,1.34l-2.4,0.94l-0.37,0.14L31.51,111l-0.59,2.51l-1.63-2l-0.25-0.31
				l-0.39,0.03l-2.57,0.21l1.39-2.17l0.21-0.33l-0.15-0.36l-1-2.38l2.5,0.66l0.38,0.1l0.3-0.26L31.66,105.02 M32.32,103.46
				l-3.11,2.68l-3.97-1.04l1.59,3.78l-2.22,3.45l4.09-0.34l2.6,3.17l0.94-3.99l3.82-1.49l-3.51-2.13L32.32,103.46L32.32,103.46z"/>
		</g>
	</g>
	<g id="hat" class="st23">
		<path class="st35" d="M69.37,83.9v-8.37l-3.14-5.47c-0.21-0.36-0.14-0.87,0.15-1.13c0.29-0.26,0.7-0.18,0.91,0.19l1.34,2.33
			l3.45-7.15c0.12-0.24,0.33-0.39,0.56-0.39h3.57l-6.28-4.81c-1.38,0.49-7.96,3.08-13.03,9.3l-3.32,13.57
			C55.57,82.97,60.81,84.97,69.37,83.9L69.37,83.9z"/>
		<path class="st35" d="M69.37,88.36v-2.83c-1.7,0.21-3.28,0.29-4.73,0.29c-5.88,0-9.7-1.44-11.45-2.3l-0.65,2.68
			c0.69,0.37,2.09,1.04,4.15,1.59C59.36,88.52,63.71,89.19,69.37,88.36z"/>
		<path class="st35" d="M64.19,90.37c-2.44,0-5.14-0.26-7.85-1c-2.43-0.66-3.98-1.47-4.6-1.83l-8.65,5.02
			c1.32,1.5,2.77,2.83,4.3,3.97c2.9,2.16,7.59,4.73,13.49,4.73c4.67,0.01,9.29-1.2,13.56-3.56c1.42-0.79,2.79-1.72,4.09-2.79
			l-8.61-5C68.02,90.21,66.1,90.36,64.19,90.37L64.19,90.37z"/>
	</g>
</g>
<g id="Monster2">
	<path class="st36" d="M81.26,111.43c0.54,1.22,3.19,7.77,2.51,14.48l-1.66-0.84l-1.32-0.66c-0.03,0.28-0.06,0.54-0.1,0.81
		c-1.07,6.95-6.59,11.1-6.59,11.1c0.03-0.44-0.1-0.88-0.35-1.23c-0.51-0.7-1.14-1.29-1.87-1.74c-0.12,0.35-0.29,0.67-0.5,0.97
		c-1.95,2.81-7.51,2.85-9.34,2.78c-0.03,0.01-0.07,0.01-0.1,0c-0.31-0.01-0.48-0.03-0.48-0.03c0.75-2.98-3.72-2.98-3.72-2.98
		c-0.07,0.07-0.13,0.14-0.18,0.2c-0.66,0.84-0.58,2.04,0.18,2.78c-0.6,0-1.2-0.03-1.8-0.09c-9.63-1.04-11.86-10.22-11.86-10.22
		c-0.54,0.17-1.04,0.45-1.47,0.82c-0.55,0.46-0.94,1.08-1.12,1.77c-0.22-0.6-0.39-1.22-0.5-1.86c-1.17-6.17,1.36-15.41,1.36-15.41
		c-0.64,0-1.27,0.14-1.84,0.42c-0.63,0.31-1.18,0.75-1.61,1.3c0.05-0.51,0.17-1.01,0.34-1.49c0.73-2.12,2.39-4.49,3.05-5.84v-0.01
		l6.53-13.71l0.12-0.25c0.89,0.04,1.77,0.24,2.59,0.59c0.61,0.24,1.2,0.54,1.75,0.9c-0.24-1.65,0.47-3.3,1.84-4.26
		c0.57-0.42,1.21-0.74,1.88-0.95c-0.22,0.9-0.23,1.85-0.02,2.75c0.11,0.41,0.38,0.76,0.76,0.97c0,0,1.38-2.3,5.96-2.56
		c1.49-0.07,2.99,0.04,4.45,0.33c-1.22,0.47-2.21,1.38-2.79,2.55c-0.07,0.14-0.13,0.28-0.17,0.42c0.62-0.23,1.28-0.38,1.94-0.43
		h0.02c2.11-0.16,4.22,0.29,6.09,1.3l8.62,12.6c0.48,1.04,2.49,3.99,2.78,5.39c-0.6-0.37-1.26-0.61-1.96-0.73
		c-0.49-0.09-0.99-0.14-1.49-0.14C81.17,111.22,81.21,111.29,81.26,111.43z"/>
	<path class="st37" d="M79.44,111.22c1.88,4.37,2.79,9.1,2.67,13.85l-1.32-0.66c-0.03,0.28-0.06,0.54-0.1,0.81l-1.62-0.81
		c-0.51,4.06-2.39,7.83-5.33,10.68c-0.51-0.7-1.14-1.29-1.87-1.74c-0.12,0.35-0.29,0.67-0.5,0.97c-0.38-0.36-0.79-0.68-1.23-0.97
		c-1,3-5.36,3.64-8.11,3.75c-0.03,0.01-0.07,0.01-0.1,0c-0.31-0.01-0.48-0.03-0.48-0.03c0.75-2.98-3.72-2.98-3.72-2.98
		c-0.07,0.07-0.13,0.14-0.18,0.2c-0.51-0.12-1.02-0.19-1.55-0.2c-0.4,0.37-0.63,0.88-0.65,1.43c-0.01,0.54,0.19,1.07,0.57,1.46
		c-9.63-1.04-11.86-10.22-11.86-10.22c-0.54,0.17-1.04,0.45-1.47,0.82c-0.18-0.51-0.26-0.82-0.26-0.82
		c-0.5,0.16-0.96,0.41-1.36,0.73c-1.17-6.17,1.36-15.41,1.36-15.41c-0.64,0-1.27,0.14-1.84,0.42c0.07-0.28,0.11-0.42,0.11-0.42
		c-0.47,0-0.94,0.08-1.39,0.23c0.73-2.12,2.39-4.49,3.05-5.84v-0.01l6.53-13.71c0.97,0.28,1.89,0.69,2.74,1.23
		c-0.05-0.3-0.05-0.6-0.03-0.9c0.61,0.24,1.2,0.54,1.75,0.9c-0.24-1.65,0.47-3.3,1.84-4.26c-0.09,0.94-0.04,2.3,0.9,2.77
		c0.26-0.38,0.59-0.71,0.97-0.97c0.11,0.41,0.38,0.76,0.76,0.97c0,0,1.38-2.3,5.96-2.56c0.92,0.05,1.83,0.16,2.73,0.33
		c-1.37,0.52-2.45,1.6-2.96,2.97c0.61-0.23,1.25-0.37,1.9-0.42c-0.07,0.14-0.13,0.28-0.17,0.42c0.62-0.23,1.28-0.38,1.94-0.43h0.02
		c1.52,0.14,3,0.58,4.36,1.3l8.62,12.6c0.41,0.89,1.92,3.14,2.55,4.66c-0.49-0.09-0.99-0.14-1.49-0.14c0,0,0.03,0.07,0.09,0.21
		C80.66,111.29,80.06,111.22,79.44,111.22z"/>
	<path class="st36" d="M54.49,98.28l-0.19,0.35l-2.41,4.41c-2.68-4.45-6.42-8.17-10.9-10.8c-1.2-0.67-2.46-1.24-3.76-1.68v-0.04
		C50.17,88.78,54.49,98.28,54.49,98.28z"/>
	<path class="st37" d="M54.3,98.62l-2.41,4.41c-2.68-4.45-6.42-8.17-10.9-10.8C48.59,92.21,52.63,96.28,54.3,98.62z"/>
	<path class="st38" d="M51.14,104.41l-2.77,5.08c-12.47-2.56-11.23-18-11.14-18.93c3.63,1.24,8.95,4.17,13.77,11.13
		C51.55,102.49,51.61,103.54,51.14,104.41z"/>
	<path class="st36" d="M87.21,90.51v0.04c-1.3,0.44-2.56,1.01-3.76,1.68c-4.48,2.63-8.23,6.34-10.9,10.8l-2.44-4.47l-0.16-0.28
		C69.95,98.28,74.27,88.78,87.21,90.51z"/>
	<path class="st37" d="M83.45,92.23c-4.48,2.63-8.23,6.34-10.9,10.8l-2.44-4.47C71.81,96.2,75.86,92.17,83.45,92.23z"/>
	<path class="st38" d="M73.3,104.41l2.77,5.08c12.47-2.56,11.23-18,11.14-18.93c-3.63,1.24-8.95,4.17-13.77,11.13
		C72.89,102.49,72.83,103.54,73.3,104.41z"/>
	<path class="st39" d="M62.18,109.5c0,3.81-3.09,6.91-6.91,6.91c-0.29,0-0.58-0.02-0.86-0.05c-3.46-0.43-6.06-3.37-6.06-6.85
		c0-3.49,2.6-6.43,6.06-6.85c0.29-0.03,0.57-0.05,0.86-0.05C59.09,102.59,62.18,105.68,62.18,109.5z"/>
	<path class="st39" d="M75.99,109.5c0,3.81-3.09,6.91-6.91,6.91c-0.29,0-0.58-0.02-0.86-0.05c-3.46-0.43-6.06-3.37-6.06-6.85
		c0-3.49,2.6-6.43,6.06-6.85c0.29-0.03,0.57-0.05,0.86-0.05C72.9,102.59,75.99,105.68,75.99,109.5z"/>
	<path class="st19" d="M60.45,109.5c0-3.79-2.71-6.85-6.04-6.85c-3.34,0-6.04,3.07-6.04,6.85s2.71,6.85,6.04,6.85
		C57.75,116.35,60.45,113.28,60.45,109.5z"/>
	<path class="st19" d="M74.27,109.5c0-3.79-2.71-6.85-6.04-6.85c-3.34,0-6.04,3.07-6.04,6.85s2.71,6.85,6.04,6.85
		C71.56,116.35,74.27,113.28,74.27,109.5z"/>
	<path class="st40" d="M51.75,123.73c-1.27-1.01-2.25-2.32-2.88-3.82c-0.12-0.31-0.05-0.67,0.18-0.92c0.23-0.24,0.59-0.33,0.91-0.22
		c0.7,0.25,1.63,0.55,2.76,0.83h0.01c1.53,0.38,3.09,0.66,4.66,0.84c1.59,0.19,3.19,0.28,4.79,0.28c1.59,0,3.18-0.09,4.76-0.28
		c1.57-0.18,3.13-0.46,4.66-0.84c1.15-0.28,2.09-0.58,2.8-0.83c0.32-0.11,0.67-0.02,0.91,0.22c0.23,0.24,0.3,0.6,0.18,0.92
		c-0.63,1.51-1.63,2.83-2.9,3.85c-0.04,0.03-0.08,0.06-0.12,0.08l-2.46,1.48c-0.04,0.02-0.07,0.04-0.11,0.06
		c-2.45,0.99-5.08,1.46-7.72,1.39c-2.65,0.07-5.28-0.4-7.74-1.4c-0.04-0.02-0.08-0.04-0.11-0.06l-2.47-1.49
		C51.83,123.79,51.79,123.76,51.75,123.73z"/>
	<path class="st30" d="M57.39,120.44c-1.27,1.45-2.28,3.11-3,4.89c-0.4,1-0.68,2.05-0.81,3.12c-0.09,0.58-0.1,1.17-0.03,1.75
		c-1.16-1.94-1.77-4.17-1.74-6.44c0.03-1.44,0.34-2.85,0.92-4.17h0.01l0.81,0.15L57.39,120.44z"/>
	<path class="st41" d="M57.39,120.44c-1.27,1.45-2.28,3.11-3,4.89c-0.4,1-0.68,2.05-0.81,3.12c-0.62-1.48-0.92-3.08-0.89-4.69
		c0.03-1.38,0.32-2.75,0.85-4.02L57.39,120.44z"/>
	<path class="st30" d="M70.79,130.21c0.07-0.57,0.06-1.15-0.02-1.72c-0.12-1.08-0.4-2.14-0.81-3.15c-0.73-1.79-1.75-3.44-3.01-4.9
		l3.87-0.69l0.79-0.15c0.59,1.32,0.9,2.75,0.92,4.2C72.55,126.06,71.95,128.28,70.79,130.21z"/>
	<path class="st41" d="M71.68,123.8c0.03,1.61-0.28,3.21-0.91,4.7c-0.12-1.08-0.4-2.14-0.81-3.15c-0.73-1.79-1.75-3.44-3.01-4.9
		l3.87-0.69C71.36,121.03,71.66,122.41,71.68,123.8z"/>
	<path class="st42" d="M58.73,109.5c0,1.91-1.55,3.45-3.45,3.45c-1.91,0-3.45-1.55-3.45-3.45c0-1.91,1.55-3.45,3.45-3.45
		C57.18,106.05,58.73,107.59,58.73,109.5z"/>
	<path class="st42" d="M72.54,109.5c0,1.91-1.55,3.45-3.45,3.45c-1.91,0-3.45-1.55-3.45-3.45c0-1.91,1.55-3.45,3.45-3.45
		C70.99,106.05,72.54,107.59,72.54,109.5z"/>
	<path class="st43" d="M57,109.5c0,0.95-0.77,1.73-1.73,1.73c-0.95,0-1.73-0.77-1.73-1.73s0.77-1.73,1.73-1.73
		C56.23,107.77,57,108.54,57,109.5z"/>
	<path class="st43" d="M70.81,109.5c0,0.95-0.77,1.73-1.73,1.73c-0.95,0-1.73-0.77-1.73-1.73s0.77-1.73,1.73-1.73
		C70.04,107.77,70.81,108.54,70.81,109.5z"/>
	<g>
		<path class="st19" d="M55.28,107.77c0,0.95-0.77,1.73-1.73,1.73c-0.95,0-1.73-0.77-1.73-1.73s0.77-1.73,1.73-1.73
			C54.5,106.05,55.28,106.82,55.28,107.77z"/>
		<path class="st19" d="M69.09,107.77c0,0.95-0.77,1.73-1.73,1.73s-1.73-0.77-1.73-1.73s0.77-1.73,1.73-1.73
			S69.09,106.82,69.09,107.77z"/>
	</g>
</g>
<g id="hat_1_">
	<path class="st44" d="M70.28,86.06V77.1l-3.24-5.86c-0.22-0.39-0.15-0.93,0.16-1.21s0.72-0.19,0.94,0.2l1.38,2.49l3.56-7.66
		c0.12-0.26,0.34-0.42,0.58-0.42h3.68l-6.48-5.15c-1.42,0.53-8.22,3.3-13.45,9.96l-3.43,14.54C56.04,85.06,61.45,87.2,70.28,86.06
		L70.28,86.06z"/>
	<path class="st45" d="M70.73,88.69v-2.93c-1.81,0.21-3.49,0.3-5.04,0.3c-6.27,0-10.34-1.5-12.2-2.38l-0.7,2.77
		c0.73,0.38,2.23,1.08,4.42,1.65C60.06,88.86,64.69,89.55,70.73,88.69z"/>
	<path class="st44" d="M65.13,89.12c-2.44,0-5.14-0.26-7.85-1c-2.43-0.66-3.98-1.47-4.6-1.83l-8.65,5.02
		c1.32,1.5,2.77,2.83,4.3,3.97c2.9,2.16,7.59,4.73,13.49,4.73c4.67,0.01,9.29-1.2,13.56-3.56c1.42-0.79,2.79-1.72,4.09-2.79l-8.61-5
		C68.96,88.97,67.04,89.12,65.13,89.12L65.13,89.12z"/>
</g>
<g id="Wand_1_">
	<line class="st46" x1="44.78" y1="122.39" x2="28.55" y2="109.69"/>
	<g>
		<polygon class="st34" points="34.68,109.73 30.86,111.22 29.92,115.21 27.32,112.04 23.23,112.38 25.45,108.93 23.86,105.15 
			27.83,106.19 30.93,103.51 31.17,107.6 		"/>
	</g>
</g>
<g>
	<polygon class="st34" points="76.21,40.68 74.2,42.53 74.58,45.24 72.2,43.89 69.74,45.1 70.28,42.42 68.38,40.45 71.09,40.14 
		72.37,37.72 73.51,40.21 	"/>
</g>
<g id="stars">
	<g>
		<polygon class="st34" points="50.39,63.95 48.94,63.9 48.08,65.07 47.68,63.68 46.31,63.22 47.51,62.41 47.52,60.96 48.66,61.85 
			50.04,61.42 49.55,62.78 		"/>
	</g>
	<g>
		<polygon class="st34" points="98.75,72.26 97.36,72.67 96.91,74.04 96.1,72.85 94.65,72.84 95.53,71.7 95.09,70.32 96.45,70.81 
			97.63,69.96 97.58,71.41 		"/>
	</g>
	<g>
		<polygon class="st34" points="27.46,75.72 26.07,76.11 25.6,77.48 24.8,76.28 23.35,76.26 24.25,75.13 23.82,73.75 25.17,74.24 
			26.35,73.41 26.3,74.85 		"/>
	</g>
	<g>
		<polygon class="st34" points="78.85,68.47 77.78,69.45 77.99,70.88 76.73,70.17 75.43,70.81 75.71,69.39 74.71,68.35 76.14,68.18 
			76.82,66.91 77.42,68.22 		"/>
	</g>
	<g>
		<polygon class="st34" points="93.42,80.85 92.15,81.54 92,82.98 90.95,81.98 89.54,82.28 90.16,80.98 89.44,79.72 90.87,79.91 
			91.84,78.84 92.1,80.26 		"/>
	</g>
	<g>
		<polygon class="st34" points="44.31,71.58 43.24,72.56 43.45,73.99 42.19,73.28 40.89,73.91 41.17,72.5 40.17,71.46 41.6,71.29 
			42.28,70.01 42.88,71.33 		"/>
	</g>
</g>
</svg>
