<svg height="504pt" viewBox="0 0 504.69864 504" width="504pt" xmlns="http://www.w3.org/2000/svg"><path d="m495.238281 86.988281v1.007813c.378907 34.304687-18.265625 66-48.429687 82.339844l-393.398438-1.929688c-28.167968-16.957031-45.277344-47.535156-44.992187-80.410156v-1.007813c-.003907-2.777343.164062-5.554687.503906-8.308593.332031-3.609376.867187-7.195313 1.597656-10.746094v-.082032c3.730469-21.71875 14.285157-41.679687 30.132813-56.992187 2.214844-1.734375 5.15625-2.230469 7.820312-1.316406 2.660156.914062 4.675782 3.117187 5.355469 5.847656 9.234375 34.246094 36.929687 65.972656 71.175781 71.511719h.085938l275.722656-2.851563c22.464844-18.019531 39.371094-42.027343 48.765625-69.246093.769531-2.648438 2.808594-4.738282 5.433594-5.578126 2.625-.84375 5.496093-.324218 7.660156 1.382813 16.03125 15.320313 26.714844 35.386719 30.46875 57.242187.730469 3.578126 1.261719 7.191407 1.59375 10.828126.339844 2.753906.507813 5.53125.503906 8.308593zm0 0" fill="#fdc008"/><path d="m495.742188 363.382812c-.09375 1.417969-.886719 2.695313-2.117188 3.402344-1.234375.710938-2.738281.757813-4.007812.125l-11.417969-5.707031-9.652344-4.785156-1.59375-.839844c-1.011719-.550781-2.210937-.632813-3.289063-.230469-1.078124.402344-1.929687 1.25-2.335937 2.328125-.160156.347657-.273437.714844-.332031 1.09375-.085938.835938-.253906 1.59375-.335938 2.433594-9.570312 63.871094-52.460937 106.847656-68.492187 120.949219-1.054688.949218-2.527344 1.285156-3.890625.894531-1.367188-.394531-2.433594-1.460937-2.824219-2.824219-.621094-2.03125-1.496094-3.976562-2.601563-5.792968-1.21875-2.027344-2.625-3.9375-4.195312-5.707032-3.902344-4.511718-8.324219-8.539062-13.179688-12.003906-1-.765625-2.292968-1.050781-3.523437-.773438-1.230469.273438-2.277344 1.082032-2.855469 2.199219-.167968.253907-.25.589844-.417968.839844-.738282 1.585937-1.605469 3.101563-2.605469 4.535156-21.316407 32.398438-84.101563 33.152344-105.503907 32.398438h-.167968c-.757813.015625-1.511719-.011719-2.265625-.085938-.324219.007813-.648438-.078125-.921875-.25-1.960938-.4375-3.269532-2.289062-3.023438-4.28125 2.855469-25.601562-31.980468-28.875-40.707031-29.210937-.867187-.066406-1.726563.171875-2.433594.671875-.375.117187-.699219.351562-.925781.671875-.082031.167968-.25.253906-.335938.421875-6.492187 6.941406-7.621093 17.339843-2.769531 25.515625.644531 1.3125.558594 2.871094-.230469 4.105468-.789062 1.234376-2.164062 1.96875-3.628906 1.9375-5.121094-.167968-9.988281-.503906-14.6875-1.09375-3.023437-.335937-5.960937-.753906-8.816406-1.171874-81.246094-12.925782-98.371094-74.871094-101.726562-93.167969-.25-1.300781-1.097657-2.402344-2.285157-2.980469-1.191406-.578125-2.582031-.5625-3.757812.042969-1.382813.664062-2.703125 1.449219-3.945313 2.347656-2.414062 1.554687-4.613281 3.417969-6.546875 5.542969-2.511719 2.816406-4.550781 6.015625-6.042969 9.484375-.746093 1.621093-2.4375 2.59375-4.214843 2.421875-1.777344-.167969-3.25-1.445313-3.675781-3.179688-.839844-3.355468-1.511719-6.796875-2.097657-10.238281-.335937-2.097656-.671875-4.199219-.925781-6.296875-7.132812-52.710938 8.730469-112.554688 14.1875-130.851562.382812-1.371094.058594-2.84375-.871094-3.921876-.925781-1.082031-2.332031-1.625-3.746094-1.453124-2.148437.257812-4.28125.648437-6.378906 1.175781-2.351562.503906-4.53125 1.175781-6.628906 1.847656-5.320312 1.847656-10.371094 4.386719-15.027344 7.554687-1.394531.925782-3.207031.9375-4.609375.027344-1.40625-.914062-2.132812-2.574218-1.851562-4.226562.082031-.667969.167969-1.257813.25-1.929688l.503906-3.273437c7.605469-50.796875 36.007813-96.136719 78.394531-125.144531 1.054688-.671876 1.746094-1.785157 1.875-3.027344.132813-1.242188-.3125-2.476563-1.203125-3.351563-7.484375-5.414062-16.808593-7.644531-25.933593-6.210937h-.589844c-1.257813.167968-2.683594.25-3.777344.417968h-.503906c-.410156-.097656-.832032-.152343-1.257813-.167968-.246093-.058594-.476562-.171875-.671875-.335938-1.070312-.511718-1.867187-1.457031-2.1875-2.597656-.320312-1.140625-.136718-2.367188.507813-3.359375 8.476562-13.894531 22.335937-23.652344 38.277343-26.945313.722657.03125 1.441407-.109374 2.097657-.417968h.082031c.925781-.167969 1.761719-.335938 2.601562-.421875.839844-.082031 2.015626-.25 2.9375-.335938h2.601563c.917969-.136719 1.84375-.191406 2.773437-.164062 2.683594 0 5.203126.164062 7.382813.332031h.085937c2.433594.253906 4.53125.589844 6.292969.925781 1.398438.269531 2.835938-.199219 3.808594-1.238281s1.339844-2.507812.976563-3.882812c-3.792969-9.863282-9.335938-18.964844-16.367188-26.859376h-.082031c-.167969-.25-.421875-.503906-.589844-.753906-.867187-.984375-1.183594-2.34375-.839844-3.609375.539063-2.214843 2.71875-3.617187 4.953125-3.191406 7.265625 1.347656 14.355469 3.484375 21.152344 6.378906 2.6875 1.175781 5.203125 2.351563 7.386719 3.441407 1.425781.757812 2.769531 1.429687 3.945312 2.015624 1.273438.699219 2.824219.6875 4.085938-.03125 1.265625-.71875 2.070312-2.039062 2.125-3.492187.101562-12.304687 4.730469-24.136719 13.007812-33.238281 3.074219-3.285156 6.511719-6.214844 10.242188-8.730469 3.796875-2.539063 7.8125-4.730469 12-6.546875 1.386719-.621094 3-.441406 4.21875.460938 1.214843.90625 1.851562 2.398437 1.660156 3.902343-1.480469 8.367188-.964844 16.96875 1.507813 25.097657.65625 1.6875 1.5 3.292968 2.519531 4.785156.570312.765625 1.1875 1.492187 1.847656 2.179687.828125.816407 1.957031 1.253907 3.117187 1.207031 1.160157-.050781 2.25-.574218 3.007813-1.457031 5.707031-6.714843 23.167969-22.578125 61.355469-25.515625 1.511718-.167968 3.023437-.253906 4.535156-.335937h.503906c12-.546875 24.023438.015625 35.921875 1.679687 1.738281.210938 3.160157 1.476563 3.570313 3.179688.410156 1.699218-.277344 3.476562-1.722656 4.457031-7.691407 4.820313-14.085938 11.449219-18.632813 19.304687-.714844 1.15625-.714844 2.621094 0 3.777344.191406.355469.417969.691406.671875 1.007813 1.019531 1.109375 2.570312 1.5625 4.027344 1.175781 3.203125-.808594 6.453125-1.394531 9.734375-1.765625 1.640625-.261719 3.296875-.429687 4.953125-.503906 27.449218-2.347657 76.128906 4.703125 129.007812 63.707031 1.128906 1.21875 1.433594 2.984375.78125 4.507812-.652344 1.523438-2.144531 2.523438-3.800781 2.542969-9.425781-.101562-17.992187 5.457031-21.742187 14.101563-1.054688 2.046875-.316407 4.558594 1.679687 5.707031 12.171875 6.464844 54.640625 33.40625 70.589844 99.714844.324219 1.480469-.175781 3.019531-1.304688 4.027343-1.132812 1.007813-2.71875 1.332032-4.152343.839844-3.988282-1.324218-8.054688-2.417968-12.167969-3.273437-3.023438-.585938-6.214844-1.175781-9.738281-1.511719-.097657-.066406-.21875-.09375-.335938-.082031-1.128906-.109375-2.253906.257812-3.105469 1.007812h-.082031c-.476562.34375-.851562.808594-1.09375 1.34375-.847656 1.609375-.542969 3.589844.757812 4.867188 29.691407 29.273437 44.980469 70.140625 41.796876 111.714843zm0 0" fill="#c42828"/><path d="m468.546875 356.417969-1.59375-.839844c-1.011719-.550781-2.210937-.632813-3.289063-.230469-1.078124.402344-1.929687 1.25-2.335937 2.328125l-4.109375-2.097656c-1.199219-.628906-2.632812-.621094-3.824219.019531-1.195312.636719-1.992187 1.824219-2.136719 3.171875-.082031.835938-.25 1.59375-.335937 2.433594l-11.332031-5.625c-1.199219-.605469-2.621094-.589844-3.808594.046875-1.183594.632812-1.988281 1.808594-2.148438 3.144531-6.503906 41.457031-25.710937 79.875-54.976562 109.953125-3.902344-4.511718-8.324219-8.539062-13.179688-12.003906-1-.765625-2.292968-1.050781-3.523437-.773438-1.230469.273438-2.277344 1.082032-2.855469 2.199219-.167968.253907-.25.589844-.417968.839844-1.09375-.839844-2.015626-1.59375-2.9375-2.265625-1.003907-.765625-2.292969-1.050781-3.523438-.773438-1.230469.273438-2.277344 1.082032-2.855469 2.199219-.84375 1.878907-1.855469 3.679688-3.023437 5.375-2.589844-2.445312-5.335938-4.71875-8.226563-6.800781-.988281-.757812-2.265625-1.039062-3.480469-.761719-1.21875.273438-2.25 1.078125-2.8125 2.1875-13.179687 28.289063-55.0625 35.839844-84.605468 37.4375-1.960938-.4375-3.269532-2.289062-3.023438-4.28125 2.855469-25.601562-31.980468-28.875-40.707031-29.210937-.867187-.066406-1.726563.171875-2.433594.671875-3.105469-.417969-5.625-.585938-7.304687-.671875-1.261719-.082032-2.496094.414062-3.355469 1.34375-.085937.167968-.253906.253906-.335937.421875-4.585938-.984375-9.246094-1.574219-13.933594-1.765625-1.265625-.082032-2.5.414062-3.359375 1.34375-6.804688 6.9375-8.082031 17.589844-3.105469 25.9375.675781 1.167968.675781 2.605468 0 3.777344-.203125.460937-.519531.867187-.921875 1.171874-88.800781-9.652343-107.101563-75.371093-110.542969-94.339843-.082031-.253907-.082031-.421875-.25-.589844-.382812-1.136719-1.242187-2.054687-2.355468-2.507813-1.113282-.453124-2.367188-.394531-3.4375.160157-3.953126 1.960937-7.507813 4.636719-10.492188 7.890625-.503906-1.847656-.835938-3.527344-1.089844-4.953125-.25-1.300781-1.097656-2.402344-2.285156-2.980469-1.191406-.578125-2.582031-.5625-3.757812.042969-.046876 0-.085938.035156-.085938.082031-7.132812-52.710938 8.730469-112.554688 14.1875-130.851562.382812-1.371094.058594-2.84375-.871094-3.921876-.925781-1.082031-2.332031-1.625-3.746094-1.453124-2.148437.257812-4.28125.648437-6.378906 1.175781-.871094-.898438-2.117187-1.332031-3.355468-1.175781-4.429688.5625-8.789063 1.578124-13.011719 3.023437-.601563-1.996094-2.546875-3.269531-4.617188-3.023437-2.148437.257812-4.277343.648437-6.378906 1.175781 7.605469-50.796875 36.007813-96.136719 78.394531-125.144531 1.054688-.671876 1.746094-1.785157 1.875-3.027344.132813-1.242188-.3125-2.476563-1.203125-3.351563-7.484375-5.414062-16.808593-7.644531-25.933593-6.210937h-.589844c-2.066406-.15625-4.140625-.183594-6.210938-.085938-1.070312-.511718-1.867187-1.457031-2.1875-2.597656-.320312-1.140625-.136718-2.367188.507813-3.359375 8.476562-13.894531 22.335937-23.652344 38.277343-26.945313.722657.03125 1.441407-.109374 2.097657-.417968h.082031c.425781-.261719.820312-.570313 1.175781-.921875 1.511719 0 3.023438.082031 4.363281.164062h2.601563c2.289063.230469 4.558594.59375 6.800781 1.09375 1.203125.261719 2.457032-.085937 3.355469-.925781h.085937c2.433594.253906 4.53125.589844 6.292969.925781 1.398438.269531 2.835938-.199219 3.808594-1.238281s1.339844-2.507812.976563-3.882812c-3.792969-9.863282-9.335938-18.964844-16.367188-26.859376 3.359375 1.511719 6.296875 3.023438 8.644531 4.28125 1.265625.714844 2.8125.710938 4.070313-.011718 1.261718-.726563 2.042968-2.0625 2.058594-3.511719-.011719-.644531.015624-1.292969.082031-1.933594 4.449219 1.933594 8.3125 3.863281 11.332031 5.457031 1.019531.585938 2.246094.699219 3.355469.3125 1.109375-.386718 2-1.234374 2.4375-2.328124 1.425781.757812 2.769531 1.429687 3.945312 2.015624 1.273438.699219 2.824219.6875 4.085938-.03125 1.265625-.71875 2.070312-2.039062 2.125-3.492187.101562-12.304687 4.730469-24.136719 13.007812-33.238281-.546875 7.632812 1.820313 15.195312 6.632813 21.148437.847656.8125 1.988281 1.246094 3.160156 1.195313 1.171875-.046875 2.273438-.570313 3.050781-1.445313 2.128907-2.457031 4.492188-4.707031 7.050781-6.714843.957032 2.597656 2.441407 4.972656 4.363282 6.964843.828125.816407 1.957031 1.253907 3.117187 1.207031 1.164063-.050781 2.253907-.574218 3.011719-1.457031.503906-.585937 1.089844-1.257812 1.761719-1.929687.570312.765625 1.1875 1.492187 1.847656 2.179687.828125.816407 1.957031 1.253907 3.117187 1.207031 1.160157-.050781 2.25-.574218 3.007813-1.457031 5.707031-6.714843 23.167969-22.578125 61.355469-25.515625 4.367187.25 8.898437.753906 13.597656 1.34375 1.738281.210938 3.160156 1.476563 3.570312 3.179688.410157 1.699218-.277343 3.476562-1.722656 4.457031-7.671875 4.84375-14.0625 11.464844-18.632812 19.304687-.773438 1.453126-.613282 3.222657.40625 4.511719 1.015625 1.292969 2.703125 1.859375 4.292968 1.449219 4.253907-1.03125 8.570313-1.761719 12.925782-2.183594.84375 1.757813 2.8125 2.671875 4.699218 2.183594 1.679688-.421875 3.609376-.839844 5.710938-1.175781 2.96875-.523438 5.96875-.886719 8.980469-1.09375 1.507812.085937 3.105469.253906 4.78125.503906 27.953125 3.273437 66.058593 17.964844 106.597656 63.203125 1.128906 1.21875 1.433594 2.984375.78125 4.507812-.652344 1.523438-2.144531 2.523438-3.800781 2.542969-9.414063-.058593-17.957032 5.484375-21.738282 14.101563-.984374 2.070312-.21875 4.550781 1.761719 5.707031 12.167969 6.464844 54.554688 33.40625 70.503907 99.714844v.082031c.167968.492188.167968 1.023438 0 1.511719-1.089844-.25-2.265626-.417969-3.441407-.585938h-.082031c-2.101562-.421875-4.28125-.757812-6.546875-1.007812-1.78125-.1875-3.484375.75-4.28125 2.351562-4.398437-1.046875-8.855469-1.832031-13.347656-2.351562-1.792969-.203125-3.515625.746093-4.308594 2.367187-.789063 1.617188-.476563 3.5625.785156 4.851563 27.988281 27.53125 43.203125 65.507812 41.964844 104.75zm0 0" fill="#f34335"/><path d="m199.957031 146.917969c-1.792969 1.667969-3.699219 3.210937-5.707031 4.617187-10.644531 7.480469-22.835938 12.472656-35.671875 14.601563-8.523437 1.582031-17.222656 1.976562-25.851563 1.175781h-.167968c-3.421875-.257812-6.820313-.792969-10.15625-1.59375-.632813.601562-1.222656 1.246094-1.761719 1.929688-19.238281 20.929687-25.074219 50.898437-15.089844 77.515624 9.984375 26.617188 34.085938 45.355469 62.34375 48.46875 2.785157.339844 5.589844.507813 8.394531.503907 37.027344-.082031 68.535157-26.992188 74.410157-63.546875 5.878906-36.558594-15.605469-71.988282-50.742188-83.671875zm0 0" fill="#f3f3f3"/><path d="m381.425781 165.886719c-4.957031 1.152343-10.023437 1.769531-15.109375 1.847656-3.753906.09375-7.507812-.019531-11.246094-.335937h-.167968c-2.9375-.335938-5.960938-.671876-8.980469-1.261719-15.449219-2.394531-29.894531-9.148438-41.632813-19.472657-3.835937 1.242188-7.570312 2.785157-11.164062 4.617188-29.699219 15.152344-45.953125 47.984375-39.992188 80.789062 5.957032 32.804688 32.714844 57.820313 65.84375 61.5625 2.785157.339844 5.589844.507813 8.394532.503907 30.363281-.019531 57.761718-18.222657 69.554687-46.199219 11.789063-27.980469 5.683594-60.300781-15.5-82.050781zm0 0" fill="#f3f3f3"/><path d="m226.648438 218.597656c0 27.8125-22.546876 50.359375-50.359376 50.359375s-50.359374-22.546875-50.359374-50.359375 22.546874-50.359375 50.359374-50.359375 50.359376 22.546875 50.359376 50.359375zm0 0" fill="#e81e63"/><path d="m377.730469 218.597656c0 27.8125-22.546875 50.359375-50.359375 50.359375s-50.359375-22.546875-50.359375-50.359375 22.546875-50.359375 50.359375-50.359375 50.359375 22.546875 50.359375 50.359375zm0 0" fill="#e81e63"/><path d="m201.46875 218.597656c0 13.90625-11.273438 25.179688-25.179688 25.179688s-25.179687-11.273438-25.179687-25.179688 11.273437-25.179687 25.179687-25.179687 25.179688 11.273437 25.179688 25.179687zm0 0" fill="#37474f"/><path d="m352.550781 218.597656c0 13.90625-11.273437 25.179688-25.179687 25.179688s-25.179688-11.273438-25.179688-25.179688 11.273438-25.179687 25.179688-25.179687 25.179687 11.273437 25.179687 25.179687zm0 0" fill="#37474f"/><path d="m151.109375 361.285156h50.359375v16.789063c0 9.269531-7.515625 16.785156-16.785156 16.785156h-16.789063c-9.269531 0-16.785156-7.515625-16.785156-16.785156zm0 0" fill="#f9eab0"/><path d="m159.5 361.285156h33.574219v16.789063c0 9.269531-7.515625 16.785156-16.785157 16.785156-9.273437 0-16.789062-7.515625-16.789062-16.785156zm0 0" fill="#ffebb2"/><path d="m302.191406 361.285156h50.359375v16.789063c0 9.269531-7.515625 16.785156-16.785156 16.785156h-16.789063c-9.269531 0-16.785156-7.515625-16.785156-16.785156zm0 0" fill="#f9eab0"/><path d="m310.582031 361.285156h33.574219v16.789063c0 9.269531-7.515625 16.785156-16.785156 16.785156-9.273438 0-16.789063-7.515625-16.789063-16.785156zm0 0" fill="#ffebb2"/><path d="m167.894531 193.417969c0 9.269531-7.515625 16.785156-16.785156 16.785156-9.273437 0-16.789063-7.515625-16.789063-16.785156 0-9.273438 7.515626-16.789063 16.789063-16.789063 9.269531 0 16.785156 7.515625 16.785156 16.789063zm0 0" fill="#f3f3f3"/><path d="m318.976562 193.417969c0 9.269531-7.515624 16.785156-16.785156 16.785156-9.273437 0-16.789062-7.515625-16.789062-16.785156 0-9.273438 7.515625-16.789063 16.789062-16.789063 9.269532 0 16.785156 7.515625 16.785156 16.789063zm0 0" fill="#f3f3f3"/><path d="m483.09375 259.726562c2.882812 1.445313 6.335938 1.113282 8.890625-.855468 2.550781-1.96875 3.75-5.222656 3.085937-8.378906-5.234374-28.597657-17.398437-55.476563-35.425781-78.285157 27.789063-18.976562 44.285157-50.5625 43.988281-84.210937.003907-3.367188-.175781-6.726563-.535156-10.074219-2.234375-28.023437-14.683594-54.25-34.984375-73.691406-4.09375-3.496094-9.664062-4.710938-14.839843-3.234375-5.507813 1.570312-9.863282 5.792968-11.601563 11.25-8.34375 23.542968-22.46875 44.609375-41.078125 61.269531-40.984375-28.285156-76.496094-30.214844-97.714844-27.351563 5.277344-5.527343 11.6875-9.847656 18.792969-12.660156 3.640625-1.207031 5.996094-4.730468 5.726563-8.558594-.273438-3.824218-3.101563-6.980468-6.875-7.664062-72.101563-13.101562-106.152344 8.34375-119.324219 20.984375-2.3125-9.019531-2.289063-18.480469.066406-27.488281.746094-2.980469-.199219-6.128906-2.457031-8.210938-2.261719-2.078125-5.476563-2.757812-8.386719-1.769531-33.890625 11.296875-45.574219 34.34375-47.898437 52.382813-12.976563-6.597657-27.230469-10.296876-41.777344-10.84375-3.394532-.003907-6.457032 2.039062-7.757813 5.175781s-.585937 6.75 1.816407 9.152343c4.820312 4.917969 9.246093 10.214844 13.226562 15.835938-22.925781-12.535156-39.636719-34.003906-46.160156-59.308594-1.5-5.644531-5.804688-10.121094-11.390625-11.832031-5.3125-1.648437-11.097657-.4375-15.300781 3.207031-20.046876 19.378906-32.347657 45.398438-34.597657 73.1875-.375 3.402344-.5585935 6.820313-.5546872 10.242188-.1171876 32.308594 15.0937502 62.761718 40.9921872 82.078125-23.910156 30.6875-38.175781 67.78125-40.9921872 106.582031-.2773438 3.496094 1.6484372 6.792969 4.8281252 8.273438 3.179687 1.476562 6.945312.820312 9.441406-1.644532 6.921875-6.25 15.285156-10.6875 24.339844-12.917968-8.175781 29.648437-25.375 105.355468-4.507813 161.011718 1.414063 3.796875 5.34375 6.042969 9.332032 5.332032 3.992187-.707032 6.90625-4.167969 6.925781-8.21875.410156-8.207032 4.285156-15.855469 10.660156-21.042969 7.035156 28.136719 34.984375 96.523437 140.421875 96.523437 3.378906-.003906 6.425781-2.03125 7.730469-5.144531 1.308593-3.117187.617187-6.710937-1.746094-9.121094-5.5-4.878906-6.484375-13.101562-2.292969-19.136719 8.101563.601563 22.664063 3.128907 28.398438 10.457032 2.652344 3.613281 3.308594 8.324218 1.734375 12.523437-.605469 2.390625-.125 4.929688 1.308593 6.9375 1.433594 2.007813 3.679688 3.28125 6.136719 3.484375 1.023438.085938 7.4375.582032 16.90625.582032 28.429688 0 84.414063-4.5 104.632813-38.183594 7.335937 6.070312 14.269531 14.058594 13.519531 19.800781-.402344 3.335937 1.222656 6.59375 4.128906 8.277344 2.910157 1.683593 6.542969 1.46875 9.234375-.546875 2.726563-2.046875 64.035156-48.859375 77.269532-128.242188l23.058593 11.574219c2.476563 1.253906 5.417969 1.199219 7.847657-.144531 2.433593-1.34375 4.039062-3.804688 4.296874-6.570313 4.992188-41.738281-7.703124-83.660156-35.015624-115.613281 4.972656 1.117188 9.824218 2.730469 14.476562 4.820312zm-25.867188-242.722656c12.933594 12.339844 21.992188 28.179688 26.078126 45.585938-6.152344-2.980469-12.488282-5.5625-18.96875-7.730469-4.40625-1.476563-9.171876.898437-10.644532 5.304687-1.472656 4.402344.902344 9.167969 5.304688 10.640626 9.652344 3.203124 18.910156 7.476562 27.605468 12.742187.09375 1.476563.246094 2.929687.246094 4.449219.332032 28.933594-14.257812 55.996094-38.613281 71.621094-7.757813-7.730469-16.417969-14.492188-25.800781-20.144532 4.792968-5.828125 12.78125-7.925781 19.816406-5.203125 3.558594 1.183594 7.472656-.136719 9.585938-3.234375 2.113281-3.097656 1.914062-7.222656-.484376-10.105468-11.132812-13.496094-23.527343-25.898438-37.023437-37.03125 19.605469-18.414063 34.34375-41.394532 42.898437-66.894532zm-440.414062 70.992188c0-1.496094.160156-2.972656.242188-4.449219 8.695312-5.28125 17.957031-9.566406 27.609374-12.773437 2.847657-.953126 4.972657-3.355469 5.570313-6.300782.597656-2.941406-.417969-5.984375-2.667969-7.972656-2.253906-1.992188-5.394531-2.628906-8.242187-1.675781-6.488281 2.171875-12.828125 4.757812-18.984375 7.738281 3.988281-17.101562 12.785156-32.707031 25.355468-44.972656 7.152344 26.75 23.808594 49.972656 46.851563 65.328125-21.972656 4.421875-40.464844 19.164062-49.671875 39.597656-1.464844 2.933594-1.089844 6.453125.964844 9.011719 2.050781 2.554687 5.40625 3.683594 8.585937 2.882812 8.488281-2.15625 17.355469-2.367187 25.9375-.613281-9.546875 6.945313-18.398437 14.800781-26.433593 23.453125-22.179688-16.078125-35.25-41.859375-35.117188-69.253906zm470.871094 268.496094-22.222656-11.113282c-2.476563-1.234375-5.402344-1.171875-7.820313.171875s-4.023437 3.789063-4.285156 6.542969c-5.992188 59.9375-43.996094 102.492188-62.347657 119.808594-6.441406-10.347656-15.21875-19.046875-25.625-25.398438-2.179687-1.34375-4.859374-1.617187-7.269531-.738281-2.40625.875-4.285156 2.804687-5.09375 5.238281-10.910156 32.660156-69.714843 37.617188-100.226562 36.730469-.074219-6.167969-2.171875-12.140625-5.964844-17.007813-12.992187-16.632812-42.085937-17.113281-45.359375-17.113281-2.226562 0-4.359375.886719-5.933594 2.460938-8.523437 7.699219-11.886718 19.597656-8.652344 30.617187-102.527343-7.109375-111.023437-88.917968-111.316406-92.527344-.210937-2.570312-1.59375-4.894531-3.742187-6.3125-2.152344-1.421874-4.832031-1.773437-7.277344-.957031-8.261719 2.648438-15.5625 7.671875-20.984375 14.445313-10.304688-61.472656 14.503906-137.265625 14.789062-138.121094.851563-2.5625.421876-5.375-1.15625-7.5625-1.578124-2.191406-4.109374-3.484375-6.808593-3.484375-10.871094.066406-21.574219 2.703125-31.230469 7.695313 8.296875-48.308594 36.289062-91.003907 77.285156-117.875 3.917969-2.1875 5.429688-7.066407 3.425782-11.082032-6.253907-12.488281-20.386719-15.273437-32.5-15.167968 14.203124-15.328126 35.917968-21.195313 55.910156-15.105469 2.554687.851562 5.363281.421875 7.550781-1.148438 2.1875-1.574219 3.484375-4.097656 3.492187-6.792969-.054687-2.945312-.535156-5.867187-1.417968-8.679687l-.050782-.160156c-2.511718-7.519531-6.195312-14.601563-10.910156-20.980469 8.613282 2.882812 16.855469 6.78125 24.550782 11.605469 2.8125 1.851562 6.457031 1.839843 9.261718-.027344 2.800782-1.863281 4.21875-5.222656 3.597656-8.53125-2.328124-17.984375 7.035157-35.453125 23.300782-43.472656-.664063 12.59375 1.410156 28.960937 15.105468 35.792969 3.898438 1.882812 8.589844.546874 10.914063-3.105469.207031-.335938 19.898437-29.957031 86.007813-24.417969-7.898438 6.921875-13.824219 15.804688-17.183594 25.75-1.050782 3.15625-.140625 6.636719 2.320312 8.871094 2.464844 2.234375 6.015625 2.804687 9.054688 1.453125.671875-.292969 63.496094-26.859375 137.257812 50.921875-11.015625 3.066406-19.632812 11.660156-22.730468 22.664062-1.375 4.132813.636718 8.628906 4.632812 10.359375 12.203125 6.09375 23.136719 14.449219 32.230469 24.617188.316406.429687.675781.828125 1.074219 1.183593 16.007812 17.964844 27.570312 39.4375 33.757812 62.6875-9.867188-2.558593-20.019531-3.851562-30.214844-3.84375-3.648437 0-6.878906 2.351563-7.996094 5.824219-1.117187 3.472657.136719 7.269531 3.101563 9.394531 31.671875 25.828126 49.34375 65.054688 47.699219 105.890626zm0 0"/><path d="m176.289062 185.023438c-18.542968 0-33.574218 15.03125-33.574218 33.574218 0 18.542969 15.03125 33.574219 33.574218 33.574219 18.542969 0 33.574219-15.03125 33.574219-33.574219 0-18.542968-15.03125-33.574218-33.574219-33.574218zm0 50.359374c-9.273437 0-16.789062-7.515624-16.789062-16.785156 0-9.273437 7.515625-16.789062 16.789062-16.789062 9.269532 0 16.785157 7.515625 16.785157 16.789062 0 9.269532-7.515625 16.785156-16.785157 16.785156zm0 0"/><path d="m327.371094 185.023438c-18.542969 0-33.574219 15.03125-33.574219 33.574218 0 18.542969 15.03125 33.574219 33.574219 33.574219 18.542968 0 33.574218-15.03125 33.574218-33.574219 0-18.542968-15.03125-33.574218-33.574218-33.574218zm0 50.359374c-9.273438 0-16.789063-7.515624-16.789063-16.785156 0-9.273437 7.515625-16.789062 16.789063-16.789062 9.269531 0 16.785156 7.515625 16.785156 16.789062 0 9.269532-7.515625 16.785156-16.785156 16.785156zm0 0"/><path d="m379.5625 157.703125c-10.589844 2.210937-21.519531 2.269531-32.132812.175781-13.820313-2.105468-26.757813-8.089844-37.316407-17.257812-2.226562-2.144532-5.449219-2.890625-8.394531-1.945313-21.871094 6.976563-39.910156 22.640625-49.890625 43.316407-9.859375-20.472657-27.65625-36.027344-49.269531-43.058594-2.929688-.960938-6.152344-.234375-8.390625 1.890625-10.542969 9.007812-23.378907 14.910156-37.074219 17.054687-10.824219 2.089844-21.957031 1.980469-32.734375-.320312-2.863281-.6875-5.875.171875-7.941406 2.269531-15.484375 15.628906-24.140625 36.765625-24.0625 58.769531-.042969 39.167969 27.035156 73.148438 65.222656 81.851563 38.191406 8.703125 77.316406-10.191407 94.25-45.507813 14.398437 29.957032 45.132813 48.585938 78.355469 47.492188s62.660156-21.707032 75.054687-52.550782c12.394531-30.839843 5.40625-66.09375-17.820312-89.871093-2.042969-2.082031-5.015625-2.957031-7.855469-2.308594zm-203.273438 128.042969c-37.066406-.042969-67.105468-30.082032-67.148437-67.148438-.054687-16.046875 5.703125-31.574218 16.207031-43.703125 11.527344 1.835938 23.28125 1.664063 34.75-.503906 15.125-2.496094 29.414063-8.636719 41.632813-17.894531 29.640625 12.1875 46.539062 43.621094 40.347656 75.070312-6.1875 31.445313-33.738281 54.132813-65.789063 54.179688zm151.082032 0c-32.203125.007812-59.875-22.84375-65.957032-54.464844-6.085937-31.621094 11.136719-63.109375 41.042969-75.046875 12.304688 9.378906 26.710938 15.613281 41.96875 18.164063 11.222657 2.136718 22.726563 2.347656 34.019531.621093 10.425782 12.121094 16.128907 27.589844 16.074219 43.578125-.042969 37.066406-30.082031 67.105469-67.148437 67.148438zm0 0"/><path d="m394.519531 310.925781c-4.636719 0-8.394531 3.757813-8.394531 8.394531 0 18.539063-15.03125 33.570313-33.574219 33.570313h-201.441406c-18.542969 0-33.574219-15.03125-33.574219-33.570313 0-4.636718-3.757812-8.394531-8.394531-8.394531s-8.394531 3.757813-8.394531 8.394531c.046875 24.546876 17.769531 45.492188 41.96875 49.605469v9.148438c0 13.90625 11.273437 25.179687 25.179687 25.179687h16.789063c13.90625 0 25.179687-11.273437 25.179687-25.179687v-8.394531h83.933594v8.394531c0 13.90625 11.273437 25.179687 25.179687 25.179687h16.789063c13.90625 0 25.179687-11.273437 25.179687-25.179687v-9.148438c24.199219-4.113281 41.921876-25.058593 41.964844-49.605469 0-4.636718-3.757812-8.394531-8.390625-8.394531zm-201.445312 67.148438c0 4.632812-3.757813 8.390625-8.390625 8.390625h-16.789063c-4.636719 0-8.394531-3.757813-8.394531-8.390625v-8.394531h33.574219zm151.082031 0c0 4.632812-3.757812 8.390625-8.390625 8.390625h-16.789063c-4.636718 0-8.394531-3.757813-8.394531-8.390625v-8.394531h33.574219zm0 0"/></svg>