<svg height="503pt" viewBox="0 -9 503.99901 503" width="503pt" xmlns="http://www.w3.org/2000/svg"><path d="m443.390625 228.210938c5.382813 12.234374 32.023437 78.101562 25.253906 145.613281l-16.660156-8.417969-13.277344-6.59375c-.261719 2.777344-.609375 5.46875-1.042969 8.15625-10.761718 69.859375-66.300781 111.601562-66.300781 111.601562.304688-4.425781-.957031-8.816406-3.554687-12.410156-5.101563-6.992187-11.496094-12.941406-18.832032-17.53125-1.167968 3.480469-2.867187 6.757813-5.035156 9.71875-19.609375 28.203125-75.496094 28.636719-93.894531 27.945313-.339844.085937-.699219.085937-1.042969 0-3.121094-.085938-4.859375-.261719-4.859375-.261719 7.550781-29.9375-37.402343-29.9375-37.402343-29.9375-.691407.691406-1.300782 1.386719-1.820313 1.996094-6.636719 8.40625-5.851563 20.46875 1.820313 27.941406-6.054688 0-12.109376-.320312-18.136719-.953125-96.84375-10.414063-119.234375-102.75-119.234375-102.75-5.429688 1.714844-10.449219 4.519531-14.75 8.246094-5.527344 4.605469-9.472656 10.828125-11.285156 17.789062-2.214844-6.058593-3.898438-12.304687-5.03125-18.65625-11.714844-62.046875 13.710937-154.902343 13.710937-154.902343-6.40625-.007813-12.726563 1.445312-18.484375 4.253906-6.324219 3.09375-11.871094 7.570312-16.226562 13.101562.550781-5.117187 1.6875-10.152344 3.382812-15.011718 7.289062-21.347657 24.039062-45.125 30.632812-58.75v-.085938l65.695313-137.808594 1.214844-2.515625c8.957031.402344 17.773437 2.398438 26.03125 5.902344 6.148437 2.4375 12.046875 5.457031 17.617187 9.023437-2.375-16.625 4.761719-33.183593 18.484375-42.867187 5.742188-4.191406 12.132813-7.417969 18.917969-9.546875-2.207031 9.089844-2.265625 18.566406-.175781 27.683594 1.078125 4.164062 3.847656 7.6875 7.636719 9.71875 0 0 13.886718-23.171875 59.964843-25.773438 15.003907-.675781 30.035157.433594 44.78125 3.296875-12.238281 4.695313-22.25 13.839844-28.03125 25.601563-.683593 1.371094-1.261719 2.792968-1.734375 4.25 6.277344-2.332032 12.847656-3.792969 19.523438-4.339844h.175781c21.214844-1.574219 42.441406 2.941406 61.179687 13.019531l86.691407 126.695313c4.859375 10.503906 25.078125 40.09375 27.941406 54.152344-6.023437-3.699219-12.714844-6.175782-19.695313-7.289063-4.949218-.953125-9.976562-1.417969-15.015624-1.390625 0 0 .347656.695312.867187 2.085938zm0 0" fill="#2c3e50"/><path d="m425.167969 226.125c18.910156 43.941406 28.058593 91.460938 26.816406 139.28125l-13.277344-6.59375c-.261719 2.777344-.609375 5.46875-1.042969 8.15625l-16.3125-8.15625c-5.125 40.828125-24.011718 78.695312-53.542968 107.347656-5.101563-6.992187-11.496094-12.941406-18.832032-17.53125-1.167968 3.480469-2.867187 6.757813-5.035156 9.71875-3.78125-3.628906-7.910156-6.886718-12.320312-9.71875-10.066406 30.113282-53.890625 36.621094-81.574219 37.664063-.339844.085937-.699219.085937-1.042969 0-3.121094-.085938-4.859375-.261719-4.859375-.261719 7.550781-29.9375-37.402343-29.9375-37.402343-29.9375-.691407.691406-1.300782 1.386719-1.820313 1.996094-5.09375-1.214844-10.300781-1.882813-15.535156-1.996094-4.007813 3.703125-6.355469 8.871094-6.5 14.328125-.148438 5.457031 1.914062 10.742187 5.71875 14.65625-96.84375-10.414063-119.234375-102.75-119.234375-102.75-5.429688 1.714844-10.449219 4.519531-14.75 8.246094-1.824219-5.121094-2.605469-8.246094-2.605469-8.246094-4.984375 1.59375-9.632813 4.09375-13.710937 7.378906-11.714844-62.046875 13.710937-154.902343 13.710937-154.902343-6.40625-.007813-12.726563 1.445312-18.484375 4.253906.695312-2.777344 1.128906-4.253906 1.128906-4.253906-4.753906.007812-9.476562.796874-13.972656 2.34375 7.289062-21.347657 24.039062-45.125 30.632812-58.75v-.085938l65.695313-137.808594c9.710937 2.804688 18.976563 6.984375 27.507813 12.410156-.457032-2.984374-.546876-6.015624-.261719-9.023437 6.148437 2.4375 12.046875 5.457031 17.617187 9.023437-2.375-16.625 4.761719-33.183593 18.484375-42.867187-.867187 9.457031-.433593 23.167969 9.023438 27.855469 2.628906-3.800782 5.921875-7.09375 9.71875-9.71875 1.078125 4.164062 3.847656 7.6875 7.636719 9.71875 0 0 13.886718-23.171875 59.964843-25.773438 9.203125.515625 18.363281 1.617188 27.425781 3.296875-13.746093 5.21875-24.585937 16.09375-29.765624 29.851563 6.136718-2.285156 12.5625-3.71875 19.089843-4.25-.683593 1.371094-1.261719 2.792968-1.734375 4.25 6.277344-2.332032 12.847656-3.792969 19.523438-4.339844h.175781c15.316406 1.4375 30.203125 5.859375 43.824219 13.019531l86.691406 126.695313c4.164062 8.941406 19.351562 31.589844 25.601562 46.863281-4.949218-.953125-9.976562-1.417969-15.015624-1.390625 0 0 .347656.695312.867187 2.085938-5.96875-1.414063-12.085937-2.113282-18.222656-2.085938zm0 0" fill="#35495e"/><path d="m174.289062 95.957031-1.910156 3.472657-24.210937 44.34375c-26.894531-44.773438-64.574219-82.097657-109.601563-108.5625-12.074218-6.777344-24.738281-12.441407-37.835937-16.921876v-.433593c130.167969-17.355469 173.558593 78.101562 173.558593 78.101562zm0 0" fill="#2c3e50"/><path d="m172.378906 99.429688-24.210937 44.34375c-26.894531-44.773438-64.574219-82.097657-109.601563-108.5625 76.453125-.261719 116.976563 40.699218 133.8125 64.21875zm0 0" fill="#35495e"/><path d="m140.625 157.570312-27.863281 51.027344c-125.398438-25.773437-112.902344-180.9375-112.03125-190.308594 36.53125 12.417969 90.007812 41.898438 138.429687 111.886719 5.617188 8.121094 6.183594 18.71875 1.464844 27.394531zm0 0" fill="#fb7b76"/><path d="m503.269531 17.855469v.433593c-13.105469 4.464844-25.769531 10.128907-37.835937 16.921876-45.027344 26.464843-82.707032 63.789062-109.601563 108.5625l-24.558593-44.953126-1.5625-2.863281s43.390624-95.457031 173.558593-78.101562zm0 0" fill="#2c3e50"/><path d="m465.433594 35.210938c-45.027344 26.464843-82.707032 63.789062-109.601563 108.5625l-24.558593-44.953126c17.183593-23.691406 57.882812-64.214843 134.160156-63.609374zm0 0" fill="#35495e"/><path d="m363.371094 157.570312 27.867187 51.027344c125.394531-25.773437 112.898438-180.9375 112.03125-190.308594-36.507812 12.417969-90.007812 41.898438-138.429687 111.886719-5.617188 8.121094-6.183594 18.71875-1.46875 27.394531zm0 0" fill="#fb7b76"/><path d="m251.609375 208.769531c0 38.34375-31.082031 69.425781-69.425781 69.425781-2.898438 0-5.796875-.171874-8.675782-.523437-34.796874-4.285156-60.9375-33.839844-60.9375-68.902344 0-35.058593 26.140626-64.617187 60.9375-68.902343 2.878907-.347657 5.777344-.523438 8.675782-.519532 38.34375 0 69.425781 31.082032 69.425781 69.421875zm0 0" fill="#e6e7e8"/><path d="m390.457031 208.769531c0 38.34375-31.082031 69.425781-69.425781 69.425781-2.898438 0-5.796875-.171874-8.675781-.523437-34.796875-4.285156-60.9375-33.839844-60.9375-68.902344 0-35.058593 26.140625-64.617187 60.9375-68.902343 2.878906-.347657 5.777343-.523438 8.675781-.519532 38.34375 0 69.425781 31.082032 69.425781 69.421875zm0 0" fill="#e6e7e8"/><path d="m234.253906 208.769531c0-38.054687-27.199218-68.902343-60.746094-68.902343-33.550781 0-60.746093 30.847656-60.746093 68.902343 0 38.054688 27.195312 68.902344 60.746093 68.902344 33.546876 0 60.746094-30.847656 60.746094-68.902344zm0 0" fill="#fff"/><path d="m373.101562 208.769531c0-38.054687-27.199218-68.902343-60.746093-68.902343-33.550781 0-60.746094 30.847656-60.746094 68.902343 0 38.054688 27.195313 68.902344 60.746094 68.902344 33.546875 0 60.746093-30.847656 60.746093-68.902344zm0 0" fill="#fff"/><path d="m146.746094 351.863281c-12.71875-10.160156-22.664063-23.367187-28.917969-38.394531-1.25-3.152344-.550781-6.75 1.796875-9.199219 2.34375-2.453125 5.90625-3.3125 9.113281-2.203125 7.0625 2.527344 16.382813 5.484375 27.769531 8.324219h.085938c15.425781 3.800781 31.078125 6.613281 46.859375 8.417969 15.984375 1.878906 32.0625 2.804687 48.15625 2.777344 16.007813.027343 32.003906-.902344 47.902344-2.777344 15.789062-1.765625 31.445312-4.578125 46.859375-8.417969 11.570312-2.855469 21.011718-5.839844 28.144531-8.375 3.207031-1.109375 6.769531-.246094 9.113281 2.207031s3.042969 6.050782 1.785156 9.203125c-6.292968 15.164063-16.339843 28.476563-29.191406 38.6875-.371094.296875-.757812.570313-1.164062.816407l-24.707032 14.839843c-.363281.214844-.746093.410157-1.136718.582031-24.628906 9.949219-51.050782 14.710938-77.605469 13.976563-26.617187.75-53.101563-4.039063-77.773437-14.054687-.398438-.175782-.78125-.375-1.152344-.601563l-24.785156-15.003906c-.398438-.246094-.785157-.515625-1.152344-.804688zm0 0" fill="#802d40"/><path d="m203.445312 318.808594c-12.71875 14.617187-22.921874 31.242187-30.199218 49.203125-4.070313 10.074219-6.808594 20.632812-8.15625 31.414062-.875 5.832031-.960938 11.757813-.261719 17.617188-11.699219-19.550781-17.765625-41.957031-17.527344-64.738281.273438-14.441407 3.402344-28.6875 9.199219-41.914063h.085938l8.15625 1.472656zm0 0" fill="#f9eab0"/><path d="m203.445312 318.808594c-12.71875 14.617187-22.921874 31.242187-30.199218 49.203125-4.070313 10.074219-6.808594 20.632812-8.15625 31.414062-6.207032-14.917969-9.25-30.964843-8.9375-47.121093.265625-13.902344 3.179687-27.628907 8.589844-40.441407zm0 0" fill="#f5efca"/><path d="m338.128906 417.042969c.65625-5.742188.597656-11.542969-.175781-17.269531-1.253906-10.882813-4-21.539063-8.15625-31.675782-7.339844-17.972656-17.570313-34.621094-30.285156-49.289062l38.875-6.945313 7.984375-1.472656c5.917968 13.285156 9.078125 27.632813 9.285156 42.175781.214844 22.695313-5.851562 45.007813-17.527344 64.476563zm0 0" fill="#f9eab0"/><path d="m347.066406 352.566406c.296875 16.199219-2.808594 32.28125-9.113281 47.207032-1.253906-10.882813-4-21.539063-8.15625-31.675782-7.339844-17.972656-17.570313-34.621094-30.285156-49.289062l38.875-6.945313c5.535156 12.867188 8.480469 26.695313 8.679687 40.703125zm0 0" fill="#f5efca"/><path d="m216.898438 208.769531c0 19.171875-15.542969 34.714844-34.714844 34.714844-19.167969 0-34.710938-15.542969-34.710938-34.714844 0-19.167969 15.542969-34.710937 34.710938-34.710937 19.171875 0 34.714844 15.542968 34.714844 34.710937zm0 0" fill="#e64c3c"/><path d="m355.746094 208.769531c0 19.171875-15.542969 34.714844-34.714844 34.714844-19.167969 0-34.710938-15.542969-34.710938-34.714844 0-19.167969 15.542969-34.710937 34.710938-34.710937 19.171875 0 34.714844 15.542968 34.714844 34.710937zm0 0" fill="#e64c3c"/><path d="m199.542969 208.769531c0 9.585938-7.773438 17.355469-17.359375 17.355469-9.582032 0-17.355469-7.769531-17.355469-17.355469 0-9.585937 7.773437-17.355469 17.355469-17.355469 9.585937 0 17.359375 7.769532 17.359375 17.355469zm0 0" fill="#2c2f38"/><path d="m338.386719 208.769531c0 9.585938-7.769531 17.355469-17.355469 17.355469-9.582031 0-17.355469-7.769531-17.355469-17.355469 0-9.585937 7.773438-17.355469 17.355469-17.355469 9.585938 0 17.355469 7.769532 17.355469 17.355469zm0 0" fill="#2c2f38"/><g fill="#fff"><path d="m182.183594 191.414062c0 9.585938-7.769532 17.355469-17.355469 17.355469s-17.355469-7.769531-17.355469-17.355469c0-9.585937 7.769532-17.355468 17.355469-17.355468s17.355469 7.769531 17.355469 17.355468zm0 0"/><path d="m321.03125 191.414062c0 9.585938-7.769531 17.355469-17.355469 17.355469-9.585937 0-17.355469-7.769531-17.355469-17.355469 0-9.585937 7.769532-17.355468 17.355469-17.355468 9.585938 0 17.355469 7.769531 17.355469 17.355468zm0 0"/></g></svg>