<svg id="Layer_1" enable-background="new 0 0 510 510" height="512" viewBox="0 0 510 510" width="512" xmlns="http://www.w3.org/2000/svg"><g id="XMLID_360_"><path id="XMLID_361_" d="m255.146 172.898c-55.447 46.932-147.466 47.877-204.377-4.277v42.113c0 31.595 17.693 60.495 45.235 74.24-7.031 37.15 11.518 73.907 43.764 90-3.665 19.364-.591 40.613 10.27 58.857 14.78 24.826 31.849 29.202 56.467 44.168 12.908 7.846 36.123 23.402 48.495 31.766 12.377-8.367 35.556-23.9 48.495-31.766 16.226-9.863 79.749-34.275 66.738-103.025 32.193-16.066 50.807-52.784 43.764-90 27.49-13.72 45.235-42.587 45.235-74.24 0-5.164 0-23.346 0-42.068-56.713 52.133-147.72 51.171-204.086 4.232z"/><path id="XMLID_418_" d="m464.266.234c-25.217 0-45.733 20.516-45.733 45.734h30c0-8.676 7.058-15.734 15.733-15.734 8.676 0 15.734 7.059 15.734 15.734v15.367c0 17.172-12.752 30.555-29.039 31.062-60.73-8.994-76.057-80.369-137.837-84.696-37.893-2.646-58.01 27.062-58.124 27.155-23.027-30.146-62.882-36.608-97.764-12.924-33.859 22.989-52.538 63.717-98.197 70.479-16.307-.508-29.039-13.916-29.039-31.075 0-5.375 0-9.992 0-15.367 0-8.676 7.058-15.734 15.734-15.734 8.675 0 15.734 7.059 15.734 15.734h30c-2.515-60.676-88.965-60.653-91.468 0v15.367c0 31.008 21.946 56.005 50.769 60.4 45.17 75.049 160.753 72.45 204.231 6.682 42.455 64.221 158.026 70.078 204.23-6.693 21.422-3.266 38.698-17.791 46.389-37.193 2.875-7.25 4.38-15.097 4.38-23.195 0-5.375 0-9.992 0-15.367.001-25.218-20.515-45.736-45.733-45.736z"/></g></svg>