<?xml version="1.0" encoding="utf-8"?>
<!-- Generator: Adobe Illustrator 25.2.1, SVG Export Plug-In . SVG Version: 6.00 Build 0)  -->
<svg version="1.1" id="Layer_1" xmlns="http://www.w3.org/2000/svg" xmlns:xlink="http://www.w3.org/1999/xlink" x="0px" y="0px"
	 viewBox="0 0 124.44 144" style="enable-background:new 0 0 124.44 144;" xml:space="preserve">
<style type="text/css">
	.st0{fill:#FFC107;}
	.st1{fill:#E91E63;}
	.st2{fill:none;}
	.st3{fill:#FFFFFF;}
	.st4{font-family:'MyriadPro-Regular';}
	.st5{font-size:24px;}
	.st6{clip-path:url(#SVGID_2_);fill:#FFFFFF;stroke:#000000;stroke-width:0.75;stroke-linejoin:round;stroke-miterlimit:10;}
	.st7{fill:#FF9800;}
	.st8{display:none;}
	.st9{display:inline;}
	.st10{display:inline;clip-path:url(#SVGID_4_);fill:#FF9800;}
	.st11{fill:none;stroke:#000000;stroke-width:0.5;stroke-miterlimit:10;stroke-dasharray:2,2;}
</style>
<g id="XMLID_27_">
	<polygon class="st0" points="2.5,106.56 2.5,37.44 62.22,2.89 121.94,37.44 121.94,106.56 62.22,141.11 	"/>
	<g>
		<path class="st1" d="M62.22,5.78l57.22,33.11v66.23l-57.22,33.11L5,105.12V38.88L62.22,5.78 M62.22,0L0,36v72l62.22,36l62.22-36
			V36L62.22,0L62.22,0z"/>
	</g>
</g>
<rect y="39.32" class="st2" width="124.44" height="31.67"/>
<text transform="matrix(1 0 0 1 8.0293 56.358)" class="st3 st4 st5">bayestestR</text>
<g>
	<g>
		<defs>
			<rect id="SVGID_1_" x="20.47" y="59.78" width="83.5" height="55.67"/>
		</defs>
		<clipPath id="SVGID_2_">
			<use xlink:href="#SVGID_1_"  style="overflow:visible;"/>
		</clipPath>
		<polyline class="st6" points="24.27,115.16 24.41,115.16 24.56,115.16 24.71,115.16 24.86,115.16 25.01,115.16 25.16,115.16 
			25.31,115.16 25.45,115.15 25.6,115.15 25.75,115.15 25.9,115.15 26.05,115.14 26.2,115.14 26.35,115.13 26.49,115.13 
			26.64,115.12 26.79,115.12 26.94,115.11 27.09,115.1 27.24,115.1 27.39,115.09 27.53,115.08 27.68,115.07 27.83,115.06 
			27.98,115.04 28.13,115.03 28.28,115.02 28.43,115 28.57,114.99 28.72,114.97 28.87,114.95 29.02,114.93 29.17,114.91 
			29.32,114.89 29.47,114.87 29.61,114.85 29.76,114.83 29.91,114.8 30.06,114.78 30.21,114.76 30.36,114.73 30.51,114.7 
			30.65,114.68 30.8,114.65 30.95,114.62 31.1,114.59 31.25,114.56 31.4,114.53 31.54,114.5 31.69,114.47 31.84,114.44 31.99,114.4 
			32.14,114.37 32.29,114.33 32.44,114.3 32.58,114.26 32.73,114.22 32.88,114.18 33.03,114.14 33.18,114.1 33.33,114.06 
			33.48,114.01 33.62,113.96 33.77,113.92 33.92,113.87 34.07,113.81 34.22,113.76 34.37,113.71 34.52,113.65 34.66,113.59 
			34.81,113.53 34.96,113.46 35.11,113.4 35.26,113.33 35.41,113.26 35.56,113.19 35.7,113.12 35.85,113.04 36,112.96 36.15,112.88 
			36.3,112.8 36.45,112.71 36.6,112.62 36.74,112.53 36.89,112.43 37.04,112.33 37.19,112.23 37.34,112.13 37.49,112.02 
			37.64,111.91 37.78,111.8 37.93,111.68 38.08,111.57 38.23,111.44 38.38,111.32 38.53,111.19 38.68,111.05 38.82,110.92 
			38.97,110.78 39.12,110.64 39.27,110.49 39.42,110.34 39.57,110.18 39.72,110.02 39.86,109.86 40.01,109.69 40.16,109.52 
			40.31,109.34 40.46,109.17 40.61,108.98 40.76,108.79 40.9,108.6 41.05,108.4 41.2,108.2 41.35,108 41.5,107.79 41.65,107.57 
			41.79,107.35 41.94,107.13 42.09,106.9 42.24,106.66 42.39,106.43 42.54,106.18 42.69,105.93 42.83,105.68 42.98,105.42 
			43.13,105.16 43.28,104.89 43.43,104.62 43.58,104.34 43.73,104.06 43.87,103.77 44.02,103.47 44.17,103.18 44.32,102.87 
			44.47,102.56 44.62,102.25 44.77,101.93 44.91,101.61 45.06,101.28 45.21,100.95 45.36,100.61 45.51,100.26 45.66,99.91 
			45.81,99.56 45.95,99.2 46.1,98.84 46.25,98.47 46.4,98.1 46.55,97.72 46.7,97.33 46.85,96.95 46.99,96.56 47.14,96.16 
			47.29,95.76 47.44,95.35 47.59,94.94 47.74,94.53 47.89,94.11 48.03,93.69 48.18,93.26 48.33,92.83 48.48,92.4 48.63,91.96 
			48.78,91.52 48.93,91.08 49.07,90.63 49.22,90.18 49.37,89.73 49.52,89.27 49.67,88.81 49.82,88.35 49.97,87.89 50.11,87.42 
			50.26,86.96 50.41,86.49 50.56,86.01 50.71,85.54 50.86,85.06 51,84.59 51.15,84.11 51.3,83.63 51.45,83.15 51.6,82.67 
			51.75,82.19 51.9,81.71 52.04,81.23 52.19,80.75 52.34,80.27 52.49,79.79 52.64,79.32 52.79,78.84 52.94,78.36 53.08,77.89 
			53.23,77.41 53.38,76.94 53.53,76.47 53.68,76.01 53.83,75.54 53.98,75.08 54.12,74.63 54.27,74.17 54.42,73.72 54.57,73.27 
			54.72,72.83 54.87,72.39 55.02,71.95 55.16,71.52 55.31,71.1 55.46,70.67 55.61,70.26 55.76,69.85 55.91,69.44 56.06,69.05 
			56.2,68.65 56.35,68.27 56.5,67.89 56.65,67.52 56.8,67.15 56.95,66.79 57.1,66.44 57.24,66.1 57.39,65.76 57.54,65.43 
			57.69,65.11 57.84,64.8 57.99,64.5 58.14,64.21 58.28,63.92 58.43,63.64 58.58,63.38 58.73,63.12 58.88,62.87 59.03,62.63 
			59.18,62.4 59.32,62.19 59.47,61.98 59.62,61.78 59.77,61.59 59.92,61.41 60.07,61.25 60.21,61.09 60.36,60.95 60.51,60.81 
			60.66,60.69 60.81,60.58 60.96,60.47 61.11,60.38 61.25,60.3 61.4,60.24 61.55,60.18 61.7,60.13 61.85,60.1 62,60.08 62.15,60.07 
			62.29,60.07 62.44,60.08 62.59,60.1 62.74,60.13 62.89,60.18 63.04,60.24 63.19,60.3 63.33,60.38 63.48,60.47 63.63,60.58 
			63.78,60.69 63.93,60.81 64.08,60.95 64.23,61.09 64.37,61.25 64.52,61.41 64.67,61.59 64.82,61.78 64.97,61.98 65.12,62.19 
			65.27,62.4 65.41,62.63 65.56,62.87 65.71,63.12 65.86,63.38 66.01,63.64 66.16,63.92 66.31,64.21 66.45,64.5 66.6,64.8 
			66.75,65.11 66.9,65.43 67.05,65.76 67.2,66.1 67.35,66.44 67.49,66.79 67.64,67.15 67.79,67.52 67.94,67.89 68.09,68.27 
			68.24,68.65 68.39,69.05 68.53,69.44 68.68,69.85 68.83,70.26 68.98,70.67 69.13,71.1 69.28,71.52 69.42,71.95 69.57,72.39 
			69.72,72.83 69.87,73.27 70.02,73.72 70.17,74.17 70.32,74.63 70.46,75.08 70.61,75.54 70.76,76.01 70.91,76.47 71.06,76.94 
			71.21,77.41 71.36,77.89 71.5,78.36 71.65,78.84 71.8,79.32 71.95,79.79 72.1,80.27 72.25,80.75 72.4,81.23 72.54,81.71 
			72.69,82.19 72.84,82.67 72.99,83.15 73.14,83.63 73.29,84.11 73.44,84.59 73.58,85.06 73.73,85.54 73.88,86.01 74.03,86.49 
			74.18,86.96 74.33,87.42 74.48,87.89 74.62,88.35 74.77,88.81 74.92,89.27 75.07,89.73 75.22,90.18 75.37,90.63 75.52,91.08 
			75.66,91.52 75.81,91.96 75.96,92.4 76.11,92.83 76.26,93.26 76.41,93.69 76.56,94.11 76.7,94.53 76.85,94.94 77,95.35 
			77.15,95.76 77.3,96.16 77.45,96.56 77.6,96.95 77.74,97.33 77.89,97.72 78.04,98.1 78.19,98.47 78.34,98.84 78.49,99.2 
			78.64,99.56 78.78,99.91 78.93,100.26 79.08,100.61 79.23,100.95 79.38,101.28 79.53,101.61 79.67,101.93 79.82,102.25 
			79.97,102.56 80.12,102.87 80.27,103.18 80.42,103.47 80.57,103.77 80.71,104.06 80.86,104.34 81.01,104.62 81.16,104.89 
			81.31,105.16 81.46,105.42 81.61,105.68 81.75,105.93 81.9,106.18 82.05,106.43 82.2,106.66 82.35,106.9 82.5,107.13 
			82.65,107.35 82.79,107.57 82.94,107.79 83.09,108 83.24,108.2 83.39,108.4 83.54,108.6 83.69,108.79 83.83,108.98 83.98,109.17 
			84.13,109.34 84.28,109.52 84.43,109.69 84.58,109.86 84.73,110.02 84.87,110.18 85.02,110.34 85.17,110.49 85.32,110.64 
			85.47,110.78 85.62,110.92 85.77,111.05 85.91,111.19 86.06,111.32 86.21,111.44 86.36,111.57 86.51,111.68 86.66,111.8 
			86.81,111.91 86.95,112.02 87.1,112.13 87.25,112.23 87.4,112.33 87.55,112.43 87.7,112.53 87.85,112.62 87.99,112.71 
			88.14,112.8 88.29,112.88 88.44,112.96 88.59,113.04 88.74,113.12 88.88,113.19 89.03,113.26 89.18,113.33 89.33,113.4 
			89.48,113.46 89.63,113.53 89.78,113.59 89.92,113.65 90.07,113.71 90.22,113.76 90.37,113.81 90.52,113.87 90.67,113.92 
			90.82,113.96 90.96,114.01 91.11,114.06 91.26,114.1 91.41,114.14 91.56,114.18 91.71,114.22 91.86,114.26 92,114.3 92.15,114.33 
			92.3,114.37 92.45,114.4 92.6,114.44 92.75,114.47 92.9,114.5 93.04,114.53 93.19,114.56 93.34,114.59 93.49,114.62 93.64,114.65 
			93.79,114.68 93.94,114.7 94.08,114.73 94.23,114.76 94.38,114.78 94.53,114.8 94.68,114.83 94.83,114.85 94.98,114.87 
			95.12,114.89 95.27,114.91 95.42,114.93 95.57,114.95 95.72,114.97 95.87,114.99 96.02,115 96.16,115.02 96.31,115.03 
			96.46,115.04 96.61,115.06 96.76,115.07 96.91,115.08 97.06,115.09 97.2,115.1 97.35,115.1 97.5,115.11 97.65,115.12 97.8,115.12 
			97.95,115.13 98.09,115.13 98.24,115.14 98.39,115.14 98.54,115.15 98.69,115.15 98.84,115.15 98.99,115.15 99.13,115.16 
			99.28,115.16 99.43,115.16 99.58,115.16 99.73,115.16 99.88,115.16 100.03,115.16 100.17,115.16 		"/>
	</g>
	<polyline class="st7" points="42.09,107.25 42.24,107.02 42.39,106.8 42.54,106.56 42.69,106.32 42.83,106.08 42.98,105.83 
		43.13,105.58 43.28,105.32 43.43,105.06 43.58,104.8 43.73,104.53 43.87,104.25 44.02,103.96 44.17,103.69 44.32,103.39 
		44.47,103.09 44.62,102.79 44.77,102.49 44.91,102.18 45.06,101.87 45.21,101.55 45.36,101.22 45.51,100.89 45.66,100.55 
		45.81,100.22 45.95,99.87 46.1,99.53 46.25,99.17 46.4,98.82 46.55,98.46 46.7,98.08 46.85,97.72 46.99,97.34 47.14,96.96 
		47.29,96.58 47.44,96.19 47.59,95.79 47.74,95.4 47.89,95 48.03,94.6 48.18,94.18 48.33,93.77 48.48,93.36 48.63,92.94 
		48.78,92.52 48.93,92.1 49.07,91.67 49.22,91.23 49.37,90.8 49.52,90.36 49.67,89.92 49.82,89.48 49.97,89.04 50.11,88.59 
		50.26,88.15 50.41,87.7 50.56,87.24 50.56,115.17 50.41,115.17 50.26,115.17 50.11,115.17 49.97,115.17 49.82,115.17 49.67,115.17 
		49.52,115.17 49.37,115.17 49.22,115.17 49.07,115.17 48.93,115.17 48.78,115.17 48.63,115.17 48.48,115.17 48.33,115.17 
		48.18,115.17 48.03,115.17 47.89,115.17 47.74,115.17 47.59,115.17 47.44,115.17 47.29,115.17 47.14,115.17 46.99,115.17 
		46.85,115.17 46.7,115.17 46.55,115.17 46.4,115.17 46.25,115.17 46.1,115.17 45.95,115.17 45.81,115.17 45.66,115.17 
		45.51,115.17 45.36,115.17 45.21,115.17 45.06,115.17 44.91,115.17 44.77,115.17 44.62,115.17 44.47,115.17 44.32,115.17 
		44.17,115.17 44.02,115.17 43.87,115.17 43.73,115.17 43.58,115.17 43.43,115.17 43.28,115.17 43.13,115.17 42.98,115.17 
		42.83,115.17 42.69,115.17 42.54,115.17 42.39,115.17 42.24,115.17 42.09,115.17 	"/>
	<polyline class="st1" points="24.27,115.16 24.41,115.16 24.56,115.16 24.71,115.16 24.87,115.16 25.02,115.16 25.17,115.16 
		25.32,115.16 25.46,115.15 25.61,115.15 25.76,115.15 25.91,115.15 26.07,115.14 26.22,115.14 26.37,115.13 26.51,115.13 
		26.66,115.12 26.81,115.12 26.96,115.11 27.11,115.1 27.27,115.1 27.42,115.09 27.56,115.08 27.71,115.07 27.86,115.06 
		28.01,115.04 28.16,115.03 28.31,115.02 28.47,115 28.61,114.99 28.76,114.97 28.91,114.95 29.06,114.93 29.21,114.91 
		29.36,114.89 29.51,114.87 29.66,114.85 29.81,114.83 29.96,114.8 30.11,114.78 30.26,114.76 30.41,114.73 30.56,114.7 
		30.7,114.68 30.86,114.65 31.01,114.62 31.16,114.59 31.31,114.56 31.46,114.53 31.6,114.5 31.75,114.47 31.9,114.45 32.06,114.41 
		32.21,114.38 32.36,114.34 32.51,114.31 32.65,114.27 32.8,114.23 32.95,114.19 33.1,114.15 33.26,114.11 33.41,114.07 
		33.56,114.02 33.7,113.97 33.85,113.93 34,113.88 34.15,113.82 34.3,113.77 34.46,113.72 34.61,113.66 34.75,113.6 34.9,113.54 
		35.05,113.47 35.2,113.41 35.35,113.34 35.5,113.28 35.66,113.21 35.8,113.14 35.95,113.06 36.1,112.98 36.25,112.9 36.4,112.82 
		36.55,112.73 36.7,112.64 36.85,112.55 37,112.45 37.15,112.35 37.3,112.25 37.45,112.15 37.6,112.05 37.75,111.94 37.89,111.83 
		38.05,111.71 38.2,111.6 38.35,111.47 38.5,111.35 38.65,111.22 38.8,111.08 38.94,110.96 39.09,110.82 39.25,110.68 39.4,110.53 
		39.55,110.38 39.7,110.22 39.85,110.06 39.99,109.9 40.14,109.74 40.29,109.57 40.45,109.39 40.6,109.22 40.75,109.03 40.9,108.84 
		41.04,108.66 41.19,108.46 41.34,108.26 41.49,108.06 41.65,107.85 41.8,107.63 41.94,107.42 42.09,107.2 42.09,115.17 
		41.94,115.17 41.8,115.17 41.65,115.17 41.49,115.17 41.34,115.17 41.19,115.17 41.04,115.17 40.9,115.17 40.75,115.17 
		40.6,115.17 40.45,115.17 40.29,115.17 40.14,115.17 39.99,115.17 39.85,115.17 39.7,115.17 39.55,115.17 39.4,115.17 
		39.25,115.17 39.09,115.17 38.94,115.17 38.8,115.17 38.65,115.17 38.5,115.17 38.35,115.17 38.2,115.17 38.05,115.17 
		37.89,115.17 37.75,115.17 37.6,115.17 37.45,115.17 37.3,115.17 37.15,115.17 37,115.17 36.85,115.17 36.7,115.17 36.55,115.17 
		36.4,115.17 36.25,115.17 36.1,115.17 35.95,115.17 35.8,115.17 35.66,115.17 35.5,115.17 35.35,115.17 35.2,115.17 35.05,115.17 
		34.9,115.17 34.75,115.17 34.61,115.17 34.46,115.17 34.3,115.17 34.15,115.17 34,115.17 33.85,115.17 33.7,115.17 33.56,115.17 
		33.41,115.17 33.26,115.17 33.1,115.17 32.95,115.17 32.8,115.17 32.65,115.17 32.51,115.17 32.36,115.17 32.21,115.17 
		32.06,115.17 31.9,115.17 31.75,115.17 31.6,115.17 31.46,115.17 31.31,115.17 31.16,115.17 31.01,115.17 30.86,115.17 
		30.7,115.17 30.56,115.17 30.41,115.17 30.26,115.17 30.11,115.17 29.96,115.17 29.81,115.17 29.66,115.17 29.51,115.17 
		29.36,115.17 29.21,115.17 29.06,115.17 28.91,115.17 28.76,115.17 28.61,115.17 28.47,115.17 28.31,115.17 28.16,115.17 
		28.01,115.17 27.86,115.17 27.71,115.17 27.56,115.17 27.42,115.17 27.27,115.17 27.11,115.17 26.96,115.17 26.81,115.17 
		26.66,115.17 26.51,115.17 26.37,115.17 26.22,115.17 26.07,115.17 25.91,115.17 25.76,115.17 25.61,115.17 25.46,115.17 
		25.32,115.17 25.17,115.17 25.02,115.17 24.87,115.17 24.71,115.17 24.56,115.17 24.41,115.17 24.27,115.17 	"/>
	<g class="st8">
		<defs>
			<rect id="SVGID_3_" x="20.47" y="59.78" width="83.5" height="55.67"/>
		</defs>
		<clipPath id="SVGID_4_" class="st9">
			<use xlink:href="#SVGID_3_"  style="overflow:visible;"/>
		</clipPath>
		<polyline class="st10" points="73.88,86.01 74.03,86.49 74.18,86.96 74.33,87.42 74.48,87.89 74.62,88.35 74.77,88.81 
			74.92,89.27 75.07,89.73 75.22,90.18 75.37,90.63 75.52,91.08 75.66,91.52 75.81,91.96 75.96,92.4 76.11,92.83 76.26,93.26 
			76.41,93.69 76.56,94.11 76.7,94.53 76.85,94.94 77,95.35 77.15,95.76 77.3,96.16 77.45,96.56 77.6,96.95 77.74,97.33 
			77.89,97.72 78.04,98.1 78.19,98.47 78.34,98.84 78.49,99.2 78.64,99.56 78.78,99.91 78.93,100.26 79.08,100.61 79.23,100.95 
			79.38,101.28 79.53,101.61 79.67,101.93 79.82,102.25 79.97,102.56 80.12,102.87 80.27,103.18 80.42,103.47 80.57,103.77 
			80.71,104.06 80.86,104.34 81.01,104.62 81.16,104.89 81.31,105.16 81.46,105.42 81.61,105.68 81.75,105.93 81.9,106.18 
			82.05,106.43 82.2,106.66 82.35,106.9 82.5,107.13 82.65,107.35 82.79,107.57 82.94,107.79 83.09,108 83.24,108.2 83.39,108.4 
			83.54,108.6 83.69,108.79 83.83,108.98 83.98,109.17 84.13,109.34 84.28,109.52 84.43,109.69 84.58,109.86 84.73,110.02 
			84.87,110.18 85.02,110.34 85.17,110.49 85.32,110.64 85.47,110.78 85.62,110.92 85.77,111.05 85.91,111.19 86.06,111.32 
			86.21,111.44 86.36,111.57 86.51,111.68 86.66,111.8 86.81,111.91 86.95,112.02 87.1,112.13 87.25,112.23 87.4,112.33 
			87.55,112.43 87.7,112.53 87.85,112.62 87.99,112.71 88.14,112.8 88.29,112.88 88.44,112.96 88.59,113.04 88.74,113.12 
			88.88,113.19 89.03,113.26 89.18,113.33 89.33,113.4 89.48,113.46 89.63,113.53 89.78,113.59 89.92,113.65 90.07,113.71 
			90.22,113.76 90.37,113.81 90.52,113.87 90.67,113.92 90.82,113.96 90.96,114.01 91.11,114.06 91.26,114.1 91.41,114.14 
			91.56,114.18 91.71,114.22 91.86,114.26 92,114.3 92.15,114.33 92.3,114.37 92.45,114.4 92.6,114.44 92.75,114.47 92.9,114.5 
			93.04,114.53 93.19,114.56 93.34,114.59 93.49,114.62 93.64,114.65 93.79,114.68 93.94,114.7 94.08,114.73 94.23,114.76 
			94.38,114.78 94.53,114.8 94.68,114.83 94.83,114.85 94.98,114.87 95.12,114.89 95.27,114.91 95.42,114.93 95.57,114.95 
			95.72,114.97 95.87,114.99 96.02,115 96.16,115.02 96.31,115.03 96.46,115.04 96.61,115.06 96.76,115.07 96.91,115.08 
			97.06,115.09 97.2,115.1 97.35,115.1 97.5,115.11 97.65,115.12 97.8,115.12 97.95,115.13 98.09,115.13 98.24,115.14 98.39,115.14 
			98.54,115.15 98.69,115.15 98.84,115.15 98.99,115.15 99.13,115.16 99.28,115.16 99.43,115.16 99.58,115.16 99.73,115.16 
			99.88,115.16 100.03,115.16 100.17,115.16 100.17,115.17 100.03,115.17 99.88,115.17 99.73,115.17 99.58,115.17 99.43,115.17 
			99.28,115.17 99.13,115.17 98.99,115.17 98.84,115.17 98.69,115.17 98.54,115.17 98.39,115.17 98.24,115.17 98.09,115.17 
			97.95,115.17 97.8,115.17 97.65,115.17 97.5,115.17 97.35,115.17 97.2,115.17 97.06,115.17 96.91,115.17 96.76,115.17 
			96.61,115.17 96.46,115.17 96.31,115.17 96.16,115.17 96.02,115.17 95.87,115.17 95.72,115.17 95.57,115.17 95.42,115.17 
			95.27,115.17 95.12,115.17 94.98,115.17 94.83,115.17 94.68,115.17 94.53,115.17 94.38,115.17 94.23,115.17 94.08,115.17 
			93.94,115.17 93.79,115.17 93.64,115.17 93.49,115.17 93.34,115.17 93.19,115.17 93.04,115.17 92.9,115.17 92.75,115.17 
			92.6,115.17 92.45,115.17 92.3,115.17 92.15,115.17 92,115.17 91.86,115.17 91.71,115.17 91.56,115.17 91.41,115.17 91.26,115.17 
			91.11,115.17 90.96,115.17 90.82,115.17 90.67,115.17 90.52,115.17 90.37,115.17 90.22,115.17 90.07,115.17 89.92,115.17 
			89.78,115.17 89.63,115.17 89.48,115.17 89.33,115.17 89.18,115.17 89.03,115.17 88.88,115.17 88.74,115.17 88.59,115.17 
			88.44,115.17 88.29,115.17 88.14,115.17 87.99,115.17 87.85,115.17 87.7,115.17 87.55,115.17 87.4,115.17 87.25,115.17 
			87.1,115.17 86.95,115.17 86.81,115.17 86.66,115.17 86.51,115.17 86.36,115.17 86.21,115.17 86.06,115.17 85.91,115.17 
			85.77,115.17 85.62,115.17 85.47,115.17 85.32,115.17 85.17,115.17 85.02,115.17 84.87,115.17 84.73,115.17 84.58,115.17 
			84.43,115.17 84.28,115.17 84.13,115.17 83.98,115.17 83.83,115.17 83.69,115.17 83.54,115.17 83.39,115.17 83.24,115.17 
			83.09,115.17 82.94,115.17 82.79,115.17 82.65,115.17 82.5,115.17 82.35,115.17 82.2,115.17 82.05,115.17 81.9,115.17 
			81.75,115.17 81.61,115.17 81.46,115.17 81.31,115.17 81.16,115.17 81.01,115.17 80.86,115.17 80.71,115.17 80.57,115.17 
			80.42,115.17 80.27,115.17 80.12,115.17 79.97,115.17 79.82,115.17 79.67,115.17 79.53,115.17 79.38,115.17 79.23,115.17 
			79.08,115.17 78.93,115.17 78.78,115.17 78.64,115.17 78.49,115.17 78.34,115.17 78.19,115.17 78.04,115.17 77.89,115.17 
			77.74,115.17 77.6,115.17 77.45,115.17 77.3,115.17 77.15,115.17 77,115.17 76.85,115.17 76.7,115.17 76.56,115.17 76.41,115.17 
			76.26,115.17 76.11,115.17 75.96,115.17 75.81,115.17 75.66,115.17 75.52,115.17 75.37,115.17 75.22,115.17 75.07,115.17 
			74.92,115.17 74.77,115.17 74.62,115.17 74.48,115.17 74.33,115.17 74.18,115.17 74.03,115.17 73.88,115.17 		"/>
	</g>
	<line class="st11" x1="42.06" y1="115.45" x2="42.06" y2="59.78"/>
	<line class="st11" x1="50.56" y1="115.26" x2="50.56" y2="59.59"/>
</g>
<g>
	<ellipse cx="61.6" cy="85.61" rx="1.69" ry="1.97"/>
	<g>
		<ellipse class="st0" cx="61.6" cy="86.87" rx="1" ry="0.55"/>
		<path class="st1" d="M61.6,86.31c-0.55,0-1,0.25-1,0.55c0,0.31,0.45,0.55,1,0.55s1-0.25,1-0.55C62.6,86.56,62.15,86.31,61.6,86.31
			L61.6,86.31z"/>
	</g>
	<path d="M56.19,77.84c0.03-0.21,0.05-0.43,0.09-0.64c0.16-0.88,0.5-1.68,1.18-2.29c0.52-0.46,1.13-0.69,1.83-0.63
		c0.76,0.06,1.38,0.42,1.91,0.95c0.24,0.24,0.45,0.53,0.68,0.8c0.02-0.03,0.05-0.07,0.08-0.11c0.34-0.51,0.76-0.94,1.29-1.25
		c0.65-0.38,1.34-0.51,2.07-0.29c0.59,0.18,1.05,0.55,1.4,1.04c0.5,0.7,0.73,1.49,0.79,2.34c0.08,1.06-0.12,2.07-0.58,3.03
		c-0.37,0.77-0.88,1.41-1.61,1.87c-1.12,0.71-2.49,0.5-3.35-0.51c-0.04-0.04-0.07-0.08-0.12-0.14c-0.05,0.06-0.09,0.11-0.14,0.16
		c-0.41,0.46-0.91,0.77-1.52,0.87c-0.64,0.1-1.23-0.04-1.78-0.37c-0.74-0.45-1.25-1.1-1.63-1.87c-0.34-0.7-0.53-1.44-0.58-2.22
		c0-0.03-0.01-0.06-0.02-0.08C56.19,78.27,56.19,78.06,56.19,77.84z M61.6,79.24c0.02,0.2,0.04,0.49,0.09,0.78
		c0.12,0.69,0.37,1.32,0.87,1.83c0.57,0.59,1.39,0.75,2.14,0.42c0.55-0.24,0.98-0.64,1.31-1.13c0.82-1.23,1.08-2.58,0.79-4.03
		c-0.13-0.66-0.41-1.25-0.91-1.71c-0.46-0.42-1-0.6-1.62-0.48c-0.59,0.11-1.06,0.44-1.45,0.88C61.98,76.75,61.64,77.89,61.6,79.24z
		 M61.12,80.39c0.06,1.03-0.84,1.57-1.42,1.49c0.13-0.16,0.12-0.29-0.04-0.43c-0.12-0.1-0.27-0.16-0.43-0.16
		c-0.08,0-0.18,0.01-0.24,0.05c-0.07,0.04-0.11,0.12-0.16,0.19c-0.37-0.27-0.56-0.87-0.42-1.39c0.15-0.54,0.63-0.96,1.18-1.01
		c0.57-0.05,1.19,0.23,1.47,0.92 M61.06,80.07c0-0.03-0.01-0.05-0.01-0.08c-0.08-0.5-0.08-0.99-0.03-1.49
		c0.06-0.6,0.22-1.19,0.46-1.75c0.02-0.04,0.02-0.1,0-0.13c-0.25-0.47-0.57-0.89-0.99-1.22c-0.4-0.31-0.84-0.52-1.36-0.52
		c-0.72,0-1.25,0.36-1.66,0.93c-0.46,0.66-0.64,1.4-0.66,2.19c-0.03,0.87,0.14,1.71,0.53,2.5c0.34,0.69,0.8,1.29,1.48,1.67
		c0.43,0.24,0.88,0.34,1.37,0.23c0.56-0.12,0.97-0.47,1.28-0.93c0.02-0.02,0.01-0.08,0-0.11c-0.08-0.22-0.17-0.44-0.26-0.66
		c-0.04-0.1-0.06-0.21-0.09-0.32 M60.2,80.11c0.04,0,0.06,0,0.09,0c0.12-0.02,0.23-0.06,0.27-0.18c0.04-0.12-0.02-0.22-0.11-0.29
		c-0.17-0.15-0.37-0.21-0.59-0.15c-0.23,0.06-0.29,0.25-0.13,0.43C59.86,80.04,60.03,80.1,60.2,80.11z"/>
	<path d="M63.32,81.89c-0.66,0.04-1.27-0.44-1.4-1.1c-0.13-0.67,0.24-1.33,0.88-1.57c0.64-0.23,1.36,0.04,1.68,0.63
		c0.31,0.57,0.17,1.33-0.3,1.68c-0.05-0.06-0.09-0.14-0.15-0.18c-0.06-0.04-0.15-0.06-0.23-0.06c-0.17-0.01-0.32,0.05-0.45,0.16
		C63.19,81.59,63.18,81.72,63.32,81.89z M62.83,80.1c0.16-0.01,0.34-0.07,0.47-0.22c0.13-0.16,0.08-0.34-0.12-0.4
		c-0.2-0.06-0.38-0.02-0.55,0.09c-0.15,0.09-0.22,0.23-0.18,0.35C62.48,80.03,62.61,80.1,62.83,80.1z"/>
	<path d="M65.54,71.41c-0.62-0.01-1.42,0.11-2.19,0.38c-0.34,0.12-0.67,0.27-0.94,0.51c-0.08,0.07-0.15,0.16-0.2,0.26
		c-0.05,0.11,0,0.19,0.13,0.2c0.11,0,0.23-0.01,0.34-0.03c0.51-0.12,1.02-0.25,1.54-0.36c0.6-0.13,1.21-0.22,1.83-0.2
		c0.76,0.02,1.49,0.16,2.2,0.43c0.17,0.06,0.34,0.12,0.5,0.18c0.04,0.01,0.08,0.02,0.13,0.03c0.15,0.01,0.24-0.11,0.19-0.26
		c-0.05-0.12-0.14-0.21-0.24-0.28c-0.31-0.24-0.67-0.4-1.04-0.52C67.13,71.52,66.44,71.42,65.54,71.41z"/>
	<path d="M58.35,73.23c0.72,0.01,1.43,0.15,2.12,0.42c0.1,0.04,0.2,0.07,0.3,0.1c0.06,0.02,0.13,0.02,0.18-0.04
		c0.05-0.07,0.05-0.15,0-0.21c-0.08-0.09-0.16-0.18-0.25-0.25c-0.34-0.24-0.73-0.38-1.13-0.48c-1.07-0.26-2.13-0.24-3.19,0.09
		c-0.33,0.11-0.65,0.24-0.93,0.47c-0.06,0.05-0.12,0.12-0.16,0.19c-0.07,0.12-0.01,0.21,0.12,0.2c0.19-0.02,0.38-0.05,0.56-0.09
		c0.41-0.09,0.81-0.2,1.21-0.28C57.55,73.27,57.94,73.23,58.35,73.23z"/>
</g>
</svg>
